M48
;Layer_Color=9474304
;FILE_FORMAT=2:5
INCH,LZ
;TYPE=PLATED
T01F00S00C0.02559
T02F00S00C0.02756
T04F00S00C0.03346
T05F00S00C0.03543
T06F00S00C0.09843
%
T01
X0228346Y0202598
Y0222598
T02
X0197244Y013937
Y0147244
Y0155118
T04
X0091378Y0217723
X0104174Y0223628
X0118347Y0228156
X0104882Y0265151
X0090708Y0260624
X0077913Y0254718
T05
X0141063Y0019527
Y0029527
X0122795Y0095236
X0112795
X0102795
Y0125236
X0112795
X0122795
X0101378Y0176181
X0029599Y0140348
X0019599
X0064242Y005886
X0057171Y0051789
X0132795Y0095236
X0142795
X0152795
X0162795
X0172795
Y0125236
X0162795
X0152795
X0142795
X0132795
X0180118Y0176181
X0185787Y0196614
X0195787
X0205787
X0215787
X0246064Y0140348
X0256064
X0216851Y0062976
X0223922Y0055905
X0215787Y0226614
X0205787
X0195787
X0185787
X0141063Y0245993
Y0255993
X0063786Y021604
X0056715Y0223111
T06
X0137795Y0266732
M30
