G04*
G04 #@! TF.GenerationSoftware,Altium Limited,Altium Designer,25.1.2 (22)*
G04*
G04 Layer_Color=8388736*
%FSLAX25Y25*%
%MOIN*%
G70*
G04*
G04 #@! TF.SameCoordinates,1F9D3A5C-45A7-463C-8666-355E490B88AF*
G04*
G04*
G04 #@! TF.FilePolarity,Positive*
G04*
G01*
G75*
%ADD11C,0.01000*%
%ADD42C,0.00984*%
%ADD43C,0.00025*%
%ADD44C,0.00600*%
D11*
X-19685Y275591D02*
X-17685Y269591D01*
X-21685D02*
X-19685Y275591D01*
X-21685Y6000D02*
X-19685Y0D01*
X-17685Y6000D01*
X-19685Y151291D02*
Y275591D01*
Y0D02*
Y121100D01*
X-20685Y275591D02*
X121547D01*
X-20685Y0D02*
X121547D01*
X0Y-19685D02*
X6000Y-17685D01*
X0Y-19685D02*
X6000Y-21685D01*
X269591D02*
X275591Y-19685D01*
X269591Y-17685D02*
X275591Y-19685D01*
X0D02*
X121100D01*
X151291D02*
X275591D01*
X0Y-20685D02*
Y121547D01*
X275591Y-20685D02*
Y121547D01*
Y137795D02*
G03*
X275591Y137795I-137795J0D01*
G01*
D42*
X-280512Y-208661D02*
X-278544D01*
X-279528D01*
Y-202758D01*
X-280512Y-203742D01*
X-275592Y-208661D02*
Y-207678D01*
X-274608D01*
Y-208661D01*
X-275592D01*
X-266737Y-202758D02*
X-268705Y-203742D01*
X-270672Y-205710D01*
Y-207678D01*
X-269689Y-208661D01*
X-267721D01*
X-266737Y-207678D01*
Y-206694D01*
X-267721Y-205710D01*
X-270672D01*
X-264769Y-208661D02*
Y-204726D01*
X-263785D01*
X-262801Y-205710D01*
Y-208661D01*
Y-205710D01*
X-261817Y-204726D01*
X-260833Y-205710D01*
Y-208661D01*
X-258865D02*
Y-204726D01*
X-257881D01*
X-256897Y-205710D01*
Y-208661D01*
Y-205710D01*
X-255913Y-204726D01*
X-254930Y-205710D01*
Y-208661D01*
X-247058Y-202758D02*
X-243122D01*
X-245090D01*
Y-208661D01*
X-241155Y-202758D02*
Y-208661D01*
Y-205710D01*
X-240171Y-204726D01*
X-238203D01*
X-237219Y-205710D01*
Y-208661D01*
X-235251D02*
X-233283D01*
X-234267D01*
Y-204726D01*
X-235251D01*
X-226396D02*
X-229347D01*
X-230331Y-205710D01*
Y-207678D01*
X-229347Y-208661D01*
X-226396D01*
X-224428D02*
Y-202758D01*
Y-206694D02*
X-221476Y-204726D01*
X-224428Y-206694D02*
X-221476Y-208661D01*
X-218524D02*
Y-204726D01*
X-215572D01*
X-214588Y-205710D01*
Y-208661D01*
X-209669D02*
X-211636D01*
X-212620Y-207678D01*
Y-205710D01*
X-211636Y-204726D01*
X-209669D01*
X-208685Y-205710D01*
Y-206694D01*
X-212620D01*
X-206717Y-208661D02*
X-203765D01*
X-202781Y-207678D01*
X-203765Y-206694D01*
X-205733D01*
X-206717Y-205710D01*
X-205733Y-204726D01*
X-202781D01*
X-200813Y-208661D02*
X-197861D01*
X-196878Y-207678D01*
X-197861Y-206694D01*
X-199829D01*
X-200813Y-205710D01*
X-199829Y-204726D01*
X-196878D01*
X-280512Y-179136D02*
Y-185039D01*
X-278544Y-183071D01*
X-276576Y-185039D01*
Y-179136D01*
X-274608D02*
Y-185039D01*
Y-182088D01*
X-273624Y-181104D01*
X-271656D01*
X-270672Y-182088D01*
Y-185039D01*
X-268705D02*
X-266737D01*
X-267721D01*
Y-181104D01*
X-268705D01*
X-262801Y-180120D02*
Y-181104D01*
X-263785D01*
X-261817D01*
X-262801D01*
Y-184055D01*
X-261817Y-185039D01*
X-255913D02*
X-257881D01*
X-258865Y-184055D01*
Y-182088D01*
X-257881Y-181104D01*
X-255913D01*
X-254930Y-182088D01*
Y-183071D01*
X-258865D01*
X-243122Y-180120D02*
X-244106Y-179136D01*
X-246074D01*
X-247058Y-180120D01*
Y-181104D01*
X-246074Y-182088D01*
X-244106D01*
X-243122Y-183071D01*
Y-184055D01*
X-244106Y-185039D01*
X-246074D01*
X-247058Y-184055D01*
X-241155Y-185039D02*
X-239187D01*
X-240171D01*
Y-181104D01*
X-241155D01*
X-236235Y-185039D02*
X-234267D01*
X-235251D01*
Y-179136D01*
X-236235D01*
X-231315Y-185039D02*
Y-179136D01*
Y-183071D02*
X-228363Y-181104D01*
X-231315Y-183071D02*
X-228363Y-185039D01*
X-225412D02*
X-222460D01*
X-221476Y-184055D01*
X-222460Y-183071D01*
X-224428D01*
X-225412Y-182088D01*
X-224428Y-181104D01*
X-221476D01*
X-215572D02*
X-218524D01*
X-219508Y-182088D01*
Y-184055D01*
X-218524Y-185039D01*
X-215572D01*
X-213604Y-181104D02*
Y-185039D01*
Y-183071D01*
X-212620Y-182088D01*
X-211636Y-181104D01*
X-210652D01*
X-204749Y-185039D02*
X-206717D01*
X-207701Y-184055D01*
Y-182088D01*
X-206717Y-181104D01*
X-204749D01*
X-203765Y-182088D01*
Y-183071D01*
X-207701D01*
X-198845Y-185039D02*
X-200813D01*
X-201797Y-184055D01*
Y-182088D01*
X-200813Y-181104D01*
X-198845D01*
X-197861Y-182088D01*
Y-183071D01*
X-201797D01*
X-195894Y-185039D02*
Y-181104D01*
X-192942D01*
X-191958Y-182088D01*
Y-185039D01*
X-280512Y-167325D02*
Y-173228D01*
X-277560D01*
X-276576Y-172244D01*
Y-171260D01*
X-277560Y-170276D01*
X-280512D01*
X-277560D01*
X-276576Y-169293D01*
Y-168309D01*
X-277560Y-167325D01*
X-280512D01*
X-274608Y-173228D02*
X-272640D01*
X-273624D01*
Y-167325D01*
X-274608D01*
X-269689Y-169293D02*
Y-172244D01*
X-268705Y-173228D01*
X-265753D01*
Y-169293D01*
X-260833Y-173228D02*
X-262801D01*
X-263785Y-172244D01*
Y-170276D01*
X-262801Y-169293D01*
X-260833D01*
X-259849Y-170276D01*
Y-171260D01*
X-263785D01*
X-248042Y-168309D02*
X-249026Y-167325D01*
X-250994D01*
X-251978Y-168309D01*
Y-169293D01*
X-250994Y-170276D01*
X-249026D01*
X-248042Y-171260D01*
Y-172244D01*
X-249026Y-173228D01*
X-250994D01*
X-251978Y-172244D01*
X-245090Y-173228D02*
X-243122D01*
X-242138Y-172244D01*
Y-170276D01*
X-243122Y-169293D01*
X-245090D01*
X-246074Y-170276D01*
Y-172244D01*
X-245090Y-173228D01*
X-240171D02*
X-238203D01*
X-239187D01*
Y-167325D01*
X-240171D01*
X-231315D02*
Y-173228D01*
X-234267D01*
X-235251Y-172244D01*
Y-170276D01*
X-234267Y-169293D01*
X-231315D01*
X-226396Y-173228D02*
X-228363D01*
X-229347Y-172244D01*
Y-170276D01*
X-228363Y-169293D01*
X-226396D01*
X-225412Y-170276D01*
Y-171260D01*
X-229347D01*
X-223444Y-169293D02*
Y-173228D01*
Y-171260D01*
X-222460Y-170276D01*
X-221476Y-169293D01*
X-220492D01*
X-211636Y-173228D02*
Y-167325D01*
X-209669Y-169293D01*
X-207701Y-167325D01*
Y-173228D01*
X-204749Y-169293D02*
X-202781D01*
X-201797Y-170276D01*
Y-173228D01*
X-204749D01*
X-205733Y-172244D01*
X-204749Y-171260D01*
X-201797D01*
X-199829Y-173228D02*
X-196878D01*
X-195894Y-172244D01*
X-196878Y-171260D01*
X-198845D01*
X-199829Y-170276D01*
X-198845Y-169293D01*
X-195894D01*
X-193926Y-173228D02*
Y-167325D01*
Y-171260D02*
X-190974Y-169293D01*
X-193926Y-171260D02*
X-190974Y-173228D01*
D43*
X0Y137795D02*
G03*
X137795Y-0I137796J0D01*
G01*
X137795Y275588D02*
G03*
X0Y137795I-2J-137794D01*
G01*
D44*
X-22084Y122700D02*
Y126698D01*
X-21084D01*
X-17086Y122700D01*
X-16086D01*
X-21084Y128698D02*
X-22084Y129697D01*
Y131697D01*
X-21084Y132696D01*
X-17086D01*
X-16086Y131697D01*
Y129697D01*
X-17086Y128698D01*
X-21084D01*
X-16086Y134696D02*
X-17086D01*
Y135695D01*
X-16086D01*
Y134696D01*
X-21084Y139694D02*
X-22084Y140694D01*
Y142693D01*
X-21084Y143693D01*
X-17086D01*
X-16086Y142693D01*
Y140694D01*
X-17086Y139694D01*
X-21084D01*
Y145692D02*
X-22084Y146692D01*
Y148691D01*
X-21084Y149691D01*
X-17086D01*
X-16086Y148691D01*
Y146692D01*
X-17086Y145692D01*
X-21084D01*
X122700Y-17286D02*
X126698D01*
Y-18286D01*
X122700Y-22284D01*
Y-23284D01*
X128698Y-18286D02*
X129697Y-17286D01*
X131697D01*
X132696Y-18286D01*
Y-22284D01*
X131697Y-23284D01*
X129697D01*
X128698Y-22284D01*
Y-18286D01*
X134696Y-23284D02*
Y-22284D01*
X135695D01*
Y-23284D01*
X134696D01*
X139694Y-18286D02*
X140694Y-17286D01*
X142693D01*
X143693Y-18286D01*
Y-22284D01*
X142693Y-23284D01*
X140694D01*
X139694Y-22284D01*
Y-18286D01*
X145692D02*
X146692Y-17286D01*
X148691D01*
X149691Y-18286D01*
Y-22284D01*
X148691Y-23284D01*
X146692D01*
X145692Y-22284D01*
Y-18286D01*
M02*
