G04*
G04 #@! TF.GenerationSoftware,Altium Limited,Altium Designer,25.1.2 (22)*
G04*
G04 Layer_Physical_Order=2*
G04 Layer_Color=3381759*
%FSLAX25Y25*%
%MOIN*%
G70*
G04*
G04 #@! TF.SameCoordinates,1F9D3A5C-45A7-463C-8666-355E490B88AF*
G04*
G04*
G04 #@! TF.FilePolarity,Positive*
G04*
G01*
G75*
%ADD10C,0.00787*%
%ADD11C,0.01000*%
%ADD13C,0.05512*%
G04:AMPARAMS|DCode=27|XSize=51.18mil|YSize=51.18mil|CornerRadius=12.8mil|HoleSize=0mil|Usage=FLASHONLY|Rotation=270.000|XOffset=0mil|YOffset=0mil|HoleType=Round|Shape=RoundedRectangle|*
%AMROUNDEDRECTD27*
21,1,0.05118,0.02559,0,0,270.0*
21,1,0.02559,0.05118,0,0,270.0*
1,1,0.02559,-0.01280,-0.01280*
1,1,0.02559,-0.01280,0.01280*
1,1,0.02559,0.01280,0.01280*
1,1,0.02559,0.01280,-0.01280*
%
%ADD27ROUNDEDRECTD27*%
%ADD28C,0.05118*%
G04:AMPARAMS|DCode=29|XSize=86.61mil|YSize=47.24mil|CornerRadius=11.81mil|HoleSize=0mil|Usage=FLASHONLY|Rotation=180.000|XOffset=0mil|YOffset=0mil|HoleType=Round|Shape=RoundedRectangle|*
%AMROUNDEDRECTD29*
21,1,0.08661,0.02362,0,0,180.0*
21,1,0.06299,0.04724,0,0,180.0*
1,1,0.02362,-0.03150,0.01181*
1,1,0.02362,0.03150,0.01181*
1,1,0.02362,0.03150,-0.01181*
1,1,0.02362,-0.03150,-0.01181*
%
%ADD29ROUNDEDRECTD29*%
%ADD30O,0.13780X0.12598*%
%ADD31C,0.06299*%
%ADD32C,0.05906*%
%ADD33R,0.05906X0.05906*%
G04:AMPARAMS|DCode=34|XSize=39.37mil|YSize=39.37mil|CornerRadius=9.84mil|HoleSize=0mil|Usage=FLASHONLY|Rotation=270.000|XOffset=0mil|YOffset=0mil|HoleType=Round|Shape=RoundedRectangle|*
%AMROUNDEDRECTD34*
21,1,0.03937,0.01968,0,0,270.0*
21,1,0.01968,0.03937,0,0,270.0*
1,1,0.01968,-0.00984,-0.00984*
1,1,0.01968,-0.00984,0.00984*
1,1,0.01968,0.00984,0.00984*
1,1,0.01968,0.00984,-0.00984*
%
%ADD34ROUNDEDRECTD34*%
%ADD35R,0.03937X0.03937*%
%ADD36C,0.06000*%
G04:AMPARAMS|DCode=37|XSize=60mil|YSize=60mil|CornerRadius=15mil|HoleSize=0mil|Usage=FLASHONLY|Rotation=0.000|XOffset=0mil|YOffset=0mil|HoleType=Round|Shape=RoundedRectangle|*
%AMROUNDEDRECTD37*
21,1,0.06000,0.03000,0,0,0.0*
21,1,0.03000,0.06000,0,0,0.0*
1,1,0.03000,0.01500,-0.01500*
1,1,0.03000,-0.01500,-0.01500*
1,1,0.03000,-0.01500,0.01500*
1,1,0.03000,0.01500,0.01500*
%
%ADD37ROUNDEDRECTD37*%
G04:AMPARAMS|DCode=38|XSize=60mil|YSize=60mil|CornerRadius=15mil|HoleSize=0mil|Usage=FLASHONLY|Rotation=315.000|XOffset=0mil|YOffset=0mil|HoleType=Round|Shape=RoundedRectangle|*
%AMROUNDEDRECTD38*
21,1,0.06000,0.03000,0,0,315.0*
21,1,0.03000,0.06000,0,0,315.0*
1,1,0.03000,0.00000,-0.02121*
1,1,0.03000,-0.02121,0.00000*
1,1,0.03000,0.00000,0.02121*
1,1,0.03000,0.02121,0.00000*
%
%ADD38ROUNDEDRECTD38*%
G04:AMPARAMS|DCode=39|XSize=60mil|YSize=60mil|CornerRadius=15mil|HoleSize=0mil|Usage=FLASHONLY|Rotation=270.000|XOffset=0mil|YOffset=0mil|HoleType=Round|Shape=RoundedRectangle|*
%AMROUNDEDRECTD39*
21,1,0.06000,0.03000,0,0,270.0*
21,1,0.03000,0.06000,0,0,270.0*
1,1,0.03000,-0.01500,-0.01500*
1,1,0.03000,-0.01500,0.01500*
1,1,0.03000,0.01500,0.01500*
1,1,0.03000,0.01500,-0.01500*
%
%ADD39ROUNDEDRECTD39*%
G04:AMPARAMS|DCode=40|XSize=60mil|YSize=60mil|CornerRadius=15mil|HoleSize=0mil|Usage=FLASHONLY|Rotation=225.000|XOffset=0mil|YOffset=0mil|HoleType=Round|Shape=RoundedRectangle|*
%AMROUNDEDRECTD40*
21,1,0.06000,0.03000,0,0,225.0*
21,1,0.03000,0.06000,0,0,225.0*
1,1,0.03000,-0.02121,0.00000*
1,1,0.03000,0.00000,0.02121*
1,1,0.03000,0.02121,0.00000*
1,1,0.03000,0.00000,-0.02121*
%
%ADD40ROUNDEDRECTD40*%
%ADD41C,0.01968*%
G36*
X106378Y262838D02*
X106064Y262624D01*
X105535Y262200D01*
X105320Y261989D01*
X105138Y261780D01*
X104989Y261571D01*
X104873Y261364D01*
X104791Y261157D01*
X104741Y260951D01*
X104724Y260747D01*
X103937Y260909D01*
X103924Y261065D01*
X103883Y261246D01*
X103816Y261453D01*
X103723Y261685D01*
X103602Y261943D01*
X103281Y262533D01*
X102852Y263225D01*
X102598Y263609D01*
X106378Y262838D01*
D02*
G37*
G36*
X92458Y258466D02*
X92297Y258269D01*
X92155Y258063D01*
X92033Y257850D01*
X91929Y257628D01*
X91844Y257398D01*
X91777Y257160D01*
X91730Y256913D01*
X91702Y256659D01*
X91693Y256396D01*
X89724D01*
X89715Y256659D01*
X89686Y256913D01*
X89639Y257160D01*
X89573Y257398D01*
X89488Y257628D01*
X89384Y257850D01*
X89261Y258063D01*
X89119Y258269D01*
X88959Y258466D01*
X88779Y258656D01*
X92637D01*
X92458Y258466D01*
D02*
G37*
G36*
X133505Y274353D02*
X133202Y272851D01*
X133139Y272818D01*
X132030Y271907D01*
X131120Y270798D01*
X130443Y269533D01*
X130027Y268160D01*
X129886Y266732D01*
X130027Y265304D01*
X130443Y263931D01*
X131120Y262666D01*
X132030Y261557D01*
X133139Y260647D01*
X133633Y260383D01*
X134007Y258922D01*
X133996Y258894D01*
X133952Y258829D01*
X133759Y257859D01*
Y254859D01*
X133952Y253890D01*
X134501Y253068D01*
X135323Y252519D01*
X136292Y252326D01*
X136302D01*
X136457Y251145D01*
X135875Y250989D01*
X134742Y250335D01*
X133817Y249410D01*
X133162Y248277D01*
X132824Y247013D01*
Y246753D01*
X137792D01*
X142761D01*
Y247013D01*
X142497Y247997D01*
X143501Y248664D01*
X148891Y243274D01*
X148885Y243268D01*
X150247Y242105D01*
X150811Y241759D01*
X150478Y240578D01*
X139977D01*
X139710Y241729D01*
X140843Y242384D01*
X141768Y243309D01*
X142422Y244442D01*
X142761Y245705D01*
Y245966D01*
X137792D01*
X132824D01*
Y245705D01*
X133162Y244442D01*
X133817Y243309D01*
X134742Y242384D01*
X135875Y241729D01*
X135608Y240578D01*
X132719D01*
Y240586D01*
X130934Y240446D01*
X129192Y240028D01*
X127538Y239342D01*
X126011Y238407D01*
X124649Y237244D01*
X124655Y237238D01*
X119304Y231887D01*
X119072Y231826D01*
X118511Y231925D01*
X117530Y231839D01*
X116605Y231502D01*
X115798Y230937D01*
X115165Y230183D01*
X114749Y229290D01*
X114578Y228320D01*
X114664Y227339D01*
X115001Y226414D01*
X115140Y226214D01*
X114526Y225033D01*
X107712D01*
X107626Y225092D01*
X107619Y225097D01*
X107520Y225370D01*
X106955Y226177D01*
X106201Y226810D01*
X105818Y226988D01*
X105787Y227030D01*
X105736Y227111D01*
Y261482D01*
X106623Y261805D01*
X107430Y262370D01*
X108063Y263124D01*
X108479Y264017D01*
X108650Y264987D01*
X108564Y265968D01*
X108228Y266893D01*
X107663Y267700D01*
X106908Y268333D01*
X106016Y268749D01*
X105046Y268920D01*
X104065Y268834D01*
X103140Y268498D01*
X102333Y267933D01*
X101700Y267178D01*
X101284Y266286D01*
X101113Y265316D01*
X101198Y264335D01*
X101535Y263409D01*
X102100Y262603D01*
X102855Y261970D01*
X102861Y261967D01*
X102926Y261848D01*
Y227213D01*
X102867Y227133D01*
X102432Y226974D01*
X101625Y226409D01*
X100992Y225655D01*
X100576Y224763D01*
X100405Y223793D01*
X100491Y222812D01*
X100827Y221886D01*
X100934Y221734D01*
X100128Y220825D01*
X100080Y220851D01*
X98936Y221790D01*
X98884Y221868D01*
X95056Y225695D01*
X94979Y225747D01*
X94040Y226891D01*
X93299Y228278D01*
X92842Y229783D01*
X92697Y231256D01*
X92715Y231347D01*
Y257463D01*
X93257Y257842D01*
X93890Y258597D01*
X94306Y259489D01*
X94477Y260459D01*
X94391Y261440D01*
X94054Y262366D01*
X93490Y263173D01*
X92735Y263806D01*
X91843Y264222D01*
X90873Y264393D01*
X89892Y264307D01*
X88966Y263970D01*
X88160Y263405D01*
X87527Y262651D01*
X87110Y261758D01*
X86939Y260788D01*
X87025Y259807D01*
X87362Y258882D01*
X87927Y258075D01*
X88681Y257442D01*
X88701Y257433D01*
Y231347D01*
X88704Y231334D01*
X88851Y229469D01*
X89290Y227637D01*
X90011Y225897D01*
X90996Y224291D01*
X92211Y222868D01*
X92218Y222857D01*
X92564Y222511D01*
X91992Y221412D01*
X91543Y221491D01*
X90562Y221406D01*
X89636Y221069D01*
X88830Y220504D01*
X88197Y219749D01*
X87780Y218857D01*
X87609Y217887D01*
X87695Y216906D01*
X88032Y215981D01*
X88597Y215174D01*
X89351Y214541D01*
X90244Y214125D01*
X91214Y213954D01*
X92195Y214040D01*
X93120Y214376D01*
X93927Y214941D01*
X94560Y215696D01*
X94976Y216588D01*
X95147Y217558D01*
X95080Y218324D01*
X95728Y218820D01*
X96170Y218925D01*
X97479Y217807D01*
X99085Y216823D01*
X100826Y216102D01*
X102658Y215662D01*
X104523Y215515D01*
X104536Y215513D01*
X123811D01*
X123824Y215515D01*
X125689Y215662D01*
X127521Y216102D01*
X129261Y216823D01*
X130867Y217807D01*
X132290Y219022D01*
X132301Y219029D01*
X136262Y222990D01*
X136324Y223083D01*
X137387Y223899D01*
X138727Y224454D01*
X140056Y224629D01*
X140165Y224607D01*
X182400D01*
X182637Y224197D01*
X183370Y223464D01*
X183780Y223227D01*
Y216204D01*
X183796Y216124D01*
X183664Y214781D01*
X183249Y213414D01*
X182575Y212153D01*
X181719Y211110D01*
X181652Y211065D01*
X181628Y211041D01*
X181621Y211030D01*
X180405Y209607D01*
X179421Y208001D01*
X178700Y206261D01*
X178260Y204429D01*
X178113Y202551D01*
X178111D01*
X178169Y202260D01*
X178111Y201969D01*
Y185472D01*
X140363D01*
X140350Y185469D01*
X138485Y185322D01*
X136653Y184882D01*
X134912Y184162D01*
X133306Y183177D01*
X131883Y181962D01*
X131872Y181955D01*
X104305Y154387D01*
X104298Y154376D01*
X103083Y152954D01*
X102098Y151348D01*
X101377Y149607D01*
X100938Y147775D01*
X100791Y145910D01*
X100788Y145897D01*
Y128623D01*
X100378Y128387D01*
X99645Y127654D01*
X99127Y126756D01*
X98858Y125754D01*
Y124718D01*
X99127Y123717D01*
X99645Y122819D01*
X100378Y122086D01*
X101276Y121567D01*
X102277Y121299D01*
X103314D01*
X104315Y121567D01*
X105128Y122037D01*
X105277Y122064D01*
X106429Y121678D01*
X107114Y120024D01*
X108050Y118497D01*
X109213Y117135D01*
X109219Y117141D01*
X118873Y107487D01*
X118926Y107451D01*
X119957Y106194D01*
X120753Y104705D01*
X121243Y103089D01*
X121403Y101471D01*
X121390Y101409D01*
Y99079D01*
X121284Y98925D01*
X121262Y98897D01*
X120378Y98387D01*
X119645Y97654D01*
X119127Y96756D01*
X118858Y95754D01*
Y94718D01*
X119127Y93717D01*
X119645Y92819D01*
X120311Y92153D01*
X120286Y91850D01*
X119945Y90972D01*
X115645D01*
X115304Y91850D01*
X115280Y92153D01*
X115946Y92819D01*
X116464Y93717D01*
X116732Y94718D01*
Y95754D01*
X116464Y96756D01*
X115946Y97654D01*
X115213Y98387D01*
X114328Y98897D01*
X114307Y98925D01*
X114200Y99079D01*
Y100582D01*
X114208D01*
X114068Y102368D01*
X113650Y104109D01*
X112964Y105764D01*
X112029Y107291D01*
X110866Y108653D01*
X110860Y108647D01*
X107269Y112238D01*
X107275Y112243D01*
X105913Y113407D01*
X104386Y114342D01*
X102731Y115028D01*
X100990Y115446D01*
X99204Y115586D01*
Y115578D01*
X96457D01*
X96400Y115567D01*
X95192Y115726D01*
X94013Y116214D01*
X93047Y116956D01*
X93014Y117004D01*
X57865Y152154D01*
X57812Y152189D01*
X56780Y153446D01*
X55984Y154935D01*
X55494Y156551D01*
X55335Y158169D01*
X55347Y158231D01*
Y212144D01*
X56528Y212382D01*
X57038Y211500D01*
X57222Y211316D01*
X60735Y214829D01*
X64248Y218343D01*
X64064Y218527D01*
X62931Y219181D01*
X61668Y219520D01*
X60359D01*
X59096Y219181D01*
X58574Y218880D01*
X57848Y219825D01*
X57855Y219831D01*
X58404Y220653D01*
X58597Y221622D01*
X58404Y222591D01*
X57855Y223413D01*
X55733Y225535D01*
X54912Y226084D01*
X53942Y226276D01*
X52973Y226084D01*
X52151Y225535D01*
X50030Y223413D01*
X49481Y222591D01*
X49288Y221622D01*
X49481Y220653D01*
X50030Y219831D01*
X52151Y217710D01*
X52537Y217452D01*
Y158231D01*
X52529D01*
X52670Y156446D01*
X53088Y154704D01*
X53773Y153050D01*
X54709Y151523D01*
X55872Y150161D01*
X55878Y150167D01*
X91027Y115017D01*
X91020Y115010D01*
X92185Y114054D01*
X93515Y113344D01*
X94957Y112906D01*
X96457Y112758D01*
Y112768D01*
X99204D01*
X99266Y112781D01*
X100885Y112621D01*
X102501Y112131D01*
X103990Y111335D01*
X105247Y110303D01*
X105282Y110251D01*
X108873Y106660D01*
X108926Y106625D01*
X109957Y105368D01*
X110753Y103878D01*
X111243Y102263D01*
X111403Y100644D01*
X111390Y100582D01*
Y99557D01*
X111175Y99299D01*
X110643Y98979D01*
X109548Y99570D01*
X109479Y100272D01*
X109026Y101765D01*
X108291Y103142D01*
X107301Y104348D01*
X107293Y104340D01*
X104316Y107317D01*
X104322Y107322D01*
X102960Y108485D01*
X101433Y109421D01*
X99778Y110107D01*
X98037Y110525D01*
X96252Y110665D01*
Y110657D01*
X51867D01*
X51805Y110645D01*
X50187Y110804D01*
X48571Y111294D01*
X47082Y112090D01*
X45825Y113122D01*
X45790Y113174D01*
X26901Y132064D01*
X27567Y133067D01*
X28551Y132804D01*
X28811D01*
Y137772D01*
Y142741D01*
X28551D01*
X27287Y142402D01*
X26154Y141748D01*
X25229Y140823D01*
X24575Y139690D01*
X24419Y139107D01*
X23238Y139263D01*
Y139272D01*
X23045Y140241D01*
X22496Y141063D01*
X21674Y141612D01*
X20705Y141805D01*
X17705D01*
X16736Y141612D01*
X15914Y141063D01*
X15365Y140241D01*
X15172Y139272D01*
Y136272D01*
X15365Y135303D01*
X15914Y134481D01*
X16736Y133932D01*
X17705Y133739D01*
X20705D01*
X21161Y133830D01*
X43803Y111187D01*
X43797Y111182D01*
X45159Y110019D01*
X46686Y109083D01*
X48341Y108397D01*
X50082Y107979D01*
X51867Y107839D01*
Y107847D01*
X96252D01*
X96314Y107859D01*
X97932Y107700D01*
X99548Y107210D01*
X101037Y106414D01*
X102294Y105382D01*
X102329Y105330D01*
X105306Y102353D01*
X105360Y102317D01*
X106141Y101299D01*
X106532Y100354D01*
X106241Y99714D01*
X105581Y99173D01*
X98858D01*
Y91299D01*
X101390D01*
Y89134D01*
X101375D01*
X101545Y87405D01*
X102049Y85743D01*
X102868Y84211D01*
X103970Y82868D01*
X105313Y81766D01*
X106845Y80947D01*
X108507Y80443D01*
X110236Y80272D01*
Y80288D01*
X150591D01*
Y80275D01*
X152211Y80435D01*
X153770Y80907D01*
X155206Y81675D01*
X156465Y82708D01*
X157498Y83967D01*
X158266Y85403D01*
X158739Y86962D01*
X158898Y88583D01*
X158885D01*
Y91908D01*
X160066Y92397D01*
X160378Y92086D01*
X161262Y91575D01*
X161284Y91548D01*
X161390Y91394D01*
Y82292D01*
X161403Y82230D01*
X161243Y80611D01*
X160753Y78996D01*
X159957Y77506D01*
X158926Y76249D01*
X158873Y76214D01*
X151542Y68883D01*
X151507Y68830D01*
X150250Y67799D01*
X148760Y67003D01*
X147145Y66513D01*
X145526Y66353D01*
X145464Y66366D01*
X84651D01*
Y66374D01*
X82865Y66233D01*
X81124Y65815D01*
X79469Y65130D01*
X77942Y64194D01*
X76580Y63031D01*
X76586Y63025D01*
X71432Y57871D01*
X71397Y57818D01*
X70140Y56787D01*
X68651Y55991D01*
X67035Y55501D01*
X65416Y55341D01*
X65354Y55353D01*
X63420D01*
X63182Y56535D01*
X64064Y57044D01*
X64248Y57228D01*
X60735Y60741D01*
X57222Y64254D01*
X57038Y64070D01*
X56384Y62937D01*
X56045Y61674D01*
Y60365D01*
X56384Y59102D01*
X56685Y58580D01*
X55740Y57854D01*
X55733Y57861D01*
X54912Y58410D01*
X53942Y58603D01*
X52973Y58410D01*
X52151Y57861D01*
X50030Y55739D01*
X49481Y54918D01*
X49288Y53948D01*
X49481Y52979D01*
X50030Y52157D01*
X52151Y50036D01*
X52973Y49487D01*
X53942Y49294D01*
X54912Y49487D01*
X55733Y50036D01*
X57855Y52157D01*
X58113Y52544D01*
X65354D01*
Y52535D01*
X67140Y52676D01*
X68881Y53094D01*
X70536Y53779D01*
X72063Y54715D01*
X73425Y55878D01*
X73419Y55884D01*
X78573Y61038D01*
X78608Y61091D01*
X79865Y62122D01*
X81354Y62919D01*
X82970Y63409D01*
X84588Y63568D01*
X84651Y63556D01*
X145464D01*
Y63547D01*
X147250Y63688D01*
X148991Y64106D01*
X150646Y64792D01*
X152173Y65727D01*
X153534Y66890D01*
X153529Y66896D01*
X160860Y74227D01*
X160866Y74221D01*
X162029Y75583D01*
X162964Y77110D01*
X163650Y78765D01*
X164068Y80506D01*
X164208Y82292D01*
X164200D01*
Y91394D01*
X164307Y91548D01*
X164328Y91575D01*
X165213Y92086D01*
X165946Y92819D01*
X166464Y93717D01*
X166732Y94718D01*
Y95754D01*
X166464Y96756D01*
X165946Y97654D01*
X165213Y98387D01*
X164315Y98905D01*
X163314Y99173D01*
X162277D01*
X162187Y99149D01*
X161091Y100078D01*
X161119Y100362D01*
X161128Y100368D01*
X162217Y100819D01*
X163338Y100967D01*
X163386Y100957D01*
X168322D01*
X168384Y100970D01*
X170002Y100810D01*
X171618Y100320D01*
X171744Y100253D01*
X171598Y98991D01*
X171276Y98905D01*
X170378Y98387D01*
X169645Y97654D01*
X169127Y96756D01*
X168858Y95754D01*
Y94718D01*
X169127Y93717D01*
X169645Y92819D01*
X170378Y92086D01*
X171276Y91567D01*
X172277Y91299D01*
X173314D01*
X174315Y91567D01*
X175213Y92086D01*
X175946Y92819D01*
X176464Y93717D01*
X176673Y94496D01*
X177332Y94824D01*
X177913Y94926D01*
X200038Y72802D01*
X200032Y72796D01*
X201394Y71633D01*
X202921Y70697D01*
X204575Y70012D01*
X206317Y69594D01*
X208102Y69453D01*
Y69461D01*
X218245D01*
X218283Y69469D01*
X219003Y69326D01*
X219646Y68896D01*
X220075Y68253D01*
X220219Y67533D01*
X220211Y67496D01*
Y63427D01*
X219030Y63188D01*
X218521Y64070D01*
X218337Y64254D01*
X214823Y60741D01*
X211310Y57228D01*
X211494Y57044D01*
X212627Y56390D01*
X213891Y56051D01*
X215199D01*
X216463Y56390D01*
X216985Y56691D01*
X217710Y55746D01*
X217704Y55739D01*
X217155Y54918D01*
X216962Y53948D01*
X217155Y52979D01*
X217704Y52157D01*
X219825Y50036D01*
X220647Y49487D01*
X221616Y49294D01*
X222585Y49487D01*
X223407Y50036D01*
X225528Y52157D01*
X226077Y52979D01*
X226270Y53948D01*
X226077Y54918D01*
X225528Y55739D01*
X223407Y57861D01*
X223021Y58119D01*
Y67496D01*
X223035D01*
X222872Y68735D01*
X222393Y69890D01*
X221632Y70882D01*
X220640Y71643D01*
X219485Y72122D01*
X218245Y72285D01*
Y72271D01*
X208102D01*
X208040Y72259D01*
X206422Y72418D01*
X205705Y72636D01*
X205630Y72777D01*
X205678Y72979D01*
X206377Y73887D01*
X207685Y73784D01*
Y73792D01*
X228976D01*
Y73784D01*
X230762Y73924D01*
X232503Y74342D01*
X234158Y75028D01*
X235685Y75963D01*
X237047Y77126D01*
X238210Y78488D01*
X239146Y80015D01*
X239540Y80967D01*
X240721Y80733D01*
Y69103D01*
X240733Y69041D01*
X240574Y67422D01*
X240084Y65807D01*
X239288Y64317D01*
X238256Y63060D01*
X238204Y63025D01*
X202514Y27335D01*
X202457Y27251D01*
X200273Y25336D01*
X197776Y23667D01*
X195081Y22338D01*
X192237Y21373D01*
X189290Y20786D01*
X186392Y20596D01*
X186293Y20616D01*
X141825D01*
Y20711D01*
X141632Y21681D01*
X141083Y22502D01*
X140262Y23051D01*
X139292Y23244D01*
X139283D01*
X139128Y24425D01*
X139710Y24581D01*
X140843Y25236D01*
X141768Y26160D01*
X142422Y27294D01*
X142761Y28557D01*
Y28817D01*
X137792D01*
X132824D01*
Y28557D01*
X133162Y27294D01*
X133817Y26160D01*
X134742Y25236D01*
X135875Y24581D01*
X136457Y24425D01*
X136302Y23244D01*
X136292D01*
X135323Y23051D01*
X134501Y22502D01*
X133952Y21681D01*
X133759Y20711D01*
Y17711D01*
X133952Y16742D01*
X134501Y15920D01*
X135323Y15371D01*
X136292Y15178D01*
X139292D01*
X140262Y15371D01*
X141083Y15920D01*
X141632Y16742D01*
X141825Y17711D01*
Y17806D01*
X185112D01*
X186293Y17793D01*
X186293Y17793D01*
X187452Y17858D01*
X189177Y17955D01*
X192026Y18439D01*
X194802Y19239D01*
X197471Y20344D01*
X200000Y21742D01*
X202356Y23414D01*
X204510Y25339D01*
X204501Y25348D01*
X240191Y61038D01*
X240196Y61032D01*
X241359Y62394D01*
X242295Y63921D01*
X242981Y65576D01*
X243399Y67317D01*
X243539Y69103D01*
X243531D01*
Y105307D01*
X243519Y105369D01*
X243678Y106987D01*
X244168Y108603D01*
X244964Y110092D01*
X245996Y111349D01*
X246048Y111384D01*
X261844Y127180D01*
X261850Y127174D01*
X263013Y128536D01*
X263949Y130063D01*
X264634Y131718D01*
X265052Y133459D01*
X265193Y135245D01*
X265184D01*
Y142520D01*
X265203D01*
X265021Y143907D01*
X264485Y145200D01*
X263633Y146310D01*
X262523Y147162D01*
X261230Y147698D01*
X259842Y147880D01*
Y147862D01*
X254331D01*
Y147874D01*
X253149Y147718D01*
X252047Y147262D01*
X251102Y146536D01*
X250376Y145590D01*
X249920Y144489D01*
X249764Y143307D01*
X248994Y142445D01*
X248595Y142215D01*
X248271Y142402D01*
X247007Y142741D01*
X246747D01*
Y137772D01*
Y132804D01*
X247007D01*
X248271Y133142D01*
X248595Y133329D01*
X249776Y132647D01*
Y131307D01*
X249788Y131245D01*
X249629Y129627D01*
X249139Y128011D01*
X248343Y126522D01*
X247311Y125265D01*
X247259Y125230D01*
X238156Y116127D01*
X238150Y116133D01*
X236987Y114771D01*
X236051Y113244D01*
X235366Y111589D01*
X234948Y109848D01*
X234807Y108063D01*
X234816D01*
Y85827D01*
X234821Y85799D01*
X234699Y84563D01*
X234331Y83348D01*
X233732Y82228D01*
X232927Y81247D01*
X231945Y80441D01*
X230825Y79843D01*
X229610Y79474D01*
X228374Y79352D01*
X228346Y79358D01*
X208473D01*
X208411Y79345D01*
X206792Y79505D01*
X205177Y79995D01*
X203687Y80791D01*
X202430Y81823D01*
X202395Y81875D01*
X166718Y117553D01*
X166665Y117588D01*
X165633Y118845D01*
X164837Y120334D01*
X164466Y121558D01*
X164525Y121668D01*
X164548Y121702D01*
X165213Y122086D01*
X165946Y122819D01*
X166464Y123717D01*
X166732Y124718D01*
Y125754D01*
X166464Y126756D01*
X165946Y127654D01*
X165213Y128387D01*
X164315Y128905D01*
X163314Y129173D01*
X162277D01*
X161276Y128905D01*
X160378Y128387D01*
X159645Y127654D01*
X159127Y126756D01*
X158858Y125754D01*
Y124718D01*
X159127Y123717D01*
X159645Y122819D01*
X160378Y122086D01*
X161276Y121567D01*
X161440Y121524D01*
X161515Y121442D01*
X161662Y121265D01*
X161941Y120104D01*
X162626Y118449D01*
X163562Y116922D01*
X164725Y115560D01*
X164731Y115566D01*
X173535Y106761D01*
X172936Y105691D01*
X171659Y105997D01*
X169874Y106138D01*
Y106129D01*
X156426D01*
Y106138D01*
X154640Y105997D01*
X152899Y105579D01*
X151244Y104894D01*
X149717Y103958D01*
X148355Y102795D01*
X148361Y102789D01*
X144519Y98947D01*
X144335Y98913D01*
X144300Y98909D01*
X143314Y99173D01*
X142277D01*
X141276Y98905D01*
X140378Y98387D01*
X140203Y98211D01*
X138900Y98579D01*
X138650Y99621D01*
X137964Y101276D01*
X137029Y102803D01*
X135866Y104164D01*
X135860Y104159D01*
X123386Y116633D01*
X123922Y117767D01*
X124831Y117677D01*
Y117690D01*
X142717D01*
Y117686D01*
X143951Y117808D01*
X145139Y118168D01*
X146233Y118753D01*
X147192Y119540D01*
X147979Y120499D01*
X148564Y121593D01*
X148732Y122144D01*
X148760Y122165D01*
X150048Y122416D01*
X150378Y122086D01*
X151276Y121567D01*
X152277Y121299D01*
X153314D01*
X154315Y121567D01*
X155213Y122086D01*
X155946Y122819D01*
X156464Y123717D01*
X156732Y124718D01*
Y125754D01*
X156464Y126756D01*
X155946Y127654D01*
X155213Y128387D01*
X154315Y128905D01*
X153314Y129173D01*
X152277D01*
X151276Y128905D01*
X150791Y128625D01*
X149908Y129479D01*
X150232Y130086D01*
X151118Y131165D01*
X152198Y132051D01*
X153430Y132710D01*
X154766Y133115D01*
X156118Y133248D01*
X156157Y133241D01*
X191235D01*
X191512Y132937D01*
X191999Y132060D01*
X191887Y131496D01*
Y129134D01*
X192055Y128289D01*
X192533Y127573D01*
X193250Y127094D01*
X194095Y126926D01*
X200394D01*
X201239Y127094D01*
X201955Y127573D01*
X202433Y128289D01*
X202602Y129134D01*
Y131496D01*
X202489Y132060D01*
X202979Y132942D01*
X203252Y133242D01*
X204577Y133373D01*
X205950Y133790D01*
X207216Y134466D01*
X208325Y135376D01*
X209235Y136485D01*
X209911Y137750D01*
X210328Y139123D01*
X210468Y140551D01*
X210460D01*
Y150976D01*
X210448Y151038D01*
X210607Y152656D01*
X211097Y154272D01*
X211893Y155761D01*
X212925Y157018D01*
X212978Y157054D01*
X231923Y175999D01*
X231929Y175993D01*
X233092Y177355D01*
X234027Y178882D01*
X234713Y180537D01*
X235131Y182278D01*
X235271Y184063D01*
X235263D01*
Y222284D01*
X235271D01*
X235131Y224069D01*
X234713Y225810D01*
X234027Y227465D01*
X233092Y228992D01*
X231929Y230354D01*
X230567Y231517D01*
X229040Y232453D01*
X227385Y233138D01*
X225644Y233556D01*
X223858Y233697D01*
Y233688D01*
X216741D01*
X216678Y233676D01*
X215060Y233835D01*
X213444Y234326D01*
X211955Y235122D01*
X210698Y236153D01*
X210663Y236206D01*
X207466Y239403D01*
X207471Y239409D01*
X206110Y240572D01*
X204583Y241508D01*
X202928Y242193D01*
X201187Y242611D01*
X199401Y242752D01*
Y242743D01*
X156955D01*
X156893Y242731D01*
X155275Y242891D01*
X153659Y243381D01*
X152170Y244177D01*
X150913Y245208D01*
X150878Y245261D01*
X141735Y254404D01*
X141825Y254859D01*
Y257859D01*
X141632Y258829D01*
X141591Y258891D01*
X141579Y258923D01*
X141954Y260381D01*
X142452Y260647D01*
X143561Y261557D01*
X144471Y262666D01*
X145147Y263931D01*
X145564Y265304D01*
X145704Y266732D01*
X145564Y268160D01*
X145147Y269533D01*
X144471Y270798D01*
X143561Y271907D01*
X142452Y272818D01*
X142389Y272851D01*
X142085Y274353D01*
X142232Y274534D01*
X147861Y274257D01*
X154545Y273599D01*
X161188Y272614D01*
X167775Y271304D01*
X174291Y269672D01*
X180717Y267722D01*
X187041Y265459D01*
X193246Y262889D01*
X199317Y260018D01*
X205240Y256852D01*
X211001Y253399D01*
X216585Y249668D01*
X221979Y245667D01*
X227171Y241406D01*
X232147Y236896D01*
X236896Y232147D01*
X241406Y227171D01*
X245667Y221979D01*
X249668Y216585D01*
X253399Y211001D01*
X256852Y205240D01*
X260018Y199317D01*
X262889Y193246D01*
X265459Y187041D01*
X267722Y180717D01*
X269672Y174291D01*
X271304Y167775D01*
X272614Y161188D01*
X273599Y154545D01*
X274257Y147861D01*
X274587Y141153D01*
Y137795D01*
Y134437D01*
X274257Y127729D01*
X273599Y121045D01*
X272614Y114402D01*
X271304Y107815D01*
X269672Y101300D01*
X267722Y94873D01*
X265459Y88550D01*
X262889Y82345D01*
X260018Y76274D01*
X256852Y70351D01*
X253399Y64590D01*
X249668Y59006D01*
X245667Y53611D01*
X241406Y48420D01*
X236896Y43443D01*
X232147Y38695D01*
X227171Y34184D01*
X221979Y29923D01*
X216585Y25923D01*
X211001Y22192D01*
X205240Y18739D01*
X199317Y15573D01*
X193246Y12701D01*
X187041Y10131D01*
X180717Y7869D01*
X174291Y5919D01*
X167775Y4287D01*
X161188Y2977D01*
X154545Y1991D01*
X147861Y1333D01*
X141153Y1003D01*
X134437D01*
X127729Y1333D01*
X121045Y1991D01*
X114402Y2977D01*
X107815Y4287D01*
X101300Y5919D01*
X94873Y7869D01*
X88550Y10131D01*
X82345Y12701D01*
X76274Y15573D01*
X70351Y18739D01*
X64590Y22191D01*
X59006Y25923D01*
X53611Y29923D01*
X48420Y34184D01*
X43443Y38694D01*
X38695Y43443D01*
X34184Y48420D01*
X29923Y53611D01*
X25923Y59006D01*
X22192Y64590D01*
X18739Y70350D01*
X15573Y76274D01*
X12701Y82345D01*
X10131Y88550D01*
X7869Y94873D01*
X5919Y101300D01*
X4287Y107815D01*
X2977Y114402D01*
X1991Y121045D01*
X1333Y127729D01*
X1003Y134437D01*
Y137795D01*
Y141153D01*
X1333Y147861D01*
X1991Y154545D01*
X2977Y161188D01*
X4287Y167775D01*
X5919Y174291D01*
X7869Y180717D01*
X10131Y187041D01*
X12701Y193246D01*
X15573Y199317D01*
X18739Y205240D01*
X22191Y211001D01*
X25923Y216585D01*
X29923Y221979D01*
X34184Y227171D01*
X38694Y232147D01*
X43443Y236896D01*
X48420Y241406D01*
X53611Y245667D01*
X59006Y249668D01*
X64590Y253399D01*
X70350Y256852D01*
X73331Y258445D01*
X74089Y257511D01*
X73894Y257279D01*
X73368Y256151D01*
X73152Y254926D01*
X73261Y253687D01*
X73339Y253472D01*
X77778Y255088D01*
X82218Y256704D01*
X82140Y256919D01*
X81426Y257938D01*
X80473Y258737D01*
X79346Y259263D01*
X78121Y259479D01*
X77846Y259455D01*
X77532Y260613D01*
X82345Y262889D01*
X88550Y265459D01*
X94873Y267722D01*
X101300Y269672D01*
X107815Y271304D01*
X114402Y272614D01*
X121045Y273599D01*
X127729Y274257D01*
X133359Y274534D01*
X133505Y274353D01*
D02*
G37*
G36*
X140688Y254465D02*
X140662Y254398D01*
X140655Y254323D01*
X140667Y254239D01*
X140698Y254147D01*
X140749Y254047D01*
X140819Y253939D01*
X140907Y253823D01*
X141015Y253699D01*
X141143Y253566D01*
X140586Y253009D01*
X139628Y253419D01*
X140733Y254524D01*
X140688Y254465D01*
D02*
G37*
G36*
X121346Y231385D02*
X121213Y231229D01*
X121103Y231048D01*
X121015Y230844D01*
X120950Y230615D01*
X120908Y230363D01*
X120889Y230086D01*
X120893Y229785D01*
X120919Y229461D01*
X120968Y229112D01*
X121040Y228739D01*
X117817Y230860D01*
X118269Y230953D01*
X119706Y231332D01*
X119974Y231429D01*
X120204Y231527D01*
X120397Y231626D01*
X120554Y231726D01*
X120673Y231826D01*
X121346Y231385D01*
D02*
G37*
G36*
X202895Y230087D02*
X203079Y229974D01*
X203297Y229874D01*
X203548Y229789D01*
X203833Y229717D01*
X204151Y229659D01*
X204503Y229615D01*
X205306Y229569D01*
X205758Y229567D01*
X202835Y226644D01*
X202833Y227096D01*
X202786Y227899D01*
X202742Y228251D01*
X202685Y228569D01*
X202613Y228853D01*
X202527Y229105D01*
X202428Y229322D01*
X202314Y229507D01*
X202187Y229658D01*
X202744Y230215D01*
X202895Y230087D01*
D02*
G37*
G36*
X192895D02*
X193079Y229974D01*
X193297Y229874D01*
X193548Y229789D01*
X193833Y229717D01*
X194151Y229659D01*
X194503Y229615D01*
X195306Y229569D01*
X195758Y229567D01*
X192835Y226644D01*
X192833Y227096D01*
X192786Y227899D01*
X192742Y228251D01*
X192685Y228569D01*
X192613Y228853D01*
X192527Y229105D01*
X192428Y229322D01*
X192314Y229507D01*
X192187Y229658D01*
X192744Y230215D01*
X192895Y230087D01*
D02*
G37*
G36*
X183679Y224547D02*
X183463Y224753D01*
X183241Y224937D01*
X183013Y225099D01*
X182778Y225240D01*
X182536Y225359D01*
X182289Y225457D01*
X182034Y225533D01*
X181773Y225587D01*
X181506Y225619D01*
X181232Y225630D01*
Y227598D01*
X181506Y227609D01*
X181773Y227642D01*
X182034Y227696D01*
X182289Y227772D01*
X182536Y227869D01*
X182778Y227988D01*
X183013Y228129D01*
X183241Y228291D01*
X183463Y228475D01*
X183679Y228681D01*
Y224547D01*
D02*
G37*
G36*
X208742Y226133D02*
X208788Y225329D01*
X208832Y224978D01*
X208890Y224660D01*
X208962Y224375D01*
X209048Y224124D01*
X209147Y223906D01*
X209261Y223722D01*
X209388Y223571D01*
X208831Y223014D01*
X208680Y223141D01*
X208496Y223254D01*
X208278Y223354D01*
X208027Y223440D01*
X207742Y223511D01*
X207424Y223569D01*
X207072Y223613D01*
X207030Y223616D01*
X207001Y223584D01*
X206784Y223304D01*
X206599Y223038D01*
X206449Y222786D01*
X206332Y222548D01*
X206248Y222323D01*
X206198Y222113D01*
X206181Y221916D01*
X205394D01*
X205377Y222113D01*
X205327Y222323D01*
X205243Y222548D01*
X205126Y222786D01*
X204975Y223038D01*
X204791Y223304D01*
X204574Y223584D01*
X204038Y224184D01*
X203720Y224505D01*
X206661D01*
X208740Y226585D01*
X208742Y226133D01*
D02*
G37*
G36*
X187649Y224290D02*
X187465Y224068D01*
X187302Y223840D01*
X187161Y223605D01*
X187042Y223363D01*
X186945Y223115D01*
X186869Y222861D01*
X186815Y222600D01*
X186783Y222333D01*
X186772Y222059D01*
X184803D01*
X184792Y222333D01*
X184760Y222600D01*
X184706Y222861D01*
X184630Y223115D01*
X184532Y223363D01*
X184413Y223605D01*
X184273Y223840D01*
X184110Y224068D01*
X183926Y224290D01*
X183721Y224505D01*
X187854D01*
X187649Y224290D01*
D02*
G37*
G36*
X104724Y227982D02*
X104739Y227801D01*
X104784Y227605D01*
X104858Y227394D01*
X104962Y227167D01*
X105096Y226925D01*
X105260Y226667D01*
X105676Y226106D01*
X105929Y225802D01*
X106177Y225522D01*
X106437Y225266D01*
X106991Y224774D01*
X107250Y224575D01*
X107498Y224406D01*
X107733Y224268D01*
X107956Y224160D01*
X108168Y224083D01*
X108367Y224037D01*
X108555Y224022D01*
Y223234D01*
X108367Y223219D01*
X108168Y223173D01*
X107956Y223096D01*
X107733Y222989D01*
X107498Y222850D01*
X107250Y222682D01*
X106991Y222482D01*
X106437Y221991D01*
X106142Y221699D01*
Y225487D01*
X102360Y225703D01*
X102659Y225974D01*
X103164Y226491D01*
X103369Y226737D01*
X103543Y226974D01*
X103685Y227202D01*
X103795Y227421D01*
X103874Y227632D01*
X103921Y227834D01*
X103937Y228027D01*
X104724Y227982D01*
D02*
G37*
G36*
X227341Y220654D02*
X227284Y220706D01*
X227207Y220737D01*
X227111Y220748D01*
X226993Y220739D01*
X226856Y220709D01*
X226698Y220659D01*
X226520Y220588D01*
X226322Y220497D01*
X225865Y220254D01*
X225716Y221067D01*
X225889Y221170D01*
X226166Y221364D01*
X226269Y221455D01*
X226349Y221542D01*
X226406Y221624D01*
X226440Y221702D01*
X226450Y221777D01*
X226438Y221846D01*
X226402Y221912D01*
X227341Y220654D01*
D02*
G37*
G36*
X54336Y217278D02*
X53549D01*
X53161Y218245D01*
X54724D01*
X54336Y217278D01*
D02*
G37*
G36*
X196198Y201115D02*
X196248Y200905D01*
X196332Y200680D01*
X196449Y200442D01*
X196599Y200190D01*
X196783Y199924D01*
X197001Y199645D01*
X197536Y199044D01*
X197854Y198723D01*
X193720D01*
X194038Y199044D01*
X194574Y199645D01*
X194791Y199924D01*
X194975Y200190D01*
X195126Y200442D01*
X195243Y200680D01*
X195327Y200905D01*
X195377Y201115D01*
X195394Y201312D01*
X196181D01*
X196198Y201115D01*
D02*
G37*
G36*
X213463Y200345D02*
X213675Y200179D01*
X213898Y200033D01*
X214132Y199907D01*
X214376Y199800D01*
X214631Y199714D01*
X214896Y199647D01*
X215173Y199601D01*
X215460Y199574D01*
X215758Y199567D01*
X212835Y196644D01*
X212828Y196941D01*
X212801Y197229D01*
X212754Y197505D01*
X212688Y197771D01*
X212601Y198026D01*
X212495Y198270D01*
X212368Y198503D01*
X212222Y198726D01*
X212056Y198938D01*
X211870Y199139D01*
X213262Y200531D01*
X213463Y200345D01*
D02*
G37*
G36*
X207536Y194184D02*
X207001Y193584D01*
X206784Y193304D01*
X206599Y193038D01*
X206449Y192786D01*
X206332Y192548D01*
X206248Y192324D01*
X206198Y192113D01*
X206181Y191916D01*
X205394D01*
X205377Y192113D01*
X205327Y192324D01*
X205243Y192548D01*
X205126Y192786D01*
X204975Y193038D01*
X204791Y193304D01*
X204574Y193584D01*
X204038Y194184D01*
X203720Y194506D01*
X207854D01*
X207536Y194184D01*
D02*
G37*
G36*
X181122Y186043D02*
X181181Y185709D01*
X181280Y185413D01*
X181417Y185158D01*
X181595Y184941D01*
X181811Y184764D01*
X182067Y184626D01*
X182362Y184528D01*
X182697Y184468D01*
X183071Y184449D01*
X180118Y182480D01*
X177165Y184449D01*
X177539Y184468D01*
X177874Y184528D01*
X178169Y184626D01*
X178425Y184764D01*
X178642Y184941D01*
X178819Y185158D01*
X178957Y185413D01*
X179055Y185709D01*
X179114Y186043D01*
X179134Y186417D01*
X181102D01*
X181122Y186043D01*
D02*
G37*
G36*
X192468Y182480D02*
X192094Y182461D01*
X191760Y182402D01*
X191464Y182303D01*
X191209Y182165D01*
X190992Y181988D01*
X190815Y181772D01*
X190677Y181516D01*
X190579Y181220D01*
X190520Y180886D01*
X190500Y180512D01*
X188531D01*
X188512Y180886D01*
X188453Y181220D01*
X188354Y181516D01*
X188216Y181772D01*
X188039Y181988D01*
X187823Y182165D01*
X187567Y182303D01*
X187272Y182402D01*
X186937Y182461D01*
X186563Y182480D01*
X189516Y184449D01*
X192468Y182480D01*
D02*
G37*
G36*
X182091Y173690D02*
X181884Y173444D01*
X181700Y173193D01*
X181542Y172936D01*
X181407Y172676D01*
X181298Y172410D01*
X181212Y172140D01*
X181151Y171864D01*
X181115Y171584D01*
X181102Y171300D01*
X179134D01*
X179122Y171584D01*
X179085Y171864D01*
X179024Y172140D01*
X178939Y172410D01*
X178829Y172676D01*
X178694Y172936D01*
X178536Y173193D01*
X178353Y173444D01*
X178145Y173690D01*
X177913Y173932D01*
X182323D01*
X182091Y173690D01*
D02*
G37*
G36*
X197475Y157659D02*
X194703Y154887D01*
X193299Y157671D01*
X194691Y159063D01*
X197475Y157659D01*
D02*
G37*
G36*
X195367Y150524D02*
X195555Y150371D01*
X195747Y150236D01*
X195944Y150119D01*
X196145Y150021D01*
X196351Y149941D01*
X196561Y149879D01*
X196775Y149835D01*
X196995Y149810D01*
X197219Y149803D01*
X194685Y147270D01*
X194678Y147493D01*
X194653Y147713D01*
X194609Y147927D01*
X194548Y148138D01*
X194467Y148343D01*
X194369Y148545D01*
X194252Y148741D01*
X194117Y148933D01*
X193964Y149121D01*
X193792Y149304D01*
X195184Y150696D01*
X195367Y150524D01*
D02*
G37*
G36*
X22101Y135878D02*
X22074Y135811D01*
X22068Y135735D01*
X22080Y135652D01*
X22111Y135560D01*
X22162Y135460D01*
X22231Y135352D01*
X22320Y135236D01*
X22428Y135111D01*
X22555Y134979D01*
X21999Y134422D01*
X21040Y134831D01*
X22146Y135937D01*
X22101Y135878D01*
D02*
G37*
G36*
X256747Y133990D02*
X255960D01*
X255566Y134789D01*
X257141D01*
X256747Y133990D01*
D02*
G37*
G36*
X103790Y129518D02*
X103823Y129251D01*
X103877Y128990D01*
X103953Y128735D01*
X104050Y128487D01*
X104169Y128246D01*
X104310Y128011D01*
X104472Y127782D01*
X104657Y127560D01*
X104862Y127345D01*
X100728D01*
X100934Y127560D01*
X101118Y127782D01*
X101280Y128011D01*
X101421Y128246D01*
X101540Y128487D01*
X101638Y128735D01*
X101714Y128990D01*
X101768Y129251D01*
X101800Y129518D01*
X101811Y129792D01*
X103779D01*
X103790Y129518D01*
D02*
G37*
G36*
X126396Y128280D02*
X126268Y128129D01*
X126155Y127945D01*
X126056Y127727D01*
X125970Y127475D01*
X125898Y127191D01*
X125840Y126873D01*
X125796Y126521D01*
X125750Y125718D01*
X125748Y125266D01*
X122825Y128189D01*
X123277Y128191D01*
X124080Y128237D01*
X124432Y128281D01*
X124750Y128339D01*
X125034Y128411D01*
X125286Y128496D01*
X125504Y128596D01*
X125688Y128709D01*
X125839Y128837D01*
X126396Y128280D01*
D02*
G37*
G36*
X115750Y124755D02*
X115796Y123951D01*
X115840Y123600D01*
X115898Y123282D01*
X115970Y122997D01*
X116056Y122746D01*
X116155Y122528D01*
X116268Y122344D01*
X116396Y122193D01*
X115839Y121636D01*
X115688Y121763D01*
X115504Y121877D01*
X115286Y121976D01*
X115034Y122062D01*
X114750Y122133D01*
X114432Y122191D01*
X114080Y122235D01*
X113277Y122281D01*
X112825Y122284D01*
X115748Y125207D01*
X115750Y124755D01*
D02*
G37*
G36*
X164632Y122872D02*
X164156Y122273D01*
X163975Y121994D01*
X163832Y121728D01*
X163726Y121476D01*
X163658Y121237D01*
X163627Y121011D01*
X163634Y120799D01*
X163679Y120600D01*
X162862Y120570D01*
X162796Y120743D01*
X162698Y120933D01*
X162570Y121140D01*
X162410Y121364D01*
X161996Y121863D01*
X161742Y122138D01*
X160794Y123065D01*
X164926Y123192D01*
X164632Y122872D01*
D02*
G37*
G36*
X123206Y99738D02*
X123256Y99527D01*
X123340Y99303D01*
X123457Y99064D01*
X123607Y98812D01*
X123791Y98546D01*
X124009Y98267D01*
X124544Y97666D01*
X124862Y97345D01*
X120728D01*
X121046Y97666D01*
X121582Y98267D01*
X121799Y98546D01*
X121983Y98812D01*
X122134Y99064D01*
X122251Y99303D01*
X122335Y99527D01*
X122385Y99738D01*
X122402Y99934D01*
X123189D01*
X123206Y99738D01*
D02*
G37*
G36*
X113206D02*
X113256Y99527D01*
X113340Y99303D01*
X113457Y99064D01*
X113607Y98812D01*
X113791Y98546D01*
X114009Y98267D01*
X114544Y97666D01*
X114862Y97345D01*
X110728D01*
X111046Y97666D01*
X111582Y98267D01*
X111799Y98546D01*
X111983Y98812D01*
X112134Y99064D01*
X112251Y99303D01*
X112335Y99527D01*
X112385Y99738D01*
X112402Y99934D01*
X113189D01*
X113206Y99738D01*
D02*
G37*
G36*
X146396Y98280D02*
X146268Y98129D01*
X146155Y97944D01*
X146055Y97727D01*
X145970Y97475D01*
X145898Y97191D01*
X145840Y96873D01*
X145796Y96521D01*
X145750Y95718D01*
X145748Y95266D01*
X142825Y98189D01*
X143277Y98191D01*
X144080Y98237D01*
X144432Y98281D01*
X144750Y98339D01*
X145035Y98411D01*
X145286Y98496D01*
X145503Y98596D01*
X145688Y98709D01*
X145839Y98837D01*
X146396Y98280D01*
D02*
G37*
G36*
X151612Y92531D02*
X151479Y92581D01*
X151346Y92612D01*
X151215Y92626D01*
X151085Y92622D01*
X150957Y92599D01*
X150829Y92559D01*
X150703Y92501D01*
X150579Y92424D01*
X150455Y92330D01*
X150333Y92217D01*
X149776Y92774D01*
X149889Y92896D01*
X149983Y93020D01*
X150060Y93144D01*
X150118Y93270D01*
X150158Y93398D01*
X150181Y93526D01*
X150185Y93656D01*
X150171Y93787D01*
X150140Y93919D01*
X150090Y94053D01*
X151612Y92531D01*
D02*
G37*
G36*
X131612D02*
X131479Y92581D01*
X131346Y92612D01*
X131215Y92626D01*
X131085Y92622D01*
X130957Y92599D01*
X130829Y92559D01*
X130703Y92501D01*
X130579Y92424D01*
X130455Y92330D01*
X130333Y92217D01*
X129777Y92774D01*
X129889Y92896D01*
X129983Y93020D01*
X130060Y93144D01*
X130118Y93270D01*
X130158Y93398D01*
X130181Y93526D01*
X130185Y93656D01*
X130171Y93787D01*
X130140Y93919D01*
X130090Y94053D01*
X131612Y92531D01*
D02*
G37*
G36*
X103189Y91508D02*
X102402D01*
X102008Y92295D01*
X103583D01*
X103189Y91508D01*
D02*
G37*
G36*
X164544Y92806D02*
X164009Y92206D01*
X163791Y91926D01*
X163607Y91660D01*
X163457Y91408D01*
X163340Y91170D01*
X163256Y90946D01*
X163206Y90735D01*
X163189Y90538D01*
X162402D01*
X162385Y90735D01*
X162335Y90946D01*
X162251Y91170D01*
X162134Y91408D01*
X161983Y91660D01*
X161799Y91926D01*
X161582Y92206D01*
X161046Y92806D01*
X160728Y93128D01*
X164862D01*
X164544Y92806D01*
D02*
G37*
G36*
X222014Y58109D02*
X222045Y57800D01*
X222072Y57674D01*
X222107Y57567D01*
X222149Y57480D01*
X222200Y57413D01*
X222258Y57364D01*
X222324Y57335D01*
X222398Y57326D01*
X220834D01*
X220908Y57335D01*
X220974Y57364D01*
X221032Y57413D01*
X221083Y57480D01*
X221125Y57567D01*
X221160Y57674D01*
X221187Y57800D01*
X221207Y57945D01*
X221218Y58109D01*
X221222Y58293D01*
X222010D01*
X222014Y58109D01*
D02*
G37*
G36*
X57329Y54656D02*
X57358Y54591D01*
X57407Y54532D01*
X57474Y54482D01*
X57561Y54439D01*
X57668Y54404D01*
X57793Y54377D01*
X57938Y54358D01*
X58103Y54346D01*
X58287Y54342D01*
Y53555D01*
X58103Y53551D01*
X57793Y53520D01*
X57668Y53493D01*
X57561Y53458D01*
X57474Y53415D01*
X57407Y53365D01*
X57358Y53307D01*
X57329Y53241D01*
X57319Y53167D01*
Y54730D01*
X57329Y54656D01*
D02*
G37*
G36*
X140784Y19924D02*
X140808Y19857D01*
X140848Y19798D01*
X140903Y19747D01*
X140975Y19703D01*
X141063Y19668D01*
X141167Y19640D01*
X141287Y19621D01*
X141423Y19609D01*
X141575Y19605D01*
Y18818D01*
X141423Y18814D01*
X141287Y18802D01*
X141167Y18782D01*
X141063Y18755D01*
X140975Y18719D01*
X140903Y18676D01*
X140848Y18625D01*
X140808Y18566D01*
X140784Y18499D01*
X140776Y18424D01*
Y19999D01*
X140784Y19924D01*
D02*
G37*
%LPC*%
G36*
X82487Y255964D02*
X78418Y254483D01*
X79899Y250413D01*
X80113Y250492D01*
X81132Y251205D01*
X81932Y252158D01*
X82458Y253285D01*
X82674Y254510D01*
X82565Y255750D01*
X82487Y255964D01*
D02*
G37*
G36*
X77678Y254214D02*
X73608Y252733D01*
X73686Y252518D01*
X74400Y251499D01*
X75353Y250699D01*
X76480Y250174D01*
X77705Y249958D01*
X78944Y250066D01*
X79159Y250144D01*
X77678Y254214D01*
D02*
G37*
G36*
X64805Y217786D02*
X61570Y214551D01*
X64805Y211316D01*
X64989Y211500D01*
X65643Y212633D01*
X65982Y213897D01*
Y215205D01*
X65643Y216469D01*
X64989Y217602D01*
X64805Y217786D01*
D02*
G37*
G36*
X61013Y213994D02*
X57779Y210759D01*
X57963Y210575D01*
X59096Y209921D01*
X60359Y209583D01*
X61668D01*
X62931Y209921D01*
X64064Y210575D01*
X64248Y210759D01*
X61013Y213994D01*
D02*
G37*
G36*
X101922Y180315D02*
X100834D01*
X99782Y180033D01*
X98840Y179489D01*
X98070Y178719D01*
X97526Y177777D01*
X97244Y176725D01*
Y175637D01*
X97526Y174585D01*
X98070Y173643D01*
X98840Y172873D01*
X99782Y172329D01*
X100834Y172047D01*
X101922D01*
X102974Y172329D01*
X103916Y172873D01*
X104686Y173643D01*
X105230Y174585D01*
X105512Y175637D01*
Y176725D01*
X105230Y177777D01*
X104686Y178719D01*
X103916Y179489D01*
X102974Y180033D01*
X101922Y180315D01*
D02*
G37*
G36*
X222225Y143353D02*
X222225Y143353D01*
X222161D01*
X222160Y143353D01*
X222130Y143341D01*
X222098Y143350D01*
X222033Y143344D01*
X222033Y143344D01*
X222004Y143328D01*
X221971Y143335D01*
X221971Y143335D01*
X221908Y143322D01*
X221908Y143322D01*
X221880Y143304D01*
X221847Y143307D01*
X221847Y143307D01*
X221785Y143288D01*
X221759Y143267D01*
X221726D01*
X221666Y143242D01*
X221666Y143242D01*
X221643Y143219D01*
X221609Y143215D01*
X221609Y143215D01*
X221552Y143185D01*
X221531Y143159D01*
X221498Y143152D01*
X221445Y143116D01*
X221445Y143116D01*
X221426Y143089D01*
X221394Y143079D01*
X221394Y143079D01*
X221344Y143038D01*
X221344Y143038D01*
X221328Y143009D01*
X221298Y142996D01*
X221252Y142950D01*
X221252Y142950D01*
X221239Y142919D01*
X221210Y142904D01*
X221169Y142854D01*
X221159Y142822D01*
X221131Y142803D01*
X221095Y142750D01*
X221095Y142750D01*
X221089Y142717D01*
X221063Y142696D01*
X221033Y142639D01*
X221033Y142639D01*
X221029Y142605D01*
X221006Y142582D01*
X220981Y142522D01*
Y142489D01*
X220960Y142463D01*
X220941Y142401D01*
X220941Y142401D01*
X220944Y142368D01*
X220926Y142340D01*
X220913Y142277D01*
X220920Y142244D01*
X220904Y142215D01*
X220898Y142150D01*
X220898Y142150D01*
X220907Y142118D01*
X220895Y142087D01*
X220895Y139827D01*
X220885Y139777D01*
X220742Y139404D01*
X220662Y139260D01*
X220629Y139216D01*
X220140Y138679D01*
X219464Y138848D01*
X219427Y138861D01*
X219350Y138898D01*
X219109Y139027D01*
X218917Y139162D01*
X218890Y139189D01*
X218872Y139209D01*
X218839Y139224D01*
X218822Y139257D01*
X218822Y139257D01*
X218779Y139295D01*
X218744Y139307D01*
X218724Y139338D01*
X218724Y139338D01*
X218677Y139371D01*
X218641Y139379D01*
X218618Y139408D01*
X218618D01*
X218567Y139436D01*
X218531Y139440D01*
X218505Y139466D01*
X218505D01*
X218451Y139488D01*
X218414Y139488D01*
X218386Y139511D01*
X218386Y139511D01*
X218330Y139527D01*
X218294Y139523D01*
X218263Y139543D01*
X218262Y139543D01*
X218206Y139553D01*
X218206Y139553D01*
X218166Y139547D01*
X218137Y139561D01*
X218137Y139561D01*
X218079Y139565D01*
X218079Y139565D01*
X218040Y139555D01*
X218009Y139566D01*
X218009Y139566D01*
X217952Y139563D01*
X217952Y139563D01*
X217914Y139549D01*
X217883Y139556D01*
X217883Y139556D01*
X217826Y139548D01*
X217826Y139548D01*
X217793Y139529D01*
X217758Y139533D01*
X217758Y139533D01*
X217702Y139518D01*
X217702D01*
X217672Y139496D01*
X217636Y139497D01*
X217636Y139497D01*
X217582Y139476D01*
X217582D01*
X217558Y139453D01*
X217519Y139447D01*
X217519Y139447D01*
X217468Y139420D01*
X217468Y139420D01*
X217443Y139394D01*
X217408Y139385D01*
X217408Y139385D01*
X217360Y139353D01*
X217360Y139353D01*
X217342Y139326D01*
X217304Y139311D01*
X217304Y139311D01*
X217260Y139274D01*
X217260Y139274D01*
X217243Y139242D01*
X217209Y139226D01*
X217209Y139226D01*
X217169Y139185D01*
X217169Y139185D01*
X217156Y139151D01*
X217124Y139132D01*
X217124Y139132D01*
X217089Y139086D01*
X217089Y139086D01*
X217079Y139051D01*
X217050Y139029D01*
X217050Y139029D01*
X217020Y138980D01*
X217020Y138979D01*
X217015Y138947D01*
X216987Y138918D01*
X216987Y138918D01*
X216963Y138866D01*
X216963Y138866D01*
X216961Y138830D01*
X216936Y138801D01*
X216936Y138801D01*
X216918Y138747D01*
X216918Y138747D01*
X216920Y138710D01*
X216899Y138680D01*
X216887Y138623D01*
X216887Y138623D01*
X216893Y138587D01*
X216876Y138555D01*
X216869Y138497D01*
X216869Y138497D01*
X216880Y138462D01*
X216865Y138428D01*
Y138382D01*
X216865Y138382D01*
X216874Y138361D01*
X216867Y138340D01*
X216869Y138306D01*
X216869Y138305D01*
X216879Y138285D01*
X216873Y138264D01*
X216878Y138230D01*
X216878Y138230D01*
X216889Y138210D01*
X216884Y138188D01*
X216891Y138154D01*
X216891Y138154D01*
X216904Y138136D01*
X216901Y138114D01*
X216910Y138080D01*
X216910Y138080D01*
X216923Y138062D01*
X216922Y138040D01*
X216941Y137952D01*
X216950Y137888D01*
X216955Y137738D01*
X216922Y137341D01*
X216922Y137340D01*
X216711Y136669D01*
X216024Y136549D01*
X215945Y136545D01*
X215545Y136580D01*
X215382Y136626D01*
X213431Y137754D01*
X213431Y137754D01*
X213431Y137754D01*
X213401Y137771D01*
X213366Y137776D01*
X213341Y137802D01*
X213341D01*
X213278Y137830D01*
X213243Y137830D01*
X213216Y137854D01*
X213216Y137854D01*
X213150Y137875D01*
X213115Y137872D01*
X213086Y137892D01*
X213086Y137892D01*
X213018Y137907D01*
X212983Y137900D01*
X212952Y137917D01*
X212952Y137917D01*
X212883Y137925D01*
X212857Y137917D01*
X212816Y137928D01*
X212816Y137928D01*
X212747Y137928D01*
X212747Y137928D01*
X212718Y137916D01*
X212681Y137925D01*
X212680Y137925D01*
X212612Y137917D01*
X212612Y137917D01*
X212581Y137901D01*
X212546Y137907D01*
X212546Y137907D01*
X212478Y137893D01*
X212478Y137893D01*
X212449Y137873D01*
X212413Y137875D01*
X212413Y137875D01*
X212348Y137854D01*
X212348Y137854D01*
X212321Y137831D01*
X212285Y137830D01*
X212285Y137830D01*
X212222Y137802D01*
X212222Y137802D01*
X212196Y137776D01*
X212162Y137772D01*
X212162Y137771D01*
X212103Y137737D01*
X212103Y137737D01*
X212081Y137709D01*
X212047Y137700D01*
X212047Y137700D01*
X211991Y137660D01*
X211991Y137660D01*
X211972Y137630D01*
X211939Y137618D01*
X211939Y137618D01*
X211887Y137572D01*
X211887Y137572D01*
X211872Y137540D01*
X211840Y137524D01*
X211840Y137524D01*
X211794Y137473D01*
X211794Y137473D01*
X211781Y137439D01*
X211752Y137421D01*
X211752Y137421D01*
X211711Y137365D01*
X211711Y137365D01*
X211711Y137364D01*
X211703Y137331D01*
X211674Y137309D01*
X211674Y137309D01*
X211640Y137249D01*
X211640Y137249D01*
X211635Y137215D01*
X211610Y137189D01*
Y137189D01*
X211581Y137127D01*
X211581Y137126D01*
X211580Y137091D01*
X211558Y137064D01*
Y137064D01*
X211536Y136998D01*
X211536Y136998D01*
X211539Y136963D01*
X211519Y136934D01*
X211519Y136934D01*
X211504Y136866D01*
X211504Y136866D01*
X211511Y136831D01*
X211494Y136800D01*
X211494Y136800D01*
X211487Y136731D01*
X211487Y136731D01*
X211496Y136699D01*
X211483Y136664D01*
X211483Y136664D01*
Y136601D01*
X211483Y136601D01*
X211495Y136574D01*
X211486Y136545D01*
X211486Y136545D01*
X211491Y136488D01*
X211491Y136488D01*
X211504Y136462D01*
X211498Y136433D01*
X211498Y136433D01*
X211508Y136376D01*
X211508Y136376D01*
X211524Y136351D01*
X211520Y136322D01*
X211520Y136322D01*
X211535Y136266D01*
X211535Y136266D01*
X211553Y136243D01*
X211552Y136213D01*
X211552Y136213D01*
X211571Y136159D01*
X211571Y136159D01*
X211591Y136136D01*
X211593Y136108D01*
X211593Y136108D01*
X211617Y136056D01*
Y136056D01*
X211639Y136032D01*
X211643Y136006D01*
X211671Y135956D01*
X211671Y135956D01*
X211695Y135938D01*
X211701Y135909D01*
X211734Y135862D01*
X211734Y135862D01*
X211759Y135846D01*
X211768Y135818D01*
X211805Y135774D01*
X211805Y135774D01*
X211831Y135760D01*
X211843Y135733D01*
X211883Y135692D01*
X211883Y135692D01*
X211911Y135681D01*
X211925Y135654D01*
X211968Y135617D01*
X211969Y135617D01*
X211977Y135615D01*
X211977Y135615D01*
X211997Y135608D01*
X212013Y135583D01*
X212060Y135550D01*
X212060Y135550D01*
X212073Y135547D01*
X212073Y135547D01*
X212089Y135544D01*
X212107Y135520D01*
X212132Y135506D01*
X212132Y135506D01*
X212132Y135506D01*
X212132Y135506D01*
X214065Y134388D01*
X214167Y134292D01*
X214414Y133960D01*
X214455Y133885D01*
X214714Y133235D01*
X214269Y132712D01*
X214185Y132628D01*
X214153Y132603D01*
X214120Y132580D01*
X213870Y132430D01*
X213727Y132365D01*
X213662Y132340D01*
X213629Y132330D01*
X213621Y132329D01*
X213593Y132310D01*
X213560Y132314D01*
X213560Y132314D01*
X213510Y132299D01*
X213485Y132278D01*
X213451D01*
X213451Y132277D01*
X213404Y132258D01*
X213380Y132234D01*
X213347Y132231D01*
X213347Y132231D01*
X213301Y132206D01*
X213280Y132181D01*
X213247Y132174D01*
X213247Y132174D01*
X213204Y132145D01*
X213186Y132118D01*
X213154Y132108D01*
X213154Y132108D01*
X213114Y132075D01*
X213098Y132046D01*
X213067Y132033D01*
X213067Y132033D01*
X213031Y131996D01*
X213018Y131965D01*
X212989Y131950D01*
X212989Y131950D01*
X212956Y131910D01*
X212946Y131878D01*
X212918Y131859D01*
X212918Y131859D01*
X212890Y131816D01*
X212890Y131816D01*
X212881Y131782D01*
X212858Y131763D01*
X212858Y131763D01*
X212833Y131717D01*
X212833Y131717D01*
X212828Y131682D01*
X212806Y131660D01*
X212806Y131660D01*
X212787Y131612D01*
X212787Y131612D01*
X212787Y131579D01*
X212765Y131553D01*
Y131553D01*
X212750Y131504D01*
X212750Y131504D01*
X212754Y131471D01*
X212735Y131443D01*
X212735Y131443D01*
X212725Y131392D01*
X212725Y131392D01*
X212732Y131359D01*
X212716Y131330D01*
X212716Y131330D01*
X212711Y131278D01*
X212711Y131278D01*
X212719Y131244D01*
X212708Y131216D01*
X212708Y131216D01*
Y131164D01*
X212708Y131164D01*
X212719Y131133D01*
X212711Y131101D01*
X212711Y131101D01*
X212716Y131050D01*
X212716Y131050D01*
X212730Y131023D01*
X212725Y130988D01*
X212725Y130988D01*
X212735Y130937D01*
X212735Y130937D01*
X212754Y130909D01*
X212750Y130876D01*
X212750Y130876D01*
X212765Y130826D01*
X212765Y130826D01*
X212787Y130801D01*
X212787Y130767D01*
X212787Y130767D01*
X212806Y130719D01*
Y130719D01*
X212830Y130696D01*
X212833Y130663D01*
X212833Y130663D01*
X212858Y130617D01*
Y130617D01*
X212881Y130598D01*
X212890Y130563D01*
X212890Y130563D01*
X212919Y130520D01*
X212919Y130520D01*
X212944Y130503D01*
X212956Y130470D01*
X212956Y130470D01*
X212989Y130430D01*
X212989Y130430D01*
X213017Y130415D01*
X213031Y130383D01*
X213031Y130383D01*
X213068Y130347D01*
X213068Y130347D01*
X213099Y130334D01*
X213114Y130304D01*
X213154Y130272D01*
X213154Y130272D01*
X213186Y130262D01*
X213205Y130234D01*
X213248Y130205D01*
X213248Y130205D01*
X213281Y130199D01*
X213302Y130173D01*
X213347Y130149D01*
X213347Y130149D01*
X213381Y130146D01*
X213404Y130122D01*
X213452Y130102D01*
X213452Y130102D01*
X213485Y130102D01*
X213511Y130081D01*
X213561Y130066D01*
X213561Y130066D01*
X213594Y130069D01*
X213622Y130051D01*
X213701Y130024D01*
X213714Y130019D01*
X213999Y129868D01*
X214252Y129680D01*
X214711Y129190D01*
X214473Y128538D01*
X214439Y128470D01*
X214212Y128141D01*
X214210Y128140D01*
X214094Y128023D01*
X212154Y126901D01*
X212154Y126901D01*
X212154Y126901D01*
X212154Y126901D01*
X212129Y126887D01*
X212111Y126863D01*
X212082Y126857D01*
X212082Y126857D01*
X212035Y126824D01*
X212019Y126799D01*
X211991Y126790D01*
X211991Y126790D01*
X211947Y126753D01*
X211933Y126727D01*
X211906Y126715D01*
X211906Y126715D01*
X211865Y126675D01*
X211854Y126647D01*
X211827Y126634D01*
X211827Y126634D01*
X211791Y126590D01*
X211782Y126561D01*
X211757Y126545D01*
X211757Y126545D01*
X211724Y126498D01*
X211717Y126469D01*
X211694Y126451D01*
Y126451D01*
X211665Y126401D01*
X211661Y126372D01*
X211639Y126352D01*
Y126352D01*
X211615Y126300D01*
X211614Y126272D01*
X211594Y126248D01*
X211594Y126248D01*
X211574Y126194D01*
X211575Y126165D01*
X211557Y126141D01*
X211557Y126141D01*
X211543Y126086D01*
X211542Y126086D01*
X211546Y126056D01*
X211530Y126031D01*
X211530Y126031D01*
X211520Y125975D01*
X211520Y125975D01*
X211527Y125945D01*
X211513Y125919D01*
X211513Y125919D01*
X211508Y125862D01*
X211508Y125862D01*
X211511Y125850D01*
X211516Y125832D01*
X211506Y125806D01*
X211506Y125806D01*
Y125743D01*
X211506Y125743D01*
X211508Y125737D01*
X211519Y125709D01*
X211509Y125676D01*
X211509Y125676D01*
X211516Y125608D01*
X211516Y125608D01*
X211533Y125576D01*
X211527Y125541D01*
X211527Y125541D01*
X211541Y125474D01*
X211541Y125474D01*
X211561Y125444D01*
X211559Y125409D01*
X211559Y125409D01*
X211580Y125344D01*
X211580Y125344D01*
X211603Y125317D01*
X211604Y125281D01*
X211604Y125281D01*
X211632Y125218D01*
X211632Y125218D01*
X211658Y125192D01*
X211662Y125158D01*
X211663Y125158D01*
X211697Y125099D01*
X211697Y125098D01*
X211724Y125076D01*
X211733Y125042D01*
X211734Y125042D01*
X211774Y124986D01*
X211774Y124986D01*
X211803Y124969D01*
X211816Y124934D01*
X211816Y124934D01*
X211862Y124883D01*
X211862Y124883D01*
X211894Y124868D01*
X211910Y124836D01*
X211910Y124836D01*
X211961Y124790D01*
X211961Y124790D01*
X211995Y124778D01*
X212013Y124747D01*
X212013Y124747D01*
X212069Y124707D01*
X212069Y124707D01*
X212104Y124698D01*
X212125Y124670D01*
X212125Y124670D01*
X212185Y124636D01*
X212185Y124636D01*
X212219Y124631D01*
X212245Y124606D01*
X212245D01*
X212308Y124577D01*
X212308Y124577D01*
X212342Y124577D01*
X212370Y124553D01*
X212370Y124553D01*
X212436Y124532D01*
X212436Y124532D01*
X212471Y124535D01*
X212501Y124515D01*
X212501Y124515D01*
X212568Y124501D01*
X212568Y124501D01*
X212604Y124507D01*
X212634Y124490D01*
X212634Y124490D01*
X212703Y124483D01*
X212703Y124483D01*
X212741Y124492D01*
X212770Y124479D01*
X212839Y124479D01*
X212839Y124479D01*
X212872Y124493D01*
X212906Y124483D01*
X212975Y124490D01*
X212975Y124490D01*
X213006Y124507D01*
X213041Y124501D01*
X213108Y124515D01*
X213108Y124515D01*
X213137Y124535D01*
X213173Y124532D01*
X213238Y124554D01*
X213239Y124554D01*
X213265Y124577D01*
X213301Y124578D01*
X213364Y124606D01*
X213364D01*
X213388Y124632D01*
X213424Y124636D01*
X213454Y124654D01*
X213454Y124654D01*
X213454Y124654D01*
X213454D01*
X215360Y125756D01*
X215507Y125800D01*
X215915Y125844D01*
X215999Y125841D01*
X216691Y125733D01*
X216926Y125054D01*
X216958Y124822D01*
X216966Y124668D01*
X216967Y124547D01*
X216928Y124343D01*
X216930Y124321D01*
X216916Y124303D01*
X216916Y124303D01*
X216907Y124270D01*
X216910Y124248D01*
X216898Y124229D01*
X216898Y124229D01*
X216891Y124195D01*
X216895Y124173D01*
X216884Y124154D01*
X216884Y124154D01*
X216880Y124120D01*
X216886Y124098D01*
X216876Y124078D01*
X216876Y124078D01*
X216873Y124044D01*
X216881Y124022D01*
X216872Y124002D01*
X216872Y124002D01*
Y123956D01*
X216886Y123922D01*
X216876Y123886D01*
X216876Y123886D01*
X216882Y123829D01*
X216900Y123797D01*
X216894Y123760D01*
X216894Y123760D01*
X216906Y123704D01*
X216927Y123674D01*
X216925Y123637D01*
X216925Y123637D01*
X216943Y123582D01*
X216968Y123555D01*
X216969Y123518D01*
X216969Y123518D01*
X216994Y123466D01*
Y123466D01*
X217021Y123440D01*
X217026Y123404D01*
X217026Y123404D01*
X217056Y123355D01*
X217056Y123355D01*
X217086Y123332D01*
X217096Y123297D01*
X217096Y123297D01*
X217131Y123252D01*
X217131Y123251D01*
X217163Y123232D01*
X217176Y123199D01*
X217176Y123199D01*
X217216Y123157D01*
X217216Y123157D01*
X217250Y123142D01*
X217267Y123109D01*
X217267Y123109D01*
X217311Y123073D01*
X217311Y123072D01*
X217349Y123058D01*
X217367Y123031D01*
X217367Y123031D01*
X217415Y122999D01*
X217415Y122999D01*
X217454Y122988D01*
X217475Y122963D01*
X217475Y122963D01*
X217526Y122937D01*
X217526Y122936D01*
X217565Y122931D01*
X217589Y122908D01*
X217589Y122908D01*
X217643Y122887D01*
X217643Y122887D01*
X217679Y122888D01*
X217709Y122865D01*
X217709Y122865D01*
X217765Y122850D01*
X217765Y122850D01*
X217801Y122855D01*
X217833Y122836D01*
X217833Y122836D01*
X217890Y122827D01*
X217890Y122827D01*
X217922Y122835D01*
X217959Y122820D01*
X217959Y122820D01*
X218017Y122818D01*
X218017Y122818D01*
X218048Y122829D01*
X218087Y122819D01*
X218087Y122819D01*
X218144Y122823D01*
X218144Y122822D01*
X218173Y122837D01*
X218213Y122831D01*
X218213Y122831D01*
X218270Y122841D01*
X218270Y122841D01*
X218301Y122861D01*
X218338Y122857D01*
X218393Y122873D01*
X218393Y122873D01*
X218422Y122896D01*
X218459Y122896D01*
X218512Y122918D01*
X218512D01*
X218538Y122944D01*
X218575Y122948D01*
X218625Y122976D01*
X218625D01*
X218648Y123005D01*
X218685Y123013D01*
X218732Y123046D01*
X218732Y123046D01*
X218752Y123077D01*
X218787Y123089D01*
X218830Y123127D01*
X218830Y123127D01*
X218846Y123160D01*
X218880Y123176D01*
X218908Y123207D01*
X218919Y123219D01*
X219021Y123306D01*
X219356Y123500D01*
X219409Y123527D01*
X219431Y123535D01*
X219824Y123646D01*
X220161Y123697D01*
X220624Y123199D01*
X220655Y123159D01*
X220725Y123037D01*
X220883Y122637D01*
X220895Y122581D01*
Y88717D01*
X220907Y88686D01*
X220898Y88655D01*
X220898Y88654D01*
X220904Y88590D01*
X220920Y88561D01*
X220913Y88528D01*
X220926Y88464D01*
X220944Y88437D01*
X220941Y88404D01*
X220941Y88404D01*
X220960Y88342D01*
X220981Y88316D01*
Y88283D01*
X221006Y88223D01*
X221029Y88199D01*
X221033Y88166D01*
X221033Y88166D01*
X221063Y88109D01*
X221089Y88088D01*
X221095Y88055D01*
X221131Y88001D01*
X221159Y87983D01*
X221169Y87951D01*
X221169Y87951D01*
X221210Y87901D01*
X221239Y87885D01*
X221252Y87854D01*
X221252Y87854D01*
X221298Y87809D01*
X221329Y87796D01*
X221344Y87767D01*
X221394Y87726D01*
X221394Y87726D01*
X221426Y87716D01*
X221445Y87688D01*
X221445Y87688D01*
X221498Y87652D01*
X221531Y87646D01*
X221552Y87620D01*
X221609Y87589D01*
X221609Y87589D01*
X221643Y87586D01*
X221666Y87563D01*
X221666D01*
X221726Y87538D01*
X221759D01*
X221785Y87517D01*
X221847Y87498D01*
X221847Y87498D01*
X221880Y87501D01*
X221908Y87483D01*
X221908Y87483D01*
X221971Y87470D01*
X222004Y87476D01*
X222033Y87461D01*
X222033Y87461D01*
X222098Y87454D01*
X222098Y87454D01*
X222130Y87464D01*
X222160Y87451D01*
X222161Y87451D01*
X222225D01*
X222225Y87451D01*
X222256Y87464D01*
X222288Y87454D01*
X222288Y87454D01*
X222352Y87461D01*
X222382Y87476D01*
X222414Y87470D01*
X222478Y87483D01*
X222478Y87483D01*
X222505Y87501D01*
X222539Y87498D01*
X222539Y87498D01*
X222601Y87517D01*
X222626Y87538D01*
X222660D01*
X222720Y87563D01*
X222720Y87563D01*
X222743Y87586D01*
X222776Y87589D01*
X222776Y87589D01*
X222833Y87620D01*
X222854Y87646D01*
X222887Y87652D01*
X222941Y87688D01*
X222941Y87688D01*
X222959Y87716D01*
X222991Y87726D01*
X222991Y87726D01*
X223041Y87766D01*
X223041Y87767D01*
X223057Y87796D01*
X223088Y87809D01*
X223134Y87854D01*
X223134Y87854D01*
X223146Y87885D01*
X223176Y87901D01*
X223217Y87951D01*
X223217Y87951D01*
X223226Y87983D01*
X223254Y88001D01*
X223290Y88055D01*
X223297Y88088D01*
X223322Y88109D01*
X223353Y88166D01*
X223353Y88166D01*
X223356Y88199D01*
X223380Y88223D01*
X223405Y88283D01*
Y88316D01*
X223426Y88342D01*
X223445Y88404D01*
X223445Y88404D01*
X223441Y88437D01*
X223460Y88464D01*
X223472Y88528D01*
X223466Y88561D01*
X223481Y88590D01*
X223488Y88654D01*
X223488Y88654D01*
X223478Y88686D01*
X223491Y88717D01*
Y122605D01*
X223499Y122631D01*
X223612Y122943D01*
X223718Y123140D01*
X223752Y123186D01*
X224251Y123732D01*
X224906Y123563D01*
X224998Y123526D01*
X225067Y123492D01*
X225399Y123296D01*
X225503Y123197D01*
X225526Y123173D01*
X225561Y123157D01*
X225578Y123123D01*
X225578Y123123D01*
X225623Y123085D01*
X225659Y123073D01*
X225680Y123041D01*
X225680Y123041D01*
X225729Y123008D01*
X225766Y123000D01*
X225790Y122971D01*
X225790D01*
X225842Y122943D01*
X225880Y122940D01*
X225907Y122913D01*
X225908D01*
X225963Y122892D01*
X226001Y122892D01*
X226031Y122869D01*
X226031Y122869D01*
X226088Y122854D01*
X226088Y122854D01*
X226126Y122859D01*
X226158Y122839D01*
X226158Y122839D01*
X226217Y122830D01*
X226217Y122830D01*
X226254Y122840D01*
X226288Y122824D01*
X226288Y122824D01*
X226347Y122822D01*
X226347Y122822D01*
X226386Y122834D01*
X226419Y122823D01*
X226419Y122823D01*
X226478Y122827D01*
X226478Y122827D01*
X226512Y122845D01*
X226549Y122837D01*
X226549Y122837D01*
X226607Y122848D01*
X226607Y122848D01*
X226639Y122869D01*
X226677Y122865D01*
X226677Y122865D01*
X226733Y122883D01*
X226733Y122883D01*
X226763Y122907D01*
X226801Y122908D01*
X226801Y122908D01*
X226855Y122931D01*
X226855D01*
X226885Y122959D01*
X226919Y122964D01*
X226919Y122964D01*
X226970Y122993D01*
X226970Y122993D01*
X226991Y123021D01*
X227030Y123033D01*
X227030Y123033D01*
X227078Y123068D01*
X227078Y123068D01*
X227097Y123100D01*
X227133Y123114D01*
X227133Y123114D01*
X227176Y123154D01*
X227176Y123154D01*
X227192Y123188D01*
X227226Y123205D01*
X227226Y123206D01*
X227264Y123250D01*
X227265Y123250D01*
X227276Y123286D01*
X227308Y123307D01*
X227308Y123307D01*
X227342Y123356D01*
X227342Y123356D01*
X227348Y123390D01*
X227379Y123418D01*
X227379Y123418D01*
X227406Y123470D01*
X227406Y123470D01*
X227410Y123508D01*
X227436Y123535D01*
X227458Y123590D01*
X227458Y123590D01*
X227457Y123628D01*
X227480Y123659D01*
X227495Y123716D01*
X227495Y123716D01*
X227490Y123753D01*
X227510Y123786D01*
X227519Y123844D01*
X227519Y123845D01*
X227510Y123881D01*
X227525Y123916D01*
X227528Y123975D01*
X227528Y123975D01*
X227514Y124011D01*
X227526Y124047D01*
X227522Y124106D01*
X227522Y124106D01*
X227505Y124140D01*
X227512Y124177D01*
X227501Y124235D01*
X227501Y124235D01*
X227481Y124267D01*
X227484Y124305D01*
X227482Y124311D01*
X227440Y124493D01*
X227437Y124662D01*
X227483Y125097D01*
X227553Y125370D01*
X227706Y125746D01*
X228402Y125833D01*
X228607Y125829D01*
X228977Y125767D01*
X228988Y125763D01*
X230903Y124656D01*
X230903Y124656D01*
X230903Y124656D01*
X230931Y124640D01*
X230964Y124636D01*
X230986Y124611D01*
X230987D01*
X231046Y124584D01*
X231079Y124583D01*
X231104Y124561D01*
X231104Y124561D01*
X231165Y124540D01*
X231198Y124543D01*
X231225Y124523D01*
X231225D01*
X231289Y124509D01*
X231321Y124514D01*
X231350Y124497D01*
X231350Y124497D01*
X231414Y124489D01*
X231447Y124497D01*
X231477Y124484D01*
X231477Y124484D01*
X231542Y124481D01*
X231573Y124493D01*
X231604Y124482D01*
X231669Y124487D01*
X231697Y124500D01*
X231731Y124494D01*
X231731Y124494D01*
X231795Y124504D01*
X231795Y124504D01*
X231823Y124522D01*
X231856Y124518D01*
X231919Y124534D01*
X231919D01*
X231945Y124555D01*
X231979Y124553D01*
X231979Y124553D01*
X232039Y124576D01*
X232039Y124576D01*
X232064Y124599D01*
X232097Y124601D01*
X232097Y124601D01*
X232155Y124630D01*
X232155Y124630D01*
X232177Y124655D01*
X232210Y124660D01*
X232210Y124660D01*
X232265Y124694D01*
X232284Y124721D01*
X232316Y124730D01*
X232316Y124730D01*
X232368Y124769D01*
X232368Y124769D01*
X232384Y124798D01*
X232416Y124810D01*
X232416Y124810D01*
X232463Y124854D01*
X232463Y124854D01*
X232477Y124884D01*
X232507Y124899D01*
X232507Y124899D01*
X232549Y124948D01*
X232560Y124979D01*
X232588Y124997D01*
Y124997D01*
X232626Y125050D01*
X232626Y125050D01*
X232634Y125082D01*
X232660Y125102D01*
X232660Y125102D01*
X232693Y125158D01*
X232697Y125191D01*
X232721Y125214D01*
X232748Y125273D01*
X232748Y125273D01*
X232749Y125306D01*
X232771Y125331D01*
X232771Y125331D01*
X232792Y125393D01*
X232792Y125393D01*
X232790Y125426D01*
X232809Y125453D01*
X232824Y125516D01*
X232824Y125516D01*
X232818Y125549D01*
X232835Y125578D01*
X232835Y125578D01*
X232844Y125642D01*
X232844Y125642D01*
X232835Y125674D01*
X232849Y125704D01*
X232849Y125705D01*
X232851Y125769D01*
X232851Y125769D01*
X232839Y125800D01*
X232850Y125832D01*
X232850Y125832D01*
X232846Y125897D01*
X232846Y125897D01*
X232831Y125926D01*
X232839Y125959D01*
X232839Y125959D01*
X232828Y126023D01*
X232810Y126051D01*
X232815Y126084D01*
X232815Y126084D01*
X232798Y126146D01*
X232798Y126147D01*
X232778Y126173D01*
X232779Y126206D01*
X232779Y126206D01*
X232756Y126267D01*
X232733Y126291D01*
X232731Y126324D01*
X232731Y126325D01*
X232703Y126383D01*
Y126383D01*
X232677Y126409D01*
X232672Y126437D01*
X232638Y126492D01*
Y126492D01*
X232611Y126512D01*
X232602Y126544D01*
X232563Y126595D01*
X232563Y126595D01*
X232534Y126612D01*
X232522Y126643D01*
X232478Y126690D01*
X232478Y126690D01*
X232448Y126704D01*
X232433Y126734D01*
X232384Y126777D01*
X232384Y126777D01*
X232353Y126788D01*
X232335Y126816D01*
X232283Y126854D01*
X232283Y126854D01*
X232250Y126861D01*
X232230Y126888D01*
X232202Y126904D01*
X232202Y126904D01*
X232202Y126904D01*
X232202Y126904D01*
X230281Y128014D01*
X230270Y128024D01*
X230014Y128341D01*
X229923Y128498D01*
X229905Y128544D01*
X229695Y129257D01*
X230218Y129773D01*
X230253Y129800D01*
X230310Y129837D01*
X230623Y130011D01*
X230793Y130064D01*
X230807Y130067D01*
X230838Y130089D01*
X230876Y130087D01*
X230876Y130087D01*
X230932Y130107D01*
X230960Y130132D01*
X230998Y130134D01*
X230998Y130134D01*
X231052Y130160D01*
X231077Y130188D01*
X231115Y130194D01*
X231115Y130194D01*
X231165Y130226D01*
X231187Y130257D01*
X231223Y130267D01*
X231223Y130268D01*
X231269Y130304D01*
X231288Y130338D01*
X231323Y130352D01*
X231323Y130352D01*
X231365Y130394D01*
X231379Y130429D01*
X231412Y130448D01*
X231413Y130448D01*
X231449Y130494D01*
X231460Y130530D01*
X231491Y130552D01*
X231491Y130552D01*
X231522Y130603D01*
X231522Y130603D01*
X231529Y130640D01*
X231557Y130665D01*
Y130665D01*
X231573Y130699D01*
X231582Y130719D01*
X231583Y130719D01*
X231585Y130757D01*
X231610Y130785D01*
Y130785D01*
X231629Y130841D01*
X231629Y130841D01*
X231627Y130879D01*
X231649Y130910D01*
X231649Y130910D01*
X231662Y130967D01*
X231663Y130967D01*
X231656Y131005D01*
X231675Y131038D01*
X231674Y131038D01*
X231681Y131097D01*
X231681Y131097D01*
X231672Y131137D01*
X231685Y131169D01*
X231685Y131169D01*
X231685Y131228D01*
X231685Y131228D01*
X231670Y131263D01*
X231681Y131299D01*
X231681Y131299D01*
X231674Y131358D01*
X231674Y131358D01*
X231657Y131395D01*
X231662Y131429D01*
X231662Y131429D01*
X231649Y131486D01*
X231649Y131486D01*
X231627Y131518D01*
X231629Y131555D01*
X231629Y131556D01*
X231610Y131611D01*
X231610Y131611D01*
X231584Y131640D01*
X231582Y131678D01*
X231582Y131678D01*
X231556Y131731D01*
Y131731D01*
X231531Y131754D01*
X231522Y131794D01*
X231522Y131794D01*
X231490Y131844D01*
X231490Y131844D01*
X231461Y131865D01*
X231449Y131902D01*
X231449Y131902D01*
X231412Y131948D01*
X231412Y131948D01*
X231382Y131965D01*
X231364Y132002D01*
X231364Y132002D01*
X231322Y132044D01*
X231322Y132044D01*
X231287Y132058D01*
X231269Y132092D01*
X231222Y132128D01*
X231222Y132129D01*
X231186Y132139D01*
X231164Y132170D01*
X231114Y132201D01*
X231114Y132201D01*
X231076Y132208D01*
X231051Y132236D01*
X230998Y132262D01*
X230997Y132262D01*
X230960Y132264D01*
X230931Y132289D01*
X230875Y132309D01*
X230875Y132309D01*
X230837Y132307D01*
X230806Y132328D01*
X230793Y132332D01*
X230619Y132387D01*
X230307Y132563D01*
X230250Y132600D01*
X230237Y132610D01*
X230203Y132640D01*
X229867Y132976D01*
X229665Y133254D01*
X229929Y133904D01*
X230020Y134061D01*
X230276Y134377D01*
X230287Y134387D01*
X232223Y135506D01*
X232223Y135506D01*
X232223D01*
X232223Y135506D01*
X232251Y135522D01*
X232271Y135549D01*
X232304Y135556D01*
X232304Y135556D01*
X232356Y135594D01*
X232374Y135622D01*
X232405Y135633D01*
X232454Y135676D01*
X232469Y135706D01*
X232499Y135719D01*
X232499Y135720D01*
X232543Y135767D01*
X232555Y135798D01*
X232584Y135815D01*
X232584Y135815D01*
X232623Y135866D01*
X232632Y135898D01*
X232659Y135918D01*
Y135918D01*
X232693Y135973D01*
X232698Y136005D01*
X232723Y136027D01*
Y136028D01*
X232752Y136085D01*
X232754Y136119D01*
X232777Y136143D01*
X232800Y136204D01*
X232799Y136237D01*
X232819Y136263D01*
X232819Y136263D01*
X232835Y136326D01*
X232835Y136326D01*
X232831Y136359D01*
X232849Y136387D01*
X232859Y136451D01*
X232859Y136451D01*
X232852Y136484D01*
X232866Y136513D01*
X232866Y136513D01*
X232871Y136578D01*
X232860Y136610D01*
X232872Y136641D01*
X232869Y136706D01*
X232869Y136706D01*
X232856Y136736D01*
X232864Y136768D01*
X232864Y136768D01*
X232856Y136832D01*
X232856Y136832D01*
X232839Y136861D01*
X232844Y136894D01*
X232844Y136894D01*
X232830Y136957D01*
X232810Y136984D01*
X232812Y137017D01*
X232812Y137017D01*
X232791Y137078D01*
Y137079D01*
X232769Y137104D01*
X232768Y137137D01*
X232768Y137137D01*
X232742Y137196D01*
X232717Y137219D01*
X232713Y137252D01*
X232681Y137308D01*
X232681Y137308D01*
X232654Y137328D01*
X232647Y137360D01*
X232646Y137360D01*
X232609Y137413D01*
Y137413D01*
X232580Y137431D01*
X232570Y137462D01*
X232527Y137511D01*
X232527Y137511D01*
X232497Y137525D01*
X232483Y137556D01*
X232483Y137556D01*
X232436Y137600D01*
X232405Y137612D01*
X232388Y137641D01*
X232337Y137680D01*
X232337Y137680D01*
X232305Y137689D01*
X232285Y137716D01*
X232285D01*
X232230Y137750D01*
X232230Y137750D01*
X232197Y137755D01*
X232175Y137780D01*
X232175Y137780D01*
X232117Y137809D01*
X232117Y137809D01*
X232084Y137811D01*
X232060Y137834D01*
X232060Y137834D01*
X231999Y137856D01*
X231999Y137856D01*
X231966Y137855D01*
X231940Y137876D01*
X231939Y137876D01*
X231877Y137892D01*
X231844Y137888D01*
X231816Y137906D01*
X231816Y137906D01*
X231752Y137916D01*
X231752Y137916D01*
X231717Y137909D01*
X231689Y137923D01*
X231625Y137927D01*
X231593Y137917D01*
X231562Y137928D01*
X231497Y137926D01*
X231497Y137926D01*
X231467Y137912D01*
X231435Y137921D01*
X231371Y137913D01*
X231342Y137896D01*
X231309Y137901D01*
X231246Y137887D01*
X231246Y137887D01*
X231219Y137867D01*
X231186Y137869D01*
X231124Y137848D01*
X231124Y137848D01*
X231099Y137826D01*
X231066Y137825D01*
X231007Y137799D01*
X231007D01*
X230984Y137774D01*
X230951Y137770D01*
X230923Y137754D01*
X230923Y137754D01*
X230923Y137754D01*
X230923Y137754D01*
X228979Y136630D01*
X228948Y136622D01*
X228629Y136565D01*
X228402Y136558D01*
X228345Y136565D01*
X227624Y136722D01*
X227437Y137436D01*
X227432Y137475D01*
X227429Y137542D01*
X227434Y137899D01*
X227474Y138075D01*
X227478Y138088D01*
X227474Y138126D01*
X227495Y138157D01*
X227495Y138157D01*
X227506Y138216D01*
X227498Y138253D01*
X227515Y138287D01*
X227515Y138287D01*
X227520Y138346D01*
X227508Y138382D01*
X227521Y138417D01*
X227521Y138417D01*
X227519Y138477D01*
X227503Y138511D01*
X227512Y138548D01*
X227512Y138548D01*
X227503Y138607D01*
X227484Y138639D01*
X227488Y138677D01*
X227488Y138677D01*
X227473Y138734D01*
X227450Y138764D01*
X227451Y138802D01*
X227451Y138802D01*
X227429Y138857D01*
Y138857D01*
X227403Y138884D01*
X227399Y138922D01*
X227399Y138922D01*
X227371Y138974D01*
Y138975D01*
X227341Y139002D01*
X227334Y139036D01*
X227334Y139036D01*
X227301Y139085D01*
X227301Y139085D01*
X227269Y139106D01*
X227257Y139142D01*
X227257Y139142D01*
X227219Y139187D01*
X227219Y139187D01*
X227185Y139204D01*
X227169Y139238D01*
X227169Y139238D01*
X227126Y139278D01*
X227125Y139278D01*
X227090Y139292D01*
X227070Y139324D01*
X227070Y139324D01*
X227023Y139359D01*
X227023Y139359D01*
X226986Y139369D01*
X226963Y139399D01*
X226962Y139399D01*
X226911Y139428D01*
X226911Y139428D01*
X226877Y139433D01*
X226847Y139461D01*
X226847D01*
X226793Y139484D01*
X226793Y139484D01*
X226755Y139485D01*
X226726Y139509D01*
X226726Y139509D01*
X226669Y139526D01*
X226669Y139526D01*
X226631Y139523D01*
X226600Y139544D01*
X226600Y139544D01*
X226541Y139555D01*
X226541Y139555D01*
X226504Y139547D01*
X226470Y139564D01*
X226470Y139564D01*
X226411Y139568D01*
X226411Y139568D01*
X226377Y139557D01*
X226340Y139570D01*
X226340Y139570D01*
X226280Y139567D01*
X226280Y139567D01*
X226248Y139552D01*
X226209Y139561D01*
X226209Y139561D01*
X226150Y139552D01*
X226150Y139552D01*
X226118Y139532D01*
X226080Y139537D01*
X226023Y139522D01*
X226023Y139522D01*
X225993Y139499D01*
X225955Y139499D01*
X225900Y139478D01*
X225900D01*
X225872Y139451D01*
X225835Y139448D01*
X225782Y139420D01*
X225782D01*
X225758Y139391D01*
X225721Y139383D01*
X225672Y139350D01*
X225672Y139350D01*
X225651Y139318D01*
X225615Y139306D01*
X225570Y139268D01*
X225570Y139268D01*
X225553Y139234D01*
X225519Y139218D01*
X225515Y139213D01*
X225372Y139083D01*
X225066Y138903D01*
X225008Y138874D01*
X224999Y138870D01*
X224503Y138737D01*
X224153Y138698D01*
X223725Y139256D01*
X223629Y139427D01*
X223493Y139789D01*
X223491Y139801D01*
Y142087D01*
X223478Y142118D01*
X223488Y142150D01*
X223488Y142150D01*
X223481Y142215D01*
X223466Y142244D01*
X223472Y142277D01*
X223460Y142340D01*
X223441Y142368D01*
X223445Y142401D01*
X223445Y142401D01*
X223426Y142463D01*
X223405Y142489D01*
Y142522D01*
X223380Y142582D01*
X223356Y142605D01*
X223353Y142639D01*
X223353Y142639D01*
X223322Y142696D01*
X223297Y142717D01*
X223290Y142750D01*
X223290Y142750D01*
X223254Y142803D01*
X223226Y142822D01*
X223217Y142854D01*
X223217Y142854D01*
X223176Y142904D01*
X223146Y142919D01*
X223134Y142950D01*
X223134Y142950D01*
X223088Y142996D01*
X223057Y143009D01*
X223041Y143038D01*
X223041Y143038D01*
X222991Y143079D01*
X222991Y143079D01*
X222959Y143089D01*
X222941Y143116D01*
X222941Y143117D01*
X222887Y143152D01*
X222854Y143159D01*
X222833Y143185D01*
X222776Y143215D01*
X222776Y143215D01*
X222743Y143219D01*
X222720Y143242D01*
X222720D01*
X222660Y143267D01*
X222626D01*
X222601Y143288D01*
X222539Y143307D01*
X222539Y143307D01*
X222505Y143304D01*
X222478Y143322D01*
X222478Y143322D01*
X222414Y143335D01*
X222414Y143335D01*
X222382Y143328D01*
X222352Y143344D01*
X222352Y143344D01*
X222288Y143350D01*
X222288Y143350D01*
X222256Y143341D01*
X222225Y143353D01*
D02*
G37*
G36*
X245959Y142741D02*
X245699D01*
X244436Y142402D01*
X243302Y141748D01*
X242377Y140823D01*
X241723Y139690D01*
X241385Y138426D01*
Y138166D01*
X245959D01*
Y142741D01*
D02*
G37*
G36*
X29859Y142741D02*
X29599D01*
Y138166D01*
X34174D01*
Y138426D01*
X33835Y139690D01*
X33181Y140823D01*
X32256Y141748D01*
X31123Y142402D01*
X29859Y142741D01*
D02*
G37*
G36*
X245959Y137378D02*
X241385D01*
Y137118D01*
X241723Y135854D01*
X242377Y134721D01*
X243302Y133796D01*
X244436Y133142D01*
X245699Y132804D01*
X245959D01*
Y137378D01*
D02*
G37*
G36*
X34174Y137378D02*
X29599D01*
Y132804D01*
X29859D01*
X31123Y133142D01*
X32256Y133796D01*
X33181Y134721D01*
X33835Y135854D01*
X34174Y137118D01*
Y137378D01*
D02*
G37*
G36*
X173314Y129173D02*
X172277D01*
X171276Y128905D01*
X170378Y128387D01*
X169645Y127654D01*
X169127Y126756D01*
X168858Y125754D01*
Y124718D01*
X169127Y123717D01*
X169645Y122819D01*
X170378Y122086D01*
X171276Y121567D01*
X172277Y121299D01*
X173314D01*
X174315Y121567D01*
X175213Y122086D01*
X175946Y122819D01*
X176464Y123717D01*
X176732Y124718D01*
Y125754D01*
X176464Y126756D01*
X175946Y127654D01*
X175213Y128387D01*
X174315Y128905D01*
X173314Y129173D01*
D02*
G37*
G36*
X61668Y65988D02*
X60359D01*
X59096Y65649D01*
X57963Y64995D01*
X57779Y64811D01*
X61013Y61576D01*
X64248Y64811D01*
X64064Y64995D01*
X62931Y65649D01*
X61668Y65988D01*
D02*
G37*
G36*
X215199Y65988D02*
X213891D01*
X212627Y65649D01*
X211494Y64995D01*
X211310Y64811D01*
X214545Y61576D01*
X217780Y64811D01*
X217596Y64995D01*
X216463Y65649D01*
X215199Y65988D01*
D02*
G37*
G36*
X64805Y64254D02*
X61570Y61020D01*
X64805Y57785D01*
X64989Y57969D01*
X65643Y59102D01*
X65982Y60365D01*
Y61674D01*
X65643Y62937D01*
X64989Y64070D01*
X64805Y64254D01*
D02*
G37*
G36*
X210753Y64254D02*
X210569Y64070D01*
X209915Y62937D01*
X209576Y61674D01*
Y60365D01*
X209915Y59102D01*
X210569Y57969D01*
X210753Y57785D01*
X213988Y61020D01*
X210753Y64254D01*
D02*
G37*
G36*
X138446Y34180D02*
X138186D01*
Y29605D01*
X142761D01*
Y29865D01*
X142422Y31129D01*
X141768Y32262D01*
X140843Y33187D01*
X139710Y33841D01*
X138446Y34180D01*
D02*
G37*
G36*
X137399D02*
X137138D01*
X135875Y33841D01*
X134742Y33187D01*
X133817Y32262D01*
X133162Y31129D01*
X132824Y29865D01*
Y29605D01*
X137399D01*
Y34180D01*
D02*
G37*
%LPD*%
G36*
X222290Y142708D02*
X222353Y142695D01*
X222415Y142676D01*
X222475Y142651D01*
X222532Y142621D01*
X222586Y142585D01*
X222636Y142544D01*
X222682Y142498D01*
X222723Y142448D01*
X222759Y142394D01*
X222789Y142337D01*
X222814Y142277D01*
X222833Y142215D01*
X222845Y142152D01*
X222852Y142087D01*
Y142055D01*
Y135793D01*
X222871Y135791D01*
X222910Y135785D01*
X222949Y135779D01*
X222987Y135773D01*
X223007Y135769D01*
X223545Y137771D01*
X223545Y137771D01*
X223552Y137796D01*
X223571Y137844D01*
X223597Y137889D01*
X223629Y137930D01*
X223666Y137967D01*
X223707Y137998D01*
X223752Y138024D01*
X223800Y138044D01*
X223850Y138057D01*
X223901Y138064D01*
X223953Y138064D01*
X224005Y138057D01*
X224055Y138043D01*
X224103Y138024D01*
X224148Y137998D01*
X224189Y137966D01*
X224225Y137929D01*
X224257Y137888D01*
X224283Y137843D01*
X224303Y137795D01*
X224316Y137745D01*
X224323Y137694D01*
X224323Y137642D01*
X224316Y137590D01*
X224309Y137565D01*
X223772Y135567D01*
X223772D01*
X223806Y135555D01*
X223876Y135528D01*
X223945Y135501D01*
X224013Y135473D01*
X224047Y135458D01*
X225897Y138666D01*
X225897D01*
X225912Y138692D01*
X225947Y138740D01*
X225988Y138783D01*
X226032Y138822D01*
X226081Y138855D01*
X226134Y138883D01*
X226189Y138905D01*
X226246Y138920D01*
X226305Y138929D01*
X226364Y138931D01*
X226423Y138927D01*
X226481Y138916D01*
X226538Y138898D01*
X226592Y138874D01*
X226643Y138845D01*
X226691Y138810D01*
X226734Y138769D01*
X226773Y138725D01*
X226806Y138676D01*
X226834Y138623D01*
X226856Y138568D01*
X226871Y138511D01*
X226880Y138452D01*
X226882Y138393D01*
X226878Y138334D01*
X226867Y138276D01*
X226849Y138219D01*
X226826Y138165D01*
X226811Y138139D01*
X224960Y134931D01*
X224960Y134931D01*
X224960Y134931D01*
D01*
X224989Y134910D01*
X225046Y134866D01*
X225101Y134822D01*
X225157Y134777D01*
X225184Y134754D01*
X226642Y136209D01*
X226642Y136209D01*
X226660Y136227D01*
X226701Y136259D01*
X226746Y136285D01*
X226794Y136305D01*
X226845Y136318D01*
X226896Y136325D01*
X226948Y136325D01*
X226999Y136318D01*
X227049Y136304D01*
X227097Y136284D01*
X227142Y136258D01*
X227183Y136227D01*
X227220Y136190D01*
X227251Y136149D01*
X227277Y136104D01*
X227297Y136056D01*
X227310Y136006D01*
X227317Y135954D01*
X227317Y135903D01*
X227310Y135851D01*
X227297Y135801D01*
X227277Y135753D01*
X227251Y135708D01*
X227219Y135667D01*
X227201Y135649D01*
X225743Y134194D01*
X225743Y134194D01*
X225755Y134179D01*
X225780Y134150D01*
X225803Y134120D01*
X225827Y134091D01*
X225839Y134076D01*
X231243Y137200D01*
X231271Y137216D01*
X231330Y137243D01*
X231391Y137264D01*
X231454Y137279D01*
X231519Y137287D01*
X231583Y137290D01*
X231648Y137285D01*
X231712Y137275D01*
X231774Y137258D01*
X231835Y137235D01*
X231893Y137207D01*
X231948Y137173D01*
X231999Y137133D01*
X232047Y137089D01*
X232089Y137040D01*
X232127Y136988D01*
X232160Y136932D01*
X232186Y136873D01*
X232207Y136811D01*
X232222Y136748D01*
X232230Y136684D01*
X232233Y136619D01*
X232228Y136555D01*
X232218Y136491D01*
X232201Y136428D01*
X232178Y136368D01*
X232150Y136310D01*
X232116Y136255D01*
X232076Y136203D01*
X232032Y136156D01*
X231983Y136113D01*
X231931Y136076D01*
X231903Y136059D01*
X226496Y132933D01*
X226496Y132933D01*
X226503Y132914D01*
X226518Y132876D01*
X226532Y132838D01*
X226546Y132800D01*
X226553Y132781D01*
X228559Y133317D01*
Y133317D01*
X228584Y133323D01*
X228636Y133330D01*
X228688Y133330D01*
X228739Y133323D01*
X228789Y133310D01*
X228837Y133290D01*
X228882Y133264D01*
X228923Y133232D01*
X228959Y133196D01*
X228991Y133154D01*
X229017Y133109D01*
X229037Y133062D01*
X229050Y133011D01*
X229057Y132960D01*
X229057Y132908D01*
X229050Y132857D01*
X229036Y132807D01*
X229017Y132759D01*
X228991Y132714D01*
X228959Y132673D01*
X228922Y132636D01*
X228881Y132605D01*
X228836Y132579D01*
X228788Y132559D01*
X228763Y132552D01*
X226754Y132016D01*
X226754D01*
X226760Y131979D01*
X226772Y131906D01*
X226782Y131833D01*
X226791Y131760D01*
X226795Y131723D01*
X230518Y131725D01*
X230548Y131725D01*
X230607Y131718D01*
X230664Y131705D01*
X230720Y131686D01*
X230774Y131660D01*
X230824Y131629D01*
X230870Y131592D01*
X230912Y131550D01*
X230949Y131503D01*
X230981Y131453D01*
X231006Y131400D01*
X231026Y131344D01*
X231039Y131286D01*
X231046Y131228D01*
X231046Y131168D01*
X231039Y131109D01*
X231026Y131052D01*
X231007Y130996D01*
X230981Y130942D01*
X230949Y130892D01*
X230912Y130846D01*
X230871Y130804D01*
X230824Y130767D01*
X230774Y130736D01*
X230721Y130710D01*
X230665Y130690D01*
X230607Y130677D01*
X230548Y130670D01*
X230519Y130670D01*
X226786Y130669D01*
X226786D01*
X226782Y130634D01*
X226773Y130565D01*
X226762Y130497D01*
X226750Y130428D01*
X226744Y130394D01*
X228761Y129851D01*
X228786Y129845D01*
X228834Y129825D01*
X228878Y129799D01*
X228920Y129767D01*
X228956Y129730D01*
X228988Y129689D01*
X229014Y129644D01*
X229034Y129596D01*
X229047Y129546D01*
X229054Y129495D01*
X229054Y129443D01*
X229047Y129392D01*
X229033Y129341D01*
X229013Y129294D01*
X228987Y129249D01*
X228956Y129208D01*
X228919Y129171D01*
X228878Y129139D01*
X228833Y129113D01*
X228785Y129094D01*
X228735Y129080D01*
X228683Y129074D01*
X228632Y129074D01*
X228580Y129080D01*
X228555Y129087D01*
X226533Y129631D01*
X226533Y129631D01*
X226526Y129612D01*
X226512Y129573D01*
X226496Y129534D01*
X226481Y129496D01*
X226473Y129477D01*
X231882Y126350D01*
Y126350D01*
X231910Y126334D01*
X231963Y126296D01*
X232011Y126254D01*
X232056Y126207D01*
X232095Y126155D01*
X232129Y126100D01*
X232158Y126042D01*
X232181Y125981D01*
X232197Y125919D01*
X232208Y125855D01*
X232212Y125790D01*
X232210Y125726D01*
X232201Y125662D01*
X232187Y125599D01*
X232166Y125537D01*
X232139Y125478D01*
X232107Y125422D01*
X232069Y125370D01*
X232026Y125321D01*
X231979Y125277D01*
X231928Y125237D01*
X231873Y125203D01*
X231815Y125174D01*
X231754Y125152D01*
X231691Y125135D01*
X231627Y125125D01*
X231563Y125120D01*
X231498Y125122D01*
X231434Y125131D01*
X231371Y125146D01*
X231310Y125166D01*
X231251Y125193D01*
X231223Y125209D01*
X225801Y128343D01*
X225801Y128343D01*
X225790Y128329D01*
X225767Y128302D01*
X225745Y128274D01*
X225722Y128247D01*
X225710Y128234D01*
X227205Y126735D01*
Y126735D01*
X227224Y126717D01*
X227255Y126676D01*
X227281Y126631D01*
X227301Y126583D01*
X227314Y126533D01*
X227321Y126481D01*
X227321Y126430D01*
X227314Y126378D01*
X227301Y126328D01*
X227281Y126280D01*
X227255Y126235D01*
X227223Y126194D01*
X227186Y126158D01*
X227145Y126126D01*
X227100Y126100D01*
X227052Y126080D01*
X227002Y126067D01*
X226951Y126060D01*
X226899Y126060D01*
X226848Y126067D01*
X226798Y126081D01*
X226750Y126101D01*
X226705Y126127D01*
X226664Y126158D01*
X226645Y126176D01*
X225145Y127680D01*
X225145Y127680D01*
X225119Y127658D01*
X225066Y127616D01*
X225013Y127575D01*
X224959Y127534D01*
X224932Y127515D01*
X226817Y124252D01*
X226817D01*
X226817Y124252D01*
X226832Y124227D01*
X226856Y124172D01*
X226873Y124116D01*
X226884Y124058D01*
X226889Y123999D01*
X226887Y123939D01*
X226878Y123881D01*
X226863Y123824D01*
X226841Y123768D01*
X226813Y123716D01*
X226780Y123667D01*
X226741Y123622D01*
X226698Y123582D01*
X226650Y123547D01*
X226599Y123517D01*
X226545Y123493D01*
X226488Y123476D01*
X226430Y123465D01*
X226371Y123460D01*
X226312Y123463D01*
X226253Y123471D01*
X226196Y123487D01*
X226141Y123508D01*
X226088Y123536D01*
X226039Y123569D01*
X225994Y123608D01*
X225954Y123651D01*
X225919Y123699D01*
X225904Y123725D01*
X225904Y123725D01*
X224014Y126994D01*
X224014D01*
X223982Y126980D01*
X223916Y126954D01*
X223849Y126928D01*
X223783Y126903D01*
X223749Y126891D01*
X224297Y124838D01*
X224297Y124838D01*
X224304Y124813D01*
X224311Y124762D01*
X224311Y124710D01*
X224304Y124658D01*
X224290Y124608D01*
X224270Y124560D01*
X224244Y124515D01*
X224213Y124474D01*
X224176Y124438D01*
X224135Y124406D01*
X224090Y124380D01*
X224042Y124361D01*
X223992Y124347D01*
X223940Y124340D01*
X223889Y124340D01*
X223837Y124347D01*
X223787Y124361D01*
X223739Y124381D01*
X223694Y124407D01*
X223653Y124438D01*
X223617Y124475D01*
X223585Y124516D01*
X223559Y124561D01*
X223539Y124609D01*
X223533Y124634D01*
X222983Y126693D01*
X222983Y126693D01*
X222967Y126690D01*
X222934Y126685D01*
X222901Y126680D01*
X222868Y126675D01*
X222852Y126673D01*
Y88749D01*
Y88717D01*
X222845Y88653D01*
X222833Y88589D01*
X222814Y88527D01*
X222789Y88467D01*
X222759Y88410D01*
X222723Y88357D01*
X222682Y88306D01*
X222636Y88261D01*
X222586Y88220D01*
X222532Y88184D01*
X222475Y88153D01*
X222415Y88128D01*
X222353Y88110D01*
X222290Y88097D01*
X222225Y88091D01*
X222160D01*
X222096Y88097D01*
X222032Y88110D01*
X221971Y88128D01*
X221911Y88153D01*
X221854Y88184D01*
X221800Y88220D01*
X221750Y88261D01*
X221704Y88306D01*
X221663Y88357D01*
X221627Y88410D01*
X221597Y88467D01*
X221572Y88527D01*
X221553Y88589D01*
X221540Y88653D01*
X221534Y88717D01*
Y88749D01*
Y126680D01*
X221534D01*
X221516Y126683D01*
X221479Y126688D01*
X221443Y126694D01*
X221406Y126701D01*
X221388Y126704D01*
X220832Y124637D01*
Y124637D01*
X220826Y124614D01*
X220808Y124570D01*
X220785Y124528D01*
X220757Y124489D01*
X220725Y124454D01*
X220689Y124423D01*
X220650Y124397D01*
X220607Y124376D01*
X220563Y124359D01*
X220516Y124349D01*
X220469Y124343D01*
X220422Y124344D01*
X220374Y124350D01*
X220328Y124362D01*
X220284Y124379D01*
X220242Y124402D01*
X220203Y124429D01*
X220168Y124461D01*
X220137Y124496D01*
X220110Y124536D01*
X220088Y124578D01*
X220071Y124622D01*
X220060Y124668D01*
X220054Y124716D01*
Y124739D01*
Y124752D01*
X220056Y124778D01*
X220059Y124804D01*
X220064Y124830D01*
X220068Y124842D01*
X220625Y126913D01*
X220625D01*
X220595Y126924D01*
X220536Y126946D01*
X220478Y126970D01*
X220419Y126994D01*
X220390Y127007D01*
X218495Y123721D01*
X218495Y123721D01*
X218481Y123696D01*
X218447Y123650D01*
X218408Y123607D01*
X218365Y123569D01*
X218318Y123536D01*
X218267Y123509D01*
X218214Y123486D01*
X218159Y123470D01*
X218102Y123460D01*
X218044Y123457D01*
X217987Y123459D01*
X217930Y123468D01*
X217874Y123483D01*
X217821Y123504D01*
X217770Y123530D01*
X217722Y123562D01*
X217678Y123599D01*
X217638Y123641D01*
X217603Y123686D01*
X217573Y123736D01*
X217548Y123788D01*
X217530Y123842D01*
X217518Y123899D01*
X217511Y123956D01*
Y123985D01*
Y124002D01*
X217513Y124036D01*
X217518Y124071D01*
X217525Y124104D01*
X217534Y124138D01*
X217545Y124170D01*
X217558Y124202D01*
X217573Y124233D01*
X217582Y124248D01*
X219477Y127533D01*
X219447Y127555D01*
X219390Y127599D01*
X219333Y127644D01*
X219277Y127689D01*
X219250Y127713D01*
X217725Y126191D01*
X217709Y126174D01*
X217672Y126146D01*
X217632Y126121D01*
X217590Y126102D01*
X217546Y126087D01*
X217500Y126078D01*
X217453Y126075D01*
X217407Y126076D01*
X217361Y126084D01*
X217316Y126096D01*
X217273Y126114D01*
X217232Y126137D01*
X217194Y126165D01*
X217160Y126196D01*
X217130Y126232D01*
X217104Y126271D01*
X217083Y126312D01*
X217067Y126356D01*
X217056Y126401D01*
X217050Y126448D01*
Y126471D01*
Y126490D01*
X217054Y126529D01*
X217062Y126567D01*
X217073Y126604D01*
X217088Y126640D01*
X217106Y126675D01*
X217128Y126707D01*
X217153Y126737D01*
X217166Y126751D01*
X218691Y128273D01*
X218691D01*
X218680Y128285D01*
X218660Y128310D01*
X218639Y128335D01*
X218619Y128360D01*
X218609Y128373D01*
X213134Y125207D01*
X213104Y125190D01*
X213041Y125162D01*
X212975Y125140D01*
X212907Y125126D01*
X212839Y125119D01*
X212770Y125119D01*
X212701Y125126D01*
X212633Y125140D01*
X212568Y125162D01*
X212505Y125190D01*
X212445Y125224D01*
X212389Y125265D01*
X212337Y125311D01*
X212291Y125362D01*
X212250Y125418D01*
X212216Y125478D01*
X212188Y125541D01*
X212167Y125607D01*
X212152Y125674D01*
X212145Y125743D01*
Y125778D01*
Y125806D01*
X212150Y125864D01*
X212160Y125920D01*
X212175Y125976D01*
X212194Y126030D01*
X212219Y126082D01*
X212247Y126132D01*
X212280Y126179D01*
X212317Y126223D01*
X212358Y126264D01*
X212402Y126301D01*
X212449Y126334D01*
X212474Y126348D01*
X217946Y129512D01*
X217946D01*
X217939Y129529D01*
X217926Y129564D01*
X217913Y129598D01*
X217900Y129633D01*
X217893Y129650D01*
X215828Y129099D01*
X215806Y129093D01*
X215761Y129087D01*
X215716Y129085D01*
X215671Y129089D01*
X215626Y129098D01*
X215583Y129112D01*
X215542Y129130D01*
X215503Y129154D01*
X215467Y129181D01*
X215434Y129213D01*
X215406Y129248D01*
X215381Y129286D01*
X215361Y129327D01*
X215346Y129369D01*
X215335Y129414D01*
X215330Y129459D01*
Y129481D01*
Y129503D01*
X215335Y129546D01*
X215344Y129588D01*
X215358Y129629D01*
X215377Y129668D01*
X215399Y129705D01*
X215425Y129739D01*
X215455Y129771D01*
X215488Y129798D01*
X215524Y129823D01*
X215563Y129842D01*
X215603Y129858D01*
X215624Y129864D01*
X217686Y130414D01*
X217681Y130445D01*
X217670Y130508D01*
X217660Y130570D01*
X217652Y130633D01*
X217648Y130664D01*
X213874Y130663D01*
X213874Y130663D01*
X213848Y130663D01*
X213797Y130668D01*
X213746Y130678D01*
X213697Y130693D01*
X213649Y130713D01*
X213603Y130737D01*
X213560Y130766D01*
X213520Y130799D01*
X213483Y130835D01*
X213450Y130875D01*
X213421Y130918D01*
X213397Y130964D01*
X213377Y131012D01*
X213362Y131062D01*
X213352Y131112D01*
X213347Y131164D01*
Y131190D01*
Y131216D01*
X213352Y131267D01*
X213362Y131318D01*
X213377Y131368D01*
X213397Y131416D01*
X213421Y131461D01*
X213450Y131504D01*
X213483Y131544D01*
X213520Y131581D01*
X213560Y131614D01*
X213603Y131643D01*
X213648Y131667D01*
X213696Y131687D01*
X213746Y131702D01*
X213796Y131712D01*
X213848Y131717D01*
X213874Y131717D01*
X217638Y131719D01*
X217638D01*
X217642Y131756D01*
X217651Y131829D01*
X217661Y131903D01*
X217673Y131976D01*
X217679Y132012D01*
X215627Y132564D01*
Y132564D01*
X215606Y132570D01*
X215565Y132586D01*
X215527Y132606D01*
X215491Y132630D01*
X215458Y132657D01*
X215428Y132689D01*
X215402Y132723D01*
X215380Y132760D01*
X215361Y132799D01*
X215348Y132840D01*
X215338Y132882D01*
X215334Y132925D01*
Y132946D01*
Y132969D01*
X215339Y133014D01*
X215349Y133058D01*
X215364Y133101D01*
X215384Y133142D01*
X215409Y133180D01*
X215438Y133215D01*
X215471Y133247D01*
X215507Y133274D01*
X215545Y133298D01*
X215587Y133316D01*
X215630Y133330D01*
X215675Y133339D01*
X215720Y133343D01*
X215765Y133341D01*
X215810Y133334D01*
X215832Y133328D01*
X217880Y132778D01*
X217885Y132793D01*
X217896Y132823D01*
X217907Y132852D01*
X217918Y132882D01*
X217924Y132896D01*
X212452Y136059D01*
X212427Y136074D01*
X212380Y136107D01*
X212336Y136144D01*
X212295Y136185D01*
X212258Y136229D01*
X212225Y136276D01*
X212196Y136326D01*
X212172Y136378D01*
X212152Y136432D01*
X212137Y136487D01*
X212127Y136544D01*
X212122Y136601D01*
Y136630D01*
Y136664D01*
X212130Y136733D01*
X212144Y136801D01*
X212165Y136866D01*
X212193Y136930D01*
X212228Y136989D01*
X212269Y137045D01*
X212315Y137097D01*
X212366Y137143D01*
X212422Y137183D01*
X212482Y137218D01*
X212545Y137246D01*
X212611Y137267D01*
X212678Y137282D01*
X212747Y137289D01*
X212816Y137289D01*
X212885Y137282D01*
X212952Y137267D01*
X213018Y137246D01*
X213081Y137218D01*
X213111Y137200D01*
X218571Y134045D01*
X218583Y134060D01*
X218607Y134091D01*
X218632Y134122D01*
X218656Y134152D01*
X218669Y134168D01*
X217187Y135652D01*
X217187Y135652D01*
X217174Y135666D01*
X217149Y135696D01*
X217127Y135728D01*
X217109Y135762D01*
X217094Y135798D01*
X217083Y135835D01*
X217075Y135873D01*
X217072Y135912D01*
Y135932D01*
Y135955D01*
X217077Y136001D01*
X217088Y136047D01*
X217104Y136091D01*
X217125Y136132D01*
X217151Y136171D01*
X217182Y136206D01*
X217216Y136238D01*
X217254Y136266D01*
X217295Y136288D01*
X217338Y136306D01*
X217383Y136319D01*
X217429Y136326D01*
X217475Y136328D01*
X217522Y136324D01*
X217568Y136315D01*
X217612Y136301D01*
X217654Y136281D01*
X217694Y136257D01*
X217731Y136228D01*
X217747Y136211D01*
X219224Y134732D01*
X219250Y134755D01*
X219304Y134799D01*
X219358Y134843D01*
X219413Y134886D01*
X219441Y134907D01*
X217575Y138135D01*
Y138135D01*
X217567Y138150D01*
X217551Y138181D01*
X217538Y138213D01*
X217527Y138246D01*
X217518Y138279D01*
X217511Y138313D01*
X217507Y138347D01*
X217505Y138382D01*
Y138399D01*
Y138428D01*
X217511Y138485D01*
X217523Y138541D01*
X217542Y138596D01*
X217566Y138648D01*
X217596Y138697D01*
X217631Y138743D01*
X217671Y138784D01*
X217715Y138821D01*
X217763Y138853D01*
X217814Y138880D01*
X217867Y138901D01*
X217923Y138916D01*
X217980Y138925D01*
X218038Y138927D01*
X218095Y138923D01*
X218152Y138913D01*
X218207Y138897D01*
X218260Y138875D01*
X218311Y138848D01*
X218358Y138815D01*
X218401Y138777D01*
X218440Y138734D01*
X218474Y138688D01*
X218489Y138663D01*
X220350Y135442D01*
X220350D01*
X220350D01*
D01*
X220383Y135457D01*
X220450Y135485D01*
X220517Y135512D01*
X220584Y135538D01*
X220618Y135551D01*
X220079Y137569D01*
Y137569D01*
X220076Y137582D01*
X220071Y137607D01*
X220068Y137633D01*
X220066Y137658D01*
Y137671D01*
Y137695D01*
X220072Y137742D01*
X220083Y137788D01*
X220100Y137833D01*
X220122Y137875D01*
X220149Y137914D01*
X220180Y137950D01*
X220216Y137982D01*
X220254Y138009D01*
X220296Y138031D01*
X220341Y138049D01*
X220387Y138060D01*
X220434Y138067D01*
X220481Y138067D01*
X220529Y138062D01*
X220575Y138051D01*
X220620Y138035D01*
X220662Y138013D01*
X220702Y137987D01*
X220738Y137956D01*
X220770Y137921D01*
X220797Y137882D01*
X220820Y137840D01*
X220838Y137796D01*
X220844Y137773D01*
X221381Y135761D01*
X221400Y135764D01*
X221439Y135771D01*
X221477Y135777D01*
X221515Y135784D01*
X221534Y135786D01*
X221534Y142055D01*
Y142087D01*
X221540Y142152D01*
X221553Y142215D01*
X221572Y142277D01*
X221597Y142337D01*
X221627Y142394D01*
X221663Y142448D01*
X221704Y142498D01*
X221750Y142544D01*
X221800Y142585D01*
X221854Y142621D01*
X221911Y142651D01*
X221971Y142676D01*
X222032Y142695D01*
X222096Y142708D01*
X222160Y142714D01*
X222225D01*
X222290Y142708D01*
D02*
G37*
%LPC*%
G36*
X221381Y135761D02*
X221381D01*
X221381D01*
D01*
D02*
G37*
G36*
X217686Y130414D02*
X217686Y130414D01*
D01*
X217686Y130414D01*
D02*
G37*
%LPD*%
D10*
X65354Y53948D02*
G03*
X72425Y56877I0J10000D01*
G01*
X159866Y75221D02*
G03*
X162795Y82292I-7071J7071D01*
G01*
X145464Y64961D02*
G03*
X152535Y67890I0J10000D01*
G01*
X84651Y64961D02*
G03*
X77580Y62032I0J-10000D01*
G01*
X186293Y19211D02*
G03*
X203507Y26342I0J24345D01*
G01*
X239197Y62032D02*
G03*
X242126Y69103I-7071J7071D01*
G01*
X263779Y142520D02*
G03*
X259842Y146457I-3937J0D01*
G01*
X260851Y128173D02*
G03*
X263779Y135245I-7071J7071D01*
G01*
X254331Y146457D02*
G03*
X251181Y143307I0J-3150D01*
G01*
X248252Y124236D02*
G03*
X251181Y131307I-7071J7071D01*
G01*
X245055Y112378D02*
G03*
X242126Y105307I7071J-7071D01*
G01*
X239149Y115134D02*
G03*
X236221Y108063I7071J-7071D01*
G01*
X201402Y80882D02*
G03*
X208473Y77953I7071J7071D01*
G01*
X162795Y123630D02*
G03*
X165724Y116559I10000J0D01*
G01*
X228346Y77953D02*
G03*
X236221Y85827I0J7874D01*
G01*
X221616Y67496D02*
G03*
X218245Y70866I-3371J0D01*
G01*
X253424Y125472D02*
G03*
X256353Y132543I-7071J7071D01*
G01*
X149884Y244268D02*
G03*
X156955Y241339I7071J7071D01*
G01*
X53942Y158231D02*
G03*
X56871Y151160I10000J0D01*
G01*
X44796Y112181D02*
G03*
X51867Y109252I7071J7071D01*
G01*
X92021Y116011D02*
G03*
X96457Y114173I4436J4436D01*
G01*
X106275Y111244D02*
G03*
X99204Y114173I-7071J-7071D01*
G01*
X112795Y100582D02*
G03*
X109866Y107653I-10000J0D01*
G01*
X206472Y238410D02*
G03*
X199401Y241339I-7071J-7071D01*
G01*
X209669Y235212D02*
G03*
X216741Y232283I7071J7071D01*
G01*
X233858Y222284D02*
G03*
X223858Y232283I-10000J0D01*
G01*
X230929Y176992D02*
G03*
X233858Y184063I-7071J7071D01*
G01*
X211984Y158047D02*
G03*
X209055Y150976I7071J-7071D01*
G01*
X203150Y134646D02*
G03*
X209055Y140551I0J5906D01*
G01*
X156157Y134646D02*
G03*
X147638Y126127I0J-8519D01*
G01*
X142717Y119095D02*
G03*
X147638Y124016I0J4921D01*
G01*
X120079Y121063D02*
G03*
X124831Y119095I4752J4752D01*
G01*
X118110Y125815D02*
G03*
X120079Y121063I6721J0D01*
G01*
X118110Y127953D02*
G03*
X114173Y131890I-3937J0D01*
G01*
X110236D02*
G03*
X107283Y128937I0J-2953D01*
G01*
Y125205D02*
G03*
X110212Y118134I10000J0D01*
G01*
X122795Y101409D02*
G03*
X119866Y108480I-10000J0D01*
G01*
X241905Y113953D02*
G03*
X238976Y106881I7071J-7071D01*
G01*
X228976Y75197D02*
G03*
X238976Y85197I0J10000D01*
G01*
X200614Y78126D02*
G03*
X207685Y75197I7071J7071D01*
G01*
X176945Y101795D02*
G03*
X169874Y104724I-7071J-7071D01*
G01*
X156426D02*
G03*
X149355Y101795I0J-10000D01*
G01*
X102795Y89134D02*
G03*
X110236Y81693I7441J0D01*
G01*
X150591D02*
G03*
X157480Y88583I0J6890D01*
G01*
X163386Y102362D02*
G03*
X157480Y96457I0J-5906D01*
G01*
X175393Y99433D02*
G03*
X168322Y102362I-7071J-7071D01*
G01*
X201031Y73795D02*
G03*
X208102Y70866I7071J7071D01*
G01*
X122984Y89567D02*
G03*
X130055Y92496I0J10000D01*
G01*
X108216Y93197D02*
G03*
X111846Y89567I3630J0D01*
G01*
X108216Y98719D02*
G03*
X106299Y103347I-6544J0D01*
G01*
X103323Y106323D02*
G03*
X96252Y109252I-7071J-7071D01*
G01*
X145008Y143307D02*
G03*
X137937Y140378I0J-10000D01*
G01*
X197638Y143307D02*
G03*
X205787Y151457I0J8150D01*
G01*
X191078Y231323D02*
G03*
X184008Y234252I-7071J-7071D01*
G01*
X139969D02*
G03*
X132898Y231323I0J-10000D01*
G01*
X121314Y223628D02*
G03*
X127953Y226378I0J9389D01*
G01*
X77913Y254718D02*
G03*
X78332Y254892I0J593D01*
G01*
X137795Y96094D02*
G03*
X134866Y103165I-10000J0D01*
G01*
X137795Y93504D02*
G03*
X141732Y89567I3937J0D01*
G01*
X142984D02*
G03*
X150055Y92496I0J10000D01*
G01*
X209984Y222417D02*
G03*
X217056Y219488I7071J7071D01*
G01*
X221094D02*
G03*
X228165Y222417I0J10000D01*
G01*
X198716Y208559D02*
G03*
X195787Y201488I7071J-7071D01*
G01*
X202858Y212701D02*
G03*
X205787Y219772I-7071J7071D01*
G01*
X196157Y236244D02*
G03*
X189086Y239173I-7071J-7071D01*
G01*
X132719D02*
G03*
X125648Y236244I0J-10000D01*
G01*
X53942Y53948D02*
X65354D01*
X72425Y56877D02*
X77580Y62032D01*
X152535Y67890D02*
X159866Y75221D01*
X84651Y64961D02*
X145464D01*
X203507Y26342D02*
X239197Y62032D01*
X137792Y19211D02*
X186293D01*
X254331Y146457D02*
X259842D01*
X263779Y135245D02*
Y142520D01*
X251181Y131307D02*
Y143307D01*
X245055Y112378D02*
X260851Y128173D01*
X239149Y115134D02*
X248252Y124236D01*
X242126Y69103D02*
Y105307D01*
X236221Y85827D02*
Y108063D01*
X165724Y116559D02*
X201402Y80882D01*
X162795Y123630D02*
Y125236D01*
X208473Y77953D02*
X228346D01*
X221616Y53948D02*
Y67496D01*
X208102Y70866D02*
X218245D01*
X241905Y113953D02*
X253424Y125472D01*
X256353Y132543D02*
Y137772D01*
X156955Y241339D02*
X199401D01*
X137792Y256359D02*
X149884Y244268D01*
X56871Y151160D02*
X92021Y116011D01*
X53942Y158231D02*
Y221622D01*
X54837Y109252D02*
X96252D01*
X51867D02*
X54837D01*
X20810Y136167D02*
X44796Y112181D01*
X19205Y137772D02*
X20810Y136167D01*
X96457Y114173D02*
X99204D01*
X106275Y111244D02*
X109866Y107653D01*
X112795Y95236D02*
Y100582D01*
X206472Y238410D02*
X209669Y235212D01*
X216741Y232283D02*
X223858D01*
X233858Y184063D02*
Y222284D01*
X211984Y158047D02*
X230929Y176992D01*
X209055Y140551D02*
Y150976D01*
X156157Y134646D02*
X203150D01*
X147638Y124016D02*
Y126127D01*
X124831Y119095D02*
X142717D01*
X118110Y125815D02*
Y127953D01*
X110236Y131890D02*
X114173D01*
X107283Y125205D02*
Y128937D01*
X110212Y118134D02*
X119866Y108480D01*
X122795Y95236D02*
Y101409D01*
X238976Y85197D02*
Y106881D01*
X207685Y75197D02*
X228976D01*
X176945Y101795D02*
X200614Y78126D01*
X156426Y104724D02*
X169874D01*
X142795Y95236D02*
X149355Y101795D01*
X102795Y89134D02*
Y95236D01*
X110236Y81693D02*
X150591D01*
X157480Y88583D02*
Y96457D01*
X163386Y102362D02*
X168322D01*
X175393Y99433D02*
X201031Y73795D01*
X162795Y82292D02*
Y95236D01*
X130055Y92496D02*
X132795Y95236D01*
X111846Y89567D02*
X122984D01*
X108216Y93197D02*
Y98719D01*
X103323Y106323D02*
X106299Y103347D01*
X122795Y125236D02*
X137937Y140378D01*
X145008Y143307D02*
X197638D01*
X205787Y151457D02*
Y196614D01*
X191078Y231323D02*
X195787Y226614D01*
X139969Y234252D02*
X184008D01*
X127953Y226378D02*
X132898Y231323D01*
X104174Y223628D02*
X121314D01*
X104488Y265545D02*
X104882Y265151D01*
X104331Y264601D02*
X104882Y265151D01*
X104331Y223785D02*
Y264601D01*
X112795Y125236D02*
X134866Y103165D01*
X137795Y93504D02*
Y96094D01*
X141732Y89567D02*
X142984D01*
X150055Y92496D02*
X152795Y95236D01*
X196157Y236244D02*
X205787Y226614D01*
X209984Y222417D01*
X217056Y219488D02*
X221094D01*
X228165Y222417D02*
X228346Y222598D01*
X195787Y196614D02*
Y201488D01*
X198716Y208559D02*
X202858Y212701D01*
X205787Y219772D02*
Y226614D01*
X132719Y239173D02*
X189086D01*
X117953Y228549D02*
X125648Y236244D01*
X104174Y223628D02*
X104331Y223785D01*
D11*
X275591Y137795D02*
G03*
X275591Y137795I-137795J0D01*
G01*
D13*
X118347Y228156D02*
D03*
X104882Y265151D02*
D03*
X90708Y260624D02*
D03*
X104174Y223628D02*
D03*
X77913Y254718D02*
D03*
X91378Y217723D02*
D03*
D27*
X197244Y155118D02*
D03*
D28*
Y139370D02*
D03*
Y147244D02*
D03*
D29*
Y164173D02*
D03*
Y130315D02*
D03*
D30*
X137795Y266732D02*
D03*
D31*
X180118Y176181D02*
D03*
X101378D02*
D03*
D32*
X162795Y125236D02*
D03*
X152795D02*
D03*
X142795D02*
D03*
X132795D02*
D03*
X122795D02*
D03*
X112795D02*
D03*
X102795D02*
D03*
X172795D02*
D03*
Y95236D02*
D03*
X142795D02*
D03*
X152795D02*
D03*
X162795D02*
D03*
X132795D02*
D03*
X122795D02*
D03*
X112795D02*
D03*
X215787Y226614D02*
D03*
X205787D02*
D03*
X195787D02*
D03*
X185787D02*
D03*
X215787Y196614D02*
D03*
X205787D02*
D03*
X195787D02*
D03*
D33*
X102795Y95236D02*
D03*
X185787Y196614D02*
D03*
D34*
X228346Y202598D02*
D03*
D35*
Y222598D02*
D03*
D36*
X246353Y137772D02*
D03*
X214545Y61020D02*
D03*
X137792Y29211D02*
D03*
X61013Y61020D02*
D03*
X29205Y137772D02*
D03*
X61013Y214551D02*
D03*
X137792Y246359D02*
D03*
D37*
X256353Y137772D02*
D03*
X19205Y137772D02*
D03*
D38*
X221616Y53948D02*
D03*
X53942Y221622D02*
D03*
D39*
X137792Y19211D02*
D03*
Y256359D02*
D03*
D40*
X53942Y53948D02*
D03*
D41*
X180118Y168512D02*
G03*
X183047Y161441I10000J0D01*
G01*
X189516Y166989D02*
G03*
X192445Y159918I10000J0D01*
G01*
X197638Y183465D02*
G03*
X200787Y186614I0J3150D01*
G01*
X205787Y202756D02*
G03*
X200787Y197756I0J-5000D01*
G01*
X183047Y209622D02*
G03*
X180118Y202551I7071J-7071D01*
G01*
X140363Y183465D02*
G03*
X133292Y180536I0J-10000D01*
G01*
X105724Y152968D02*
G03*
X102795Y145897I7071J-7071D01*
G01*
X183071Y209646D02*
G03*
X185787Y216204I-6558J6558D01*
G01*
X212374Y200028D02*
G03*
X205787Y202756I-6587J-6587D01*
G01*
X140165Y226614D02*
G03*
X134843Y224410I0J-7527D01*
G01*
X123811Y217520D02*
G03*
X130882Y220449I0J10000D01*
G01*
X97465D02*
G03*
X104536Y217520I7071J7071D01*
G01*
X90708Y231347D02*
G03*
X93637Y224276I10000J0D01*
G01*
X183047Y161441D02*
X197244Y147244D01*
X180118Y168512D02*
Y176181D01*
X189516Y183465D02*
X197638D01*
X180118D02*
X189516D01*
Y166989D02*
Y183465D01*
X192445Y159918D02*
X197244Y155118D01*
X140363Y183465D02*
X180118D01*
X200787Y186614D02*
Y197756D01*
X180118Y183465D02*
Y201969D01*
X105724Y152968D02*
X133292Y180536D01*
X102795Y125236D02*
Y145897D01*
X90708Y231347D02*
Y260624D01*
X140165Y226614D02*
X185787D01*
X183047Y209622D02*
X183071Y209646D01*
X185787Y216204D02*
Y226614D01*
X212374Y200028D02*
X215787Y196614D01*
X130882Y220449D02*
X134843Y224410D01*
X104536Y217520D02*
X123811D01*
X93637Y224276D02*
X97465Y220449D01*
M02*
