G04*
G04 #@! TF.GenerationSoftware,Altium Limited,Altium Designer,25.1.2 (22)*
G04*
G04 Layer_Color=128*
%FSLAX25Y25*%
%MOIN*%
G70*
G04*
G04 #@! TF.SameCoordinates,1F9D3A5C-45A7-463C-8666-355E490B88AF*
G04*
G04*
G04 #@! TF.FilePolarity,Positive*
G04*
G01*
G75*
%ADD11C,0.01000*%
%ADD46C,0.00200*%
D11*
X275591Y137795D02*
G03*
X275591Y137795I-137795J0D01*
G01*
D46*
X195866Y155118D02*
X198622D01*
X197244Y153740D02*
Y156496D01*
X195866Y139370D02*
X198622D01*
X197244Y137992D02*
Y140748D01*
X195866Y147244D02*
X198622D01*
X197244Y145866D02*
Y148622D01*
X195866Y164173D02*
X198622D01*
X197244Y162795D02*
Y165551D01*
X195866Y130315D02*
X198622D01*
X197244Y128937D02*
Y131693D01*
X116674Y228156D02*
X120020D01*
X118347Y226482D02*
Y229829D01*
X103208Y265151D02*
X106555D01*
X104882Y263478D02*
Y266825D01*
X132874Y266732D02*
X142717D01*
X137795Y261811D02*
Y271654D01*
X178347Y176181D02*
X181890D01*
X180118Y174409D02*
Y177953D01*
X99606Y176181D02*
X103150D01*
X101378Y174409D02*
Y177953D01*
X161024Y125236D02*
X164567D01*
X162795Y123465D02*
Y127008D01*
X151024Y125236D02*
X154567D01*
X152795Y123465D02*
Y127008D01*
X141024Y125236D02*
X144567D01*
X142795Y123465D02*
Y127008D01*
X131024Y125236D02*
X134567D01*
X132795Y123465D02*
Y127008D01*
X121024Y125236D02*
X124567D01*
X122795Y123465D02*
Y127008D01*
X111024Y125236D02*
X114567D01*
X112795Y123465D02*
Y127008D01*
X101024Y125236D02*
X104567D01*
X102795Y123465D02*
Y127008D01*
X171024Y125236D02*
X174567D01*
X172795Y123465D02*
Y127008D01*
X171024Y95236D02*
X174567D01*
X172795Y93465D02*
Y97008D01*
X141024Y95236D02*
X144567D01*
X142795Y93465D02*
Y97008D01*
X151024Y95236D02*
X154567D01*
X152795Y93465D02*
Y97008D01*
X161024Y95236D02*
X164567D01*
X162795Y93465D02*
Y97008D01*
X131024Y95236D02*
X134567D01*
X132795Y93465D02*
Y97008D01*
X121024Y95236D02*
X124567D01*
X122795Y93465D02*
Y97008D01*
X111024Y95236D02*
X114567D01*
X112795Y93465D02*
Y97008D01*
X101024Y95236D02*
X104567D01*
X102795Y93465D02*
Y97008D01*
X89035Y260624D02*
X92382D01*
X90708Y258951D02*
Y262297D01*
X102500Y223628D02*
X105847D01*
X104174Y221955D02*
Y225301D01*
X227067Y202598D02*
X229626D01*
X228346Y201319D02*
Y203878D01*
X227067Y222598D02*
X229626D01*
X228346Y221319D02*
Y223878D01*
X214016Y226614D02*
X217559D01*
X215787Y224843D02*
Y228386D01*
X204016Y226614D02*
X207559D01*
X205787Y224843D02*
Y228386D01*
X194016Y226614D02*
X197559D01*
X195787Y224843D02*
Y228386D01*
X184016Y226614D02*
X187559D01*
X185787Y224843D02*
Y228386D01*
X214016Y196614D02*
X217559D01*
X215787Y194843D02*
Y198386D01*
X204016Y196614D02*
X207559D01*
X205787Y194843D02*
Y198386D01*
X194016Y196614D02*
X197559D01*
X195787Y194843D02*
Y198386D01*
X184016Y196614D02*
X187559D01*
X185787Y194843D02*
Y198386D01*
X244582Y137772D02*
X248125D01*
X246353Y136001D02*
Y139544D01*
X254582Y137772D02*
X258125D01*
X256353Y136001D02*
Y139544D01*
X212773Y61020D02*
X216317D01*
X214545Y59248D02*
Y62791D01*
X219844Y53948D02*
X223388D01*
X221616Y52177D02*
Y55720D01*
X136021Y29211D02*
X139564D01*
X137792Y27440D02*
Y30983D01*
X136021Y19211D02*
X139564D01*
X137792Y17440D02*
Y20983D01*
X59242Y61020D02*
X62785D01*
X61013Y59248D02*
Y62791D01*
X52171Y53948D02*
X55714D01*
X53942Y52177D02*
Y55720D01*
X27433Y137772D02*
X30977D01*
X29205Y136001D02*
Y139544D01*
X17434Y137772D02*
X20977D01*
X19205Y136001D02*
Y139544D01*
X59242Y214551D02*
X62785D01*
X61013Y212779D02*
Y216323D01*
X52171Y221622D02*
X55714D01*
X53942Y219850D02*
Y223394D01*
X136021Y246359D02*
X139564D01*
X137792Y244588D02*
Y248131D01*
X136021Y256359D02*
X139564D01*
X137792Y254588D02*
Y258131D01*
X76240Y254718D02*
X79586D01*
X77913Y253045D02*
Y256392D01*
X89705Y217723D02*
X93052D01*
X91378Y216049D02*
Y219396D01*
M02*
