G04*
G04 #@! TF.GenerationSoftware,Altium Limited,Altium Designer,25.1.2 (22)*
G04*
G04 Layer_Color=8388736*
%FSLAX25Y25*%
%MOIN*%
G70*
G04*
G04 #@! TF.SameCoordinates,55CC0A21-E48C-49F2-8F71-982A5F67B68B*
G04*
G04*
G04 #@! TF.FilePolarity,Negative*
G04*
G01*
G75*
%ADD11C,0.01000*%
G04:AMPARAMS|DCode=12|XSize=55.12mil|YSize=55.12mil|CornerRadius=14.76mil|HoleSize=0mil|Usage=FLASHONLY|Rotation=270.000|XOffset=0mil|YOffset=0mil|HoleType=Round|Shape=RoundedRectangle|*
%AMROUNDEDRECTD12*
21,1,0.05512,0.02559,0,0,270.0*
21,1,0.02559,0.05512,0,0,270.0*
1,1,0.02953,-0.01280,-0.01280*
1,1,0.02953,-0.01280,0.01280*
1,1,0.02953,0.01280,0.01280*
1,1,0.02953,0.01280,-0.01280*
%
%ADD12ROUNDEDRECTD12*%
%ADD13C,0.05512*%
G04:AMPARAMS|DCode=14|XSize=90.55mil|YSize=51.18mil|CornerRadius=13.78mil|HoleSize=0mil|Usage=FLASHONLY|Rotation=180.000|XOffset=0mil|YOffset=0mil|HoleType=Round|Shape=RoundedRectangle|*
%AMROUNDEDRECTD14*
21,1,0.09055,0.02362,0,0,180.0*
21,1,0.06299,0.05118,0,0,180.0*
1,1,0.02756,-0.03150,0.01181*
1,1,0.02756,0.03150,0.01181*
1,1,0.02756,0.03150,-0.01181*
1,1,0.02756,-0.03150,-0.01181*
%
%ADD14ROUNDEDRECTD14*%
%ADD15C,0.05906*%
%ADD16C,0.10630*%
%ADD17C,0.06693*%
%ADD18C,0.06299*%
%ADD19R,0.06299X0.06299*%
G04:AMPARAMS|DCode=20|XSize=43.31mil|YSize=43.31mil|CornerRadius=11.81mil|HoleSize=0mil|Usage=FLASHONLY|Rotation=270.000|XOffset=0mil|YOffset=0mil|HoleType=Round|Shape=RoundedRectangle|*
%AMROUNDEDRECTD20*
21,1,0.04331,0.01968,0,0,270.0*
21,1,0.01968,0.04331,0,0,270.0*
1,1,0.02362,-0.00984,-0.00984*
1,1,0.02362,-0.00984,0.00984*
1,1,0.02362,0.00984,0.00984*
1,1,0.02362,0.00984,-0.00984*
%
%ADD20ROUNDEDRECTD20*%
%ADD21R,0.04331X0.04331*%
%ADD22C,0.06394*%
G04:AMPARAMS|DCode=23|XSize=63.94mil|YSize=63.94mil|CornerRadius=16.97mil|HoleSize=0mil|Usage=FLASHONLY|Rotation=0.000|XOffset=0mil|YOffset=0mil|HoleType=Round|Shape=RoundedRectangle|*
%AMROUNDEDRECTD23*
21,1,0.06394,0.03000,0,0,0.0*
21,1,0.03000,0.06394,0,0,0.0*
1,1,0.03394,0.01500,-0.01500*
1,1,0.03394,-0.01500,-0.01500*
1,1,0.03394,-0.01500,0.01500*
1,1,0.03394,0.01500,0.01500*
%
%ADD23ROUNDEDRECTD23*%
G04:AMPARAMS|DCode=24|XSize=63.94mil|YSize=63.94mil|CornerRadius=16.97mil|HoleSize=0mil|Usage=FLASHONLY|Rotation=315.000|XOffset=0mil|YOffset=0mil|HoleType=Round|Shape=RoundedRectangle|*
%AMROUNDEDRECTD24*
21,1,0.06394,0.03000,0,0,315.0*
21,1,0.03000,0.06394,0,0,315.0*
1,1,0.03394,0.00000,-0.02121*
1,1,0.03394,-0.02121,0.00000*
1,1,0.03394,0.00000,0.02121*
1,1,0.03394,0.02121,0.00000*
%
%ADD24ROUNDEDRECTD24*%
G04:AMPARAMS|DCode=25|XSize=63.94mil|YSize=63.94mil|CornerRadius=16.97mil|HoleSize=0mil|Usage=FLASHONLY|Rotation=270.000|XOffset=0mil|YOffset=0mil|HoleType=Round|Shape=RoundedRectangle|*
%AMROUNDEDRECTD25*
21,1,0.06394,0.03000,0,0,270.0*
21,1,0.03000,0.06394,0,0,270.0*
1,1,0.03394,-0.01500,-0.01500*
1,1,0.03394,-0.01500,0.01500*
1,1,0.03394,0.01500,0.01500*
1,1,0.03394,0.01500,-0.01500*
%
%ADD25ROUNDEDRECTD25*%
G04:AMPARAMS|DCode=26|XSize=63.94mil|YSize=63.94mil|CornerRadius=16.97mil|HoleSize=0mil|Usage=FLASHONLY|Rotation=225.000|XOffset=0mil|YOffset=0mil|HoleType=Round|Shape=RoundedRectangle|*
%AMROUNDEDRECTD26*
21,1,0.06394,0.03000,0,0,225.0*
21,1,0.03000,0.06394,0,0,225.0*
1,1,0.03394,-0.02121,0.00000*
1,1,0.03394,0.00000,0.02121*
1,1,0.03394,0.02121,0.00000*
1,1,0.03394,0.00000,-0.02121*
%
%ADD26ROUNDEDRECTD26*%
G36*
X147935Y275256D02*
X154668Y274593D01*
X161360Y273600D01*
X167995Y272281D01*
X174558Y270637D01*
X181032Y268673D01*
X187402Y266394D01*
X193652Y263805D01*
X199768Y260913D01*
X205734Y257723D01*
X211537Y254246D01*
X217162Y250487D01*
X222596Y246457D01*
X227826Y242165D01*
X232839Y237622D01*
X237623Y232838D01*
X242166Y227825D01*
X246458Y222596D01*
X250488Y217162D01*
X254247Y211537D01*
X257725Y205734D01*
X260914Y199768D01*
X263807Y193652D01*
X266396Y187401D01*
X268675Y181032D01*
X270639Y174558D01*
X272283Y167995D01*
X273603Y161360D01*
X274595Y154668D01*
X275258Y147935D01*
X275590Y141178D01*
X275590Y137795D01*
X275590Y134413D01*
X275259Y127655D01*
X274595Y120923D01*
X273603Y114230D01*
X272283Y107595D01*
X270639Y101032D01*
X268675Y94558D01*
X266396Y88188D01*
X263807Y81938D01*
X260914Y75822D01*
X257725Y69856D01*
X254247Y64053D01*
X250488Y58428D01*
X246458Y52994D01*
X242166Y47764D01*
X237623Y42751D01*
X232839Y37968D01*
X227826Y33424D01*
X222597Y29132D01*
X217163Y25102D01*
X211538Y21343D01*
X205735Y17865D01*
X199768Y14676D01*
X193652Y11784D01*
X187402Y9195D01*
X181032Y6915D01*
X174558Y4952D01*
X167996Y3308D01*
X161360Y1988D01*
X154668Y995D01*
X147935Y332D01*
X141178Y-0D01*
X137795Y-0D01*
X134413Y-0D01*
X127655Y332D01*
X120923Y995D01*
X114230Y1988D01*
X107595Y3308D01*
X101032Y4952D01*
X94558Y6915D01*
X88188Y9195D01*
X81938Y11784D01*
X75822Y14676D01*
X69856Y17865D01*
X64053Y21343D01*
X58428Y25102D01*
X52994Y29132D01*
X47764Y33424D01*
X42751Y37968D01*
X37968Y42751D01*
X33424Y47764D01*
X29132Y52994D01*
X25102Y58428D01*
X21343Y64053D01*
X17865Y69856D01*
X14676Y75822D01*
X11784Y81938D01*
X9195Y88188D01*
X6916Y94558D01*
X4952Y101032D01*
X3308Y107595D01*
X1988Y114230D01*
X995Y120923D01*
X332Y127655D01*
X0Y134413D01*
X0Y137795D01*
X0Y137795D01*
X0Y137795D01*
X0Y141178D01*
X332Y147935D01*
X995Y154668D01*
X1988Y161360D01*
X3308Y167995D01*
X4952Y174558D01*
X6916Y181032D01*
X9195Y187401D01*
X11784Y193652D01*
X14676Y199768D01*
X17866Y205734D01*
X21344Y211537D01*
X25102Y217162D01*
X29133Y222596D01*
X33424Y227825D01*
X37968Y232838D01*
X42752Y237622D01*
X47764Y242165D01*
X52994Y246457D01*
X58428Y250487D01*
X64053Y254245D01*
X69856Y257723D01*
X75823Y260913D01*
X81938Y263805D01*
X88189Y266394D01*
X94559Y268673D01*
X101033Y270637D01*
X107595Y272281D01*
X114231Y273600D01*
X120923Y274593D01*
X127655Y275256D01*
X134413Y275588D01*
X137795Y275588D01*
X141178Y275588D01*
X147935Y275256D01*
D02*
G37*
%LPC*%
G36*
X142105Y266860D02*
X141065Y266860D01*
X140025Y266860D01*
X137962Y266589D01*
X135953Y266051D01*
X134032Y265255D01*
X132230Y264215D01*
X130580Y262948D01*
X129109Y261477D01*
X127843Y259827D01*
X126803Y258026D01*
X126007Y256104D01*
X125469Y254095D01*
X125197Y252033D01*
X125197Y250993D01*
X125197Y249953D01*
X125469Y247891D01*
X126007Y245882D01*
X126803Y243960D01*
X127843Y242159D01*
X129109Y240508D01*
X130580Y239038D01*
X132230Y237771D01*
X134032Y236731D01*
X135953Y235935D01*
X137962Y235397D01*
X140025Y235126D01*
X141065Y235126D01*
X142105Y235126D01*
X144167Y235397D01*
X146176Y235935D01*
X148098Y236731D01*
X149899Y237771D01*
X151549Y239038D01*
X153020Y240508D01*
X154286Y242159D01*
X155326Y243960D01*
X156122Y245882D01*
X156661Y247891D01*
X156932Y249953D01*
X156932Y250993D01*
X156932Y252033D01*
X156661Y254095D01*
X156122Y256104D01*
X155326Y258026D01*
X154286Y259827D01*
X153020Y261477D01*
X151549Y262948D01*
X149899Y264215D01*
X148098Y265255D01*
X146176Y266051D01*
X144167Y266589D01*
X142105Y266860D01*
D02*
G37*
G36*
X229497Y238835D02*
X174421D01*
Y219934D01*
X173830Y219551D01*
X171792Y220468D01*
X166393Y222487D01*
X160875Y224154D01*
X155261Y225462D01*
X149574Y226405D01*
X143838Y226980D01*
X138077Y227184D01*
X132315Y227016D01*
X126576Y226477D01*
X120884Y225569D01*
X115261Y224297D01*
X109733Y222664D01*
X104321Y220679D01*
X99049Y218349D01*
X93937Y215684D01*
X89008Y212695D01*
X84282Y209395D01*
X79778Y205797D01*
X75516Y201916D01*
X71513Y197768D01*
X67785Y193371D01*
X64349Y188743D01*
X61217Y183903D01*
X58405Y178872D01*
X55922Y173669D01*
X53780Y168318D01*
X51988Y162839D01*
X50552Y157256D01*
X49479Y151593D01*
X48773Y145871D01*
X48438Y140117D01*
X48474Y134352D01*
X48882Y128602D01*
X49659Y122891D01*
X50803Y117241D01*
X52308Y111677D01*
X54170Y106221D01*
X56379Y100896D01*
X58926Y95725D01*
X61801Y90729D01*
X64993Y85929D01*
X68487Y81344D01*
X72270Y76995D01*
X76325Y72898D01*
X80635Y69070D01*
X85184Y65529D01*
X89951Y62288D01*
X94917Y59361D01*
X100061Y56761D01*
X105363Y54497D01*
X110799Y52580D01*
X116348Y51017D01*
X121985Y49815D01*
X127689Y48978D01*
X133434Y48512D01*
X139198Y48416D01*
X144956Y48692D01*
X150684Y49339D01*
X156358Y50353D01*
X161955Y51731D01*
X167452Y53467D01*
X172826Y55554D01*
X178053Y57983D01*
X183114Y60743D01*
X187986Y63824D01*
X192649Y67213D01*
X197084Y70895D01*
X201273Y74856D01*
X205198Y79078D01*
X208842Y83544D01*
X212191Y88236D01*
X215230Y93134D01*
X217948Y98217D01*
X220332Y103465D01*
X222373Y108856D01*
X224062Y114368D01*
X225393Y119977D01*
X226359Y125660D01*
X226957Y131393D01*
X227184Y137153D01*
X227040Y142915D01*
X226524Y148657D01*
X225640Y154353D01*
X224390Y159980D01*
X222780Y165515D01*
X220816Y170935D01*
X218508Y176217D01*
X215864Y181339D01*
X214688Y183296D01*
X214979Y183810D01*
X229497D01*
Y238835D01*
D02*
G37*
G36*
X61293Y235443D02*
X59212Y235443D01*
X57150Y235172D01*
X55141Y234633D01*
X53219Y233837D01*
X51418Y232797D01*
X49768Y231531D01*
X49033Y230795D01*
X48297Y230060D01*
X47031Y228410D01*
X45991Y226609D01*
X45195Y224687D01*
X44656Y222678D01*
X44385Y220615D01*
X44385Y218535D01*
X44656Y216473D01*
X45195Y214464D01*
X45991Y212542D01*
X47031Y210741D01*
X48297Y209091D01*
X49033Y208355D01*
X49768Y207620D01*
X51418Y206354D01*
X53219Y205313D01*
X55141Y204517D01*
X57150Y203979D01*
X59212Y203707D01*
X61293Y203707D01*
X63355Y203979D01*
X65364Y204517D01*
X67286Y205313D01*
X69087Y206354D01*
X70737Y207620D01*
X71473Y208355D01*
X72208Y209091D01*
X73474Y210741D01*
X74515Y212542D01*
X75311Y214464D01*
X75849Y216473D01*
X76121Y218535D01*
X76121Y220616D01*
X75849Y222678D01*
X75311Y224687D01*
X74515Y226609D01*
X73474Y228410D01*
X72208Y230060D01*
X71473Y230795D01*
X70737Y231531D01*
X69087Y232797D01*
X67286Y233837D01*
X65364Y234633D01*
X63355Y235172D01*
X61293Y235443D01*
D02*
G37*
G36*
X252105Y156216D02*
X251065Y156216D01*
X250025Y156216D01*
X247963Y155944D01*
X245954Y155406D01*
X244032Y154610D01*
X242231Y153570D01*
X240581Y152304D01*
X239110Y150833D01*
X237844Y149182D01*
X236804Y147381D01*
X236008Y145459D01*
X235470Y143450D01*
X235198Y141388D01*
X235198Y140348D01*
X235198Y139308D01*
X235470Y137246D01*
X236008Y135237D01*
X236804Y133315D01*
X237844Y131514D01*
X239110Y129864D01*
X240581Y128393D01*
X242231Y127127D01*
X244032Y126087D01*
X245954Y125291D01*
X247963Y124752D01*
X250025Y124481D01*
X251065Y124481D01*
X252105Y124481D01*
X254168Y124752D01*
X256177Y125291D01*
X258099Y126087D01*
X259900Y127127D01*
X261550Y128393D01*
X263021Y129864D01*
X264287Y131514D01*
X265327Y133315D01*
X266123Y135237D01*
X266661Y137246D01*
X266933Y139308D01*
X266933Y140348D01*
X266933Y141388D01*
X266661Y143450D01*
X266123Y145459D01*
X265327Y147381D01*
X264287Y149183D01*
X263021Y150833D01*
X261550Y152304D01*
X259900Y153570D01*
X258099Y154610D01*
X256177Y155406D01*
X254168Y155944D01*
X252105Y156216D01*
D02*
G37*
G36*
X25640D02*
X24600Y156216D01*
X23560Y156216D01*
X21498Y155944D01*
X19489Y155406D01*
X17567Y154610D01*
X15766Y153570D01*
X14115Y152304D01*
X12644Y150833D01*
X11378Y149182D01*
X10338Y147381D01*
X9542Y145459D01*
X9004Y143450D01*
X8733Y141388D01*
X8733Y140348D01*
X8733Y139308D01*
X9004Y137246D01*
X9542Y135237D01*
X10338Y133315D01*
X11378Y131514D01*
X12644Y129864D01*
X14115Y128393D01*
X15766Y127127D01*
X17567Y126087D01*
X19489Y125291D01*
X21498Y124752D01*
X23560Y124481D01*
X24600Y124481D01*
X25640Y124481D01*
X27702Y124752D01*
X29711Y125291D01*
X31633Y126087D01*
X33434Y127127D01*
X35085Y128393D01*
X36555Y129864D01*
X37821Y131514D01*
X38862Y133315D01*
X39658Y135237D01*
X40196Y137246D01*
X40467Y139308D01*
X40467Y140348D01*
X40467Y141388D01*
X40196Y143450D01*
X39658Y145459D01*
X38862Y147381D01*
X37821Y149183D01*
X36555Y150833D01*
X35085Y152304D01*
X33434Y153570D01*
X31633Y154610D01*
X29711Y155406D01*
X27702Y155944D01*
X25640Y156216D01*
D02*
G37*
G36*
X221428Y75308D02*
X219348D01*
X217286Y75037D01*
X215277Y74498D01*
X213355Y73702D01*
X211554Y72662D01*
X209904Y71395D01*
X209168Y70660D01*
X208433Y69925D01*
X207166Y68275D01*
X206126Y66473D01*
X205330Y64552D01*
X204792Y62542D01*
X204520Y60480D01*
X204520Y58400D01*
X204792Y56338D01*
X205330Y54329D01*
X206126Y52407D01*
X207166Y50606D01*
X208433Y48956D01*
X209168Y48220D01*
X209904Y47485D01*
X211554Y46218D01*
X213355Y45178D01*
X215277Y44382D01*
X217286Y43844D01*
X219348Y43572D01*
X221428Y43572D01*
X223490Y43844D01*
X225500Y44382D01*
X227421Y45178D01*
X229223Y46218D01*
X230873Y47485D01*
X231608Y48220D01*
X231608D01*
X232344Y48955D01*
X233610Y50606D01*
X234650Y52407D01*
X235446Y54329D01*
X235985Y56338D01*
X236256Y58400D01*
X236256Y60480D01*
X235985Y62542D01*
X235446Y64552D01*
X234650Y66473D01*
X233610Y68275D01*
X232344Y69925D01*
X231608Y70660D01*
X230873Y71395D01*
X229223Y72662D01*
X227421Y73702D01*
X225500Y74498D01*
X223491Y75037D01*
X221428Y75308D01*
D02*
G37*
G36*
X142105Y40395D02*
X141065Y40395D01*
X140025Y40395D01*
X137962Y40123D01*
X135953Y39585D01*
X134032Y38789D01*
X132230Y37749D01*
X130580Y36483D01*
X129109Y35012D01*
X127843Y33362D01*
X126803Y31561D01*
X126007Y29639D01*
X125469Y27630D01*
X125197Y25567D01*
X125197Y24527D01*
X125197Y23487D01*
X125469Y21425D01*
X126007Y19416D01*
X126803Y17494D01*
X127843Y15693D01*
X129109Y14043D01*
X130580Y12572D01*
X132230Y11306D01*
X134032Y10266D01*
X135953Y9470D01*
X137962Y8932D01*
X140025Y8660D01*
X141065Y8660D01*
X142105Y8660D01*
X144167Y8932D01*
X146176Y9470D01*
X148098Y10266D01*
X149899Y11306D01*
X151549Y12572D01*
X153020Y14043D01*
X154286Y15693D01*
X155326Y17494D01*
X156122Y19416D01*
X156661Y21425D01*
X156932Y23487D01*
X156932Y24527D01*
X156932Y25567D01*
X156661Y27630D01*
X156122Y29639D01*
X155326Y31561D01*
X154286Y33362D01*
X153020Y35012D01*
X151549Y36483D01*
X149899Y37749D01*
X148098Y38789D01*
X146176Y39585D01*
X144167Y40123D01*
X142105Y40395D01*
D02*
G37*
G36*
X61748Y71193D02*
X59668Y71192D01*
X57606Y70921D01*
X55597Y70382D01*
X53675Y69586D01*
X51874Y68546D01*
X50224Y67280D01*
X49488Y66544D01*
X48753Y65809D01*
X47487Y64159D01*
X46446Y62358D01*
X45650Y60436D01*
X45112Y58427D01*
X44840Y56365D01*
X44840Y54284D01*
X45112Y52222D01*
X45650Y50213D01*
X46446Y48291D01*
X47487Y46490D01*
X48753Y44840D01*
X49488Y44104D01*
X50224Y43369D01*
X51874Y42103D01*
X53675Y41063D01*
X55597Y40266D01*
X57606Y39728D01*
X59668Y39456D01*
X61748Y39456D01*
X63811Y39728D01*
X65820Y40266D01*
X67742Y41063D01*
X69543Y42103D01*
X71193Y43369D01*
X71928Y44104D01*
X72664Y44840D01*
X73930Y46490D01*
X74970Y48291D01*
X75766Y50213D01*
X76305Y52222D01*
X76576Y54284D01*
X76576Y56365D01*
X76305Y58427D01*
X75766Y60436D01*
X74970Y62358D01*
X73930Y64159D01*
X72664Y65809D01*
X71928Y66544D01*
X71193Y67280D01*
X69543Y68546D01*
X67742Y69586D01*
X65820Y70382D01*
X63811Y70921D01*
X61748Y71193D01*
D02*
G37*
%LPD*%
D11*
X275591Y137795D02*
G03*
X275591Y137795I-137795J0D01*
G01*
D12*
X197244Y155118D02*
D03*
D13*
Y139370D02*
D03*
Y147244D02*
D03*
D14*
Y164173D02*
D03*
Y130315D02*
D03*
D15*
X118347Y228156D02*
D03*
X104882Y265151D02*
D03*
X90708Y260624D02*
D03*
X104174Y223628D02*
D03*
X77913Y254718D02*
D03*
X91378Y217723D02*
D03*
D16*
X137795Y266732D02*
D03*
D17*
X180118Y176181D02*
D03*
X101378D02*
D03*
D18*
X162795Y125236D02*
D03*
X152795D02*
D03*
X142795D02*
D03*
X132795D02*
D03*
X122795D02*
D03*
X112795D02*
D03*
X102795D02*
D03*
X172795D02*
D03*
Y95236D02*
D03*
X142795D02*
D03*
X152795D02*
D03*
X162795D02*
D03*
X132795D02*
D03*
X122795D02*
D03*
X112795D02*
D03*
X215787Y226614D02*
D03*
X205787D02*
D03*
X195787D02*
D03*
X185787D02*
D03*
X215787Y196614D02*
D03*
X205787D02*
D03*
X195787D02*
D03*
D19*
X102795Y95236D02*
D03*
X185787Y196614D02*
D03*
D20*
X228346Y202598D02*
D03*
D21*
Y222598D02*
D03*
D22*
X246064Y140348D02*
D03*
X216851Y62976D02*
D03*
X141063Y29527D02*
D03*
X64242Y58860D02*
D03*
X29599Y140348D02*
D03*
X63786Y216040D02*
D03*
X141063Y245993D02*
D03*
D23*
X256064Y140348D02*
D03*
X19599D02*
D03*
D24*
X223922Y55905D02*
D03*
X56715Y223111D02*
D03*
D25*
X141063Y19527D02*
D03*
X141063Y255993D02*
D03*
D26*
X57171Y51789D02*
D03*
M02*
