G04*
G04 #@! TF.GenerationSoftware,Altium Limited,Altium Designer,25.1.2 (22)*
G04*
G04 Layer_Color=16711935*
%FSLAX25Y25*%
%MOIN*%
G70*
G04*
G04 #@! TF.SameCoordinates,55CC0A21-E48C-49F2-8F71-982A5F67B68B*
G04*
G04*
G04 #@! TF.FilePolarity,Negative*
G04*
G01*
G75*
%ADD11C,0.01000*%
G04:AMPARAMS|DCode=12|XSize=55.12mil|YSize=55.12mil|CornerRadius=14.76mil|HoleSize=0mil|Usage=FLASHONLY|Rotation=270.000|XOffset=0mil|YOffset=0mil|HoleType=Round|Shape=RoundedRectangle|*
%AMROUNDEDRECTD12*
21,1,0.05512,0.02559,0,0,270.0*
21,1,0.02559,0.05512,0,0,270.0*
1,1,0.02953,-0.01280,-0.01280*
1,1,0.02953,-0.01280,0.01280*
1,1,0.02953,0.01280,0.01280*
1,1,0.02953,0.01280,-0.01280*
%
%ADD12ROUNDEDRECTD12*%
%ADD13C,0.05512*%
G04:AMPARAMS|DCode=14|XSize=90.55mil|YSize=51.18mil|CornerRadius=13.78mil|HoleSize=0mil|Usage=FLASHONLY|Rotation=180.000|XOffset=0mil|YOffset=0mil|HoleType=Round|Shape=RoundedRectangle|*
%AMROUNDEDRECTD14*
21,1,0.09055,0.02362,0,0,180.0*
21,1,0.06299,0.05118,0,0,180.0*
1,1,0.02756,-0.03150,0.01181*
1,1,0.02756,0.03150,0.01181*
1,1,0.02756,0.03150,-0.01181*
1,1,0.02756,-0.03150,-0.01181*
%
%ADD14ROUNDEDRECTD14*%
%ADD15C,0.05906*%
%ADD17C,0.06693*%
%ADD18C,0.06299*%
%ADD19R,0.06299X0.06299*%
G04:AMPARAMS|DCode=20|XSize=43.31mil|YSize=43.31mil|CornerRadius=11.81mil|HoleSize=0mil|Usage=FLASHONLY|Rotation=270.000|XOffset=0mil|YOffset=0mil|HoleType=Round|Shape=RoundedRectangle|*
%AMROUNDEDRECTD20*
21,1,0.04331,0.01968,0,0,270.0*
21,1,0.01968,0.04331,0,0,270.0*
1,1,0.02362,-0.00984,-0.00984*
1,1,0.02362,-0.00984,0.00984*
1,1,0.02362,0.00984,0.00984*
1,1,0.02362,0.00984,-0.00984*
%
%ADD20ROUNDEDRECTD20*%
%ADD21R,0.04331X0.04331*%
%ADD22C,0.06394*%
G04:AMPARAMS|DCode=23|XSize=63.94mil|YSize=63.94mil|CornerRadius=16.97mil|HoleSize=0mil|Usage=FLASHONLY|Rotation=0.000|XOffset=0mil|YOffset=0mil|HoleType=Round|Shape=RoundedRectangle|*
%AMROUNDEDRECTD23*
21,1,0.06394,0.03000,0,0,0.0*
21,1,0.03000,0.06394,0,0,0.0*
1,1,0.03394,0.01500,-0.01500*
1,1,0.03394,-0.01500,-0.01500*
1,1,0.03394,-0.01500,0.01500*
1,1,0.03394,0.01500,0.01500*
%
%ADD23ROUNDEDRECTD23*%
G04:AMPARAMS|DCode=24|XSize=63.94mil|YSize=63.94mil|CornerRadius=16.97mil|HoleSize=0mil|Usage=FLASHONLY|Rotation=315.000|XOffset=0mil|YOffset=0mil|HoleType=Round|Shape=RoundedRectangle|*
%AMROUNDEDRECTD24*
21,1,0.06394,0.03000,0,0,315.0*
21,1,0.03000,0.06394,0,0,315.0*
1,1,0.03394,0.00000,-0.02121*
1,1,0.03394,-0.02121,0.00000*
1,1,0.03394,0.00000,0.02121*
1,1,0.03394,0.02121,0.00000*
%
%ADD24ROUNDEDRECTD24*%
G04:AMPARAMS|DCode=25|XSize=63.94mil|YSize=63.94mil|CornerRadius=16.97mil|HoleSize=0mil|Usage=FLASHONLY|Rotation=270.000|XOffset=0mil|YOffset=0mil|HoleType=Round|Shape=RoundedRectangle|*
%AMROUNDEDRECTD25*
21,1,0.06394,0.03000,0,0,270.0*
21,1,0.03000,0.06394,0,0,270.0*
1,1,0.03394,-0.01500,-0.01500*
1,1,0.03394,-0.01500,0.01500*
1,1,0.03394,0.01500,0.01500*
1,1,0.03394,0.01500,-0.01500*
%
%ADD25ROUNDEDRECTD25*%
G04:AMPARAMS|DCode=26|XSize=63.94mil|YSize=63.94mil|CornerRadius=16.97mil|HoleSize=0mil|Usage=FLASHONLY|Rotation=225.000|XOffset=0mil|YOffset=0mil|HoleType=Round|Shape=RoundedRectangle|*
%AMROUNDEDRECTD26*
21,1,0.06394,0.03000,0,0,225.0*
21,1,0.03000,0.06394,0,0,225.0*
1,1,0.03394,-0.02121,0.00000*
1,1,0.03394,0.00000,0.02121*
1,1,0.03394,0.02121,0.00000*
1,1,0.03394,0.00000,-0.02121*
%
%ADD26ROUNDEDRECTD26*%
G36*
X222235Y142911D02*
X222245D01*
X222309Y142905D01*
X222319Y142903D01*
X222328Y142902D01*
X222392Y142889D01*
X222401Y142886D01*
X222410Y142884D01*
X222473Y142866D01*
X222481Y142862D01*
X222491Y142859D01*
X222551Y142834D01*
X222559Y142830D01*
X222568Y142826D01*
X222625Y142795D01*
X222633Y142790D01*
X222642Y142786D01*
X222696Y142750D01*
X222703Y142743D01*
X222711Y142738D01*
X222761Y142697D01*
X222768Y142690D01*
X222776Y142684D01*
X222821Y142638D01*
X222828Y142631D01*
X222834Y142624D01*
X222876Y142574D01*
X222881Y142566D01*
X222887Y142558D01*
X222923Y142504D01*
X222928Y142496D01*
X222933Y142488D01*
X222964Y142430D01*
X222967Y142422D01*
X222972Y142413D01*
X222997Y142353D01*
X223000Y142344D01*
X223003Y142335D01*
X223022Y142273D01*
X223024Y142263D01*
X223027Y142254D01*
X223039Y142191D01*
X223040Y142181D01*
X223042Y142171D01*
X223049Y142107D01*
Y142097D01*
X223049Y142087D01*
Y142055D01*
Y136691D01*
X223354Y137822D01*
X223354Y137822D01*
X223361Y137847D01*
X223365Y137859D01*
X223369Y137872D01*
X223389Y137920D01*
X223395Y137931D01*
X223400Y137943D01*
X223426Y137988D01*
X223434Y137998D01*
X223441Y138009D01*
X223472Y138050D01*
X223481Y138060D01*
X223489Y138070D01*
X223526Y138106D01*
X223536Y138115D01*
X223546Y138124D01*
X223587Y138155D01*
X223598Y138162D01*
X223608Y138169D01*
X223653Y138195D01*
X223665Y138201D01*
X223676Y138207D01*
X223724Y138226D01*
X223737Y138230D01*
X223749Y138235D01*
X223799Y138248D01*
X223812Y138250D01*
X223824Y138253D01*
X223876Y138260D01*
X223889Y138260D01*
X223902Y138262D01*
X223953Y138261D01*
X223966Y138260D01*
X223979Y138260D01*
X224031Y138253D01*
X224043Y138250D01*
X224056Y138248D01*
X224106Y138234D01*
X224118Y138230D01*
X224131Y138226D01*
X224179Y138206D01*
X224190Y138200D01*
X224202Y138195D01*
X224247Y138169D01*
X224257Y138161D01*
X224268Y138154D01*
X224309Y138123D01*
X224319Y138114D01*
X224329Y138106D01*
X224365Y138069D01*
X224374Y138059D01*
X224382Y138049D01*
X224414Y138008D01*
X224421Y137997D01*
X224428Y137987D01*
X224454Y137942D01*
X224460Y137930D01*
X224466Y137919D01*
X224485Y137871D01*
X224489Y137858D01*
X224494Y137846D01*
X224507Y137796D01*
X224509Y137783D01*
X224512Y137771D01*
X224519Y137719D01*
X224519Y137706D01*
X224520Y137694D01*
X224520Y137642D01*
X224519Y137629D01*
X224519Y137616D01*
X224512Y137564D01*
X224509Y137552D01*
X224507Y137539D01*
X224500Y137514D01*
X224500Y137514D01*
X224060Y135876D01*
X225726Y138765D01*
X225726Y138765D01*
X225726Y138765D01*
X225741Y138791D01*
X225747Y138800D01*
X225753Y138809D01*
X225788Y138857D01*
X225796Y138865D01*
X225802Y138874D01*
X225842Y138918D01*
X225851Y138925D01*
X225858Y138933D01*
X225903Y138972D01*
X225912Y138978D01*
X225921Y138985D01*
X225970Y139018D01*
X225979Y139024D01*
X225989Y139030D01*
X226041Y139058D01*
X226051Y139062D01*
X226061Y139067D01*
X226116Y139089D01*
X226127Y139092D01*
X226137Y139096D01*
X226195Y139111D01*
X226206Y139113D01*
X226216Y139115D01*
X226275Y139124D01*
X226286Y139125D01*
X226297Y139126D01*
X226356Y139129D01*
X226367Y139128D01*
X226378Y139128D01*
X226437Y139124D01*
X226448Y139122D01*
X226460Y139121D01*
X226518Y139110D01*
X226528Y139107D01*
X226539Y139105D01*
X226596Y139087D01*
X226606Y139083D01*
X226617Y139079D01*
X226671Y139056D01*
X226681Y139050D01*
X226691Y139046D01*
X226742Y139016D01*
X226751Y139010D01*
X226761Y139004D01*
X226808Y138969D01*
X226817Y138962D01*
X226825Y138955D01*
X226869Y138915D01*
X226876Y138906D01*
X226884Y138899D01*
X226923Y138854D01*
X226929Y138845D01*
X226936Y138836D01*
X226970Y138787D01*
X226975Y138777D01*
X226981Y138768D01*
X227009Y138716D01*
X227013Y138706D01*
X227018Y138696D01*
X227040Y138641D01*
X227043Y138630D01*
X227047Y138619D01*
X227062Y138562D01*
X227064Y138551D01*
X227067Y138541D01*
X227076Y138482D01*
X227076Y138471D01*
X227078Y138460D01*
X227080Y138401D01*
X227079Y138390D01*
X227079Y138379D01*
X227075Y138320D01*
X227073Y138309D01*
X227072Y138297D01*
X227061Y138239D01*
X227058Y138229D01*
X227056Y138218D01*
X227038Y138161D01*
X227034Y138151D01*
X227031Y138140D01*
X227007Y138086D01*
X227002Y138076D01*
X226997Y138066D01*
X226982Y138041D01*
X226982Y138041D01*
X225334Y135183D01*
X226502Y136349D01*
X226502D01*
Y136349D01*
X226521Y136367D01*
X226531Y136376D01*
X226540Y136384D01*
X226581Y136416D01*
X226592Y136423D01*
X226603Y136430D01*
X226648Y136456D01*
X226659Y136461D01*
X226671Y136468D01*
X226719Y136487D01*
X226731Y136491D01*
X226743Y136496D01*
X226793Y136509D01*
X226806Y136511D01*
X226819Y136514D01*
X226870Y136521D01*
X226883Y136521D01*
X226896Y136522D01*
X226948Y136522D01*
X226961Y136521D01*
X226974Y136521D01*
X227025Y136514D01*
X227038Y136511D01*
X227050Y136509D01*
X227101Y136495D01*
X227113Y136491D01*
X227125Y136487D01*
X227173Y136467D01*
X227185Y136461D01*
X227196Y136456D01*
X227241Y136430D01*
X227252Y136422D01*
X227263Y136415D01*
X227304Y136384D01*
X227313Y136375D01*
X227323Y136367D01*
X227360Y136330D01*
X227368Y136320D01*
X227377Y136310D01*
X227408Y136269D01*
X227415Y136258D01*
X227423Y136248D01*
X227449Y136203D01*
X227454Y136191D01*
X227460Y136179D01*
X227480Y136132D01*
X227484Y136119D01*
X227488Y136107D01*
X227502Y136057D01*
X227504Y136044D01*
X227507Y136032D01*
X227513Y135980D01*
X227514Y135967D01*
X227515Y135954D01*
X227515Y135902D01*
X227514Y135890D01*
X227513Y135877D01*
X227506Y135825D01*
X227503Y135813D01*
X227501Y135800D01*
X227488Y135750D01*
X227483Y135738D01*
X227480Y135725D01*
X227460Y135677D01*
X227453Y135666D01*
X227448Y135654D01*
X227422Y135609D01*
X227415Y135599D01*
X227408Y135588D01*
X227376Y135547D01*
X227367Y135537D01*
X227359Y135527D01*
X227341Y135509D01*
X227341Y135509D01*
X227341Y135509D01*
X226539Y134709D01*
X231144Y137372D01*
X231144Y137372D01*
X231144Y137372D01*
X231172Y137388D01*
X231181Y137392D01*
X231189Y137397D01*
X231248Y137423D01*
X231258Y137426D01*
X231266Y137431D01*
X231328Y137451D01*
X231337Y137454D01*
X231346Y137457D01*
X231409Y137471D01*
X231419Y137473D01*
X231429Y137475D01*
X231493Y137483D01*
X231502Y137484D01*
X231512Y137485D01*
X231577Y137487D01*
X231587Y137487D01*
X231596Y137487D01*
X231661Y137483D01*
X231670Y137481D01*
X231680Y137480D01*
X231744Y137470D01*
X231753Y137468D01*
X231763Y137466D01*
X231825Y137449D01*
X231835Y137446D01*
X231844Y137443D01*
X231905Y137420D01*
X231913Y137416D01*
X231922Y137413D01*
X231980Y137384D01*
X231989Y137379D01*
X231997Y137375D01*
X232052Y137341D01*
X232060Y137335D01*
X232068Y137330D01*
X232120Y137290D01*
X232127Y137284D01*
X232135Y137278D01*
X232182Y137233D01*
X232188Y137226D01*
X232195Y137220D01*
X232238Y137171D01*
X232244Y137163D01*
X232250Y137156D01*
X232288Y137103D01*
X232293Y137095D01*
X232298Y137087D01*
X232331Y137031D01*
X232335Y137022D01*
X232340Y137013D01*
X232366Y136954D01*
X232370Y136945D01*
X232374Y136936D01*
X232395Y136875D01*
X232397Y136866D01*
X232400Y136856D01*
X232415Y136793D01*
X232416Y136784D01*
X232418Y136774D01*
X232427Y136710D01*
X232427Y136700D01*
X232428Y136691D01*
X232430Y136626D01*
X232430Y136616D01*
X232430Y136607D01*
X232426Y136542D01*
X232424Y136532D01*
X232424Y136523D01*
X232413Y136459D01*
X232411Y136450D01*
X232409Y136440D01*
X232392Y136377D01*
X232389Y136368D01*
X232386Y136359D01*
X232364Y136298D01*
X232359Y136290D01*
X232356Y136281D01*
X232327Y136222D01*
X232322Y136214D01*
X232318Y136205D01*
X232284Y136150D01*
X232278Y136143D01*
X232273Y136135D01*
X232233Y136083D01*
X232227Y136076D01*
X232221Y136068D01*
X232176Y136021D01*
X232169Y136015D01*
X232163Y136007D01*
X232114Y135965D01*
X232106Y135959D01*
X232099Y135953D01*
X232046Y135915D01*
X232038Y135910D01*
X232030Y135904D01*
X232002Y135888D01*
X232002Y135888D01*
X227350Y133199D01*
X228508Y133508D01*
X228508Y133508D01*
X228533Y133514D01*
X228546Y133517D01*
X228558Y133520D01*
X228610Y133526D01*
X228623Y133527D01*
X228636Y133528D01*
X228688Y133528D01*
X228701Y133527D01*
X228713Y133526D01*
X228765Y133519D01*
X228778Y133516D01*
X228790Y133514D01*
X228840Y133501D01*
X228852Y133496D01*
X228865Y133493D01*
X228913Y133473D01*
X228924Y133466D01*
X228936Y133461D01*
X228981Y133435D01*
X228991Y133428D01*
X229002Y133421D01*
X229043Y133389D01*
X229053Y133380D01*
X229063Y133372D01*
X229099Y133335D01*
X229108Y133325D01*
X229117Y133316D01*
X229148Y133275D01*
X229155Y133264D01*
X229163Y133253D01*
X229188Y133208D01*
X229194Y133196D01*
X229200Y133185D01*
X229220Y133137D01*
X229223Y133125D01*
X229228Y133113D01*
X229241Y133063D01*
X229243Y133050D01*
X229246Y133037D01*
X229253Y132986D01*
X229253Y132973D01*
X229255Y132960D01*
X229255Y132908D01*
X229253Y132895D01*
X229253Y132882D01*
X229246Y132831D01*
X229243Y132818D01*
X229241Y132805D01*
X229227Y132755D01*
X229223Y132743D01*
X229219Y132731D01*
X229199Y132683D01*
X229193Y132671D01*
X229188Y132660D01*
X229162Y132615D01*
X229154Y132604D01*
X229148Y132593D01*
X229116Y132552D01*
X229107Y132543D01*
X229099Y132533D01*
X229062Y132496D01*
X229052Y132488D01*
X229043Y132479D01*
X229001Y132448D01*
X228990Y132441D01*
X228980Y132433D01*
X228935Y132407D01*
X228923Y132402D01*
X228912Y132396D01*
X228864Y132376D01*
X228851Y132372D01*
X228839Y132368D01*
X228814Y132361D01*
X228814D01*
X227167Y131921D01*
X230518Y131923D01*
D01*
X230548Y131923D01*
X230559Y131922D01*
X230570Y131922D01*
X230629Y131915D01*
X230640Y131913D01*
X230651Y131911D01*
X230708Y131898D01*
X230719Y131895D01*
X230730Y131892D01*
X230786Y131872D01*
X230796Y131868D01*
X230806Y131864D01*
X230859Y131838D01*
X230869Y131833D01*
X230879Y131827D01*
X230929Y131796D01*
X230938Y131789D01*
X230947Y131783D01*
X230994Y131746D01*
X231001Y131738D01*
X231010Y131731D01*
X231052Y131690D01*
X231059Y131681D01*
X231067Y131673D01*
X231104Y131627D01*
X231110Y131617D01*
X231117Y131609D01*
X231148Y131559D01*
X231153Y131549D01*
X231159Y131539D01*
X231185Y131486D01*
X231188Y131475D01*
X231193Y131465D01*
X231213Y131410D01*
X231215Y131399D01*
X231219Y131388D01*
X231232Y131330D01*
X231233Y131319D01*
X231236Y131309D01*
X231242Y131250D01*
X231242Y131239D01*
X231244Y131228D01*
X231244Y131168D01*
X231242Y131157D01*
X231242Y131146D01*
X231236Y131087D01*
X231234Y131077D01*
X231232Y131065D01*
X231219Y131008D01*
X231215Y130997D01*
X231213Y130986D01*
X231193Y130930D01*
X231189Y130920D01*
X231185Y130910D01*
X231159Y130857D01*
X231153Y130847D01*
X231148Y130837D01*
X231117Y130787D01*
X231110Y130778D01*
X231104Y130769D01*
X231067Y130723D01*
X231059Y130715D01*
X231052Y130706D01*
X231011Y130664D01*
X231002Y130657D01*
X230994Y130649D01*
X230948Y130612D01*
X230938Y130606D01*
X230930Y130600D01*
X230879Y130568D01*
X230870Y130563D01*
X230860Y130557D01*
X230807Y130532D01*
X230796Y130528D01*
X230786Y130523D01*
X230730Y130503D01*
X230720Y130501D01*
X230709Y130497D01*
X230651Y130484D01*
X230640Y130483D01*
X230629Y130481D01*
X230571Y130474D01*
X230559Y130474D01*
X230548Y130473D01*
X230519Y130473D01*
D01*
X227219Y130471D01*
X228812Y130043D01*
X228812Y130043D01*
X228812D01*
X228837Y130036D01*
X228849Y130031D01*
X228862Y130027D01*
X228909Y130008D01*
X228921Y130001D01*
X228933Y129996D01*
X228978Y129970D01*
X228988Y129963D01*
X228999Y129956D01*
X229040Y129924D01*
X229050Y129915D01*
X229060Y129907D01*
X229096Y129870D01*
X229104Y129860D01*
X229113Y129851D01*
X229145Y129810D01*
X229152Y129799D01*
X229159Y129788D01*
X229185Y129743D01*
X229190Y129731D01*
X229197Y129720D01*
X229216Y129672D01*
X229220Y129660D01*
X229225Y129648D01*
X229238Y129597D01*
X229240Y129585D01*
X229243Y129572D01*
X229250Y129520D01*
X229250Y129508D01*
X229252Y129495D01*
X229251Y129443D01*
X229250Y129430D01*
X229250Y129417D01*
X229243Y129366D01*
X229240Y129353D01*
X229238Y129340D01*
X229224Y129290D01*
X229220Y129278D01*
X229216Y129266D01*
X229196Y129218D01*
X229190Y129206D01*
X229185Y129194D01*
X229159Y129150D01*
X229151Y129139D01*
X229144Y129128D01*
X229113Y129087D01*
X229104Y129078D01*
X229096Y129068D01*
X229059Y129031D01*
X229049Y129023D01*
X229039Y129014D01*
X228998Y128982D01*
X228987Y128975D01*
X228977Y128968D01*
X228932Y128942D01*
X228920Y128937D01*
X228908Y128931D01*
X228861Y128911D01*
X228848Y128907D01*
X228836Y128903D01*
X228786Y128889D01*
X228773Y128887D01*
X228761Y128884D01*
X228709Y128877D01*
X228696Y128877D01*
X228683Y128876D01*
X228631Y128876D01*
X228619Y128877D01*
X228606Y128878D01*
X228554Y128884D01*
X228542Y128887D01*
X228529Y128890D01*
X228504Y128896D01*
X228504Y128896D01*
X228504D01*
X227324Y129214D01*
X231981Y126522D01*
X231981Y126522D01*
X232009Y126505D01*
X232017Y126500D01*
X232025Y126495D01*
X232078Y126457D01*
X232085Y126451D01*
X232093Y126445D01*
X232142Y126402D01*
X232149Y126395D01*
X232156Y126389D01*
X232200Y126342D01*
X232206Y126334D01*
X232213Y126327D01*
X232252Y126275D01*
X232257Y126267D01*
X232263Y126260D01*
X232297Y126205D01*
X232301Y126196D01*
X232307Y126188D01*
X232335Y126129D01*
X232339Y126120D01*
X232343Y126112D01*
X232366Y126051D01*
X232368Y126042D01*
X232372Y126032D01*
X232388Y125970D01*
X232390Y125960D01*
X232393Y125951D01*
X232403Y125887D01*
X232404Y125877D01*
X232405Y125868D01*
X232409Y125803D01*
X232409Y125794D01*
X232410Y125784D01*
X232408Y125719D01*
X232406Y125709D01*
X232406Y125700D01*
X232398Y125636D01*
X232395Y125626D01*
X232394Y125617D01*
X232379Y125553D01*
X232376Y125544D01*
X232374Y125535D01*
X232353Y125473D01*
X232349Y125465D01*
X232346Y125455D01*
X232319Y125397D01*
X232314Y125388D01*
X232310Y125379D01*
X232278Y125323D01*
X232272Y125315D01*
X232267Y125307D01*
X232230Y125254D01*
X232223Y125247D01*
X232218Y125239D01*
X232175Y125190D01*
X232168Y125184D01*
X232161Y125177D01*
X232114Y125132D01*
X232106Y125126D01*
X232099Y125120D01*
X232048Y125080D01*
X232040Y125075D01*
X232032Y125069D01*
X231977Y125035D01*
X231968Y125031D01*
X231960Y125026D01*
X231902Y124997D01*
X231893Y124994D01*
X231884Y124989D01*
X231823Y124967D01*
X231814Y124964D01*
X231805Y124961D01*
X231743Y124944D01*
X231733Y124942D01*
X231723Y124940D01*
X231660Y124929D01*
X231650Y124929D01*
X231640Y124927D01*
X231576Y124923D01*
X231566Y124923D01*
X231556Y124923D01*
X231492Y124925D01*
X231482Y124926D01*
X231472Y124926D01*
X231408Y124935D01*
X231399Y124937D01*
X231389Y124938D01*
X231326Y124953D01*
X231317Y124956D01*
X231307Y124958D01*
X231246Y124979D01*
X231237Y124983D01*
X231228Y124986D01*
X231169Y125013D01*
X231160Y125018D01*
X231152Y125022D01*
X231124Y125038D01*
X231124Y125038D01*
X226527Y127695D01*
X227345Y126875D01*
X227345Y126875D01*
X227364Y126857D01*
X227372Y126847D01*
X227381Y126837D01*
X227412Y126796D01*
X227419Y126785D01*
X227427Y126775D01*
X227453Y126730D01*
X227458Y126718D01*
X227464Y126707D01*
X227484Y126659D01*
X227487Y126646D01*
X227492Y126634D01*
X227505Y126584D01*
X227508Y126571D01*
X227510Y126559D01*
X227517Y126507D01*
X227518Y126494D01*
X227519Y126481D01*
X227519Y126429D01*
X227518Y126417D01*
X227517Y126404D01*
X227510Y126352D01*
X227507Y126340D01*
X227505Y126327D01*
X227492Y126277D01*
X227487Y126265D01*
X227483Y126252D01*
X227464Y126204D01*
X227457Y126193D01*
X227452Y126181D01*
X227426Y126136D01*
X227418Y126126D01*
X227412Y126115D01*
X227380Y126074D01*
X227371Y126064D01*
X227363Y126054D01*
X227326Y126018D01*
X227316Y126009D01*
X227307Y126001D01*
X227266Y125969D01*
X227255Y125962D01*
X227244Y125955D01*
X227199Y125929D01*
X227187Y125924D01*
X227176Y125917D01*
X227128Y125898D01*
X227116Y125894D01*
X227103Y125889D01*
X227053Y125876D01*
X227041Y125874D01*
X227028Y125871D01*
X226977Y125864D01*
X226964Y125864D01*
X226951Y125862D01*
X226899Y125863D01*
X226886Y125864D01*
X226873Y125864D01*
X226822Y125871D01*
X226809Y125874D01*
X226796Y125876D01*
X226746Y125890D01*
X226734Y125894D01*
X226722Y125898D01*
X226674Y125918D01*
X226662Y125924D01*
X226651Y125929D01*
X226606Y125955D01*
X226595Y125963D01*
X226584Y125970D01*
X226543Y126001D01*
X226534Y126010D01*
X226524Y126018D01*
X226505Y126037D01*
X226505Y126037D01*
X226505Y126037D01*
X225339Y127205D01*
X226989Y124351D01*
X226989Y124351D01*
X227003Y124326D01*
X227008Y124316D01*
X227013Y124306D01*
X227037Y124252D01*
X227041Y124241D01*
X227045Y124231D01*
X227062Y124174D01*
X227064Y124163D01*
X227068Y124153D01*
X227079Y124095D01*
X227080Y124083D01*
X227082Y124073D01*
X227086Y124013D01*
X227086Y124002D01*
X227086Y123991D01*
X227084Y123932D01*
X227083Y123921D01*
X227082Y123910D01*
X227073Y123852D01*
X227071Y123841D01*
X227069Y123830D01*
X227054Y123773D01*
X227050Y123762D01*
X227047Y123751D01*
X227025Y123696D01*
X227020Y123686D01*
X227016Y123676D01*
X226988Y123624D01*
X226982Y123615D01*
X226977Y123605D01*
X226943Y123556D01*
X226936Y123547D01*
X226930Y123538D01*
X226891Y123493D01*
X226883Y123486D01*
X226876Y123477D01*
X226833Y123437D01*
X226824Y123430D01*
X226815Y123423D01*
X226768Y123388D01*
X226758Y123382D01*
X226749Y123375D01*
X226698Y123346D01*
X226688Y123341D01*
X226678Y123336D01*
X226624Y123312D01*
X226613Y123309D01*
X226603Y123304D01*
X226547Y123287D01*
X226536Y123285D01*
X226525Y123282D01*
X226467Y123271D01*
X226456Y123270D01*
X226445Y123268D01*
X226386Y123263D01*
X226375Y123264D01*
X226363Y123263D01*
X226304Y123265D01*
X226293Y123266D01*
X226282Y123267D01*
X226224Y123276D01*
X226213Y123278D01*
X226202Y123280D01*
X226145Y123296D01*
X226134Y123300D01*
X226124Y123303D01*
X226069Y123324D01*
X226059Y123329D01*
X226048Y123333D01*
X225996Y123361D01*
X225987Y123367D01*
X225977Y123372D01*
X225928Y123406D01*
X225920Y123413D01*
X225910Y123419D01*
X225866Y123458D01*
X225858Y123466D01*
X225850Y123473D01*
X225809Y123517D01*
X225803Y123526D01*
X225795Y123534D01*
X225760Y123582D01*
X225754Y123591D01*
X225748Y123600D01*
X225733Y123626D01*
X225733Y123626D01*
X224047Y126543D01*
X224488Y124889D01*
X224488Y124889D01*
X224495Y124864D01*
X224497Y124851D01*
X224500Y124839D01*
X224507Y124787D01*
X224507Y124775D01*
X224508Y124761D01*
X224508Y124710D01*
X224507Y124697D01*
X224507Y124684D01*
X224500Y124632D01*
X224497Y124620D01*
X224495Y124607D01*
X224481Y124557D01*
X224477Y124545D01*
X224473Y124532D01*
X224453Y124485D01*
X224447Y124473D01*
X224442Y124461D01*
X224416Y124416D01*
X224408Y124406D01*
X224401Y124395D01*
X224370Y124354D01*
X224361Y124344D01*
X224353Y124334D01*
X224316Y124298D01*
X224306Y124290D01*
X224296Y124281D01*
X224255Y124249D01*
X224244Y124242D01*
X224234Y124235D01*
X224189Y124209D01*
X224177Y124204D01*
X224166Y124197D01*
X224118Y124178D01*
X224105Y124174D01*
X224093Y124169D01*
X224043Y124156D01*
X224030Y124154D01*
X224018Y124151D01*
X223966Y124144D01*
X223953Y124144D01*
X223940Y124143D01*
X223888Y124143D01*
X223875Y124144D01*
X223863Y124144D01*
X223811Y124151D01*
X223799Y124154D01*
X223786Y124156D01*
X223736Y124170D01*
X223724Y124174D01*
X223711Y124178D01*
X223663Y124198D01*
X223652Y124204D01*
X223640Y124209D01*
X223595Y124235D01*
X223585Y124243D01*
X223574Y124250D01*
X223533Y124281D01*
X223523Y124290D01*
X223513Y124299D01*
X223477Y124335D01*
X223468Y124345D01*
X223460Y124355D01*
X223428Y124396D01*
X223421Y124407D01*
X223414Y124417D01*
X223388Y124462D01*
X223382Y124474D01*
X223376Y124486D01*
X223357Y124533D01*
X223353Y124546D01*
X223348Y124558D01*
X223341Y124583D01*
X223049Y125677D01*
Y88749D01*
Y88717D01*
X223049Y88708D01*
Y88698D01*
X223042Y88633D01*
X223040Y88624D01*
X223039Y88614D01*
X223027Y88551D01*
X223024Y88541D01*
X223022Y88532D01*
X223003Y88470D01*
X223000Y88461D01*
X222997Y88451D01*
X222972Y88392D01*
X222967Y88383D01*
X222964Y88374D01*
X222933Y88317D01*
X222928Y88309D01*
X222923Y88300D01*
X222887Y88247D01*
X222881Y88239D01*
X222876Y88231D01*
X222834Y88181D01*
X222828Y88174D01*
X222821Y88167D01*
X222776Y88121D01*
X222768Y88115D01*
X222761Y88108D01*
X222711Y88067D01*
X222703Y88061D01*
X222696Y88055D01*
X222642Y88019D01*
X222633Y88015D01*
X222625Y88009D01*
X222568Y87979D01*
X222559Y87975D01*
X222551Y87970D01*
X222491Y87946D01*
X222481Y87943D01*
X222473Y87939D01*
X222410Y87920D01*
X222401Y87918D01*
X222392Y87915D01*
X222328Y87903D01*
X222319Y87902D01*
X222309Y87900D01*
X222245Y87894D01*
X222235D01*
X222225Y87893D01*
X222160D01*
X222151Y87894D01*
X222141D01*
X222077Y87900D01*
X222067Y87902D01*
X222057Y87903D01*
X221994Y87915D01*
X221985Y87918D01*
X221975Y87920D01*
X221913Y87939D01*
X221904Y87943D01*
X221895Y87946D01*
X221835Y87970D01*
X221827Y87975D01*
X221817Y87979D01*
X221760Y88009D01*
X221752Y88015D01*
X221744Y88019D01*
X221690Y88055D01*
X221682Y88061D01*
X221674Y88067D01*
X221624Y88108D01*
X221617Y88115D01*
X221610Y88121D01*
X221564Y88167D01*
X221558Y88174D01*
X221551Y88181D01*
X221510Y88231D01*
X221505Y88239D01*
X221498Y88247D01*
X221462Y88300D01*
X221458Y88309D01*
X221452Y88317D01*
X221422Y88374D01*
X221418Y88383D01*
X221414Y88392D01*
X221389Y88451D01*
X221386Y88461D01*
X221382Y88470D01*
X221364Y88532D01*
X221362Y88541D01*
X221359Y88551D01*
X221346Y88614D01*
X221345Y88624D01*
X221343Y88633D01*
X221337Y88698D01*
Y88708D01*
X221336Y88717D01*
Y88749D01*
Y125750D01*
X221023Y124585D01*
Y124585D01*
X221017Y124562D01*
X221013Y124551D01*
X221009Y124540D01*
X220991Y124496D01*
X220986Y124485D01*
X220981Y124474D01*
X220958Y124433D01*
X220952Y124423D01*
X220946Y124413D01*
X220918Y124374D01*
X220910Y124365D01*
X220903Y124356D01*
X220871Y124321D01*
X220862Y124313D01*
X220854Y124304D01*
X220818Y124273D01*
X220808Y124266D01*
X220799Y124259D01*
X220760Y124232D01*
X220749Y124227D01*
X220739Y124221D01*
X220696Y124199D01*
X220686Y124195D01*
X220675Y124190D01*
X220630Y124173D01*
X220619Y124170D01*
X220607Y124167D01*
X220561Y124156D01*
X220549Y124154D01*
X220538Y124152D01*
X220491Y124147D01*
X220479Y124147D01*
X220467Y124146D01*
X220419Y124146D01*
X220407Y124147D01*
X220396Y124148D01*
X220349Y124154D01*
X220337Y124157D01*
X220325Y124159D01*
X220279Y124170D01*
X220268Y124174D01*
X220257Y124178D01*
X220212Y124195D01*
X220202Y124200D01*
X220191Y124205D01*
X220149Y124227D01*
X220139Y124234D01*
X220129Y124240D01*
X220090Y124267D01*
X220081Y124275D01*
X220071Y124282D01*
X220036Y124313D01*
X220028Y124322D01*
X220019Y124330D01*
X219988Y124366D01*
X219981Y124376D01*
X219973Y124385D01*
X219947Y124424D01*
X219941Y124434D01*
X219934Y124444D01*
X219912Y124486D01*
X219908Y124497D01*
X219903Y124508D01*
X219886Y124553D01*
X219883Y124564D01*
X219879Y124575D01*
X219868Y124621D01*
X219866Y124633D01*
X219864Y124645D01*
X219858Y124692D01*
X219858Y124704D01*
X219856Y124716D01*
Y124739D01*
Y124752D01*
X219857Y124759D01*
X219857Y124765D01*
X219859Y124791D01*
X219860Y124798D01*
X219860Y124804D01*
X219863Y124830D01*
X219865Y124836D01*
X219865Y124843D01*
X219870Y124868D01*
X219872Y124874D01*
X219873Y124881D01*
X219877Y124893D01*
X219877Y124893D01*
X219877Y124893D01*
X220293Y126443D01*
X218667Y123622D01*
X218667Y123622D01*
X218667Y123622D01*
X218652Y123597D01*
X218646Y123589D01*
X218641Y123579D01*
X218606Y123533D01*
X218599Y123525D01*
X218593Y123516D01*
X218554Y123474D01*
X218546Y123467D01*
X218539Y123459D01*
X218495Y123421D01*
X218486Y123414D01*
X218478Y123407D01*
X218431Y123374D01*
X218422Y123369D01*
X218413Y123363D01*
X218362Y123335D01*
X218352Y123331D01*
X218343Y123326D01*
X218290Y123304D01*
X218279Y123301D01*
X218269Y123297D01*
X218214Y123281D01*
X218203Y123278D01*
X218193Y123276D01*
X218136Y123266D01*
X218126Y123265D01*
X218115Y123263D01*
X218057Y123259D01*
X218047Y123260D01*
X218036Y123259D01*
X217978Y123261D01*
X217968Y123263D01*
X217957Y123264D01*
X217900Y123272D01*
X217890Y123275D01*
X217879Y123277D01*
X217823Y123292D01*
X217813Y123295D01*
X217803Y123298D01*
X217749Y123319D01*
X217739Y123324D01*
X217729Y123328D01*
X217678Y123355D01*
X217669Y123361D01*
X217660Y123366D01*
X217612Y123398D01*
X217603Y123405D01*
X217595Y123411D01*
X217550Y123448D01*
X217543Y123455D01*
X217535Y123462D01*
X217495Y123504D01*
X217488Y123512D01*
X217481Y123520D01*
X217446Y123566D01*
X217440Y123575D01*
X217434Y123584D01*
X217404Y123633D01*
X217399Y123643D01*
X217394Y123652D01*
X217369Y123704D01*
X217366Y123714D01*
X217361Y123724D01*
X217343Y123779D01*
X217340Y123789D01*
X217337Y123800D01*
X217324Y123856D01*
X217323Y123867D01*
X217321Y123877D01*
X217315Y123934D01*
X217315Y123945D01*
X217314Y123956D01*
Y123985D01*
Y124002D01*
X217314Y124008D01*
X217314Y124015D01*
X217316Y124049D01*
X217317Y124056D01*
X217317Y124062D01*
X217322Y124096D01*
X217323Y124103D01*
X217324Y124109D01*
X217331Y124143D01*
X217333Y124149D01*
X217334Y124155D01*
X217343Y124189D01*
X217345Y124195D01*
X217346Y124201D01*
X217357Y124234D01*
X217360Y124240D01*
X217362Y124246D01*
X217375Y124278D01*
X217378Y124284D01*
X217380Y124290D01*
X217396Y124321D01*
X217399Y124326D01*
X217402Y124332D01*
X217410Y124347D01*
X217410Y124347D01*
X219110Y127293D01*
X217865Y126051D01*
X217865Y126051D01*
X217865Y126051D01*
X217865Y126051D01*
X217849Y126034D01*
X217840Y126027D01*
X217831Y126019D01*
X217794Y125990D01*
X217785Y125984D01*
X217775Y125977D01*
X217736Y125952D01*
X217725Y125947D01*
X217715Y125942D01*
X217673Y125922D01*
X217662Y125918D01*
X217651Y125914D01*
X217607Y125899D01*
X217595Y125897D01*
X217584Y125893D01*
X217538Y125884D01*
X217527Y125883D01*
X217515Y125881D01*
X217469Y125877D01*
X217457Y125878D01*
X217445Y125877D01*
X217399Y125879D01*
X217387Y125880D01*
X217376Y125881D01*
X217330Y125888D01*
X217318Y125891D01*
X217307Y125893D01*
X217262Y125906D01*
X217251Y125910D01*
X217240Y125914D01*
X217197Y125932D01*
X217187Y125937D01*
X217176Y125942D01*
X217135Y125965D01*
X217126Y125971D01*
X217116Y125977D01*
X217078Y126005D01*
X217069Y126012D01*
X217060Y126019D01*
X217026Y126051D01*
X217018Y126060D01*
X217010Y126068D01*
X216979Y126103D01*
X216973Y126113D01*
X216965Y126122D01*
X216939Y126161D01*
X216934Y126171D01*
X216928Y126181D01*
X216906Y126222D01*
X216902Y126233D01*
X216897Y126244D01*
X216881Y126287D01*
X216878Y126299D01*
X216874Y126310D01*
X216863Y126355D01*
X216862Y126367D01*
X216859Y126378D01*
X216854Y126424D01*
X216853Y126436D01*
X216852Y126448D01*
Y126471D01*
Y126490D01*
X216853Y126500D01*
Y126510D01*
X216857Y126549D01*
X216859Y126558D01*
X216860Y126568D01*
X216868Y126606D01*
X216870Y126615D01*
X216872Y126625D01*
X216884Y126662D01*
X216887Y126671D01*
X216890Y126680D01*
X216905Y126716D01*
X216910Y126725D01*
X216913Y126734D01*
X216932Y126768D01*
X216937Y126776D01*
X216942Y126785D01*
X216963Y126817D01*
X216970Y126825D01*
X216975Y126833D01*
X217000Y126863D01*
X217007Y126870D01*
X217013Y126877D01*
X217026Y126891D01*
X217027Y126891D01*
X217833Y127696D01*
X213233Y125036D01*
X213233Y125036D01*
D01*
X213203Y125019D01*
X213193Y125014D01*
X213184Y125009D01*
X213121Y124981D01*
X213111Y124978D01*
X213102Y124974D01*
X213036Y124952D01*
X213026Y124950D01*
X213016Y124947D01*
X212949Y124933D01*
X212938Y124931D01*
X212928Y124929D01*
X212860Y124922D01*
X212849Y124922D01*
X212839Y124921D01*
X212770Y124921D01*
X212759Y124922D01*
X212749Y124922D01*
X212680Y124929D01*
X212670Y124931D01*
X212660Y124932D01*
X212592Y124947D01*
X212582Y124950D01*
X212572Y124952D01*
X212507Y124973D01*
X212497Y124978D01*
X212487Y124981D01*
X212424Y125009D01*
X212415Y125014D01*
X212406Y125018D01*
X212346Y125053D01*
X212337Y125059D01*
X212328Y125064D01*
X212273Y125105D01*
X212265Y125111D01*
X212256Y125118D01*
X212205Y125164D01*
X212198Y125172D01*
X212190Y125179D01*
X212144Y125230D01*
X212138Y125238D01*
X212131Y125246D01*
X212090Y125302D01*
X212085Y125311D01*
X212079Y125319D01*
X212045Y125379D01*
X212040Y125388D01*
X212035Y125398D01*
X212007Y125461D01*
X212004Y125470D01*
X212000Y125480D01*
X211978Y125546D01*
X211976Y125556D01*
X211973Y125566D01*
X211959Y125633D01*
X211958Y125643D01*
X211955Y125654D01*
X211948Y125722D01*
X211948Y125733D01*
X211947Y125743D01*
Y125778D01*
Y125806D01*
X211948Y125815D01*
X211948Y125823D01*
X211953Y125881D01*
X211954Y125889D01*
X211955Y125898D01*
X211965Y125955D01*
X211967Y125963D01*
X211969Y125971D01*
X211984Y126027D01*
X211987Y126035D01*
X211989Y126043D01*
X212009Y126097D01*
X212012Y126105D01*
X212015Y126113D01*
X212039Y126165D01*
X212044Y126173D01*
X212047Y126181D01*
X212076Y126231D01*
X212081Y126238D01*
X212085Y126245D01*
X212118Y126292D01*
X212124Y126299D01*
X212129Y126306D01*
X212166Y126350D01*
X212172Y126356D01*
X212177Y126363D01*
X212218Y126403D01*
X212225Y126409D01*
X212231Y126415D01*
X212275Y126452D01*
X212282Y126457D01*
X212288Y126463D01*
X212336Y126496D01*
X212343Y126500D01*
X212350Y126505D01*
X212375Y126519D01*
X212375Y126519D01*
X217044Y129219D01*
X215879Y128908D01*
X215879D01*
X215857Y128902D01*
X215846Y128900D01*
X215835Y128898D01*
X215790Y128891D01*
X215779Y128890D01*
X215768Y128889D01*
X215722Y128887D01*
X215711Y128888D01*
X215700Y128888D01*
X215654Y128892D01*
X215643Y128894D01*
X215632Y128895D01*
X215588Y128904D01*
X215577Y128907D01*
X215566Y128910D01*
X215523Y128923D01*
X215512Y128928D01*
X215501Y128931D01*
X215460Y128950D01*
X215450Y128956D01*
X215440Y128961D01*
X215401Y128984D01*
X215392Y128991D01*
X215383Y128997D01*
X215347Y129025D01*
X215338Y129032D01*
X215329Y129039D01*
X215297Y129071D01*
X215289Y129079D01*
X215282Y129087D01*
X215253Y129122D01*
X215247Y129132D01*
X215239Y129141D01*
X215215Y129179D01*
X215210Y129189D01*
X215204Y129199D01*
X215184Y129239D01*
X215180Y129250D01*
X215175Y129260D01*
X215160Y129303D01*
X215157Y129314D01*
X215153Y129325D01*
X215143Y129369D01*
X215141Y129380D01*
X215139Y129391D01*
X215134Y129436D01*
X215134Y129447D01*
X215132Y129459D01*
Y129481D01*
Y129503D01*
X215134Y129514D01*
X215134Y129525D01*
X215138Y129568D01*
X215141Y129578D01*
X215142Y129589D01*
X215151Y129631D01*
X215155Y129641D01*
X215157Y129652D01*
X215171Y129693D01*
X215176Y129702D01*
X215179Y129713D01*
X215197Y129752D01*
X215203Y129761D01*
X215208Y129771D01*
X215230Y129808D01*
X215236Y129817D01*
X215242Y129826D01*
X215268Y129860D01*
X215276Y129868D01*
X215283Y129876D01*
X215313Y129908D01*
X215321Y129915D01*
X215328Y129922D01*
X215361Y129950D01*
X215370Y129956D01*
X215379Y129963D01*
X215415Y129987D01*
X215424Y129992D01*
X215433Y129998D01*
X215472Y130018D01*
X215481Y130022D01*
X215491Y130027D01*
X215531Y130043D01*
X215542Y130045D01*
X215552Y130049D01*
X215573Y130055D01*
X215573D01*
X215573Y130055D01*
X217115Y130466D01*
X213875Y130465D01*
X213875Y130465D01*
X213849Y130465D01*
X213839Y130466D01*
X213829Y130466D01*
X213778Y130471D01*
X213768Y130473D01*
X213758Y130474D01*
X213708Y130484D01*
X213698Y130487D01*
X213689Y130488D01*
X213639Y130503D01*
X213630Y130507D01*
X213621Y130510D01*
X213573Y130530D01*
X213564Y130534D01*
X213555Y130538D01*
X213510Y130562D01*
X213502Y130568D01*
X213493Y130572D01*
X213450Y130601D01*
X213442Y130607D01*
X213434Y130613D01*
X213394Y130646D01*
X213387Y130653D01*
X213380Y130659D01*
X213343Y130695D01*
X213337Y130703D01*
X213330Y130710D01*
X213297Y130750D01*
X213292Y130758D01*
X213286Y130765D01*
X213257Y130808D01*
X213252Y130817D01*
X213247Y130825D01*
X213223Y130871D01*
X213219Y130880D01*
X213214Y130888D01*
X213194Y130936D01*
X213192Y130946D01*
X213188Y130955D01*
X213173Y131004D01*
X213171Y131014D01*
X213168Y131023D01*
X213158Y131074D01*
X213157Y131084D01*
X213155Y131093D01*
X213150Y131145D01*
Y131154D01*
X213149Y131164D01*
Y131190D01*
Y131216D01*
X213150Y131226D01*
Y131235D01*
X213155Y131287D01*
X213157Y131296D01*
X213158Y131306D01*
X213168Y131357D01*
X213171Y131366D01*
X213173Y131376D01*
X213188Y131425D01*
X213192Y131434D01*
X213194Y131443D01*
X213214Y131491D01*
X213219Y131500D01*
X213222Y131509D01*
X213247Y131554D01*
X213252Y131562D01*
X213257Y131571D01*
X213286Y131614D01*
X213292Y131622D01*
X213297Y131630D01*
X213330Y131670D01*
X213337Y131677D01*
X213343Y131684D01*
X213380Y131721D01*
X213387Y131727D01*
X213394Y131734D01*
X213434Y131767D01*
X213442Y131772D01*
X213450Y131778D01*
X213493Y131807D01*
X213501Y131812D01*
X213509Y131817D01*
X213555Y131842D01*
X213564Y131845D01*
X213573Y131850D01*
X213620Y131870D01*
X213630Y131872D01*
X213639Y131876D01*
X213688Y131891D01*
X213698Y131893D01*
X213707Y131896D01*
X213758Y131906D01*
X213768Y131907D01*
X213777Y131909D01*
X213828Y131914D01*
X213838Y131914D01*
X213848Y131915D01*
X213874Y131915D01*
D01*
X217273Y131917D01*
X215575Y132373D01*
X215575Y132373D01*
X215554Y132379D01*
X215544Y132383D01*
X215534Y132386D01*
X215493Y132401D01*
X215484Y132406D01*
X215474Y132410D01*
X215436Y132430D01*
X215427Y132436D01*
X215417Y132441D01*
X215381Y132465D01*
X215373Y132472D01*
X215364Y132478D01*
X215331Y132506D01*
X215323Y132514D01*
X215315Y132521D01*
X215285Y132552D01*
X215279Y132560D01*
X215271Y132568D01*
X215245Y132603D01*
X215239Y132612D01*
X215233Y132620D01*
X215211Y132657D01*
X215206Y132667D01*
X215200Y132676D01*
X215182Y132715D01*
X215178Y132726D01*
X215174Y132735D01*
X215160Y132776D01*
X215158Y132787D01*
X215154Y132797D01*
X215145Y132839D01*
X215144Y132850D01*
X215142Y132860D01*
X215137Y132903D01*
X215137Y132914D01*
X215136Y132925D01*
Y132946D01*
Y132969D01*
X215137Y132980D01*
X215137Y132992D01*
X215142Y133037D01*
X215145Y133048D01*
X215146Y133059D01*
X215156Y133103D01*
X215160Y133114D01*
X215163Y133125D01*
X215178Y133168D01*
X215183Y133178D01*
X215187Y133189D01*
X215207Y133229D01*
X215213Y133239D01*
X215218Y133249D01*
X215243Y133287D01*
X215250Y133296D01*
X215256Y133306D01*
X215285Y133341D01*
X215293Y133349D01*
X215300Y133357D01*
X215333Y133389D01*
X215342Y133396D01*
X215350Y133404D01*
X215386Y133431D01*
X215396Y133437D01*
X215405Y133444D01*
X215444Y133467D01*
X215454Y133472D01*
X215464Y133478D01*
X215505Y133496D01*
X215516Y133500D01*
X215526Y133505D01*
X215570Y133519D01*
X215581Y133521D01*
X215592Y133524D01*
X215636Y133533D01*
X215647Y133534D01*
X215659Y133536D01*
X215704Y133540D01*
X215715Y133540D01*
X215726Y133540D01*
X215772Y133539D01*
X215783Y133537D01*
X215794Y133537D01*
X215839Y133530D01*
X215850Y133527D01*
X215861Y133526D01*
X215883Y133520D01*
X215883Y133520D01*
X215883D01*
X216944Y133234D01*
X212353Y135888D01*
X212353Y135888D01*
X212328Y135903D01*
X212321Y135908D01*
X212313Y135912D01*
X212266Y135945D01*
X212260Y135950D01*
X212252Y135955D01*
X212208Y135992D01*
X212202Y135998D01*
X212196Y136004D01*
X212155Y136045D01*
X212150Y136051D01*
X212143Y136057D01*
X212106Y136101D01*
X212102Y136109D01*
X212096Y136115D01*
X212063Y136162D01*
X212059Y136170D01*
X212054Y136177D01*
X212025Y136227D01*
X212021Y136234D01*
X212017Y136242D01*
X211993Y136294D01*
X211990Y136302D01*
X211986Y136310D01*
X211966Y136364D01*
X211964Y136372D01*
X211961Y136381D01*
X211946Y136436D01*
X211945Y136444D01*
X211943Y136453D01*
X211933Y136510D01*
X211932Y136518D01*
X211930Y136527D01*
X211925Y136584D01*
X211926Y136592D01*
X211925Y136601D01*
Y136630D01*
Y136664D01*
X211926Y136675D01*
X211926Y136685D01*
X211933Y136754D01*
X211935Y136764D01*
X211936Y136774D01*
X211951Y136842D01*
X211954Y136852D01*
X211956Y136862D01*
X211977Y136927D01*
X211981Y136937D01*
X211985Y136947D01*
X212013Y137010D01*
X212018Y137019D01*
X212022Y137028D01*
X212057Y137088D01*
X212063Y137097D01*
X212068Y137106D01*
X212109Y137162D01*
X212116Y137169D01*
X212122Y137178D01*
X212168Y137229D01*
X212176Y137236D01*
X212183Y137244D01*
X212234Y137290D01*
X212242Y137296D01*
X212250Y137303D01*
X212306Y137343D01*
X212315Y137349D01*
X212323Y137355D01*
X212383Y137389D01*
X212392Y137393D01*
X212402Y137399D01*
X212465Y137427D01*
X212474Y137430D01*
X212484Y137434D01*
X212550Y137455D01*
X212560Y137458D01*
X212570Y137461D01*
X212637Y137475D01*
X212648Y137476D01*
X212658Y137478D01*
X212726Y137486D01*
X212737Y137486D01*
X212747Y137487D01*
X212816Y137487D01*
X212826Y137486D01*
X212837Y137486D01*
X212906Y137478D01*
X212916Y137476D01*
X212926Y137475D01*
X212994Y137461D01*
X213003Y137458D01*
X213014Y137455D01*
X213079Y137434D01*
X213089Y137430D01*
X213099Y137426D01*
X213162Y137398D01*
X213171Y137393D01*
X213180Y137389D01*
X213210Y137372D01*
X213210Y137372D01*
X217894Y134664D01*
X217048Y135512D01*
X217047Y135512D01*
X217047Y135512D01*
X217047Y135512D01*
X217034Y135526D01*
X217027Y135534D01*
X217021Y135540D01*
X216996Y135571D01*
X216990Y135579D01*
X216984Y135586D01*
X216963Y135618D01*
X216958Y135627D01*
X216953Y135635D01*
X216935Y135669D01*
X216931Y135678D01*
X216926Y135687D01*
X216912Y135723D01*
X216909Y135732D01*
X216905Y135741D01*
X216894Y135778D01*
X216892Y135788D01*
X216889Y135797D01*
X216881Y135835D01*
X216880Y135845D01*
X216879Y135854D01*
X216875Y135893D01*
Y135903D01*
X216874Y135912D01*
Y135932D01*
Y135955D01*
X216875Y135967D01*
X216875Y135978D01*
X216881Y136024D01*
X216883Y136036D01*
X216885Y136047D01*
X216896Y136093D01*
X216899Y136104D01*
X216902Y136115D01*
X216919Y136159D01*
X216924Y136170D01*
X216928Y136180D01*
X216949Y136222D01*
X216955Y136232D01*
X216961Y136242D01*
X216987Y136281D01*
X216994Y136290D01*
X217001Y136299D01*
X217031Y136335D01*
X217040Y136343D01*
X217047Y136352D01*
X217082Y136383D01*
X217091Y136390D01*
X217100Y136398D01*
X217138Y136426D01*
X217148Y136432D01*
X217157Y136438D01*
X217198Y136461D01*
X217209Y136466D01*
X217219Y136471D01*
X217262Y136489D01*
X217273Y136492D01*
X217284Y136497D01*
X217329Y136509D01*
X217340Y136511D01*
X217352Y136514D01*
X217398Y136521D01*
X217409Y136522D01*
X217421Y136524D01*
X217468Y136525D01*
X217479Y136525D01*
X217491Y136525D01*
X217537Y136521D01*
X217549Y136519D01*
X217561Y136518D01*
X217606Y136509D01*
X217618Y136506D01*
X217629Y136503D01*
X217673Y136489D01*
X217684Y136484D01*
X217695Y136480D01*
X217737Y136461D01*
X217747Y136455D01*
X217758Y136450D01*
X217798Y136425D01*
X217807Y136418D01*
X217817Y136412D01*
X217853Y136383D01*
X217862Y136375D01*
X217871Y136367D01*
X217887Y136351D01*
Y136351D01*
X217887D01*
X219053Y135183D01*
X217404Y138036D01*
X217404Y138036D01*
X217395Y138051D01*
X217393Y138057D01*
X217389Y138063D01*
X217374Y138093D01*
X217372Y138100D01*
X217369Y138105D01*
X217355Y138137D01*
X217354Y138144D01*
X217351Y138149D01*
X217340Y138182D01*
X217338Y138189D01*
X217336Y138195D01*
X217327Y138228D01*
X217326Y138234D01*
X217324Y138241D01*
X217317Y138274D01*
X217317Y138281D01*
X217315Y138287D01*
X217311Y138321D01*
X217311Y138328D01*
X217309Y138334D01*
X217307Y138369D01*
X217307Y138375D01*
X217307Y138382D01*
Y138399D01*
Y138428D01*
X217308Y138438D01*
X217308Y138449D01*
X217314Y138507D01*
X217317Y138517D01*
X217318Y138528D01*
X217330Y138584D01*
X217334Y138594D01*
X217336Y138605D01*
X217354Y138659D01*
X217359Y138669D01*
X217363Y138679D01*
X217387Y138732D01*
X217392Y138741D01*
X217397Y138751D01*
X217427Y138800D01*
X217433Y138808D01*
X217439Y138818D01*
X217474Y138863D01*
X217481Y138871D01*
X217488Y138880D01*
X217528Y138921D01*
X217536Y138928D01*
X217544Y138936D01*
X217588Y138973D01*
X217597Y138979D01*
X217605Y138986D01*
X217653Y139018D01*
X217662Y139023D01*
X217671Y139029D01*
X217723Y139056D01*
X217733Y139059D01*
X217742Y139064D01*
X217796Y139085D01*
X217806Y139088D01*
X217816Y139092D01*
X217872Y139107D01*
X217882Y139109D01*
X217893Y139111D01*
X217950Y139120D01*
X217961Y139121D01*
X217971Y139122D01*
X218029Y139125D01*
X218040Y139124D01*
X218050Y139125D01*
X218108Y139121D01*
X218119Y139119D01*
X218129Y139118D01*
X218186Y139108D01*
X218197Y139105D01*
X218207Y139103D01*
X218262Y139087D01*
X218272Y139083D01*
X218283Y139080D01*
X218336Y139058D01*
X218345Y139053D01*
X218355Y139049D01*
X218406Y139021D01*
X218415Y139015D01*
X218424Y139010D01*
X218471Y138977D01*
X218479Y138970D01*
X218488Y138963D01*
X218531Y138925D01*
X218539Y138918D01*
X218547Y138910D01*
X218586Y138868D01*
X218592Y138859D01*
X218600Y138851D01*
X218634Y138805D01*
X218639Y138796D01*
X218645Y138787D01*
X218660Y138762D01*
X218660Y138762D01*
X220326Y135879D01*
X219888Y137518D01*
X219888Y137518D01*
X219885Y137531D01*
X219884Y137537D01*
X219882Y137543D01*
X219877Y137569D01*
X219877Y137575D01*
X219875Y137581D01*
X219872Y137607D01*
X219871Y137613D01*
X219870Y137620D01*
X219869Y137645D01*
X219869Y137652D01*
X219868Y137658D01*
Y137671D01*
Y137695D01*
X219869Y137707D01*
X219870Y137719D01*
X219876Y137766D01*
X219878Y137778D01*
X219880Y137789D01*
X219891Y137836D01*
X219895Y137847D01*
X219898Y137858D01*
X219915Y137903D01*
X219920Y137913D01*
X219924Y137924D01*
X219946Y137967D01*
X219953Y137977D01*
X219959Y137987D01*
X219986Y138026D01*
X219993Y138035D01*
X220000Y138045D01*
X220031Y138081D01*
X220040Y138089D01*
X220048Y138098D01*
X220083Y138129D01*
X220093Y138136D01*
X220102Y138144D01*
X220141Y138171D01*
X220151Y138177D01*
X220161Y138184D01*
X220203Y138206D01*
X220214Y138210D01*
X220225Y138216D01*
X220269Y138233D01*
X220281Y138236D01*
X220292Y138240D01*
X220338Y138252D01*
X220349Y138254D01*
X220361Y138257D01*
X220408Y138263D01*
X220420Y138263D01*
X220432Y138265D01*
X220479Y138265D01*
X220491Y138264D01*
X220503Y138264D01*
X220550Y138259D01*
X220562Y138256D01*
X220574Y138255D01*
X220620Y138244D01*
X220631Y138240D01*
X220643Y138237D01*
X220688Y138221D01*
X220698Y138216D01*
X220709Y138211D01*
X220752Y138190D01*
X220762Y138183D01*
X220772Y138178D01*
X220812Y138151D01*
X220821Y138144D01*
X220830Y138137D01*
X220867Y138106D01*
X220875Y138097D01*
X220884Y138089D01*
X220916Y138054D01*
X220923Y138045D01*
X220931Y138036D01*
X220958Y137997D01*
X220964Y137987D01*
X220971Y137977D01*
X220994Y137935D01*
X220999Y137925D01*
X221004Y137914D01*
X221022Y137870D01*
X221025Y137858D01*
X221029Y137847D01*
X221035Y137824D01*
Y137824D01*
X221035Y137824D01*
X221336Y136697D01*
X221336Y142055D01*
Y142087D01*
X221337Y142097D01*
Y142107D01*
X221343Y142171D01*
X221345Y142181D01*
X221346Y142191D01*
X221359Y142254D01*
X221362Y142263D01*
X221364Y142273D01*
X221382Y142335D01*
X221386Y142344D01*
X221389Y142353D01*
X221414Y142413D01*
X221418Y142421D01*
X221422Y142430D01*
X221452Y142488D01*
X221458Y142496D01*
X221462Y142504D01*
X221498Y142558D01*
X221505Y142566D01*
X221510Y142574D01*
X221551Y142624D01*
X221558Y142631D01*
X221564Y142638D01*
X221610Y142684D01*
X221618Y142690D01*
X221624Y142697D01*
X221674Y142738D01*
X221683Y142743D01*
X221690Y142750D01*
X221744Y142786D01*
X221752Y142790D01*
X221760Y142796D01*
X221817Y142826D01*
X221826Y142830D01*
X221835Y142834D01*
X221895Y142859D01*
X221904Y142862D01*
X221913Y142866D01*
X221975Y142884D01*
X221985Y142886D01*
X221994Y142889D01*
X222057Y142902D01*
X222067Y142903D01*
X222077Y142905D01*
X222141Y142911D01*
X222151D01*
X222160Y142912D01*
X222225D01*
X222235Y142911D01*
D02*
G37*
D11*
X275591Y137795D02*
G03*
X275591Y137795I-137795J0D01*
G01*
D12*
X197244Y155118D02*
D03*
D13*
Y139370D02*
D03*
Y147244D02*
D03*
D14*
Y164173D02*
D03*
Y130315D02*
D03*
D15*
X118347Y228156D02*
D03*
X104882Y265151D02*
D03*
X90708Y260624D02*
D03*
X104174Y223628D02*
D03*
X77913Y254718D02*
D03*
X91378Y217723D02*
D03*
D17*
X180118Y176181D02*
D03*
X101378D02*
D03*
D18*
X162795Y125236D02*
D03*
X152795D02*
D03*
X142795D02*
D03*
X132795D02*
D03*
X122795D02*
D03*
X112795D02*
D03*
X102795D02*
D03*
X172795D02*
D03*
Y95236D02*
D03*
X142795D02*
D03*
X152795D02*
D03*
X162795D02*
D03*
X132795D02*
D03*
X122795D02*
D03*
X112795D02*
D03*
X215787Y226614D02*
D03*
X205787D02*
D03*
X195787D02*
D03*
X185787D02*
D03*
X215787Y196614D02*
D03*
X205787D02*
D03*
X195787D02*
D03*
D19*
X102795Y95236D02*
D03*
X185787Y196614D02*
D03*
D20*
X228346Y202598D02*
D03*
D21*
Y222598D02*
D03*
D22*
X246064Y140348D02*
D03*
X216851Y62976D02*
D03*
X141063Y29527D02*
D03*
X64242Y58860D02*
D03*
X29599Y140348D02*
D03*
X63786Y216040D02*
D03*
X141063Y245993D02*
D03*
D23*
X256064Y140348D02*
D03*
X19599D02*
D03*
D24*
X223922Y55905D02*
D03*
X56715Y223111D02*
D03*
D25*
X141063Y19527D02*
D03*
X141063Y255993D02*
D03*
D26*
X57171Y51789D02*
D03*
M02*
