G04*
G04 #@! TF.GenerationSoftware,Altium Limited,Altium Designer,25.1.2 (22)*
G04*
G04 Layer_Color=2752767*
%FSLAX25Y25*%
%MOIN*%
G70*
G04*
G04 #@! TF.SameCoordinates,1F9D3A5C-45A7-463C-8666-355E490B88AF*
G04*
G04*
G04 #@! TF.FilePolarity,Positive*
G04*
G01*
G75*
%ADD11C,0.01000*%
%ADD45C,0.00591*%
%ADD46C,0.00200*%
%ADD47C,0.00945*%
%ADD48C,0.00827*%
D11*
X275591Y137795D02*
G03*
X275591Y137795I-137795J0D01*
G01*
D45*
X484008Y73010D02*
G03*
X484008Y73010I-1750J0D01*
G01*
X477349Y108268D02*
X1033571D01*
X477349Y61024D02*
X1033571D01*
X477349Y53150D02*
X1033571D01*
Y116142D01*
X477349D02*
X1033571D01*
X477349Y53150D02*
Y116142D01*
X959734Y53150D02*
Y116142D01*
X902401Y53150D02*
Y116142D01*
X825653Y53150D02*
Y116142D01*
X768320Y53150D02*
Y116142D01*
X737147Y53150D02*
Y116142D01*
X658299Y53150D02*
Y116142D01*
X619569Y53150D02*
Y116142D01*
X592804Y53150D02*
Y116142D01*
X534947Y53150D02*
Y116142D01*
X506477Y53150D02*
Y116142D01*
X481383Y103631D02*
X482258Y102756D01*
X480508Y103631D02*
X481383D01*
X480508D02*
X481383Y104506D01*
X480508Y105381D02*
X481383Y104506D01*
X480508Y105381D02*
X481383D01*
X482258Y106256D01*
X483133Y105381D01*
X484008D01*
X483133Y104506D02*
X484008Y105381D01*
X483133Y104506D02*
X484008Y103631D01*
X483133D02*
X484008D01*
X482258Y102756D02*
X483133Y103631D01*
X482258Y94882D02*
X484008Y98382D01*
X480508D02*
X484008D01*
X480508D02*
X482258Y94882D01*
X480508Y87008D02*
X482258Y87883D01*
X484008Y87008D01*
X483133Y88758D02*
X484008Y87008D01*
X483133Y88758D02*
X484008Y90508D01*
X482258Y89633D02*
X484008Y90508D01*
X480508D02*
X482258Y89633D01*
X480508Y90508D02*
X481383Y88758D01*
X480508Y87008D02*
X481383Y88758D01*
X480508Y80009D02*
X481383D01*
X480508D02*
Y81759D01*
X481383D01*
Y82634D01*
X483133D01*
Y81759D02*
Y82634D01*
Y81759D02*
X484008D01*
Y80009D02*
Y81759D01*
X483133Y80009D02*
X484008D01*
X483133Y79134D02*
Y80009D01*
X481383Y79134D02*
X483133D01*
X481383D02*
Y80009D01*
X480508Y63386D02*
X484008D01*
Y66886D01*
X480508D02*
X484008D01*
X480508Y63386D02*
Y66886D01*
X962096Y104330D02*
X964195D01*
X962096Y96456D02*
X964195D01*
X962096Y89632D02*
X962621Y90157D01*
X963670D01*
X964195Y89632D01*
Y87533D01*
X963670Y87008D01*
X962621D01*
X962096Y87533D01*
Y89632D01*
X965245Y87008D02*
Y87533D01*
X965769D01*
Y87008D01*
X965245D01*
X967869Y89632D02*
X968393Y90157D01*
X969443D01*
X969968Y89632D01*
Y89107D01*
X969443Y88582D01*
X969968Y88058D01*
Y87533D01*
X969443Y87008D01*
X968393D01*
X967869Y87533D01*
Y88058D01*
X968393Y88582D01*
X967869Y89107D01*
Y89632D01*
X968393Y88582D02*
X969443D01*
X971017Y89632D02*
X971542Y90157D01*
X972591D01*
X973116Y89632D01*
Y87533D01*
X972591Y87008D01*
X971542D01*
X971017Y87533D01*
Y89632D01*
X974166D02*
X974691Y90157D01*
X975740D01*
X976265Y89632D01*
Y87533D01*
X975740Y87008D01*
X974691D01*
X974166Y87533D01*
Y89632D01*
X977314Y87008D02*
Y89107D01*
X977839D01*
X978364Y88582D01*
Y87008D01*
Y88582D01*
X978889Y89107D01*
X979413Y88582D01*
Y87008D01*
X980463D02*
Y89107D01*
X980988D01*
X981512Y88582D01*
Y87008D01*
Y88582D01*
X982037Y89107D01*
X982562Y88582D01*
Y87008D01*
X987810D02*
X986760Y88058D01*
Y89107D01*
X987810Y90157D01*
X989384Y89632D02*
X989909Y90157D01*
X990958D01*
X991483Y89632D01*
Y89107D01*
X990958Y88582D01*
X990433D01*
X990958D01*
X991483Y88058D01*
Y87533D01*
X990958Y87008D01*
X989909D01*
X989384Y87533D01*
X992533Y87008D02*
X993582D01*
X993057D01*
Y90157D01*
X992533Y89632D01*
X995156Y87008D02*
Y87533D01*
X995681D01*
Y87008D01*
X995156D01*
X999879Y90157D02*
X997780D01*
Y88582D01*
X998830Y89107D01*
X999354D01*
X999879Y88582D01*
Y87533D01*
X999354Y87008D01*
X998305D01*
X997780Y87533D01*
X1000929Y89632D02*
X1001453Y90157D01*
X1002503D01*
X1003028Y89632D01*
Y87533D01*
X1002503Y87008D01*
X1001453D01*
X1000929Y87533D01*
Y89632D01*
X1004077Y87008D02*
Y89107D01*
X1004602D01*
X1005127Y88582D01*
Y87008D01*
Y88582D01*
X1005652Y89107D01*
X1006176Y88582D01*
Y87008D01*
X1007226D02*
X1008275D01*
X1007751D01*
Y89107D01*
X1007226D01*
X1009850Y87008D02*
X1010899D01*
X1010375D01*
Y90157D01*
X1009850D01*
X1012474Y87008D02*
X1013523Y88058D01*
Y89107D01*
X1012474Y90157D01*
X962096Y80708D02*
X964195D01*
X962096Y72834D02*
X964195D01*
X962096Y64960D02*
X964195D01*
X904764Y104330D02*
X906863D01*
X904764Y96456D02*
X906863D01*
X904764Y87008D02*
X905813D01*
X905288D01*
Y90157D01*
X904764Y89632D01*
X907387Y87008D02*
Y87533D01*
X907912D01*
Y87008D01*
X907387D01*
X912110Y90157D02*
X910011D01*
Y88582D01*
X911061Y89107D01*
X911586D01*
X912110Y88582D01*
Y87533D01*
X911586Y87008D01*
X910536D01*
X910011Y87533D01*
X913160Y89632D02*
X913685Y90157D01*
X914734D01*
X915259Y89632D01*
Y87533D01*
X914734Y87008D01*
X913685D01*
X913160Y87533D01*
Y89632D01*
X916308D02*
X916833Y90157D01*
X917883D01*
X918408Y89632D01*
Y87533D01*
X917883Y87008D01*
X916833D01*
X916308Y87533D01*
Y89632D01*
X919457Y87008D02*
Y89107D01*
X919982D01*
X920507Y88582D01*
Y87008D01*
Y88582D01*
X921031Y89107D01*
X921556Y88582D01*
Y87008D01*
X922606D02*
Y89107D01*
X923130D01*
X923655Y88582D01*
Y87008D01*
Y88582D01*
X924180Y89107D01*
X924705Y88582D01*
Y87008D01*
X929952D02*
X928903Y88058D01*
Y89107D01*
X929952Y90157D01*
X933626D02*
X931527D01*
Y88582D01*
X932576Y89107D01*
X933101D01*
X933626Y88582D01*
Y87533D01*
X933101Y87008D01*
X932051D01*
X931527Y87533D01*
X934675D02*
X935200Y87008D01*
X936250D01*
X936774Y87533D01*
Y89632D01*
X936250Y90157D01*
X935200D01*
X934675Y89632D01*
Y89107D01*
X935200Y88582D01*
X936774D01*
X937824Y87008D02*
Y87533D01*
X938349D01*
Y87008D01*
X937824D01*
X940448Y89632D02*
X940972Y90157D01*
X942022D01*
X942547Y89632D01*
Y87533D01*
X942022Y87008D01*
X940972D01*
X940448Y87533D01*
Y89632D01*
X945695Y90157D02*
X944646Y89632D01*
X943596Y88582D01*
Y87533D01*
X944121Y87008D01*
X945170D01*
X945695Y87533D01*
Y88058D01*
X945170Y88582D01*
X943596D01*
X946745Y87008D02*
Y89107D01*
X947270D01*
X947794Y88582D01*
Y87008D01*
Y88582D01*
X948319Y89107D01*
X948844Y88582D01*
Y87008D01*
X949893D02*
X950943D01*
X950418D01*
Y89107D01*
X949893D01*
X952517Y87008D02*
X953567D01*
X953042D01*
Y90157D01*
X952517D01*
X955141Y87008D02*
X956191Y88058D01*
Y89107D01*
X955141Y90157D01*
X904764Y80708D02*
X906863D01*
X904764Y72834D02*
X906863D01*
X904764Y64960D02*
X906863D01*
X828015Y104855D02*
Y102756D01*
Y103805D01*
X828540Y104330D01*
X829064Y104855D01*
X829589D01*
X831163Y105380D02*
X831688Y105905D01*
X832738D01*
X833263Y105380D01*
Y104855D01*
X832738Y104330D01*
X832213D01*
X832738D01*
X833263Y103805D01*
Y103281D01*
X832738Y102756D01*
X831688D01*
X831163Y103281D01*
X836411Y105905D02*
X834312D01*
Y104330D01*
X835361Y104855D01*
X835886D01*
X836411Y104330D01*
Y103281D01*
X835886Y102756D01*
X834837D01*
X834312Y103281D01*
X837461Y105380D02*
X837985Y105905D01*
X839035D01*
X839560Y105380D01*
Y103281D01*
X839035Y102756D01*
X837985D01*
X837461Y103281D01*
Y105380D01*
X840609Y102231D02*
X842708D01*
X843758Y105380D02*
X844283Y105905D01*
X845332D01*
X845857Y105380D01*
Y104855D01*
X845332Y104330D01*
X844807D01*
X845332D01*
X845857Y103805D01*
Y103281D01*
X845332Y102756D01*
X844283D01*
X843758Y103281D01*
X849005Y102756D02*
X846906D01*
X849005Y104855D01*
Y105380D01*
X848481Y105905D01*
X847431D01*
X846906Y105380D01*
X850055D02*
X850580Y105905D01*
X851629D01*
X852154Y105380D01*
Y103281D01*
X851629Y102756D01*
X850580D01*
X850055Y103281D01*
Y105380D01*
X853204Y105905D02*
Y102756D01*
Y104330D01*
X853728Y104855D01*
X854778D01*
X855303Y104330D01*
Y102756D01*
X858451D02*
X856352D01*
X858451Y104855D01*
Y105380D01*
X857926Y105905D01*
X856877D01*
X856352Y105380D01*
X861600Y105905D02*
X859501D01*
Y104330D01*
X860550Y104855D01*
X861075D01*
X861600Y104330D01*
Y103281D01*
X861075Y102756D01*
X860026D01*
X859501Y103281D01*
X862649Y105380D02*
X863174Y105905D01*
X864224D01*
X864748Y105380D01*
Y103281D01*
X864224Y102756D01*
X863174D01*
X862649Y103281D01*
Y105380D01*
X865798Y104855D02*
Y102756D01*
Y103805D01*
X866323Y104330D01*
X866848Y104855D01*
X867372D01*
X868946Y102756D02*
X869996D01*
X869471D01*
Y105905D01*
X868946Y105380D01*
X873669Y105905D02*
X872620Y105380D01*
X871570Y104330D01*
Y103281D01*
X872095Y102756D01*
X873145D01*
X873669Y103281D01*
Y103805D01*
X873145Y104330D01*
X871570D01*
X874719Y105380D02*
X875244Y105905D01*
X876293D01*
X876818Y105380D01*
Y103281D01*
X876293Y102756D01*
X875244D01*
X874719Y103281D01*
Y105380D01*
X877868Y102756D02*
Y104855D01*
X878392D01*
X878917Y104330D01*
Y102756D01*
Y104330D01*
X879442Y104855D01*
X879967Y104330D01*
Y102756D01*
X883115D02*
X881016D01*
X883115Y104855D01*
Y105380D01*
X882590Y105905D01*
X881541D01*
X881016Y105380D01*
X884165Y105905D02*
X886264D01*
Y105380D01*
X884165Y103281D01*
Y102756D01*
X887313Y105380D02*
X887838Y105905D01*
X888888D01*
X889412Y105380D01*
Y103281D01*
X888888Y102756D01*
X887838D01*
X887313Y103281D01*
Y105380D01*
X890462Y102756D02*
Y104855D01*
X890987D01*
X891511Y104330D01*
Y102756D01*
Y104330D01*
X892036Y104855D01*
X892561Y104330D01*
Y102756D01*
X893610Y104855D02*
X895710Y102756D01*
X894660Y103805D01*
X895710Y104855D01*
X893610Y102756D01*
X896759Y105380D02*
X897284Y105905D01*
X898333D01*
X898858Y105380D01*
Y103281D01*
X898333Y102756D01*
X897284D01*
X896759Y103281D01*
Y105380D01*
X829064Y94882D02*
X828015Y95932D01*
Y96981D01*
X829064Y98031D01*
X830639Y94882D02*
Y98031D01*
X831688Y96981D01*
X832738Y98031D01*
Y94882D01*
X833787D02*
X834837D01*
X834312D01*
Y96981D01*
X833787D01*
X836411D02*
X838510Y94882D01*
X837461Y95932D01*
X838510Y96981D01*
X836411Y94882D01*
X841134D02*
X840084D01*
X839560Y95407D01*
Y96456D01*
X840084Y96981D01*
X841134D01*
X841659Y96456D01*
Y95932D01*
X839560D01*
X844807Y98031D02*
Y94882D01*
X843233D01*
X842708Y95407D01*
Y96456D01*
X843233Y96981D01*
X844807D01*
X845857Y94882D02*
X846906Y95932D01*
Y96981D01*
X845857Y98031D01*
X828015Y89107D02*
Y87008D01*
Y88058D01*
X828540Y88582D01*
X829064Y89107D01*
X829589D01*
X833263Y87008D02*
X831163D01*
X833263Y89107D01*
Y89632D01*
X832738Y90157D01*
X831688D01*
X831163Y89632D01*
X836411Y87008D02*
X834312D01*
X836411Y89107D01*
Y89632D01*
X835886Y90157D01*
X834837D01*
X834312Y89632D01*
X837461D02*
X837985Y90157D01*
X839035D01*
X839560Y89632D01*
Y87533D01*
X839035Y87008D01*
X837985D01*
X837461Y87533D01*
Y89632D01*
X840609Y86483D02*
X842708D01*
X843758Y87008D02*
X844807D01*
X844283D01*
Y90157D01*
X843758Y89632D01*
X848481Y87008D02*
X846382D01*
X848481Y89107D01*
Y89632D01*
X847956Y90157D01*
X846906D01*
X846382Y89632D01*
X849530D02*
X850055Y90157D01*
X851105D01*
X851629Y89632D01*
Y87533D01*
X851105Y87008D01*
X850055D01*
X849530Y87533D01*
Y89632D01*
X852679Y90157D02*
Y87008D01*
Y88582D01*
X853204Y89107D01*
X854253D01*
X854778Y88582D01*
Y87008D01*
X855827Y90157D02*
X857926D01*
Y89632D01*
X855827Y87533D01*
Y87008D01*
X858976Y89632D02*
X859501Y90157D01*
X860550D01*
X861075Y89632D01*
Y87533D01*
X860550Y87008D01*
X859501D01*
X858976Y87533D01*
Y89632D01*
X862125Y86483D02*
X864224D01*
X865273Y87008D02*
X866323D01*
X865798D01*
Y90157D01*
X865273Y89632D01*
X869996Y90157D02*
X867897D01*
Y88582D01*
X868946Y89107D01*
X869471D01*
X869996Y88582D01*
Y87533D01*
X869471Y87008D01*
X868422D01*
X867897Y87533D01*
X871046Y89632D02*
X871570Y90157D01*
X872620D01*
X873145Y89632D01*
Y87533D01*
X872620Y87008D01*
X871570D01*
X871046Y87533D01*
Y89632D01*
X874194Y89107D02*
Y87008D01*
Y88058D01*
X874719Y88582D01*
X875244Y89107D01*
X875768D01*
X877343Y89632D02*
X877868Y90157D01*
X878917D01*
X879442Y89632D01*
Y89107D01*
X878917Y88582D01*
X878392D01*
X878917D01*
X879442Y88058D01*
Y87533D01*
X878917Y87008D01*
X877868D01*
X877343Y87533D01*
X880491Y89632D02*
X881016Y90157D01*
X882066D01*
X882590Y89632D01*
Y87533D01*
X882066Y87008D01*
X881016D01*
X880491Y87533D01*
Y89632D01*
X829064Y79134D02*
X828015Y80184D01*
Y81233D01*
X829064Y82283D01*
X830639Y79134D02*
Y82283D01*
X831688Y81233D01*
X832738Y82283D01*
Y79134D01*
X833787D02*
X834837D01*
X834312D01*
Y81233D01*
X833787D01*
X836411D02*
X838510Y79134D01*
X837461Y80184D01*
X838510Y81233D01*
X836411Y79134D01*
X841134D02*
X840084D01*
X839560Y79659D01*
Y80708D01*
X840084Y81233D01*
X841134D01*
X841659Y80708D01*
Y80184D01*
X839560D01*
X844807Y82283D02*
Y79134D01*
X843233D01*
X842708Y79659D01*
Y80708D01*
X843233Y81233D01*
X844807D01*
X845857Y79134D02*
X846906Y80184D01*
Y81233D01*
X845857Y82283D01*
X830114Y73359D02*
X828540D01*
X828015Y72834D01*
Y71785D01*
X828540Y71260D01*
X830114D01*
X831163D02*
X832213D01*
X831688D01*
Y74409D01*
X831163Y73884D01*
X835362Y71260D02*
Y74409D01*
X833787Y72834D01*
X835886D01*
X836936Y73884D02*
X837461Y74409D01*
X838510D01*
X839035Y73884D01*
Y71785D01*
X838510Y71260D01*
X837461D01*
X836936Y71785D01*
Y73884D01*
X840084Y74409D02*
Y71260D01*
Y72834D01*
X840609Y73359D01*
X841659D01*
X842183Y72834D01*
Y71260D01*
X843233Y73884D02*
X843758Y74409D01*
X844807D01*
X845332Y73884D01*
Y73359D01*
X844807Y72834D01*
X845332Y72309D01*
Y71785D01*
X844807Y71260D01*
X843758D01*
X843233Y71785D01*
Y72309D01*
X843758Y72834D01*
X843233Y73359D01*
Y73884D01*
X843758Y72834D02*
X844807D01*
X848481Y74409D02*
X846382D01*
Y72834D01*
X847431Y73359D01*
X847956D01*
X848481Y72834D01*
Y71785D01*
X847956Y71260D01*
X846906D01*
X846382Y71785D01*
X829064Y63386D02*
X828015Y64435D01*
Y65485D01*
X829064Y66535D01*
X830639Y63386D02*
Y66535D01*
X831688Y65485D01*
X832738Y66535D01*
Y63386D01*
X833787D02*
X834837D01*
X834312D01*
Y65485D01*
X833787D01*
X836411D02*
X838510Y63386D01*
X837461Y64435D01*
X838510Y65485D01*
X836411Y63386D01*
X841134D02*
X840084D01*
X839560Y63911D01*
Y64960D01*
X840084Y65485D01*
X841134D01*
X841659Y64960D01*
Y64435D01*
X839560D01*
X844807Y66535D02*
Y63386D01*
X843233D01*
X842708Y63911D01*
Y64960D01*
X843233Y65485D01*
X844807D01*
X845857Y63386D02*
X846906Y64435D01*
Y65485D01*
X845857Y66535D01*
X770682Y102756D02*
Y105905D01*
X772257D01*
X772781Y105380D01*
Y104330D01*
X772257Y103805D01*
X770682D01*
X771732D02*
X772781Y102756D01*
X774356D02*
X775405D01*
X775930Y103281D01*
Y104330D01*
X775405Y104855D01*
X774356D01*
X773831Y104330D01*
Y103281D01*
X774356Y102756D01*
X776980Y104855D02*
Y103281D01*
X777504Y102756D01*
X779079D01*
Y104855D01*
X780128Y102756D02*
Y104855D01*
X781703D01*
X782227Y104330D01*
Y102756D01*
X785376Y105905D02*
Y102756D01*
X783802D01*
X783277Y103281D01*
Y104330D01*
X783802Y104855D01*
X785376D01*
X788000Y102756D02*
X786950D01*
X786425Y103281D01*
Y104330D01*
X786950Y104855D01*
X788000D01*
X788524Y104330D01*
Y103805D01*
X786425D01*
X791673Y105905D02*
Y102756D01*
X790099D01*
X789574Y103281D01*
Y104330D01*
X790099Y104855D01*
X791673D01*
X771732Y94882D02*
X770682Y95932D01*
Y96981D01*
X771732Y98031D01*
X773306Y94882D02*
Y98031D01*
X774356Y96981D01*
X775405Y98031D01*
Y94882D01*
X776455D02*
X777504D01*
X776980D01*
Y96981D01*
X776455D01*
X779079D02*
X781178Y94882D01*
X780128Y95932D01*
X781178Y96981D01*
X779079Y94882D01*
X783802D02*
X782752D01*
X782227Y95407D01*
Y96456D01*
X782752Y96981D01*
X783802D01*
X784326Y96456D01*
Y95932D01*
X782227D01*
X787475Y98031D02*
Y94882D01*
X785901D01*
X785376Y95407D01*
Y96456D01*
X785901Y96981D01*
X787475D01*
X788524Y94882D02*
X789574Y95932D01*
Y96981D01*
X788524Y98031D01*
X770682Y87008D02*
Y90157D01*
X772257D01*
X772781Y89632D01*
Y88582D01*
X772257Y88058D01*
X770682D01*
X771732D02*
X772781Y87008D01*
X774356D02*
X775405D01*
X775930Y87533D01*
Y88582D01*
X775405Y89107D01*
X774356D01*
X773831Y88582D01*
Y87533D01*
X774356Y87008D01*
X776980Y89107D02*
Y87533D01*
X777504Y87008D01*
X779079D01*
Y89107D01*
X780128Y87008D02*
Y89107D01*
X781703D01*
X782227Y88582D01*
Y87008D01*
X785376Y90157D02*
Y87008D01*
X783802D01*
X783277Y87533D01*
Y88582D01*
X783802Y89107D01*
X785376D01*
X788000Y87008D02*
X786950D01*
X786425Y87533D01*
Y88582D01*
X786950Y89107D01*
X788000D01*
X788524Y88582D01*
Y88058D01*
X786425D01*
X791673Y90157D02*
Y87008D01*
X790099D01*
X789574Y87533D01*
Y88582D01*
X790099Y89107D01*
X791673D01*
X795871Y87008D02*
Y90157D01*
X797445D01*
X797970Y89632D01*
Y88582D01*
X797445Y88058D01*
X795871D01*
X796921D02*
X797970Y87008D01*
X800594D02*
X799544D01*
X799020Y87533D01*
Y88582D01*
X799544Y89107D01*
X800594D01*
X801119Y88582D01*
Y88058D01*
X799020D01*
X804267Y89107D02*
X802693D01*
X802168Y88582D01*
Y87533D01*
X802693Y87008D01*
X804267D01*
X805842Y89632D02*
Y89107D01*
X805317D01*
X806366D01*
X805842D01*
Y87533D01*
X806366Y87008D01*
X808465Y89107D02*
X809515D01*
X810040Y88582D01*
Y87008D01*
X808465D01*
X807941Y87533D01*
X808465Y88058D01*
X810040D01*
X811089Y87008D02*
Y89107D01*
X812664D01*
X813188Y88582D01*
Y87008D01*
X815287Y85958D02*
X815812D01*
X816337Y86483D01*
Y89107D01*
X814763D01*
X814238Y88582D01*
Y87533D01*
X814763Y87008D01*
X816337D01*
X817387D02*
X818436D01*
X817911D01*
Y90157D01*
X817387D01*
X821585Y87008D02*
X820535D01*
X820010Y87533D01*
Y88582D01*
X820535Y89107D01*
X821585D01*
X822109Y88582D01*
Y88058D01*
X820010D01*
X771732Y79134D02*
X770682Y80184D01*
Y81233D01*
X771732Y82283D01*
X773306Y79134D02*
Y82283D01*
X774356Y81233D01*
X775405Y82283D01*
Y79134D01*
X776455D02*
X777504D01*
X776980D01*
Y81233D01*
X776455D01*
X779079D02*
X781178Y79134D01*
X780128Y80184D01*
X781178Y81233D01*
X779079Y79134D01*
X783802D02*
X782752D01*
X782227Y79659D01*
Y80708D01*
X782752Y81233D01*
X783802D01*
X784326Y80708D01*
Y80184D01*
X782227D01*
X787475Y82283D02*
Y79134D01*
X785901D01*
X785376Y79659D01*
Y80708D01*
X785901Y81233D01*
X787475D01*
X788524Y79134D02*
X789574Y80184D01*
Y81233D01*
X788524Y82283D01*
X770682Y71260D02*
Y74409D01*
X772257D01*
X772781Y73884D01*
Y72834D01*
X772257Y72309D01*
X770682D01*
X771732D02*
X772781Y71260D01*
X774356D02*
X775405D01*
X775930Y71785D01*
Y72834D01*
X775405Y73359D01*
X774356D01*
X773831Y72834D01*
Y71785D01*
X774356Y71260D01*
X776980Y73359D02*
Y71785D01*
X777504Y71260D01*
X779079D01*
Y73359D01*
X780128Y71260D02*
Y73359D01*
X781703D01*
X782227Y72834D01*
Y71260D01*
X785376Y74409D02*
Y71260D01*
X783802D01*
X783277Y71785D01*
Y72834D01*
X783802Y73359D01*
X785376D01*
X788000Y71260D02*
X786950D01*
X786425Y71785D01*
Y72834D01*
X786950Y73359D01*
X788000D01*
X788524Y72834D01*
Y72309D01*
X786425D01*
X791673Y74409D02*
Y71260D01*
X790099D01*
X789574Y71785D01*
Y72834D01*
X790099Y73359D01*
X791673D01*
X771732Y63386D02*
X770682Y64435D01*
Y65485D01*
X771732Y66535D01*
X773306Y63386D02*
Y66535D01*
X774356Y65485D01*
X775405Y66535D01*
Y63386D01*
X776455D02*
X777504D01*
X776980D01*
Y65485D01*
X776455D01*
X779079D02*
X781178Y63386D01*
X780128Y64435D01*
X781178Y65485D01*
X779079Y63386D01*
X783802D02*
X782752D01*
X782227Y63911D01*
Y64960D01*
X782752Y65485D01*
X783802D01*
X784326Y64960D01*
Y64435D01*
X782227D01*
X787475Y66535D02*
Y63386D01*
X785901D01*
X785376Y63911D01*
Y64960D01*
X785901Y65485D01*
X787475D01*
X788524Y63386D02*
X789574Y64435D01*
Y65485D01*
X788524Y66535D01*
X739509Y102756D02*
Y105905D01*
X741083D01*
X741608Y105380D01*
Y104330D01*
X741083Y103805D01*
X739509D01*
X743183Y104855D02*
X744232D01*
X744757Y104330D01*
Y102756D01*
X743183D01*
X742658Y103281D01*
X743183Y103805D01*
X744757D01*
X747905Y105905D02*
Y102756D01*
X746331D01*
X745806Y103281D01*
Y104330D01*
X746331Y104855D01*
X747905D01*
X739509Y94882D02*
Y98031D01*
X741083D01*
X741608Y97506D01*
Y96456D01*
X741083Y95932D01*
X739509D01*
X743183Y96981D02*
X744232D01*
X744757Y96456D01*
Y94882D01*
X743183D01*
X742658Y95407D01*
X743183Y95932D01*
X744757D01*
X747905Y98031D02*
Y94882D01*
X746331D01*
X745806Y95407D01*
Y96456D01*
X746331Y96981D01*
X747905D01*
X739509Y87008D02*
Y90157D01*
X741083D01*
X741608Y89632D01*
Y88582D01*
X741083Y88058D01*
X739509D01*
X743183Y89107D02*
X744232D01*
X744757Y88582D01*
Y87008D01*
X743183D01*
X742658Y87533D01*
X743183Y88058D01*
X744757D01*
X747905Y90157D02*
Y87008D01*
X746331D01*
X745806Y87533D01*
Y88582D01*
X746331Y89107D01*
X747905D01*
X739509Y79134D02*
Y82283D01*
X741083D01*
X741608Y81758D01*
Y80708D01*
X741083Y80184D01*
X739509D01*
X743183Y81233D02*
X744232D01*
X744757Y80708D01*
Y79134D01*
X743183D01*
X742658Y79659D01*
X743183Y80184D01*
X744757D01*
X747905Y82283D02*
Y79134D01*
X746331D01*
X745806Y79659D01*
Y80708D01*
X746331Y81233D01*
X747905D01*
X739509Y71260D02*
Y74409D01*
X741083D01*
X741608Y73884D01*
Y72834D01*
X741083Y72309D01*
X739509D01*
X743183Y73359D02*
X744232D01*
X744757Y72834D01*
Y71260D01*
X743183D01*
X742658Y71785D01*
X743183Y72309D01*
X744757D01*
X747905Y74409D02*
Y71260D01*
X746331D01*
X745806Y71785D01*
Y72834D01*
X746331Y73359D01*
X747905D01*
X739509Y63386D02*
Y66535D01*
X741083D01*
X741608Y66010D01*
Y64960D01*
X741083Y64435D01*
X739509D01*
X743183Y65485D02*
X744232D01*
X744757Y64960D01*
Y63386D01*
X743183D01*
X742658Y63911D01*
X743183Y64435D01*
X744757D01*
X747905Y66535D02*
Y63386D01*
X746331D01*
X745806Y63911D01*
Y64960D01*
X746331Y65485D01*
X747905D01*
X660661Y105905D02*
X662760D01*
X661711D01*
Y102756D01*
X664335D02*
X665384D01*
X665909Y103281D01*
Y104330D01*
X665384Y104855D01*
X664335D01*
X663810Y104330D01*
Y103281D01*
X664335Y102756D01*
X666959Y101707D02*
Y104855D01*
X668533D01*
X669058Y104330D01*
Y103281D01*
X668533Y102756D01*
X666959D01*
X673256Y105905D02*
Y102756D01*
X675355D01*
X676929Y104855D02*
X677979D01*
X678503Y104330D01*
Y102756D01*
X676929D01*
X676404Y103281D01*
X676929Y103805D01*
X678503D01*
X679553Y104855D02*
Y103281D01*
X680078Y102756D01*
X681652D01*
Y102231D01*
X681127Y101707D01*
X680603D01*
X681652Y102756D02*
Y104855D01*
X684276Y102756D02*
X683226D01*
X682701Y103281D01*
Y104330D01*
X683226Y104855D01*
X684276D01*
X684801Y104330D01*
Y103805D01*
X682701D01*
X685850Y104855D02*
Y102756D01*
Y103805D01*
X686375Y104330D01*
X686900Y104855D01*
X687424D01*
X692147Y104330D02*
X694246D01*
X698445Y105905D02*
Y102756D01*
X700019D01*
X700543Y103281D01*
Y103805D01*
X700019Y104330D01*
X698445D01*
X700019D01*
X700543Y104855D01*
Y105380D01*
X700019Y105905D01*
X698445D01*
X702118Y102756D02*
X703167D01*
X703692Y103281D01*
Y104330D01*
X703167Y104855D01*
X702118D01*
X701593Y104330D01*
Y103281D01*
X702118Y102756D01*
X705266Y105380D02*
Y104855D01*
X704742D01*
X705791D01*
X705266D01*
Y103281D01*
X705791Y102756D01*
X707890Y105380D02*
Y104855D01*
X707366D01*
X708415D01*
X707890D01*
Y103281D01*
X708415Y102756D01*
X710514D02*
X711564D01*
X712088Y103281D01*
Y104330D01*
X711564Y104855D01*
X710514D01*
X709989Y104330D01*
Y103281D01*
X710514Y102756D01*
X713138D02*
Y104855D01*
X713663D01*
X714187Y104330D01*
Y102756D01*
Y104330D01*
X714712Y104855D01*
X715237Y104330D01*
Y102756D01*
X719435Y105905D02*
Y102756D01*
X721534D01*
X723108Y104855D02*
X724158D01*
X724683Y104330D01*
Y102756D01*
X723108D01*
X722584Y103281D01*
X723108Y103805D01*
X724683D01*
X725732Y104855D02*
Y103281D01*
X726257Y102756D01*
X727831D01*
Y102231D01*
X727307Y101707D01*
X726782D01*
X727831Y102756D02*
Y104855D01*
X730455Y102756D02*
X729406D01*
X728881Y103281D01*
Y104330D01*
X729406Y104855D01*
X730455D01*
X730980Y104330D01*
Y103805D01*
X728881D01*
X732029Y104855D02*
Y102756D01*
Y103805D01*
X732554Y104330D01*
X733079Y104855D01*
X733604D01*
X660661Y98031D02*
X662760D01*
X661711D01*
Y94882D01*
X664335D02*
X665384D01*
X665909Y95407D01*
Y96456D01*
X665384Y96981D01*
X664335D01*
X663810Y96456D01*
Y95407D01*
X664335Y94882D01*
X666959Y93832D02*
Y96981D01*
X668533D01*
X669058Y96456D01*
Y95407D01*
X668533Y94882D01*
X666959D01*
X673256Y98031D02*
Y94882D01*
X675355D01*
X676929Y96981D02*
X677979D01*
X678503Y96456D01*
Y94882D01*
X676929D01*
X676404Y95407D01*
X676929Y95932D01*
X678503D01*
X679553Y96981D02*
Y95407D01*
X680078Y94882D01*
X681652D01*
Y94357D01*
X681127Y93832D01*
X680603D01*
X681652Y94882D02*
Y96981D01*
X684276Y94882D02*
X683226D01*
X682701Y95407D01*
Y96456D01*
X683226Y96981D01*
X684276D01*
X684801Y96456D01*
Y95932D01*
X682701D01*
X685850Y96981D02*
Y94882D01*
Y95932D01*
X686375Y96456D01*
X686900Y96981D01*
X687424D01*
X692147Y96456D02*
X694246D01*
X698445Y98031D02*
Y94882D01*
X700019D01*
X700543Y95407D01*
Y95932D01*
X700019Y96456D01*
X698445D01*
X700019D01*
X700543Y96981D01*
Y97506D01*
X700019Y98031D01*
X698445D01*
X702118Y94882D02*
X703167D01*
X703692Y95407D01*
Y96456D01*
X703167Y96981D01*
X702118D01*
X701593Y96456D01*
Y95407D01*
X702118Y94882D01*
X705266Y97506D02*
Y96981D01*
X704742D01*
X705791D01*
X705266D01*
Y95407D01*
X705791Y94882D01*
X707890Y97506D02*
Y96981D01*
X707366D01*
X708415D01*
X707890D01*
Y95407D01*
X708415Y94882D01*
X710514D02*
X711564D01*
X712088Y95407D01*
Y96456D01*
X711564Y96981D01*
X710514D01*
X709989Y96456D01*
Y95407D01*
X710514Y94882D01*
X713138D02*
Y96981D01*
X713663D01*
X714187Y96456D01*
Y94882D01*
Y96456D01*
X714712Y96981D01*
X715237Y96456D01*
Y94882D01*
X719435Y98031D02*
Y94882D01*
X721534D01*
X723108Y96981D02*
X724158D01*
X724683Y96456D01*
Y94882D01*
X723108D01*
X722584Y95407D01*
X723108Y95932D01*
X724683D01*
X725732Y96981D02*
Y95407D01*
X726257Y94882D01*
X727831D01*
Y94357D01*
X727307Y93832D01*
X726782D01*
X727831Y94882D02*
Y96981D01*
X730455Y94882D02*
X729406D01*
X728881Y95407D01*
Y96456D01*
X729406Y96981D01*
X730455D01*
X730980Y96456D01*
Y95932D01*
X728881D01*
X732029Y96981D02*
Y94882D01*
Y95932D01*
X732554Y96456D01*
X733079Y96981D01*
X733604D01*
X660661Y90157D02*
X662760D01*
X661711D01*
Y87008D01*
X664335D02*
X665384D01*
X665909Y87533D01*
Y88582D01*
X665384Y89107D01*
X664335D01*
X663810Y88582D01*
Y87533D01*
X664335Y87008D01*
X666959Y85958D02*
Y89107D01*
X668533D01*
X669058Y88582D01*
Y87533D01*
X668533Y87008D01*
X666959D01*
X673256Y90157D02*
Y87008D01*
X675355D01*
X676929Y89107D02*
X677979D01*
X678503Y88582D01*
Y87008D01*
X676929D01*
X676404Y87533D01*
X676929Y88058D01*
X678503D01*
X679553Y89107D02*
Y87533D01*
X680078Y87008D01*
X681652D01*
Y86483D01*
X681127Y85958D01*
X680603D01*
X681652Y87008D02*
Y89107D01*
X684276Y87008D02*
X683226D01*
X682701Y87533D01*
Y88582D01*
X683226Y89107D01*
X684276D01*
X684801Y88582D01*
Y88058D01*
X682701D01*
X685850Y89107D02*
Y87008D01*
Y88058D01*
X686375Y88582D01*
X686900Y89107D01*
X687424D01*
X692147Y88582D02*
X694246D01*
X698445Y90157D02*
Y87008D01*
X700019D01*
X700543Y87533D01*
Y88058D01*
X700019Y88582D01*
X698445D01*
X700019D01*
X700543Y89107D01*
Y89632D01*
X700019Y90157D01*
X698445D01*
X702118Y87008D02*
X703167D01*
X703692Y87533D01*
Y88582D01*
X703167Y89107D01*
X702118D01*
X701593Y88582D01*
Y87533D01*
X702118Y87008D01*
X705266Y89632D02*
Y89107D01*
X704742D01*
X705791D01*
X705266D01*
Y87533D01*
X705791Y87008D01*
X707890Y89632D02*
Y89107D01*
X707366D01*
X708415D01*
X707890D01*
Y87533D01*
X708415Y87008D01*
X710514D02*
X711564D01*
X712088Y87533D01*
Y88582D01*
X711564Y89107D01*
X710514D01*
X709989Y88582D01*
Y87533D01*
X710514Y87008D01*
X713138D02*
Y89107D01*
X713663D01*
X714187Y88582D01*
Y87008D01*
Y88582D01*
X714712Y89107D01*
X715237Y88582D01*
Y87008D01*
X719435Y90157D02*
Y87008D01*
X721534D01*
X723108Y89107D02*
X724158D01*
X724683Y88582D01*
Y87008D01*
X723108D01*
X722584Y87533D01*
X723108Y88058D01*
X724683D01*
X725732Y89107D02*
Y87533D01*
X726257Y87008D01*
X727831D01*
Y86483D01*
X727307Y85958D01*
X726782D01*
X727831Y87008D02*
Y89107D01*
X730455Y87008D02*
X729406D01*
X728881Y87533D01*
Y88582D01*
X729406Y89107D01*
X730455D01*
X730980Y88582D01*
Y88058D01*
X728881D01*
X732029Y89107D02*
Y87008D01*
Y88058D01*
X732554Y88582D01*
X733079Y89107D01*
X733604D01*
X660661Y82283D02*
X662760D01*
X661711D01*
Y79134D01*
X664335D02*
X665384D01*
X665909Y79659D01*
Y80708D01*
X665384Y81233D01*
X664335D01*
X663810Y80708D01*
Y79659D01*
X664335Y79134D01*
X666959Y78084D02*
Y81233D01*
X668533D01*
X669058Y80708D01*
Y79659D01*
X668533Y79134D01*
X666959D01*
X673256Y82283D02*
Y79134D01*
X675355D01*
X676929Y81233D02*
X677979D01*
X678503Y80708D01*
Y79134D01*
X676929D01*
X676404Y79659D01*
X676929Y80184D01*
X678503D01*
X679553Y81233D02*
Y79659D01*
X680078Y79134D01*
X681652D01*
Y78609D01*
X681127Y78084D01*
X680603D01*
X681652Y79134D02*
Y81233D01*
X684276Y79134D02*
X683226D01*
X682701Y79659D01*
Y80708D01*
X683226Y81233D01*
X684276D01*
X684801Y80708D01*
Y80184D01*
X682701D01*
X685850Y81233D02*
Y79134D01*
Y80184D01*
X686375Y80708D01*
X686900Y81233D01*
X687424D01*
X692147Y80708D02*
X694246D01*
X698445Y82283D02*
Y79134D01*
X700019D01*
X700543Y79659D01*
Y80184D01*
X700019Y80708D01*
X698445D01*
X700019D01*
X700543Y81233D01*
Y81758D01*
X700019Y82283D01*
X698445D01*
X702118Y79134D02*
X703167D01*
X703692Y79659D01*
Y80708D01*
X703167Y81233D01*
X702118D01*
X701593Y80708D01*
Y79659D01*
X702118Y79134D01*
X705266Y81758D02*
Y81233D01*
X704742D01*
X705791D01*
X705266D01*
Y79659D01*
X705791Y79134D01*
X707890Y81758D02*
Y81233D01*
X707366D01*
X708415D01*
X707890D01*
Y79659D01*
X708415Y79134D01*
X710514D02*
X711564D01*
X712088Y79659D01*
Y80708D01*
X711564Y81233D01*
X710514D01*
X709989Y80708D01*
Y79659D01*
X710514Y79134D01*
X713138D02*
Y81233D01*
X713663D01*
X714187Y80708D01*
Y79134D01*
Y80708D01*
X714712Y81233D01*
X715237Y80708D01*
Y79134D01*
X719435Y82283D02*
Y79134D01*
X721534D01*
X723108Y81233D02*
X724158D01*
X724683Y80708D01*
Y79134D01*
X723108D01*
X722584Y79659D01*
X723108Y80184D01*
X724683D01*
X725732Y81233D02*
Y79659D01*
X726257Y79134D01*
X727831D01*
Y78609D01*
X727307Y78084D01*
X726782D01*
X727831Y79134D02*
Y81233D01*
X730455Y79134D02*
X729406D01*
X728881Y79659D01*
Y80708D01*
X729406Y81233D01*
X730455D01*
X730980Y80708D01*
Y80184D01*
X728881D01*
X732029Y81233D02*
Y79134D01*
Y80184D01*
X732554Y80708D01*
X733079Y81233D01*
X733604D01*
X660661Y74409D02*
X662760D01*
X661711D01*
Y71260D01*
X664335D02*
X665384D01*
X665909Y71785D01*
Y72834D01*
X665384Y73359D01*
X664335D01*
X663810Y72834D01*
Y71785D01*
X664335Y71260D01*
X666959Y70210D02*
Y73359D01*
X668533D01*
X669058Y72834D01*
Y71785D01*
X668533Y71260D01*
X666959D01*
X673256Y74409D02*
Y71260D01*
X675355D01*
X676929Y73359D02*
X677979D01*
X678503Y72834D01*
Y71260D01*
X676929D01*
X676404Y71785D01*
X676929Y72309D01*
X678503D01*
X679553Y73359D02*
Y71785D01*
X680078Y71260D01*
X681652D01*
Y70735D01*
X681127Y70210D01*
X680603D01*
X681652Y71260D02*
Y73359D01*
X684276Y71260D02*
X683226D01*
X682701Y71785D01*
Y72834D01*
X683226Y73359D01*
X684276D01*
X684801Y72834D01*
Y72309D01*
X682701D01*
X685850Y73359D02*
Y71260D01*
Y72309D01*
X686375Y72834D01*
X686900Y73359D01*
X687424D01*
X692147Y72834D02*
X694246D01*
X698445Y74409D02*
Y71260D01*
X700019D01*
X700543Y71785D01*
Y72309D01*
X700019Y72834D01*
X698445D01*
X700019D01*
X700543Y73359D01*
Y73884D01*
X700019Y74409D01*
X698445D01*
X702118Y71260D02*
X703167D01*
X703692Y71785D01*
Y72834D01*
X703167Y73359D01*
X702118D01*
X701593Y72834D01*
Y71785D01*
X702118Y71260D01*
X705266Y73884D02*
Y73359D01*
X704742D01*
X705791D01*
X705266D01*
Y71785D01*
X705791Y71260D01*
X707890Y73884D02*
Y73359D01*
X707366D01*
X708415D01*
X707890D01*
Y71785D01*
X708415Y71260D01*
X710514D02*
X711564D01*
X712088Y71785D01*
Y72834D01*
X711564Y73359D01*
X710514D01*
X709989Y72834D01*
Y71785D01*
X710514Y71260D01*
X713138D02*
Y73359D01*
X713663D01*
X714187Y72834D01*
Y71260D01*
Y72834D01*
X714712Y73359D01*
X715237Y72834D01*
Y71260D01*
X719435Y74409D02*
Y71260D01*
X721534D01*
X723108Y73359D02*
X724158D01*
X724683Y72834D01*
Y71260D01*
X723108D01*
X722584Y71785D01*
X723108Y72309D01*
X724683D01*
X725732Y73359D02*
Y71785D01*
X726257Y71260D01*
X727831D01*
Y70735D01*
X727307Y70210D01*
X726782D01*
X727831Y71260D02*
Y73359D01*
X730455Y71260D02*
X729406D01*
X728881Y71785D01*
Y72834D01*
X729406Y73359D01*
X730455D01*
X730980Y72834D01*
Y72309D01*
X728881D01*
X732029Y73359D02*
Y71260D01*
Y72309D01*
X732554Y72834D01*
X733079Y73359D01*
X733604D01*
X660661Y66535D02*
X662760D01*
X661711D01*
Y63386D01*
X664335D02*
X665384D01*
X665909Y63911D01*
Y64960D01*
X665384Y65485D01*
X664335D01*
X663810Y64960D01*
Y63911D01*
X664335Y63386D01*
X666959Y62336D02*
Y65485D01*
X668533D01*
X669058Y64960D01*
Y63911D01*
X668533Y63386D01*
X666959D01*
X673256Y66535D02*
Y63386D01*
X675355D01*
X676929Y65485D02*
X677979D01*
X678503Y64960D01*
Y63386D01*
X676929D01*
X676404Y63911D01*
X676929Y64435D01*
X678503D01*
X679553Y65485D02*
Y63911D01*
X680078Y63386D01*
X681652D01*
Y62861D01*
X681127Y62336D01*
X680603D01*
X681652Y63386D02*
Y65485D01*
X684276Y63386D02*
X683226D01*
X682701Y63911D01*
Y64960D01*
X683226Y65485D01*
X684276D01*
X684801Y64960D01*
Y64435D01*
X682701D01*
X685850Y65485D02*
Y63386D01*
Y64435D01*
X686375Y64960D01*
X686900Y65485D01*
X687424D01*
X692147Y64960D02*
X694246D01*
X698445Y66535D02*
Y63386D01*
X700019D01*
X700543Y63911D01*
Y64435D01*
X700019Y64960D01*
X698445D01*
X700019D01*
X700543Y65485D01*
Y66010D01*
X700019Y66535D01*
X698445D01*
X702118Y63386D02*
X703167D01*
X703692Y63911D01*
Y64960D01*
X703167Y65485D01*
X702118D01*
X701593Y64960D01*
Y63911D01*
X702118Y63386D01*
X705266Y66010D02*
Y65485D01*
X704742D01*
X705791D01*
X705266D01*
Y63911D01*
X705791Y63386D01*
X707890Y66010D02*
Y65485D01*
X707366D01*
X708415D01*
X707890D01*
Y63911D01*
X708415Y63386D01*
X710514D02*
X711564D01*
X712088Y63911D01*
Y64960D01*
X711564Y65485D01*
X710514D01*
X709989Y64960D01*
Y63911D01*
X710514Y63386D01*
X713138D02*
Y65485D01*
X713663D01*
X714187Y64960D01*
Y63386D01*
Y64960D01*
X714712Y65485D01*
X715237Y64960D01*
Y63386D01*
X719435Y66535D02*
Y63386D01*
X721534D01*
X723108Y65485D02*
X724158D01*
X724683Y64960D01*
Y63386D01*
X723108D01*
X722584Y63911D01*
X723108Y64435D01*
X724683D01*
X725732Y65485D02*
Y63911D01*
X726257Y63386D01*
X727831D01*
Y62861D01*
X727307Y62336D01*
X726782D01*
X727831Y63386D02*
Y65485D01*
X730455Y63386D02*
X729406D01*
X728881Y63911D01*
Y64960D01*
X729406Y65485D01*
X730455D01*
X730980Y64960D01*
Y64435D01*
X728881D01*
X732029Y65485D02*
Y63386D01*
Y64435D01*
X732554Y64960D01*
X733079Y65485D01*
X733604D01*
X621932Y102756D02*
Y105905D01*
X623506D01*
X624031Y105380D01*
Y104330D01*
X623506Y103805D01*
X621932D01*
X622981D02*
X624031Y102756D01*
X625605D02*
X626654D01*
X627179Y103281D01*
Y104330D01*
X626654Y104855D01*
X625605D01*
X625080Y104330D01*
Y103281D01*
X625605Y102756D01*
X628229Y104855D02*
Y103281D01*
X628754Y102756D01*
X630328D01*
Y104855D01*
X631377Y102756D02*
Y104855D01*
X632952D01*
X633476Y104330D01*
Y102756D01*
X636625Y105905D02*
Y102756D01*
X635051D01*
X634526Y103281D01*
Y104330D01*
X635051Y104855D01*
X636625D01*
X621932Y94882D02*
Y98031D01*
X623506D01*
X624031Y97506D01*
Y96456D01*
X623506Y95932D01*
X621932D01*
X622981D02*
X624031Y94882D01*
X625605D02*
X626654D01*
X627179Y95407D01*
Y96456D01*
X626654Y96981D01*
X625605D01*
X625080Y96456D01*
Y95407D01*
X625605Y94882D01*
X628229Y96981D02*
Y95407D01*
X628754Y94882D01*
X630328D01*
Y96981D01*
X631377Y94882D02*
Y96981D01*
X632952D01*
X633476Y96456D01*
Y94882D01*
X636625Y98031D02*
Y94882D01*
X635051D01*
X634526Y95407D01*
Y96456D01*
X635051Y96981D01*
X636625D01*
X624031Y89632D02*
X623506Y90157D01*
X622456D01*
X621932Y89632D01*
Y89107D01*
X622456Y88582D01*
X623506D01*
X624031Y88058D01*
Y87533D01*
X623506Y87008D01*
X622456D01*
X621932Y87533D01*
X625080Y87008D02*
X626130D01*
X625605D01*
Y90157D01*
X625080D01*
X628229Y87008D02*
X629278D01*
X629803Y87533D01*
Y88582D01*
X629278Y89107D01*
X628229D01*
X627704Y88582D01*
Y87533D01*
X628229Y87008D01*
X631377Y89632D02*
Y89107D01*
X630853D01*
X631902D01*
X631377D01*
Y87533D01*
X631902Y87008D01*
X621932Y79134D02*
Y82283D01*
X623506D01*
X624031Y81758D01*
Y80708D01*
X623506Y80184D01*
X621932D01*
X622981D02*
X624031Y79134D01*
X625605D02*
X626654D01*
X627179Y79659D01*
Y80708D01*
X626654Y81233D01*
X625605D01*
X625080Y80708D01*
Y79659D01*
X625605Y79134D01*
X628229Y81233D02*
Y79659D01*
X628754Y79134D01*
X630328D01*
Y81233D01*
X631377Y79134D02*
Y81233D01*
X632952D01*
X633476Y80708D01*
Y79134D01*
X636625Y82283D02*
Y79134D01*
X635051D01*
X634526Y79659D01*
Y80708D01*
X635051Y81233D01*
X636625D01*
X621932Y71260D02*
Y74409D01*
X623506D01*
X624031Y73884D01*
Y72834D01*
X623506Y72309D01*
X621932D01*
X622981D02*
X624031Y71260D01*
X625605D02*
X626654D01*
X627179Y71785D01*
Y72834D01*
X626654Y73359D01*
X625605D01*
X625080Y72834D01*
Y71785D01*
X625605Y71260D01*
X628229Y73359D02*
Y71785D01*
X628754Y71260D01*
X630328D01*
Y73359D01*
X631377Y71260D02*
Y73359D01*
X632952D01*
X633476Y72834D01*
Y71260D01*
X636625Y74409D02*
Y71260D01*
X635051D01*
X634526Y71785D01*
Y72834D01*
X635051Y73359D01*
X636625D01*
X621932Y63386D02*
Y66535D01*
X623506D01*
X624031Y66010D01*
Y64960D01*
X623506Y64435D01*
X621932D01*
X622981D02*
X624031Y63386D01*
X625605D02*
X626654D01*
X627179Y63911D01*
Y64960D01*
X626654Y65485D01*
X625605D01*
X625080Y64960D01*
Y63911D01*
X625605Y63386D01*
X628229Y65485D02*
Y63911D01*
X628754Y63386D01*
X630328D01*
Y65485D01*
X631377Y63386D02*
Y65485D01*
X632952D01*
X633476Y64960D01*
Y63386D01*
X636625Y66535D02*
Y63386D01*
X635051D01*
X634526Y63911D01*
Y64960D01*
X635051Y65485D01*
X636625D01*
X595166Y102756D02*
Y105905D01*
X596741D01*
X597265Y105380D01*
Y104330D01*
X596741Y103805D01*
X595166D01*
X598315Y105905D02*
X600414D01*
X599365D01*
Y102756D01*
X601464Y105905D02*
Y102756D01*
Y104330D01*
X603563D01*
Y105905D01*
Y102756D01*
X595166Y94882D02*
Y98031D01*
X596741D01*
X597265Y97506D01*
Y96456D01*
X596741Y95932D01*
X595166D01*
X598315Y98031D02*
X600414D01*
X599365D01*
Y94882D01*
X601464Y98031D02*
Y94882D01*
Y96456D01*
X603563D01*
Y98031D01*
Y94882D01*
X595166Y87008D02*
Y90157D01*
X596741D01*
X597265Y89632D01*
Y88582D01*
X596741Y88058D01*
X595166D01*
X598315Y90157D02*
X600414D01*
X599365D01*
Y87008D01*
X601464Y90157D02*
Y87008D01*
Y88582D01*
X603563D01*
Y90157D01*
Y87008D01*
X595166Y79134D02*
Y82283D01*
X596741D01*
X597265Y81758D01*
Y80708D01*
X596741Y80184D01*
X595166D01*
X598315Y82283D02*
X600414D01*
X599365D01*
Y79134D01*
X601464Y82283D02*
Y79134D01*
Y80708D01*
X603563D01*
Y82283D01*
Y79134D01*
X595166Y71260D02*
Y74409D01*
X596741D01*
X597265Y73884D01*
Y72834D01*
X596741Y72309D01*
X595166D01*
X598315Y74409D02*
X600414D01*
X599365D01*
Y71260D01*
X601464Y74409D02*
Y71260D01*
Y72834D01*
X603563D01*
Y74409D01*
Y71260D01*
X595166Y63386D02*
Y66535D01*
X596741D01*
X597265Y66010D01*
Y64960D01*
X596741Y64435D01*
X595166D01*
X598315Y66535D02*
X600414D01*
X599365D01*
Y63386D01*
X601464Y66535D02*
Y63386D01*
Y64960D01*
X603563D01*
Y66535D01*
Y63386D01*
X539408Y102756D02*
X537309D01*
X539408Y104855D01*
Y105380D01*
X538883Y105905D01*
X537834D01*
X537309Y105380D01*
X540458Y102756D02*
Y103281D01*
X540983D01*
Y102756D01*
X540458D01*
X545181Y105905D02*
X543082D01*
Y104330D01*
X544131Y104855D01*
X544656D01*
X545181Y104330D01*
Y103281D01*
X544656Y102756D01*
X543606D01*
X543082Y103281D01*
X546230Y105380D02*
X546755Y105905D01*
X547804D01*
X548329Y105380D01*
Y103281D01*
X547804Y102756D01*
X546755D01*
X546230Y103281D01*
Y105380D01*
X549379D02*
X549904Y105905D01*
X550953D01*
X551478Y105380D01*
Y103281D01*
X550953Y102756D01*
X549904D01*
X549379Y103281D01*
Y105380D01*
X552527Y102756D02*
Y104855D01*
X553052D01*
X553577Y104330D01*
Y102756D01*
Y104330D01*
X554102Y104855D01*
X554627Y104330D01*
Y102756D01*
X555676D02*
Y104855D01*
X556201D01*
X556726Y104330D01*
Y102756D01*
Y104330D01*
X557250Y104855D01*
X557775Y104330D01*
Y102756D01*
X563023D02*
X561973Y103805D01*
Y104855D01*
X563023Y105905D01*
X564597Y103281D02*
X565122Y102756D01*
X566171D01*
X566696Y103281D01*
Y105380D01*
X566171Y105905D01*
X565122D01*
X564597Y105380D01*
Y104855D01*
X565122Y104330D01*
X566696D01*
X567746Y105380D02*
X568270Y105905D01*
X569320D01*
X569845Y105380D01*
Y104855D01*
X569320Y104330D01*
X569845Y103805D01*
Y103281D01*
X569320Y102756D01*
X568270D01*
X567746Y103281D01*
Y103805D01*
X568270Y104330D01*
X567746Y104855D01*
Y105380D01*
X568270Y104330D02*
X569320D01*
X570894Y102756D02*
Y103281D01*
X571419D01*
Y102756D01*
X570894D01*
X575092D02*
Y105905D01*
X573518Y104330D01*
X575617D01*
X576667Y105380D02*
X577191Y105905D01*
X578241D01*
X578766Y105380D01*
Y104855D01*
X578241Y104330D01*
X577716D01*
X578241D01*
X578766Y103805D01*
Y103281D01*
X578241Y102756D01*
X577191D01*
X576667Y103281D01*
X579815Y102756D02*
Y104855D01*
X580340D01*
X580865Y104330D01*
Y102756D01*
Y104330D01*
X581390Y104855D01*
X581914Y104330D01*
Y102756D01*
X582964D02*
X584013D01*
X583489D01*
Y104855D01*
X582964D01*
X585588Y102756D02*
X586637D01*
X586112D01*
Y105905D01*
X585588D01*
X588211Y102756D02*
X589261Y103805D01*
Y104855D01*
X588211Y105905D01*
X537309Y97506D02*
X537834Y98031D01*
X538883D01*
X539408Y97506D01*
Y95407D01*
X538883Y94882D01*
X537834D01*
X537309Y95407D01*
Y97506D01*
X540458Y94882D02*
Y95407D01*
X540983D01*
Y94882D01*
X540458D01*
X545181Y98031D02*
X544131Y97506D01*
X543082Y96456D01*
Y95407D01*
X543606Y94882D01*
X544656D01*
X545181Y95407D01*
Y95932D01*
X544656Y96456D01*
X543082D01*
X548329Y98031D02*
X546230D01*
Y96456D01*
X547280Y96981D01*
X547804D01*
X548329Y96456D01*
Y95407D01*
X547804Y94882D01*
X546755D01*
X546230Y95407D01*
X549379Y97506D02*
X549904Y98031D01*
X550953D01*
X551478Y97506D01*
Y95407D01*
X550953Y94882D01*
X549904D01*
X549379Y95407D01*
Y97506D01*
X552527Y94882D02*
Y96981D01*
X553052D01*
X553577Y96456D01*
Y94882D01*
Y96456D01*
X554102Y96981D01*
X554627Y96456D01*
Y94882D01*
X555676D02*
Y96981D01*
X556201D01*
X556726Y96456D01*
Y94882D01*
Y96456D01*
X557250Y96981D01*
X557775Y96456D01*
Y94882D01*
X563023D02*
X561973Y95932D01*
Y96981D01*
X563023Y98031D01*
X566696Y94882D02*
X564597D01*
X566696Y96981D01*
Y97506D01*
X566171Y98031D01*
X565122D01*
X564597Y97506D01*
X569845Y98031D02*
X567746D01*
Y96456D01*
X568795Y96981D01*
X569320D01*
X569845Y96456D01*
Y95407D01*
X569320Y94882D01*
X568270D01*
X567746Y95407D01*
X570894Y94882D02*
Y95407D01*
X571419D01*
Y94882D01*
X570894D01*
X575617Y98031D02*
X573518D01*
Y96456D01*
X574568Y96981D01*
X575092D01*
X575617Y96456D01*
Y95407D01*
X575092Y94882D01*
X574043D01*
X573518Y95407D01*
X576667D02*
X577191Y94882D01*
X578241D01*
X578766Y95407D01*
Y97506D01*
X578241Y98031D01*
X577191D01*
X576667Y97506D01*
Y96981D01*
X577191Y96456D01*
X578766D01*
X579815Y94882D02*
Y96981D01*
X580340D01*
X580865Y96456D01*
Y94882D01*
Y96456D01*
X581390Y96981D01*
X581914Y96456D01*
Y94882D01*
X582964D02*
X584013D01*
X583489D01*
Y96981D01*
X582964D01*
X585588Y94882D02*
X586637D01*
X586112D01*
Y98031D01*
X585588D01*
X588211Y94882D02*
X589261Y95932D01*
Y96981D01*
X588211Y98031D01*
X537309Y89632D02*
X537834Y90157D01*
X538883D01*
X539408Y89632D01*
Y87533D01*
X538883Y87008D01*
X537834D01*
X537309Y87533D01*
Y89632D01*
X540458Y87008D02*
Y87533D01*
X540983D01*
Y87008D01*
X540458D01*
X543082Y90157D02*
X545181D01*
Y89632D01*
X543082Y87533D01*
Y87008D01*
X546230Y89632D02*
X546755Y90157D01*
X547804D01*
X548329Y89632D01*
Y87533D01*
X547804Y87008D01*
X546755D01*
X546230Y87533D01*
Y89632D01*
X549379D02*
X549904Y90157D01*
X550953D01*
X551478Y89632D01*
Y87533D01*
X550953Y87008D01*
X549904D01*
X549379Y87533D01*
Y89632D01*
X552527Y87008D02*
Y89107D01*
X553052D01*
X553577Y88582D01*
Y87008D01*
Y88582D01*
X554102Y89107D01*
X554627Y88582D01*
Y87008D01*
X555676D02*
Y89107D01*
X556201D01*
X556726Y88582D01*
Y87008D01*
Y88582D01*
X557250Y89107D01*
X557775Y88582D01*
Y87008D01*
X563023D02*
X561973Y88058D01*
Y89107D01*
X563023Y90157D01*
X566696Y87008D02*
X564597D01*
X566696Y89107D01*
Y89632D01*
X566171Y90157D01*
X565122D01*
X564597Y89632D01*
X567746Y90157D02*
X569845D01*
Y89632D01*
X567746Y87533D01*
Y87008D01*
X570894D02*
Y87533D01*
X571419D01*
Y87008D01*
X570894D01*
X575617Y90157D02*
X573518D01*
Y88582D01*
X574568Y89107D01*
X575092D01*
X575617Y88582D01*
Y87533D01*
X575092Y87008D01*
X574043D01*
X573518Y87533D01*
X578766Y90157D02*
X577716Y89632D01*
X576667Y88582D01*
Y87533D01*
X577191Y87008D01*
X578241D01*
X578766Y87533D01*
Y88058D01*
X578241Y88582D01*
X576667D01*
X579815Y87008D02*
Y89107D01*
X580340D01*
X580865Y88582D01*
Y87008D01*
Y88582D01*
X581390Y89107D01*
X581914Y88582D01*
Y87008D01*
X582964D02*
X584013D01*
X583489D01*
Y89107D01*
X582964D01*
X585588Y87008D02*
X586637D01*
X586112D01*
Y90157D01*
X585588D01*
X588211Y87008D02*
X589261Y88058D01*
Y89107D01*
X588211Y90157D01*
X537309Y81758D02*
X537834Y82283D01*
X538883D01*
X539408Y81758D01*
Y79659D01*
X538883Y79134D01*
X537834D01*
X537309Y79659D01*
Y81758D01*
X540458Y79134D02*
Y79659D01*
X540983D01*
Y79134D01*
X540458D01*
X543082Y82283D02*
X545181D01*
Y81758D01*
X543082Y79659D01*
Y79134D01*
X546230Y81758D02*
X546755Y82283D01*
X547804D01*
X548329Y81758D01*
Y79659D01*
X547804Y79134D01*
X546755D01*
X546230Y79659D01*
Y81758D01*
X549379D02*
X549904Y82283D01*
X550953D01*
X551478Y81758D01*
Y79659D01*
X550953Y79134D01*
X549904D01*
X549379Y79659D01*
Y81758D01*
X552527Y79134D02*
Y81233D01*
X553052D01*
X553577Y80708D01*
Y79134D01*
Y80708D01*
X554102Y81233D01*
X554627Y80708D01*
Y79134D01*
X555676D02*
Y81233D01*
X556201D01*
X556726Y80708D01*
Y79134D01*
Y80708D01*
X557250Y81233D01*
X557775Y80708D01*
Y79134D01*
X563023D02*
X561973Y80184D01*
Y81233D01*
X563023Y82283D01*
X566696Y79134D02*
X564597D01*
X566696Y81233D01*
Y81758D01*
X566171Y82283D01*
X565122D01*
X564597Y81758D01*
X567746Y82283D02*
X569845D01*
Y81758D01*
X567746Y79659D01*
Y79134D01*
X570894D02*
Y79659D01*
X571419D01*
Y79134D01*
X570894D01*
X575617Y82283D02*
X573518D01*
Y80708D01*
X574568Y81233D01*
X575092D01*
X575617Y80708D01*
Y79659D01*
X575092Y79134D01*
X574043D01*
X573518Y79659D01*
X578766Y82283D02*
X577716Y81758D01*
X576667Y80708D01*
Y79659D01*
X577191Y79134D01*
X578241D01*
X578766Y79659D01*
Y80184D01*
X578241Y80708D01*
X576667D01*
X579815Y79134D02*
Y81233D01*
X580340D01*
X580865Y80708D01*
Y79134D01*
Y80708D01*
X581390Y81233D01*
X581914Y80708D01*
Y79134D01*
X582964D02*
X584013D01*
X583489D01*
Y81233D01*
X582964D01*
X585588Y79134D02*
X586637D01*
X586112D01*
Y82283D01*
X585588D01*
X588211Y79134D02*
X589261Y80184D01*
Y81233D01*
X588211Y82283D01*
X537309Y73884D02*
X537834Y74409D01*
X538883D01*
X539408Y73884D01*
Y71785D01*
X538883Y71260D01*
X537834D01*
X537309Y71785D01*
Y73884D01*
X540458Y71260D02*
Y71785D01*
X540983D01*
Y71260D01*
X540458D01*
X543082Y73884D02*
X543606Y74409D01*
X544656D01*
X545181Y73884D01*
Y73359D01*
X544656Y72834D01*
X545181Y72309D01*
Y71785D01*
X544656Y71260D01*
X543606D01*
X543082Y71785D01*
Y72309D01*
X543606Y72834D01*
X543082Y73359D01*
Y73884D01*
X543606Y72834D02*
X544656D01*
X548329Y74409D02*
X546230D01*
Y72834D01*
X547280Y73359D01*
X547804D01*
X548329Y72834D01*
Y71785D01*
X547804Y71260D01*
X546755D01*
X546230Y71785D01*
X549379Y73884D02*
X549904Y74409D01*
X550953D01*
X551478Y73884D01*
Y71785D01*
X550953Y71260D01*
X549904D01*
X549379Y71785D01*
Y73884D01*
X552527Y71260D02*
Y73359D01*
X553052D01*
X553577Y72834D01*
Y71260D01*
Y72834D01*
X554102Y73359D01*
X554627Y72834D01*
Y71260D01*
X555676D02*
Y73359D01*
X556201D01*
X556726Y72834D01*
Y71260D01*
Y72834D01*
X557250Y73359D01*
X557775Y72834D01*
Y71260D01*
X563023D02*
X561973Y72309D01*
Y73359D01*
X563023Y74409D01*
X564597Y73884D02*
X565122Y74409D01*
X566171D01*
X566696Y73884D01*
Y73359D01*
X566171Y72834D01*
X565647D01*
X566171D01*
X566696Y72309D01*
Y71785D01*
X566171Y71260D01*
X565122D01*
X564597Y71785D01*
X567746Y73884D02*
X568270Y74409D01*
X569320D01*
X569845Y73884D01*
Y73359D01*
X569320Y72834D01*
X568795D01*
X569320D01*
X569845Y72309D01*
Y71785D01*
X569320Y71260D01*
X568270D01*
X567746Y71785D01*
X570894Y71260D02*
Y71785D01*
X571419D01*
Y71260D01*
X570894D01*
X575092D02*
Y74409D01*
X573518Y72834D01*
X575617D01*
X576667Y74409D02*
X578766D01*
Y73884D01*
X576667Y71785D01*
Y71260D01*
X579815D02*
Y73359D01*
X580340D01*
X580865Y72834D01*
Y71260D01*
Y72834D01*
X581390Y73359D01*
X581914Y72834D01*
Y71260D01*
X582964D02*
X584013D01*
X583489D01*
Y73359D01*
X582964D01*
X585588Y71260D02*
X586637D01*
X586112D01*
Y74409D01*
X585588D01*
X588211Y71260D02*
X589261Y72309D01*
Y73359D01*
X588211Y74409D01*
X537309Y66010D02*
X537834Y66535D01*
X538883D01*
X539408Y66010D01*
Y63911D01*
X538883Y63386D01*
X537834D01*
X537309Y63911D01*
Y66010D01*
X540458Y63386D02*
Y63911D01*
X540983D01*
Y63386D01*
X540458D01*
X543082Y63911D02*
X543606Y63386D01*
X544656D01*
X545181Y63911D01*
Y66010D01*
X544656Y66535D01*
X543606D01*
X543082Y66010D01*
Y65485D01*
X543606Y64960D01*
X545181D01*
X546230Y66010D02*
X546755Y66535D01*
X547804D01*
X548329Y66010D01*
Y63911D01*
X547804Y63386D01*
X546755D01*
X546230Y63911D01*
Y66010D01*
X549379D02*
X549904Y66535D01*
X550953D01*
X551478Y66010D01*
Y63911D01*
X550953Y63386D01*
X549904D01*
X549379Y63911D01*
Y66010D01*
X552527Y63386D02*
Y65485D01*
X553052D01*
X553577Y64960D01*
Y63386D01*
Y64960D01*
X554102Y65485D01*
X554627Y64960D01*
Y63386D01*
X555676D02*
Y65485D01*
X556201D01*
X556726Y64960D01*
Y63386D01*
Y64960D01*
X557250Y65485D01*
X557775Y64960D01*
Y63386D01*
X563023D02*
X561973Y64435D01*
Y65485D01*
X563023Y66535D01*
X564597Y66010D02*
X565122Y66535D01*
X566171D01*
X566696Y66010D01*
Y65485D01*
X566171Y64960D01*
X565647D01*
X566171D01*
X566696Y64435D01*
Y63911D01*
X566171Y63386D01*
X565122D01*
X564597Y63911D01*
X569845Y66535D02*
X567746D01*
Y64960D01*
X568795Y65485D01*
X569320D01*
X569845Y64960D01*
Y63911D01*
X569320Y63386D01*
X568270D01*
X567746Y63911D01*
X570894Y63386D02*
Y63911D01*
X571419D01*
Y63386D01*
X570894D01*
X575092D02*
Y66535D01*
X573518Y64960D01*
X575617D01*
X576667Y66010D02*
X577191Y66535D01*
X578241D01*
X578766Y66010D01*
Y65485D01*
X578241Y64960D01*
X577716D01*
X578241D01*
X578766Y64435D01*
Y63911D01*
X578241Y63386D01*
X577191D01*
X576667Y63911D01*
X579815Y63386D02*
Y65485D01*
X580340D01*
X580865Y64960D01*
Y63386D01*
Y64960D01*
X581390Y65485D01*
X581914Y64960D01*
Y63386D01*
X582964D02*
X584013D01*
X583489D01*
Y65485D01*
X582964D01*
X585588Y63386D02*
X586637D01*
X586112D01*
Y66535D01*
X585588D01*
X588211Y63386D02*
X589261Y64435D01*
Y65485D01*
X588211Y66535D01*
X510938Y58661D02*
X508839D01*
Y57086D01*
X509888Y57611D01*
X510413D01*
X510938Y57086D01*
Y56037D01*
X510413Y55512D01*
X509364D01*
X508839Y56037D01*
X513562Y55512D02*
Y58661D01*
X511987Y57086D01*
X514086D01*
X518285Y58661D02*
X520384D01*
X519334D01*
Y55512D01*
X521958D02*
X523007D01*
X523532Y56037D01*
Y57086D01*
X523007Y57611D01*
X521958D01*
X521433Y57086D01*
Y56037D01*
X521958Y55512D01*
X525106Y58136D02*
Y57611D01*
X524582D01*
X525631D01*
X525106D01*
Y56037D01*
X525631Y55512D01*
X527730Y57611D02*
X528780D01*
X529305Y57086D01*
Y55512D01*
X527730D01*
X527206Y56037D01*
X527730Y56561D01*
X529305D01*
X530354Y55512D02*
X531404D01*
X530879D01*
Y58661D01*
X530354D01*
X508839Y102756D02*
X509888D01*
X509364D01*
Y105905D01*
X508839Y105380D01*
X510938Y94882D02*
X508839D01*
X510938Y96981D01*
Y97506D01*
X510413Y98031D01*
X509364D01*
X508839Y97506D01*
X510938Y87008D02*
X508839D01*
X510938Y89107D01*
Y89632D01*
X510413Y90157D01*
X509364D01*
X508839Y89632D01*
Y81758D02*
X509364Y82283D01*
X510413D01*
X510938Y81758D01*
Y81233D01*
X510413Y80708D01*
X509888D01*
X510413D01*
X510938Y80184D01*
Y79659D01*
X510413Y79134D01*
X509364D01*
X508839Y79659D01*
X510938Y74409D02*
X509888Y73884D01*
X508839Y72834D01*
Y71785D01*
X509364Y71260D01*
X510413D01*
X510938Y71785D01*
Y72309D01*
X510413Y72834D01*
X508839D01*
X510413Y63386D02*
Y66535D01*
X508839Y64960D01*
X510938D01*
X511987Y66010D02*
X512512Y66535D01*
X513562D01*
X514086Y66010D01*
Y63911D01*
X513562Y63386D01*
X512512D01*
X511987Y63911D01*
Y66010D01*
X576167Y43441D02*
X578266D01*
X576167Y44490D02*
X578266D01*
X582464Y42391D02*
Y45540D01*
X584038D01*
X584563Y45015D01*
Y43966D01*
X584038Y43441D01*
X582464D01*
X583513D02*
X584563Y42391D01*
X586137D02*
X587187D01*
X587711Y42916D01*
Y43966D01*
X587187Y44490D01*
X586137D01*
X585612Y43966D01*
Y42916D01*
X586137Y42391D01*
X588761Y44490D02*
Y42916D01*
X589286Y42391D01*
X590860D01*
Y44490D01*
X592434Y45015D02*
Y44490D01*
X591910D01*
X592959D01*
X592434D01*
Y42916D01*
X592959Y42391D01*
X596108D02*
X595058D01*
X594533Y42916D01*
Y43966D01*
X595058Y44490D01*
X596108D01*
X596632Y43966D01*
Y43441D01*
X594533D01*
X599781Y45540D02*
Y42391D01*
X598207D01*
X597682Y42916D01*
Y43966D01*
X598207Y44490D01*
X599781D01*
X603979Y42391D02*
Y45540D01*
X605553D01*
X606078Y45015D01*
Y43966D01*
X605553Y43441D01*
X603979D01*
X607653Y44490D02*
X608702D01*
X609227Y43966D01*
Y42391D01*
X607653D01*
X607128Y42916D01*
X607653Y43441D01*
X609227D01*
X610801Y45015D02*
Y44490D01*
X610276D01*
X611326D01*
X610801D01*
Y42916D01*
X611326Y42391D01*
X612900Y45540D02*
Y42391D01*
Y43966D01*
X613425Y44490D01*
X614474D01*
X614999Y43966D01*
Y42391D01*
X619197Y45540D02*
Y42391D01*
X621296D01*
X623920D02*
X622871D01*
X622346Y42916D01*
Y43966D01*
X622871Y44490D01*
X623920D01*
X624445Y43966D01*
Y43441D01*
X622346D01*
X625494Y42391D02*
Y44490D01*
X627069D01*
X627594Y43966D01*
Y42391D01*
X629693Y41342D02*
X630217D01*
X630742Y41867D01*
Y44490D01*
X629168D01*
X628643Y43966D01*
Y42916D01*
X629168Y42391D01*
X630742D01*
X632316Y45015D02*
Y44490D01*
X631792D01*
X632841D01*
X632316D01*
Y42916D01*
X632841Y42391D01*
X634416Y45540D02*
Y42391D01*
Y43966D01*
X634940Y44490D01*
X635990D01*
X636515Y43966D01*
Y42391D01*
X640713Y43966D02*
X642812D01*
X641762Y45015D02*
Y42916D01*
X647010Y45540D02*
X649109D01*
X648060D01*
Y42391D01*
X650683D02*
X651733D01*
X652258Y42916D01*
Y43966D01*
X651733Y44490D01*
X650683D01*
X650159Y43966D01*
Y42916D01*
X650683Y42391D01*
X653832D02*
X654881D01*
X655406Y42916D01*
Y43966D01*
X654881Y44490D01*
X653832D01*
X653307Y43966D01*
Y42916D01*
X653832Y42391D01*
X656456D02*
X657505D01*
X656981D01*
Y45540D01*
X656456D01*
X664327Y45015D02*
X663802Y45540D01*
X662753D01*
X662228Y45015D01*
Y44490D01*
X662753Y43966D01*
X663802D01*
X664327Y43441D01*
Y42916D01*
X663802Y42391D01*
X662753D01*
X662228Y42916D01*
X665377Y42391D02*
X666426D01*
X665902D01*
Y44490D01*
X665377D01*
X668001D02*
X670100D01*
X668001Y42391D01*
X670100D01*
X672723D02*
X671674D01*
X671149Y42916D01*
Y43966D01*
X671674Y44490D01*
X672723D01*
X673248Y43966D01*
Y43441D01*
X671149D01*
X677446D02*
X679545D01*
X677446Y44490D02*
X679545D01*
X685843Y45015D02*
X685318Y45540D01*
X684268D01*
X683743Y45015D01*
Y44490D01*
X684268Y43966D01*
X685318D01*
X685843Y43441D01*
Y42916D01*
X685318Y42391D01*
X684268D01*
X683743Y42916D01*
X686892Y42391D02*
X687942D01*
X687417D01*
Y45540D01*
X686892D01*
X690041Y42391D02*
X691090D01*
X691615Y42916D01*
Y43966D01*
X691090Y44490D01*
X690041D01*
X689516Y43966D01*
Y42916D01*
X690041Y42391D01*
X693189Y45015D02*
Y44490D01*
X692664D01*
X693714D01*
X693189D01*
Y42916D01*
X693714Y42391D01*
X698437D02*
X699486D01*
X698962D01*
Y45540D01*
X698437D01*
X702635Y42391D02*
X701585D01*
X701061Y42916D01*
Y43966D01*
X701585Y44490D01*
X702635D01*
X703160Y43966D01*
Y43441D01*
X701061D01*
X704209Y42391D02*
Y44490D01*
X705784D01*
X706308Y43966D01*
Y42391D01*
X708407Y41342D02*
X708932D01*
X709457Y41867D01*
Y44490D01*
X707883D01*
X707358Y43966D01*
Y42916D01*
X707883Y42391D01*
X709457D01*
X711031Y45015D02*
Y44490D01*
X710506D01*
X711556D01*
X711031D01*
Y42916D01*
X711556Y42391D01*
X713130Y45540D02*
Y42391D01*
Y43966D01*
X713655Y44490D01*
X714705D01*
X715229Y43966D01*
Y42391D01*
X719952Y44490D02*
X721002D01*
X721527Y43966D01*
Y42391D01*
X719952D01*
X719427Y42916D01*
X719952Y43441D01*
X721527D01*
X722576Y42391D02*
X724150D01*
X724675Y42916D01*
X724150Y43441D01*
X723101D01*
X722576Y43966D01*
X723101Y44490D01*
X724675D01*
X730972Y45540D02*
Y42391D01*
X729398D01*
X728873Y42916D01*
Y43966D01*
X729398Y44490D01*
X730972D01*
X733596Y42391D02*
X732547D01*
X732022Y42916D01*
Y43966D01*
X732547Y44490D01*
X733596D01*
X734121Y43966D01*
Y43441D01*
X732022D01*
X735695Y42391D02*
Y45015D01*
Y43966D01*
X735171D01*
X736220D01*
X735695D01*
Y45015D01*
X736220Y45540D01*
X737794Y42391D02*
X738844D01*
X738319D01*
Y44490D01*
X737794D01*
X740418Y42391D02*
Y44490D01*
X741992D01*
X742517Y43966D01*
Y42391D01*
X745141D02*
X744092D01*
X743567Y42916D01*
Y43966D01*
X744092Y44490D01*
X745141D01*
X745666Y43966D01*
Y43441D01*
X743567D01*
X748814Y45540D02*
Y42391D01*
X747240D01*
X746715Y42916D01*
Y43966D01*
X747240Y44490D01*
X748814D01*
X753013Y42391D02*
X754062D01*
X753537D01*
Y44490D01*
X753013D01*
X755636Y42391D02*
Y44490D01*
X757211D01*
X757735Y43966D01*
Y42391D01*
X762458Y45015D02*
Y44490D01*
X761934D01*
X762983D01*
X762458D01*
Y42916D01*
X762983Y42391D01*
X764557Y45540D02*
Y42391D01*
Y43966D01*
X765082Y44490D01*
X766132D01*
X766656Y43966D01*
Y42391D01*
X769280D02*
X768231D01*
X767706Y42916D01*
Y43966D01*
X768231Y44490D01*
X769280D01*
X769805Y43966D01*
Y43441D01*
X767706D01*
X774003Y42391D02*
Y45540D01*
X775577D01*
X776102Y45015D01*
Y43966D01*
X775577Y43441D01*
X774003D01*
X779251Y45015D02*
X778726Y45540D01*
X777676D01*
X777152Y45015D01*
Y42916D01*
X777676Y42391D01*
X778726D01*
X779251Y42916D01*
X780300Y45540D02*
Y42391D01*
X781875D01*
X782399Y42916D01*
Y43441D01*
X781875Y43966D01*
X780300D01*
X781875D01*
X782399Y44490D01*
Y45015D01*
X781875Y45540D01*
X780300D01*
X786597Y42391D02*
X787647D01*
X787122D01*
Y45540D01*
X786597D01*
X789746Y44490D02*
X790796D01*
X791320Y43966D01*
Y42391D01*
X789746D01*
X789221Y42916D01*
X789746Y43441D01*
X791320D01*
X792370Y44490D02*
Y42916D01*
X792895Y42391D01*
X794469D01*
Y41867D01*
X793944Y41342D01*
X793419D01*
X794469Y42391D02*
Y44490D01*
X796043Y42391D02*
X797093D01*
X797617Y42916D01*
Y43966D01*
X797093Y44490D01*
X796043D01*
X795518Y43966D01*
Y42916D01*
X796043Y42391D01*
X798667Y44490D02*
Y42916D01*
X799192Y42391D01*
X800766D01*
Y44490D01*
X802340Y45015D02*
Y44490D01*
X801816D01*
X802865D01*
X802340D01*
Y42916D01*
X802865Y42391D01*
X594533Y48820D02*
X596632D01*
X594533Y49870D02*
X596632D01*
X602930Y50394D02*
X602405Y50919D01*
X601355D01*
X600831Y50394D01*
Y48295D01*
X601355Y47771D01*
X602405D01*
X602930Y48295D01*
X604504Y49870D02*
X605553D01*
X606078Y49345D01*
Y47771D01*
X604504D01*
X603979Y48295D01*
X604504Y48820D01*
X606078D01*
X607128Y47771D02*
X608177D01*
X607653D01*
Y50919D01*
X607128D01*
X611851Y49870D02*
X610276D01*
X609752Y49345D01*
Y48295D01*
X610276Y47771D01*
X611851D01*
X612900Y49870D02*
Y48295D01*
X613425Y47771D01*
X614999D01*
Y49870D01*
X616049Y47771D02*
X617098D01*
X616573D01*
Y50919D01*
X616049D01*
X619197Y49870D02*
X620247D01*
X620772Y49345D01*
Y47771D01*
X619197D01*
X618673Y48295D01*
X619197Y48820D01*
X620772D01*
X622346Y50394D02*
Y49870D01*
X621821D01*
X622871D01*
X622346D01*
Y48295D01*
X622871Y47771D01*
X626019D02*
X624970D01*
X624445Y48295D01*
Y49345D01*
X624970Y49870D01*
X626019D01*
X626544Y49345D01*
Y48820D01*
X624445D01*
X629693Y50919D02*
Y47771D01*
X628118D01*
X627594Y48295D01*
Y49345D01*
X628118Y49870D01*
X629693D01*
X634416Y47771D02*
Y50394D01*
Y49345D01*
X633891D01*
X634940D01*
X634416D01*
Y50394D01*
X634940Y50919D01*
X636515Y49870D02*
Y47771D01*
Y48820D01*
X637039Y49345D01*
X637564Y49870D01*
X638089D01*
X640188Y47771D02*
X641237D01*
X641762Y48295D01*
Y49345D01*
X641237Y49870D01*
X640188D01*
X639663Y49345D01*
Y48295D01*
X640188Y47771D01*
X642812D02*
Y49870D01*
X643337D01*
X643861Y49345D01*
Y47771D01*
Y49345D01*
X644386Y49870D01*
X644911Y49345D01*
Y47771D01*
X649634Y50394D02*
Y49870D01*
X649109D01*
X650159D01*
X649634D01*
Y48295D01*
X650159Y47771D01*
X652258D02*
X653307D01*
X653832Y48295D01*
Y49345D01*
X653307Y49870D01*
X652258D01*
X651733Y49345D01*
Y48295D01*
X652258Y47771D01*
X655406D02*
X656456D01*
X656981Y48295D01*
Y49345D01*
X656456Y49870D01*
X655406D01*
X654881Y49345D01*
Y48295D01*
X655406Y47771D01*
X658030D02*
X659080D01*
X658555D01*
Y50919D01*
X658030D01*
X663802Y47771D02*
X665377D01*
X665902Y48295D01*
X665377Y48820D01*
X664327D01*
X663802Y49345D01*
X664327Y49870D01*
X665902D01*
X667476Y50394D02*
Y49870D01*
X666951D01*
X668001D01*
X667476D01*
Y48295D01*
X668001Y47771D01*
X670100Y49870D02*
X671149D01*
X671674Y49345D01*
Y47771D01*
X670100D01*
X669575Y48295D01*
X670100Y48820D01*
X671674D01*
X672723Y49870D02*
Y47771D01*
Y48820D01*
X673248Y49345D01*
X673773Y49870D01*
X674298D01*
X676397Y50394D02*
Y49870D01*
X675872D01*
X676922D01*
X676397D01*
Y48295D01*
X676922Y47771D01*
X683743Y49870D02*
X682169D01*
X681644Y49345D01*
Y48295D01*
X682169Y47771D01*
X683743D01*
X686367D02*
X685318D01*
X684793Y48295D01*
Y49345D01*
X685318Y49870D01*
X686367D01*
X686892Y49345D01*
Y48820D01*
X684793D01*
X687942Y47771D02*
Y49870D01*
X689516D01*
X690041Y49345D01*
Y47771D01*
X691615Y50394D02*
Y49870D01*
X691090D01*
X692140D01*
X691615D01*
Y48295D01*
X692140Y47771D01*
X693714Y49870D02*
Y47771D01*
Y48820D01*
X694239Y49345D01*
X694764Y49870D01*
X695288D01*
X698437Y47771D02*
X697387D01*
X696863Y48295D01*
Y49345D01*
X697387Y49870D01*
X698437D01*
X698962Y49345D01*
Y48820D01*
X696863D01*
X703160Y46721D02*
Y49870D01*
X704734D01*
X705259Y49345D01*
Y48295D01*
X704734Y47771D01*
X703160D01*
X706833D02*
X707883D01*
X708407Y48295D01*
Y49345D01*
X707883Y49870D01*
X706833D01*
X706308Y49345D01*
Y48295D01*
X706833Y47771D01*
X709457D02*
X711031D01*
X711556Y48295D01*
X711031Y48820D01*
X709982D01*
X709457Y49345D01*
X709982Y49870D01*
X711556D01*
X712606Y47771D02*
X713655D01*
X713130D01*
Y49870D01*
X712606D01*
X715754Y50394D02*
Y49870D01*
X715229D01*
X716279D01*
X715754D01*
Y48295D01*
X716279Y47771D01*
X717853D02*
X718903D01*
X718378D01*
Y49870D01*
X717853D01*
X721002Y47771D02*
X722051D01*
X722576Y48295D01*
Y49345D01*
X722051Y49870D01*
X721002D01*
X720477Y49345D01*
Y48295D01*
X721002Y47771D01*
X723626D02*
Y49870D01*
X725200D01*
X725725Y49345D01*
Y47771D01*
X730448Y50394D02*
Y49870D01*
X729923D01*
X730972D01*
X730448D01*
Y48295D01*
X730972Y47771D01*
X733071D02*
X734121D01*
X734646Y48295D01*
Y49345D01*
X734121Y49870D01*
X733071D01*
X732547Y49345D01*
Y48295D01*
X733071Y47771D01*
X739369Y50394D02*
Y49870D01*
X738844D01*
X739893D01*
X739369D01*
Y48295D01*
X739893Y47771D01*
X741993D02*
X743042D01*
X743567Y48295D01*
Y49345D01*
X743042Y49870D01*
X741993D01*
X741468Y49345D01*
Y48295D01*
X741993Y47771D01*
X745141D02*
X746191D01*
X746715Y48295D01*
Y49345D01*
X746191Y49870D01*
X745141D01*
X744616Y49345D01*
Y48295D01*
X745141Y47771D01*
X747765D02*
X748814D01*
X748290D01*
Y50919D01*
X747765D01*
X755112Y47771D02*
X754062D01*
X753537Y48295D01*
Y49345D01*
X754062Y49870D01*
X755112D01*
X755636Y49345D01*
Y48820D01*
X753537D01*
X756686Y47771D02*
Y49870D01*
X758260D01*
X758785Y49345D01*
Y47771D01*
X761934Y50919D02*
Y47771D01*
X760359D01*
X759834Y48295D01*
Y49345D01*
X760359Y49870D01*
X761934D01*
X768231D02*
X766656D01*
X766132Y49345D01*
Y48295D01*
X766656Y47771D01*
X768231D01*
X770855D02*
X769805D01*
X769280Y48295D01*
Y49345D01*
X769805Y49870D01*
X770855D01*
X771379Y49345D01*
Y48820D01*
X769280D01*
X772429Y47771D02*
Y49870D01*
X774003D01*
X774528Y49345D01*
Y47771D01*
X776102Y50394D02*
Y49870D01*
X775577D01*
X776627D01*
X776102D01*
Y48295D01*
X776627Y47771D01*
X778201Y49870D02*
Y47771D01*
Y48820D01*
X778726Y49345D01*
X779251Y49870D01*
X779775D01*
X782924Y47771D02*
X781875D01*
X781350Y48295D01*
Y49345D01*
X781875Y49870D01*
X782924D01*
X783449Y49345D01*
Y48820D01*
X781350D01*
X787647Y46721D02*
Y49870D01*
X789221D01*
X789746Y49345D01*
Y48295D01*
X789221Y47771D01*
X787647D01*
X791320D02*
X792370D01*
X792895Y48295D01*
Y49345D01*
X792370Y49870D01*
X791320D01*
X790796Y49345D01*
Y48295D01*
X791320Y47771D01*
X793944D02*
X795518D01*
X796043Y48295D01*
X795518Y48820D01*
X794469D01*
X793944Y49345D01*
X794469Y49870D01*
X796043D01*
X797093Y47771D02*
X798142D01*
X797618D01*
Y49870D01*
X797093D01*
X800241Y50394D02*
Y49870D01*
X799717D01*
X800766D01*
X800241D01*
Y48295D01*
X800766Y47771D01*
X802340D02*
X803390D01*
X802865D01*
Y49870D01*
X802340D01*
X805489Y47771D02*
X806539D01*
X807063Y48295D01*
Y49345D01*
X806539Y49870D01*
X805489D01*
X804964Y49345D01*
Y48295D01*
X805489Y47771D01*
X808113D02*
Y49870D01*
X809687D01*
X810212Y49345D01*
Y47771D01*
X811261D02*
Y48295D01*
X811786D01*
Y47771D01*
X811261D01*
D46*
X92378Y217723D02*
G03*
X92378Y217723I-1000J0D01*
G01*
X78913Y254718D02*
G03*
X78913Y254718I-1000J0D01*
G01*
X105174Y223628D02*
G03*
X105174Y223628I-1000J0D01*
G01*
X91708Y260624D02*
G03*
X91708Y260624I-1000J0D01*
G01*
X105882Y265151D02*
G03*
X105882Y265151I-1000J0D01*
G01*
X119347Y228156D02*
G03*
X119347Y228156I-1000J0D01*
G01*
X136792Y255359D02*
X138792D01*
Y257359D01*
X136792D02*
X138792D01*
X136792Y255359D02*
Y257359D01*
Y245359D02*
X138792D01*
Y247359D01*
X136792D02*
X138792D01*
X136792Y245359D02*
Y247359D01*
X52942Y220622D02*
X54942D01*
Y222622D01*
X52942D02*
X54942D01*
X52942Y220622D02*
Y222622D01*
X60013Y213551D02*
X62013D01*
Y215551D01*
X60013D02*
X62013D01*
X60013Y213551D02*
Y215551D01*
X18205Y136772D02*
X20205D01*
Y138772D01*
X18205D02*
X20205D01*
X18205Y136772D02*
Y138772D01*
X28205Y136772D02*
X30205D01*
Y138772D01*
X28205D02*
X30205D01*
X28205Y136772D02*
Y138772D01*
X52942Y52948D02*
X54942D01*
Y54949D01*
X52942D02*
X54942D01*
X52942Y52948D02*
Y54949D01*
X60013Y60020D02*
X62013D01*
Y62020D01*
X60013D02*
X62013D01*
X60013Y60020D02*
Y62020D01*
X136792Y18211D02*
X138792D01*
Y20211D01*
X136792D02*
X138792D01*
X136792Y18211D02*
Y20211D01*
Y28211D02*
X138792D01*
Y30211D01*
X136792D02*
X138792D01*
X136792Y28211D02*
Y30211D01*
X220616Y52948D02*
X222616D01*
Y54949D01*
X220616D02*
X222616D01*
X220616Y52948D02*
Y54949D01*
X213545Y60020D02*
X215545D01*
Y62020D01*
X213545D02*
X215545D01*
X213545Y60020D02*
Y62020D01*
X255353Y136772D02*
X257353D01*
Y138772D01*
X255353D02*
X257353D01*
X255353Y136772D02*
Y138772D01*
X245353Y136772D02*
X247353D01*
Y138772D01*
X245353D02*
X247353D01*
X245353Y136772D02*
Y138772D01*
X184787Y195614D02*
X186787D01*
Y197614D01*
X184787D02*
X186787D01*
X184787Y195614D02*
Y197614D01*
X194787Y195614D02*
X196787D01*
Y197614D01*
X194787D02*
X196787D01*
X194787Y195614D02*
Y197614D01*
X204787Y195614D02*
X206787D01*
Y197614D01*
X204787D02*
X206787D01*
X204787Y195614D02*
Y197614D01*
X214787Y195614D02*
X216787D01*
Y197614D01*
X214787D02*
X216787D01*
X214787Y195614D02*
Y197614D01*
X184787Y225614D02*
X186787D01*
Y227614D01*
X184787D02*
X186787D01*
X184787Y225614D02*
Y227614D01*
X194787Y225614D02*
X196787D01*
Y227614D01*
X194787D02*
X196787D01*
X194787Y225614D02*
Y227614D01*
X204787Y225614D02*
X206787D01*
Y227614D01*
X204787D02*
X206787D01*
X204787Y225614D02*
Y227614D01*
X214787Y225614D02*
X216787D01*
Y227614D01*
X214787D02*
X216787D01*
X214787Y225614D02*
Y227614D01*
X228346Y221598D02*
X229346Y223598D01*
X227346D02*
X229346D01*
X227346D02*
X228346Y221598D01*
Y201598D02*
X229346Y203598D01*
X227346D02*
X229346D01*
X227346D02*
X228346Y201598D01*
X101795Y94236D02*
X103795D01*
Y96236D01*
X101795D02*
X103795D01*
X101795Y94236D02*
Y96236D01*
X111795Y94236D02*
X113795D01*
Y96236D01*
X111795D02*
X113795D01*
X111795Y94236D02*
Y96236D01*
X121795Y94236D02*
X123795D01*
Y96236D01*
X121795D02*
X123795D01*
X121795Y94236D02*
Y96236D01*
X131795Y94236D02*
X133795D01*
Y96236D01*
X131795D02*
X133795D01*
X131795Y94236D02*
Y96236D01*
X161795Y94236D02*
X163795D01*
Y96236D01*
X161795D02*
X163795D01*
X161795Y94236D02*
Y96236D01*
X151795Y94236D02*
X153795D01*
Y96236D01*
X151795D02*
X153795D01*
X151795Y94236D02*
Y96236D01*
X141795Y94236D02*
X143795D01*
Y96236D01*
X141795D02*
X143795D01*
X141795Y94236D02*
Y96236D01*
X171795Y94236D02*
X173795D01*
Y96236D01*
X171795D02*
X173795D01*
X171795Y94236D02*
Y96236D01*
Y124236D02*
X173795D01*
Y126236D01*
X171795D02*
X173795D01*
X171795Y124236D02*
Y126236D01*
X101795Y124236D02*
X103795D01*
Y126236D01*
X101795D02*
X103795D01*
X101795Y124236D02*
Y126236D01*
X111795Y124236D02*
X113795D01*
Y126236D01*
X111795D02*
X113795D01*
X111795Y124236D02*
Y126236D01*
X121795Y124236D02*
X123795D01*
Y126236D01*
X121795D02*
X123795D01*
X121795Y124236D02*
Y126236D01*
X131795Y124236D02*
X133795D01*
Y126236D01*
X131795D02*
X133795D01*
X131795Y124236D02*
Y126236D01*
X141795Y124236D02*
X143795D01*
Y126236D01*
X141795D02*
X143795D01*
X141795Y124236D02*
Y126236D01*
X151795Y124236D02*
X153795D01*
Y126236D01*
X151795D02*
X153795D01*
X151795Y124236D02*
Y126236D01*
X161795Y124236D02*
X163795D01*
Y126236D01*
X161795D02*
X163795D01*
X161795Y124236D02*
Y126236D01*
X100378Y175181D02*
X102378D01*
Y177181D01*
X100378D02*
X102378D01*
X100378Y175181D02*
Y177181D01*
X179118Y175181D02*
X181118D01*
Y177181D01*
X179118D02*
X181118D01*
X179118Y175181D02*
Y177181D01*
X137295Y266232D02*
X137795Y265732D01*
X136795Y266232D02*
X137295D01*
X136795D02*
X137295Y266732D01*
X136795Y267232D02*
X137295Y266732D01*
X136795Y267232D02*
X137295D01*
X137795Y267732D01*
X138295Y267232D01*
X138795D01*
X138295Y266732D02*
X138795Y267232D01*
X138295Y266732D02*
X138795Y266232D01*
X138295D02*
X138795D01*
X137795Y265732D02*
X138295Y266232D01*
X196244Y129315D02*
X197244Y129815D01*
X198244Y129315D01*
X197744Y130315D02*
X198244Y129315D01*
X197744Y130315D02*
X198244Y131315D01*
X197244Y130815D02*
X198244Y131315D01*
X196244D02*
X197244Y130815D01*
X196244Y131315D02*
X196744Y130315D01*
X196244Y129315D02*
X196744Y130315D01*
X196244Y163173D02*
X197244Y163673D01*
X198244Y163173D01*
X197744Y164173D02*
X198244Y163173D01*
X197744Y164173D02*
X198244Y165173D01*
X197244Y164673D02*
X198244Y165173D01*
X196244D02*
X197244Y164673D01*
X196244Y165173D02*
X196744Y164173D01*
X196244Y163173D02*
X196744Y164173D01*
X196244Y146744D02*
X196744D01*
X196244D02*
Y147744D01*
X196744D01*
Y148244D01*
X197744D01*
Y147744D02*
Y148244D01*
Y147744D02*
X198244D01*
Y146744D02*
Y147744D01*
X197744Y146744D02*
X198244D01*
X197744Y146244D02*
Y146744D01*
X196744Y146244D02*
X197744D01*
X196744D02*
Y146744D01*
X196244Y138870D02*
X196744D01*
X196244D02*
Y139870D01*
X196744D01*
Y140370D01*
X197744D01*
Y139870D02*
Y140370D01*
Y139870D02*
X198244D01*
Y138870D02*
Y139870D01*
X197744Y138870D02*
X198244D01*
X197744Y138370D02*
Y138870D01*
X196744Y138370D02*
X197744D01*
X196744D02*
Y138870D01*
X196244Y154618D02*
X196744D01*
X196244D02*
Y155618D01*
X196744D01*
Y156118D01*
X197744D01*
Y155618D02*
Y156118D01*
Y155618D02*
X198244D01*
Y154618D02*
Y155618D01*
X197744Y154618D02*
X198244D01*
X197744Y154118D02*
Y154618D01*
X196744Y154118D02*
X197744D01*
X196744D02*
Y154618D01*
D47*
X962096Y110630D02*
Y114408D01*
X963985D01*
X964615Y113779D01*
Y112519D01*
X963985Y111890D01*
X962096D01*
X963356D02*
X964615Y110630D01*
X966504D02*
X967764D01*
X968393Y111260D01*
Y112519D01*
X967764Y113149D01*
X966504D01*
X965874Y112519D01*
Y111260D01*
X966504Y110630D01*
X969653Y113149D02*
Y111260D01*
X970282Y110630D01*
X972172D01*
Y113149D01*
X974061Y113779D02*
Y113149D01*
X973431D01*
X974691D01*
X974061D01*
Y111260D01*
X974691Y110630D01*
X978469D02*
X977209D01*
X976580Y111260D01*
Y112519D01*
X977209Y113149D01*
X978469D01*
X979099Y112519D01*
Y111890D01*
X976580D01*
X982877Y114408D02*
Y110630D01*
X980988D01*
X980358Y111260D01*
Y112519D01*
X980988Y113149D01*
X982877D01*
X987914Y110630D02*
Y114408D01*
X989804D01*
X990433Y113779D01*
Y112519D01*
X989804Y111890D01*
X987914D01*
X992323Y113149D02*
X993582D01*
X994212Y112519D01*
Y110630D01*
X992323D01*
X991693Y111260D01*
X992323Y111890D01*
X994212D01*
X996101Y113779D02*
Y113149D01*
X995471D01*
X996731D01*
X996101D01*
Y111260D01*
X996731Y110630D01*
X998620Y114408D02*
Y110630D01*
Y112519D01*
X999249Y113149D01*
X1000509D01*
X1001139Y112519D01*
Y110630D01*
X1006176Y114408D02*
Y110630D01*
X1008695D01*
X1011844D02*
X1010584D01*
X1009955Y111260D01*
Y112519D01*
X1010584Y113149D01*
X1011844D01*
X1012473Y112519D01*
Y111890D01*
X1009955D01*
X1013733Y110630D02*
Y113149D01*
X1015622D01*
X1016252Y112519D01*
Y110630D01*
X1018771Y109371D02*
X1019400D01*
X1020030Y110000D01*
Y113149D01*
X1018141D01*
X1017511Y112519D01*
Y111260D01*
X1018141Y110630D01*
X1020030D01*
X1021919Y113779D02*
Y113149D01*
X1021290D01*
X1022549D01*
X1021919D01*
Y111260D01*
X1022549Y110630D01*
X1024438Y114408D02*
Y110630D01*
Y112519D01*
X1025068Y113149D01*
X1026327D01*
X1026957Y112519D01*
Y110630D01*
X904764Y114408D02*
Y110630D01*
Y112519D01*
X907283D01*
Y114408D01*
Y110630D01*
X909172D02*
X910431D01*
X911061Y111260D01*
Y112519D01*
X910431Y113149D01*
X909172D01*
X908542Y112519D01*
Y111260D01*
X909172Y110630D01*
X912320D02*
X913580D01*
X912950D01*
Y114408D01*
X912320D01*
X917358Y110630D02*
X916098D01*
X915469Y111260D01*
Y112519D01*
X916098Y113149D01*
X917358D01*
X917988Y112519D01*
Y111890D01*
X915469D01*
X923025Y114408D02*
Y110630D01*
X925544D01*
X928693D02*
X927433D01*
X926804Y111260D01*
Y112519D01*
X927433Y113149D01*
X928693D01*
X929323Y112519D01*
Y111890D01*
X926804D01*
X930582Y110630D02*
Y113149D01*
X932471D01*
X933101Y112519D01*
Y110630D01*
X935620Y109371D02*
X936250D01*
X936879Y110000D01*
Y113149D01*
X934990D01*
X934360Y112519D01*
Y111260D01*
X934990Y110630D01*
X936879D01*
X938768Y113779D02*
Y113149D01*
X938139D01*
X939398D01*
X938768D01*
Y111260D01*
X939398Y110630D01*
X941287Y114408D02*
Y110630D01*
Y112519D01*
X941917Y113149D01*
X943176D01*
X943806Y112519D01*
Y110630D01*
X828015Y114408D02*
X830534D01*
X829274D01*
Y110630D01*
X833682D02*
X832423D01*
X831793Y111260D01*
Y112519D01*
X832423Y113149D01*
X833682D01*
X834312Y112519D01*
Y111890D01*
X831793D01*
X835571Y110630D02*
Y113149D01*
X836201D01*
X836831Y112519D01*
Y110630D01*
Y112519D01*
X837461Y113149D01*
X838090Y112519D01*
Y110630D01*
X839350Y109371D02*
Y113149D01*
X841239D01*
X841869Y112519D01*
Y111260D01*
X841239Y110630D01*
X839350D01*
X843128D02*
X844388D01*
X843758D01*
Y114408D01*
X843128D01*
X846906Y113149D02*
X848166D01*
X848796Y112519D01*
Y110630D01*
X846906D01*
X846277Y111260D01*
X846906Y111890D01*
X848796D01*
X850685Y113779D02*
Y113149D01*
X850055D01*
X851314D01*
X850685D01*
Y111260D01*
X851314Y110630D01*
X855093D02*
X853833D01*
X853204Y111260D01*
Y112519D01*
X853833Y113149D01*
X855093D01*
X855722Y112519D01*
Y111890D01*
X853204D01*
X770682Y110630D02*
Y114408D01*
X772572D01*
X773201Y113779D01*
Y112519D01*
X772572Y111890D01*
X770682D01*
X775090Y113149D02*
X776350D01*
X776980Y112519D01*
Y110630D01*
X775090D01*
X774461Y111260D01*
X775090Y111890D01*
X776980D01*
X780758Y114408D02*
Y110630D01*
X778869D01*
X778239Y111260D01*
Y112519D01*
X778869Y113149D01*
X780758D01*
X788314Y113779D02*
X787685Y114408D01*
X786425D01*
X785796Y113779D01*
Y113149D01*
X786425Y112519D01*
X787685D01*
X788314Y111890D01*
Y111260D01*
X787685Y110630D01*
X786425D01*
X785796Y111260D01*
X789574Y114408D02*
Y110630D01*
Y112519D01*
X790204Y113149D01*
X791463D01*
X792093Y112519D01*
Y110630D01*
X793982Y113149D02*
X795241D01*
X795871Y112519D01*
Y110630D01*
X793982D01*
X793352Y111260D01*
X793982Y111890D01*
X795871D01*
X797131Y109371D02*
Y113149D01*
X799020D01*
X799649Y112519D01*
Y111260D01*
X799020Y110630D01*
X797131D01*
X802798D02*
X801539D01*
X800909Y111260D01*
Y112519D01*
X801539Y113149D01*
X802798D01*
X803428Y112519D01*
Y111890D01*
X800909D01*
X739509Y114408D02*
Y111890D01*
X740769Y110630D01*
X742028Y111890D01*
Y114408D01*
X743288Y110630D02*
X744547D01*
X743917D01*
Y113149D01*
X743288D01*
X747066D02*
X748325D01*
X748955Y112519D01*
Y110630D01*
X747066D01*
X746436Y111260D01*
X747066Y111890D01*
X748955D01*
X750214Y110630D02*
X752733Y113149D01*
X753993Y110630D02*
Y114408D01*
X755882D01*
X756512Y113779D01*
Y112519D01*
X755882Y111890D01*
X753993D01*
X758401Y113149D02*
X759660D01*
X760290Y112519D01*
Y110630D01*
X758401D01*
X757771Y111260D01*
X758401Y111890D01*
X760290D01*
X764068Y114408D02*
Y110630D01*
X762179D01*
X761549Y111260D01*
Y112519D01*
X762179Y113149D01*
X764068D01*
X660661Y114408D02*
Y110630D01*
X662550D01*
X663180Y111260D01*
Y113779D01*
X662550Y114408D01*
X660661D01*
X664440Y113149D02*
Y110630D01*
Y111890D01*
X665069Y112519D01*
X665699Y113149D01*
X666329D01*
X668218Y110630D02*
X669477D01*
X668848D01*
Y113149D01*
X668218D01*
X671367Y110630D02*
X672626D01*
X671996D01*
Y114408D01*
X671367D01*
X674515Y110630D02*
X675775D01*
X675145D01*
Y114408D01*
X674515D01*
X681442D02*
Y110630D01*
X683961D01*
X685850Y113149D02*
X687110D01*
X687739Y112519D01*
Y110630D01*
X685850D01*
X685220Y111260D01*
X685850Y111890D01*
X687739D01*
X688999Y113149D02*
Y111260D01*
X689628Y110630D01*
X691518D01*
Y110000D01*
X690888Y109371D01*
X690258D01*
X691518Y110630D02*
Y113149D01*
X694666Y110630D02*
X693407D01*
X692777Y111260D01*
Y112519D01*
X693407Y113149D01*
X694666D01*
X695296Y112519D01*
Y111890D01*
X692777D01*
X696555Y113149D02*
Y110630D01*
Y111890D01*
X697185Y112519D01*
X697815Y113149D01*
X698445D01*
X704112Y110630D02*
Y114408D01*
X706001D01*
X706631Y113779D01*
Y112519D01*
X706001Y111890D01*
X704112D01*
X708520Y113149D02*
X709779D01*
X710409Y112519D01*
Y110630D01*
X708520D01*
X707890Y111260D01*
X708520Y111890D01*
X710409D01*
X711669Y110630D02*
X712928D01*
X712298D01*
Y113149D01*
X711669D01*
X714817D02*
Y110630D01*
Y111890D01*
X715447Y112519D01*
X716077Y113149D01*
X716706D01*
X621932Y114408D02*
Y110630D01*
Y112519D01*
X624450D01*
Y114408D01*
Y110630D01*
X626340D02*
X627599D01*
X628229Y111260D01*
Y112519D01*
X627599Y113149D01*
X626340D01*
X625710Y112519D01*
Y111260D01*
X626340Y110630D01*
X629488D02*
X630748D01*
X630118D01*
Y114408D01*
X629488D01*
X634526Y110630D02*
X633266D01*
X632637Y111260D01*
Y112519D01*
X633266Y113149D01*
X634526D01*
X635156Y112519D01*
Y111890D01*
X632637D01*
X640193Y114408D02*
X642712D01*
X641453D01*
Y110630D01*
X643972Y113149D02*
Y111260D01*
X644601Y110630D01*
X646491D01*
Y110000D01*
X645861Y109371D01*
X645231D01*
X646491Y110630D02*
Y113149D01*
X647750Y109371D02*
Y113149D01*
X649639D01*
X650269Y112519D01*
Y111260D01*
X649639Y110630D01*
X647750D01*
X653417D02*
X652158D01*
X651528Y111260D01*
Y112519D01*
X652158Y113149D01*
X653417D01*
X654047Y112519D01*
Y111890D01*
X651528D01*
X595166Y110630D02*
Y114408D01*
X597056D01*
X597685Y113779D01*
Y112519D01*
X597056Y111890D01*
X595166D01*
X598945Y110630D02*
X600204D01*
X599575D01*
Y114408D01*
X598945D01*
X602723Y113149D02*
X603982D01*
X604612Y112519D01*
Y110630D01*
X602723D01*
X602093Y111260D01*
X602723Y111890D01*
X604612D01*
X606501Y113779D02*
Y113149D01*
X605872D01*
X607131D01*
X606501D01*
Y111260D01*
X607131Y110630D01*
X610909D02*
X609650D01*
X609020Y111260D01*
Y112519D01*
X609650Y113149D01*
X610909D01*
X611539Y112519D01*
Y111890D01*
X609020D01*
X615317Y114408D02*
Y110630D01*
X613428D01*
X612799Y111260D01*
Y112519D01*
X613428Y113149D01*
X615317D01*
X537309Y114408D02*
Y110630D01*
Y112519D01*
X539828D01*
Y114408D01*
Y110630D01*
X541717D02*
X542977D01*
X543606Y111260D01*
Y112519D01*
X542977Y113149D01*
X541717D01*
X541087Y112519D01*
Y111260D01*
X541717Y110630D01*
X544866D02*
X546125D01*
X545496D01*
Y114408D01*
X544866D01*
X549904Y110630D02*
X548644D01*
X548014Y111260D01*
Y112519D01*
X548644Y113149D01*
X549904D01*
X550533Y112519D01*
Y111890D01*
X548014D01*
X558090Y113779D02*
X557460Y114408D01*
X556201D01*
X555571Y113779D01*
Y113149D01*
X556201Y112519D01*
X557460D01*
X558090Y111890D01*
Y111260D01*
X557460Y110630D01*
X556201D01*
X555571Y111260D01*
X559349Y110630D02*
X560609D01*
X559979D01*
Y113149D01*
X559349D01*
X562498D02*
X565017D01*
X562498Y110630D01*
X565017D01*
X568165D02*
X566906D01*
X566276Y111260D01*
Y112519D01*
X566906Y113149D01*
X568165D01*
X568795Y112519D01*
Y111890D01*
X566276D01*
X511358Y113779D02*
X510728Y114408D01*
X509469D01*
X508839Y113779D01*
Y111260D01*
X509469Y110630D01*
X510728D01*
X511358Y111260D01*
X513247Y110630D02*
X514506D01*
X515136Y111260D01*
Y112519D01*
X514506Y113149D01*
X513247D01*
X512617Y112519D01*
Y111260D01*
X513247Y110630D01*
X516395Y113149D02*
Y111260D01*
X517025Y110630D01*
X518914D01*
Y113149D01*
X520174Y110630D02*
Y113149D01*
X522063D01*
X522693Y112519D01*
Y110630D01*
X524582Y113779D02*
Y113149D01*
X523952D01*
X525211D01*
X524582D01*
Y111260D01*
X525211Y110630D01*
X484593Y113779D02*
X483963Y114408D01*
X482703D01*
X482074Y113779D01*
Y113149D01*
X482703Y112519D01*
X483963D01*
X484593Y111890D01*
Y111260D01*
X483963Y110630D01*
X482703D01*
X482074Y111260D01*
X485852Y113149D02*
Y111260D01*
X486482Y110630D01*
X488371D01*
Y110000D01*
X487741Y109371D01*
X487111D01*
X488371Y110630D02*
Y113149D01*
X489630Y110630D02*
Y113149D01*
X490260D01*
X490890Y112519D01*
Y110630D01*
Y112519D01*
X491519Y113149D01*
X492149Y112519D01*
Y110630D01*
X493409Y114408D02*
Y110630D01*
X495298D01*
X495927Y111260D01*
Y111890D01*
Y112519D01*
X495298Y113149D01*
X493409D01*
X497817Y110630D02*
X499076D01*
X499706Y111260D01*
Y112519D01*
X499076Y113149D01*
X497817D01*
X497187Y112519D01*
Y111260D01*
X497817Y110630D01*
X500965D02*
X502225D01*
X501595D01*
Y114408D01*
X500965D01*
D48*
X536467Y45540D02*
Y42391D01*
Y43966D01*
X538566D01*
Y45540D01*
Y42391D01*
X540140D02*
X541190D01*
X541714Y42916D01*
Y43966D01*
X541190Y44490D01*
X540140D01*
X539615Y43966D01*
Y42916D01*
X540140Y42391D01*
X542764D02*
X543814D01*
X543289D01*
Y45540D01*
X542764D01*
X546962Y42391D02*
X545913D01*
X545388Y42916D01*
Y43966D01*
X545913Y44490D01*
X546962D01*
X547487Y43966D01*
Y43441D01*
X545388D01*
X551685Y45540D02*
Y42391D01*
X553784D01*
X556408D02*
X555358D01*
X554834Y42916D01*
Y43966D01*
X555358Y44490D01*
X556408D01*
X556933Y43966D01*
Y43441D01*
X554834D01*
X557982Y42391D02*
Y44490D01*
X559556D01*
X560081Y43966D01*
Y42391D01*
X562180Y41342D02*
X562705D01*
X563230Y41867D01*
Y44490D01*
X561656D01*
X561131Y43966D01*
Y42916D01*
X561656Y42391D01*
X563230D01*
X564804Y45015D02*
Y44490D01*
X564279D01*
X565329D01*
X564804D01*
Y42916D01*
X565329Y42391D01*
X566903Y45540D02*
Y42391D01*
Y43966D01*
X567428Y44490D01*
X568478D01*
X569002Y43966D01*
Y42391D01*
X536467Y47771D02*
Y50919D01*
X538041D01*
X538566Y50394D01*
Y49345D01*
X538041Y48820D01*
X536467D01*
X537516D02*
X538566Y47771D01*
X540140D02*
X541190D01*
X541714Y48295D01*
Y49345D01*
X541190Y49870D01*
X540140D01*
X539615Y49345D01*
Y48295D01*
X540140Y47771D01*
X542764Y49870D02*
Y48295D01*
X543289Y47771D01*
X544863D01*
Y49870D01*
X546437Y50394D02*
Y49870D01*
X545913D01*
X546962D01*
X546437D01*
Y48295D01*
X546962Y47771D01*
X550111D02*
X549061D01*
X548536Y48295D01*
Y49345D01*
X549061Y49870D01*
X550111D01*
X550635Y49345D01*
Y48820D01*
X548536D01*
X553784Y50919D02*
Y47771D01*
X552210D01*
X551685Y48295D01*
Y49345D01*
X552210Y49870D01*
X553784D01*
X557982Y47771D02*
Y50919D01*
X559556D01*
X560081Y50394D01*
Y49345D01*
X559556Y48820D01*
X557982D01*
X561656Y49870D02*
X562705D01*
X563230Y49345D01*
Y47771D01*
X561656D01*
X561131Y48295D01*
X561656Y48820D01*
X563230D01*
X564804Y50394D02*
Y49870D01*
X564279D01*
X565329D01*
X564804D01*
Y48295D01*
X565329Y47771D01*
X566903Y50919D02*
Y47771D01*
Y49345D01*
X567428Y49870D01*
X568478D01*
X569002Y49345D01*
Y47771D01*
X573200Y50919D02*
Y47771D01*
X575300D01*
X577923D02*
X576874D01*
X576349Y48295D01*
Y49345D01*
X576874Y49870D01*
X577923D01*
X578448Y49345D01*
Y48820D01*
X576349D01*
X579498Y47771D02*
Y49870D01*
X581072D01*
X581597Y49345D01*
Y47771D01*
X583696Y46721D02*
X584221D01*
X584745Y47246D01*
Y49870D01*
X583171D01*
X582646Y49345D01*
Y48295D01*
X583171Y47771D01*
X584745D01*
X586320Y50394D02*
Y49870D01*
X585795D01*
X586844D01*
X586320D01*
Y48295D01*
X586844Y47771D01*
X588419Y50919D02*
Y47771D01*
Y49345D01*
X588943Y49870D01*
X589993D01*
X590518Y49345D01*
Y47771D01*
X484173Y50394D02*
X483648Y50919D01*
X482598D01*
X482074Y50394D01*
Y49870D01*
X482598Y49345D01*
X483648D01*
X484173Y48820D01*
Y48295D01*
X483648Y47771D01*
X482598D01*
X482074Y48295D01*
X485222Y47771D02*
X486272D01*
X485747D01*
Y50919D01*
X485222D01*
X488371Y47771D02*
X489420D01*
X489945Y48295D01*
Y49345D01*
X489420Y49870D01*
X488371D01*
X487846Y49345D01*
Y48295D01*
X488371Y47771D01*
X491519Y50394D02*
Y49870D01*
X490995D01*
X492044D01*
X491519D01*
Y48295D01*
X492044Y47771D01*
X498866Y50919D02*
Y47771D01*
X497292D01*
X496767Y48295D01*
Y49345D01*
X497292Y49870D01*
X498866D01*
X501490Y47771D02*
X500441D01*
X499916Y48295D01*
Y49345D01*
X500441Y49870D01*
X501490D01*
X502015Y49345D01*
Y48820D01*
X499916D01*
X503589Y47771D02*
Y50394D01*
Y49345D01*
X503064D01*
X504114D01*
X503589D01*
Y50394D01*
X504114Y50919D01*
X505688Y47771D02*
X506738D01*
X506213D01*
Y49870D01*
X505688D01*
X508312Y47771D02*
Y49870D01*
X509886D01*
X510411Y49345D01*
Y47771D01*
X511460D02*
X512510D01*
X511985D01*
Y49870D01*
X511460D01*
X514609Y50394D02*
Y49870D01*
X514084D01*
X515134D01*
X514609D01*
Y48295D01*
X515134Y47771D01*
X516708D02*
X517758D01*
X517233D01*
Y49870D01*
X516708D01*
X519857Y47771D02*
X520906D01*
X521431Y48295D01*
Y49345D01*
X520906Y49870D01*
X519857D01*
X519332Y49345D01*
Y48295D01*
X519857Y47771D01*
X522481D02*
Y49870D01*
X524055D01*
X524580Y49345D01*
Y47771D01*
X525629D02*
X527204D01*
X527728Y48295D01*
X527204Y48820D01*
X526154D01*
X525629Y49345D01*
X526154Y49870D01*
X527728D01*
X531926D02*
X532451D01*
Y49345D01*
X531926D01*
Y49870D01*
Y48295D02*
X532451D01*
Y47771D01*
X531926D01*
Y48295D01*
M02*
