G04*
G04 #@! TF.GenerationSoftware,Altium Limited,Altium Designer,25.0.2 (28)*
G04*
G04 Layer_Color=65535*
%FSLAX25Y25*%
%MOIN*%
G70*
G04*
G04 #@! TF.SameCoordinates,12EFF0D5-E88D-419E-9C59-EC29542AE5DB*
G04*
G04*
G04 #@! TF.FilePolarity,Positive*
G04*
G01*
G75*
%ADD10C,0.00787*%
%ADD11C,0.00394*%
%ADD12C,0.00591*%
%ADD13C,0.01000*%
G36*
X144167Y266589D02*
X146176Y266051D01*
X148098Y265255D01*
X149899Y264215D01*
X151549Y262948D01*
X153020Y261477D01*
X154286Y259827D01*
X155326Y258026D01*
X156122Y256104D01*
X156661Y254095D01*
X156932Y252033D01*
X156932Y250993D01*
X156932Y249953D01*
X156661Y247891D01*
X156122Y245882D01*
X155326Y243960D01*
X154286Y242159D01*
X153020Y240508D01*
X151549Y239038D01*
X149899Y237771D01*
X148098Y236731D01*
X146176Y235935D01*
X144167Y235397D01*
X142105Y235126D01*
X141065Y235126D01*
X141065D01*
X140025Y235126D01*
X137962Y235397D01*
X135953Y235935D01*
X134032Y236731D01*
X132230Y237771D01*
X130580Y239038D01*
X129109Y240508D01*
X127843Y242159D01*
X126803Y243960D01*
X126007Y245882D01*
X125469Y247891D01*
X125197Y249953D01*
X125197Y250993D01*
X125197Y252033D01*
X125469Y254095D01*
X126007Y256104D01*
X126803Y258026D01*
X127843Y259827D01*
X129109Y261477D01*
X130580Y262948D01*
X132230Y264215D01*
X134032Y265255D01*
X135953Y266051D01*
X137962Y266589D01*
X140025Y266860D01*
X141065Y266860D01*
X142105Y266860D01*
X144167Y266589D01*
D02*
G37*
G36*
X191486Y224557D02*
X192372Y224475D01*
X193252Y224349D01*
X193688Y224265D01*
X193688Y224265D01*
X193887Y224225D01*
X194282Y224134D01*
X194673Y224031D01*
X195062Y223915D01*
X195254Y223852D01*
X195435Y223792D01*
X195793Y223658D01*
X196145Y223512D01*
X196492Y223354D01*
X196663Y223268D01*
X196825Y223186D01*
X197142Y223010D01*
X197452Y222820D01*
X197753Y222618D01*
X197900Y222511D01*
X198041Y222407D01*
X198314Y222185D01*
X198577Y221952D01*
X198828Y221706D01*
X198948Y221577D01*
X198948Y221577D01*
X199317Y221174D01*
X199928Y220266D01*
X200399Y219278D01*
X200718Y218231D01*
X200799Y217690D01*
X200832Y217483D01*
X200882Y217067D01*
X200916Y216649D01*
X200931Y216231D01*
X200931Y216021D01*
X200930Y215702D01*
X200868Y215065D01*
X200745Y214438D01*
X200563Y213825D01*
X200443Y213528D01*
X200383Y213380D01*
X200252Y213087D01*
X200110Y212800D01*
X199957Y212519D01*
X199875Y212381D01*
X199790Y212238D01*
X199612Y211959D01*
X199425Y211684D01*
X199230Y211416D01*
X199129Y211284D01*
X199023Y211147D01*
X198805Y210878D01*
X198581Y210614D01*
X198350Y210354D01*
X198232Y210227D01*
X198109Y210095D01*
X197858Y209833D01*
X197604Y209576D01*
X197345Y209323D01*
X197213Y209198D01*
X197213D01*
X197077Y209069D01*
X196801Y208813D01*
X196523Y208560D01*
X196242Y208309D01*
X196100Y208186D01*
X195954Y208058D01*
X195660Y207805D01*
X195365Y207553D01*
X195069Y207303D01*
X194920Y207178D01*
X194920Y207178D01*
X193702Y206165D01*
X192474Y205133D01*
Y204945D01*
X200257D01*
Y198021D01*
X180613D01*
X180536Y204945D01*
X183975Y207377D01*
X185569Y208531D01*
X185755Y208668D01*
X186126Y208944D01*
X186494Y209223D01*
X186861Y209504D01*
X187043Y209646D01*
X187211Y209777D01*
X187545Y210043D01*
X187876Y210312D01*
X188204Y210585D01*
X188367Y210723D01*
X188514Y210848D01*
X188805Y211104D01*
X189092Y211364D01*
X189375Y211628D01*
X189514Y211762D01*
Y211762D01*
X189637Y211883D01*
X189879Y212128D01*
X190114Y212379D01*
X190343Y212635D01*
X190456Y212766D01*
X190552Y212881D01*
X190738Y213117D01*
X190915Y213359D01*
X191083Y213608D01*
X191163Y213735D01*
X191230Y213846D01*
X191355Y214073D01*
X191466Y214307D01*
X191564Y214548D01*
X191608Y214670D01*
X191608D01*
X191643Y214779D01*
X191700Y215002D01*
X191739Y215228D01*
X191759Y215457D01*
X191763Y215572D01*
X191762Y215644D01*
X191753Y215787D01*
X191735Y215930D01*
X191706Y216070D01*
X191689Y216140D01*
X191680Y216172D01*
X191659Y216236D01*
X191637Y216298D01*
X191612Y216360D01*
X191599Y216391D01*
X191572Y216448D01*
X191512Y216560D01*
X191442Y216666D01*
X191365Y216766D01*
X191323Y216813D01*
X191232Y216903D01*
X191029Y217057D01*
X190803Y217174D01*
X190560Y217251D01*
X190435Y217274D01*
X190400Y217279D01*
X190330Y217287D01*
X190259Y217292D01*
X190189Y217295D01*
X190153Y217295D01*
Y217295D01*
X190080Y217295D01*
X189933Y217285D01*
X189788Y217265D01*
X189644Y217233D01*
X189574Y217213D01*
X189543Y217203D01*
X189482Y217181D01*
X189423Y217156D01*
X189365Y217129D01*
X189336Y217114D01*
X189231Y217052D01*
X189042Y216899D01*
X188883Y216714D01*
X188761Y216504D01*
X188716Y216391D01*
X188704Y216360D01*
X188683Y216298D01*
X188664Y216235D01*
X188648Y216172D01*
X188640Y216140D01*
X188633Y216106D01*
X188620Y216038D01*
X188609Y215970D01*
X188599Y215901D01*
X188596Y215866D01*
X188592Y215830D01*
X188586Y215756D01*
X188583Y215683D01*
X188581Y215609D01*
X188581Y215572D01*
Y215572D01*
Y215572D01*
D01*
X188581Y213479D01*
X179788D01*
Y215612D01*
X179782Y216152D01*
X179899Y217227D01*
X180143Y218280D01*
X180511Y219296D01*
X180754Y219779D01*
X181091Y220421D01*
X181978Y221570D01*
X183049Y222549D01*
X184274Y223328D01*
X184944Y223607D01*
X185131Y223688D01*
X185513Y223837D01*
X185899Y223971D01*
X186291Y224091D01*
X186488Y224143D01*
X186703Y224200D01*
X187134Y224298D01*
X187569Y224381D01*
X188006Y224450D01*
X188226Y224477D01*
Y224477D01*
X188466Y224506D01*
X188947Y224550D01*
X189429Y224579D01*
X189912Y224592D01*
X190153Y224592D01*
X190598Y224595D01*
X191486Y224557D01*
D02*
G37*
G36*
X61293Y235443D02*
X63355Y235172D01*
X65364Y234633D01*
X67286Y233837D01*
X69087Y232797D01*
X70737Y231531D01*
X71473Y230795D01*
X72208Y230060D01*
X73474Y228410D01*
X74515Y226609D01*
X75311Y224687D01*
X75849Y222678D01*
X76121Y220615D01*
X76121Y218535D01*
X75849Y216473D01*
X75311Y214464D01*
X74515Y212542D01*
X73474Y210741D01*
X72208Y209091D01*
X71473Y208355D01*
X70737Y207620D01*
X69087Y206354D01*
X67286Y205313D01*
X65364Y204517D01*
X63355Y203979D01*
X61293Y203707D01*
X59212Y203707D01*
X57150Y203979D01*
X55141Y204517D01*
X53219Y205313D01*
X51418Y206354D01*
X49768Y207620D01*
X49033Y208355D01*
X48297Y209091D01*
X47031Y210741D01*
X45991Y212542D01*
X45195Y214464D01*
X44656Y216473D01*
X44385Y218535D01*
X44385Y220615D01*
X44656Y222678D01*
X45195Y224687D01*
X45991Y226609D01*
X47031Y228410D01*
X48297Y230060D01*
X49033Y230795D01*
X49768Y231531D01*
X51418Y232797D01*
X53219Y233837D01*
X55141Y234633D01*
X57150Y235172D01*
X59212Y235443D01*
X61293Y235443D01*
D02*
G37*
G36*
X221391Y217294D02*
X212075D01*
Y214601D01*
X215104Y214601D01*
X215628Y214606D01*
X216670Y214499D01*
X217693Y214276D01*
X218685Y213940D01*
X219159Y213717D01*
X219159D01*
X219668Y213475D01*
X220605Y212851D01*
X221445Y212100D01*
X222168Y211237D01*
X222760Y210279D01*
X223210Y209246D01*
X223508Y208160D01*
X223648Y207043D01*
X223637Y206480D01*
X223640Y206114D01*
X223596Y205384D01*
X223501Y204659D01*
X223357Y203942D01*
X223260Y203589D01*
X223215Y203429D01*
X223112Y203113D01*
X222997Y202801D01*
X222869Y202494D01*
X222799Y202343D01*
X222667Y202057D01*
X222353Y201510D01*
X221992Y200993D01*
X221587Y200510D01*
X221364Y200287D01*
X221139Y200065D01*
X220651Y199661D01*
X220130Y199302D01*
X219579Y198991D01*
X219291Y198860D01*
X219138Y198790D01*
X218828Y198662D01*
X218513Y198547D01*
X218194Y198444D01*
X218032Y198400D01*
X217860Y198352D01*
X217513Y198269D01*
X217163Y198198D01*
X216811Y198141D01*
X216634Y198118D01*
Y198118D01*
X216444Y198094D01*
X216062Y198058D01*
X215679Y198034D01*
X215296Y198022D01*
X215104Y198023D01*
X203320D01*
X203280Y204944D01*
X212598D01*
X212657Y204945D01*
X212774Y204951D01*
X212890Y204963D01*
X213006Y204982D01*
X213063Y204995D01*
X213063Y204995D01*
X213089Y205001D01*
X213141Y205015D01*
X213193Y205031D01*
X213244Y205048D01*
X213269Y205058D01*
X213293Y205067D01*
X213341Y205088D01*
X213387Y205110D01*
X213433Y205134D01*
X213455Y205147D01*
X213455Y205147D01*
X213477Y205160D01*
X213519Y205187D01*
X213560Y205216D01*
X213599Y205247D01*
X213619Y205263D01*
X213675Y205315D01*
X213777Y205431D01*
X213861Y205561D01*
X213927Y205701D01*
X213952Y205774D01*
X213960Y205802D01*
X213975Y205858D01*
X213988Y205914D01*
X213998Y205972D01*
X214003Y206000D01*
X214007Y206032D01*
X214014Y206096D01*
X214018Y206159D01*
X214020Y206223D01*
X214020Y206255D01*
X214019Y206342D01*
X214000Y206514D01*
X213962Y206683D01*
X213905Y206847D01*
X213869Y206926D01*
X213787Y207068D01*
X213573Y207318D01*
X213306Y207508D01*
X213000Y207628D01*
X212839Y207660D01*
X212809Y207664D01*
X212749Y207670D01*
X212689Y207675D01*
X212629Y207677D01*
X212598Y207677D01*
X212598Y207677D01*
X203280Y207677D01*
X203354Y224218D01*
X221391D01*
Y217294D01*
D02*
G37*
G36*
X254168Y155944D02*
X256177Y155406D01*
X258099Y154610D01*
X259900Y153570D01*
X261550Y152304D01*
X263021Y150833D01*
X264287Y149183D01*
X265327Y147381D01*
X266123Y145459D01*
X266661Y143450D01*
X266933Y141388D01*
X266933Y140348D01*
Y140348D01*
X266933Y139308D01*
X266661Y137246D01*
X266123Y135237D01*
X265327Y133315D01*
X264287Y131514D01*
X263021Y129864D01*
X261550Y128393D01*
X259900Y127127D01*
X258099Y126087D01*
X256177Y125291D01*
X254168Y124752D01*
X252105Y124481D01*
X251065Y124481D01*
X251065D01*
X250025Y124481D01*
X247963Y124752D01*
X245954Y125291D01*
X244032Y126087D01*
X242231Y127127D01*
X240581Y128393D01*
X239110Y129864D01*
X237844Y131514D01*
X236804Y133315D01*
X236008Y135237D01*
X235470Y137246D01*
X235198Y139308D01*
X235198Y140348D01*
Y140348D01*
X235198Y141388D01*
X235470Y143450D01*
X236008Y145459D01*
X236804Y147381D01*
X237844Y149182D01*
X239110Y150833D01*
X240581Y152304D01*
X242231Y153570D01*
X244032Y154610D01*
X245954Y155406D01*
X247963Y155944D01*
X250025Y156216D01*
X251065Y156216D01*
X252105Y156216D01*
X254168Y155944D01*
D02*
G37*
G36*
X27702D02*
X29711Y155406D01*
X31633Y154610D01*
X33434Y153570D01*
X35085Y152304D01*
X36555Y150833D01*
X37821Y149183D01*
X38862Y147381D01*
X39658Y145459D01*
X40196Y143450D01*
X40467Y141388D01*
X40467Y140348D01*
Y140348D01*
X40467Y139308D01*
X40196Y137246D01*
X39658Y135237D01*
X38862Y133315D01*
X37821Y131514D01*
X36555Y129864D01*
X35085Y128393D01*
X33434Y127127D01*
X31633Y126087D01*
X29711Y125291D01*
X27702Y124752D01*
X25640Y124481D01*
X24600Y124481D01*
X24600D01*
X23560Y124481D01*
X21498Y124752D01*
X19489Y125291D01*
X17567Y126087D01*
X15766Y127127D01*
X14115Y128393D01*
X12644Y129864D01*
X11378Y131514D01*
X10338Y133315D01*
X9542Y135237D01*
X9004Y137246D01*
X8733Y139308D01*
X8733Y140348D01*
Y140348D01*
X8733Y141388D01*
X9004Y143450D01*
X9542Y145459D01*
X10338Y147381D01*
X11378Y149182D01*
X12644Y150833D01*
X14115Y152304D01*
X15766Y153570D01*
X17567Y154610D01*
X19489Y155406D01*
X21498Y155944D01*
X23560Y156216D01*
X24600Y156216D01*
X25640Y156216D01*
X27702Y155944D01*
D02*
G37*
G36*
X143838Y226980D02*
X149574Y226405D01*
X155261Y225462D01*
X160875Y224154D01*
X166393Y222487D01*
X171792Y220468D01*
X174421Y219286D01*
X174421Y183810D01*
X214379D01*
X215864Y181339D01*
X218508Y176217D01*
X220816Y170935D01*
X222780Y165515D01*
X224390Y159980D01*
X225640Y154353D01*
X226524Y148657D01*
X227040Y142915D01*
X227184Y137153D01*
X226957Y131393D01*
X226359Y125660D01*
X225393Y119977D01*
X224062Y114368D01*
X222373Y108856D01*
X220332Y103465D01*
X217948Y98217D01*
X215230Y93134D01*
X212191Y88236D01*
X208842Y83544D01*
X205198Y79078D01*
X201273Y74856D01*
X197084Y70895D01*
X192649Y67213D01*
X187986Y63824D01*
X183114Y60743D01*
X178053Y57983D01*
X172826Y55554D01*
X167452Y53467D01*
X161955Y51731D01*
X156358Y50353D01*
X150684Y49339D01*
X144956Y48692D01*
X139198Y48416D01*
X133434Y48512D01*
X127689Y48978D01*
X121985Y49815D01*
X116348Y51017D01*
X110799Y52580D01*
X105363Y54497D01*
X100061Y56761D01*
X94917Y59361D01*
X89951Y62288D01*
X85184Y65529D01*
X80635Y69070D01*
X76325Y72898D01*
X72270Y76995D01*
X68487Y81344D01*
X64993Y85929D01*
X61801Y90729D01*
X58926Y95725D01*
X56379Y100896D01*
X54170Y106221D01*
X52308Y111677D01*
X50803Y117241D01*
X49659Y122891D01*
X48882Y128602D01*
X48474Y134352D01*
X48438Y140117D01*
X48773Y145871D01*
X49479Y151593D01*
X50552Y157256D01*
X51988Y162839D01*
X53780Y168318D01*
X55922Y173669D01*
X58405Y178872D01*
X61217Y183903D01*
X64349Y188743D01*
X67785Y193371D01*
X71513Y197768D01*
X75516Y201916D01*
X79778Y205797D01*
X84282Y209395D01*
X89008Y212695D01*
X93937Y215684D01*
X99049Y218349D01*
X104321Y220679D01*
X109733Y222664D01*
X115261Y224297D01*
X120884Y225569D01*
X126576Y226477D01*
X132315Y227016D01*
X138077Y227184D01*
X143838Y226980D01*
D02*
G37*
G36*
X223491Y75037D02*
X225500Y74498D01*
X227421Y73702D01*
X229223Y72662D01*
X230873Y71395D01*
X231608Y70660D01*
X232344Y69925D01*
X233610Y68275D01*
X234650Y66473D01*
X235446Y64552D01*
X235985Y62542D01*
X236256Y60480D01*
X236256Y58400D01*
X235985Y56338D01*
X235446Y54329D01*
X234650Y52407D01*
X233610Y50606D01*
X232344Y48956D01*
X231608Y48220D01*
X231608D01*
X230873Y47485D01*
X229223Y46218D01*
X227421Y45178D01*
X225500Y44382D01*
X223490Y43844D01*
X221428Y43572D01*
X219348Y43572D01*
X217286Y43844D01*
X215277Y44382D01*
X213355Y45178D01*
X211554Y46218D01*
X209904Y47485D01*
X209168Y48220D01*
X208433Y48956D01*
X207166Y50606D01*
X206126Y52407D01*
X205330Y54329D01*
X204792Y56338D01*
X204520Y58400D01*
X204520Y60480D01*
X204792Y62542D01*
X205330Y64552D01*
X206126Y66473D01*
X207166Y68275D01*
X208433Y69925D01*
X209168Y70660D01*
X209904Y71395D01*
X211554Y72662D01*
X213355Y73702D01*
X215277Y74498D01*
X217286Y75037D01*
X219348Y75308D01*
X221428D01*
X223491Y75037D01*
D02*
G37*
G36*
X144167Y40123D02*
X146176Y39585D01*
X148098Y38789D01*
X149899Y37749D01*
X151549Y36483D01*
X153020Y35012D01*
X154286Y33362D01*
X155326Y31561D01*
X156122Y29639D01*
X156661Y27630D01*
X156932Y25567D01*
X156932Y24527D01*
X156932Y23487D01*
X156661Y21425D01*
X156122Y19416D01*
X155326Y17494D01*
X154286Y15693D01*
X153020Y14043D01*
X151549Y12572D01*
X149899Y11306D01*
X148098Y10266D01*
X146176Y9470D01*
X144167Y8932D01*
X142105Y8660D01*
X141065Y8660D01*
X141065D01*
X140025Y8660D01*
X137962Y8932D01*
X135953Y9470D01*
X134032Y10266D01*
X132230Y11306D01*
X130580Y12572D01*
X129109Y14043D01*
X127843Y15693D01*
X126803Y17494D01*
X126007Y19416D01*
X125469Y21425D01*
X125197Y23487D01*
X125197Y24527D01*
X125197Y25567D01*
X125469Y27630D01*
X126007Y29639D01*
X126803Y31561D01*
X127843Y33362D01*
X129109Y35012D01*
X130580Y36483D01*
X132230Y37749D01*
X134032Y38789D01*
X135953Y39585D01*
X137962Y40123D01*
X140025Y40395D01*
X141065Y40395D01*
X142105Y40395D01*
X144167Y40123D01*
D02*
G37*
G36*
X63811Y70921D02*
X65820Y70382D01*
X67742Y69586D01*
X69543Y68546D01*
X71193Y67280D01*
X71928Y66544D01*
X72664Y65809D01*
X73930Y64159D01*
X74970Y62358D01*
X75766Y60436D01*
X76305Y58427D01*
X76576Y56365D01*
X76576Y54284D01*
X76305Y52222D01*
X75766Y50213D01*
X74970Y48291D01*
X73930Y46490D01*
X72664Y44840D01*
X71928Y44104D01*
X71193Y43369D01*
X69543Y42103D01*
X67742Y41063D01*
X65820Y40266D01*
X63811Y39728D01*
X61748Y39456D01*
X59668Y39456D01*
X57606Y39728D01*
X55597Y40266D01*
X53675Y41063D01*
X51874Y42103D01*
X50224Y43369D01*
X49488Y44104D01*
X48753Y44840D01*
X47487Y46490D01*
X46446Y48291D01*
X45650Y50213D01*
X45112Y52222D01*
X44840Y54284D01*
X44840Y56365D01*
X45112Y58427D01*
X45650Y60436D01*
X46446Y62358D01*
X47487Y64159D01*
X48753Y65809D01*
X49488Y66544D01*
X50224Y67280D01*
X51874Y68546D01*
X53675Y69586D01*
X55597Y70382D01*
X57606Y70921D01*
X59668Y71192D01*
X61748Y71193D01*
X63811Y70921D01*
D02*
G37*
%LPC*%
G36*
X125197Y250993D02*
Y250993D01*
D01*
Y250993D01*
D02*
G37*
G36*
X138783Y212170D02*
X133418Y211997D01*
X128078Y211445D01*
X122790Y210517D01*
X117581Y209216D01*
X112478Y207551D01*
X107505Y205529D01*
X102687Y203159D01*
X98049Y200455D01*
X93615Y197430D01*
X89405Y194098D01*
X85442Y190477D01*
X81745Y186584D01*
X78332Y182440D01*
X75222Y178065D01*
X72428Y173480D01*
X69966Y168709D01*
X67848Y163776D01*
X66084Y158706D01*
X64684Y153523D01*
X63653Y148255D01*
X62998Y142926D01*
X62721Y137565D01*
X62825Y132197D01*
X63308Y126851D01*
X64168Y121552D01*
X65401Y116326D01*
X67001Y111202D01*
X68959Y106203D01*
X71266Y101356D01*
X73910Y96683D01*
X76878Y92210D01*
X80155Y87958D01*
X83725Y83948D01*
X87569Y80201D01*
X91669Y76736D01*
X96004Y73569D01*
X100552Y70717D01*
X105291Y68193D01*
X110196Y66012D01*
X115244Y64183D01*
X120408Y62715D01*
X125663Y61617D01*
X130982Y60893D01*
X136339Y60547D01*
X141708Y60582D01*
X147060Y60996D01*
X152370Y61788D01*
X157611Y62953D01*
X162756Y64486D01*
X167779Y66380D01*
X172656Y68624D01*
X177362Y71208D01*
X181873Y74118D01*
X186167Y77340D01*
X190223Y80858D01*
X194019Y84654D01*
X197537Y88709D01*
X200760Y93002D01*
X203670Y97514D01*
X206254Y102219D01*
X208499Y107096D01*
X210393Y112119D01*
X211927Y117264D01*
X213093Y122504D01*
X213885Y127814D01*
X214300Y133166D01*
X214335Y138535D01*
X213990Y143892D01*
X213266Y149212D01*
X212169Y154467D01*
X210702Y159631D01*
X208873Y164679D01*
X206692Y169584D01*
X204169Y174323D01*
X202743Y176597D01*
X167539D01*
X167539Y206354D01*
X165059Y207382D01*
X159966Y209080D01*
X154766Y210414D01*
X149484Y211376D01*
X144148Y211963D01*
X138783Y212170D01*
D02*
G37*
%LPD*%
G36*
X172744Y165996D02*
X172744Y165996D01*
X173331Y165989D01*
X173723Y165980D01*
X174376Y165952D01*
X175028Y165912D01*
X175353Y165885D01*
X175647Y165861D01*
X176233Y165798D01*
X176817Y165721D01*
X177399Y165629D01*
X177689Y165576D01*
X177950Y165529D01*
X178469Y165418D01*
X178984Y165291D01*
X179496Y165149D01*
X179749Y165070D01*
X179979Y164999D01*
X180432Y164839D01*
X180879Y164663D01*
X181319Y164470D01*
X181535Y164366D01*
X181733Y164270D01*
X182121Y164061D01*
X182500Y163836D01*
X182868Y163593D01*
X183046Y163464D01*
X183379Y163225D01*
X183992Y162682D01*
X184546Y162078D01*
X185035Y161420D01*
X185244Y161068D01*
Y161068D01*
X185349Y160890D01*
X185539Y160525D01*
X185712Y160150D01*
X185738Y160083D01*
X185931Y159573D01*
X185931D01*
X186095Y159050D01*
X186286Y158255D01*
X186424Y157354D01*
X186487Y156445D01*
X186481Y155990D01*
X186481Y155906D01*
X186478Y155739D01*
X186473Y155573D01*
X186466Y155406D01*
X186460Y155323D01*
X186451Y155163D01*
X186421Y154845D01*
X186380Y154528D01*
X186328Y154213D01*
X186297Y154056D01*
X186198Y153539D01*
X185860Y152541D01*
X185390Y151598D01*
X184797Y150728D01*
X184443Y150337D01*
X184289Y150165D01*
X183959Y149842D01*
X183609Y149540D01*
X183242Y149260D01*
X183050Y149132D01*
X182916Y149043D01*
X182641Y148874D01*
X182361Y148715D01*
X182074Y148568D01*
X181928Y148499D01*
X181852Y148463D01*
X181699Y148394D01*
X181544Y148328D01*
X181388Y148264D01*
X181310Y148234D01*
Y148234D01*
X181229Y148202D01*
X181065Y148142D01*
X180901Y148084D01*
X180736Y148029D01*
X180567Y147975D01*
X180484Y147950D01*
X179956Y147804D01*
X179956Y147804D01*
X179952Y147803D01*
Y147803D01*
X179426Y147681D01*
X179397Y147675D01*
X179020Y147602D01*
X178642Y147538D01*
X178452Y147512D01*
X178452Y147454D01*
X178453Y147453D01*
X178992Y147378D01*
X178997Y147377D01*
X179214Y147342D01*
X179427Y147305D01*
X179430Y147305D01*
X179962Y147199D01*
Y147199D01*
X179967Y147198D01*
X179967Y147198D01*
X180500Y147074D01*
X180640Y147038D01*
X180835Y146985D01*
X180932Y146958D01*
X181026Y146931D01*
X181211Y146875D01*
X181396Y146816D01*
X181580Y146754D01*
X181759Y146691D01*
X181934Y146626D01*
X182108Y146558D01*
X182281Y146488D01*
X182366Y146451D01*
X182529Y146382D01*
X182850Y146232D01*
X183147Y146079D01*
X183624Y145805D01*
X184089Y145501D01*
X184246Y145392D01*
X184636Y145083D01*
X185006Y144750D01*
X185181Y144573D01*
X185458Y144291D01*
X185951Y143672D01*
X186378Y143006D01*
X186734Y142299D01*
X186875Y141929D01*
X186933Y141778D01*
X187035Y141472D01*
X187126Y141162D01*
X187204Y140848D01*
X187237Y140690D01*
X187289Y140437D01*
X187366Y139926D01*
X187417Y139412D01*
X187441Y138896D01*
X187440Y138637D01*
X187440Y138517D01*
X187436Y138277D01*
X187428Y138038D01*
X187415Y137798D01*
X187398Y137564D01*
X187377Y137335D01*
X187352Y137108D01*
X187322Y136880D01*
X187288Y136658D01*
X187250Y136441D01*
X187208Y136225D01*
X187161Y136010D01*
X187135Y135904D01*
X186975Y135201D01*
X186411Y133876D01*
X185621Y132672D01*
X184628Y131628D01*
X184047Y131203D01*
X183961Y131140D01*
X183787Y131019D01*
X183609Y130903D01*
X183428Y130792D01*
X183335Y130739D01*
X183241Y130685D01*
X183049Y130583D01*
X182854Y130485D01*
X182657Y130393D01*
X182557Y130349D01*
X182454Y130304D01*
X182245Y130219D01*
X182033Y130138D01*
X181820Y130063D01*
X181713Y130027D01*
X181600Y129990D01*
X181374Y129921D01*
X181146Y129856D01*
X180916Y129796D01*
X180801Y129768D01*
X180680Y129738D01*
X180436Y129683D01*
X180192Y129632D01*
X179946Y129585D01*
X179693Y129541D01*
X179432Y129499D01*
X179171Y129461D01*
X178909Y129426D01*
X178778Y129411D01*
X178639Y129394D01*
X178362Y129364D01*
X178084Y129336D01*
X177805Y129312D01*
X177666Y129301D01*
X177519Y129290D01*
X177225Y129270D01*
X176930Y129252D01*
X176635Y129237D01*
X176488Y129231D01*
X176168Y129218D01*
X175529Y129198D01*
X174890Y129186D01*
X174250Y129181D01*
X173930Y129181D01*
X156702D01*
Y165996D01*
X172744Y165996D01*
X172744Y165996D01*
D02*
G37*
G36*
X152864Y129662D02*
X152521Y129181D01*
X141160D01*
X139070Y136925D01*
X127708D01*
X125560Y129181D01*
X114539D01*
X114196Y129662D01*
X126577Y165996D01*
X140428D01*
X152864Y129662D01*
D02*
G37*
G36*
X119313Y157345D02*
X99653D01*
Y150846D01*
X112238D01*
Y142199D01*
X99653D01*
Y129180D01*
X88173D01*
Y165994D01*
X119313D01*
Y157345D01*
D02*
G37*
G36*
X104332Y118498D02*
X105030Y118345D01*
X105706Y118116D01*
X106030Y117964D01*
X106384Y117791D01*
X107036Y117348D01*
X107618Y116815D01*
X108118Y116205D01*
X108524Y115529D01*
X108830Y114802D01*
X109028Y114039D01*
X109115Y113255D01*
X109102Y112861D01*
X109102D01*
Y111901D01*
X105370D01*
X105370Y112861D01*
X105368Y112989D01*
X105341Y113243D01*
X105285Y113493D01*
X105200Y113734D01*
X105147Y113851D01*
X105024Y114059D01*
X104707Y114424D01*
X104311Y114700D01*
X103859Y114872D01*
X103621Y114916D01*
X103577Y114921D01*
X103488Y114931D01*
X103398Y114937D01*
X103309Y114940D01*
X103264Y114941D01*
X103136Y114938D01*
X102880Y114912D01*
X102629Y114857D01*
X102386Y114775D01*
X102268Y114723D01*
X102058Y114605D01*
X101688Y114295D01*
X101406Y113903D01*
X101229Y113454D01*
X101184Y113217D01*
X101178Y113173D01*
X101168Y113084D01*
X101161Y112995D01*
X101158Y112905D01*
X101158Y112861D01*
Y112861D01*
X101158Y105078D01*
X101160Y104950D01*
X101187Y104695D01*
X101243Y104446D01*
X101328Y104204D01*
X101381Y104088D01*
Y104088D01*
X101504Y103879D01*
X101821Y103515D01*
X102217Y103238D01*
X102669Y103066D01*
X102907Y103023D01*
X102951Y103017D01*
X103041Y103008D01*
X103130Y103001D01*
X103219Y102998D01*
X103264Y102998D01*
X103393Y103000D01*
X103648Y103026D01*
X103899Y103081D01*
X104142Y103164D01*
X104260Y103215D01*
X104470Y103334D01*
X104840Y103644D01*
X105122Y104035D01*
X105299Y104484D01*
X105344Y104721D01*
X105350Y104766D01*
X105360Y104855D01*
X105367Y104944D01*
X105370Y105033D01*
X105370Y105078D01*
X105370Y105078D01*
Y106037D01*
X109102D01*
X109102Y105078D01*
X109106Y104728D01*
X109031Y104032D01*
X108875Y103349D01*
X108641Y102690D01*
X108486Y102376D01*
Y102376D01*
X108235Y101882D01*
X107544Y101019D01*
X106691Y100314D01*
X105713Y99798D01*
X105181Y99645D01*
X104948Y99576D01*
X104473Y99473D01*
X103992Y99404D01*
X103507Y99371D01*
X103264Y99372D01*
X102907Y99368D01*
X102196Y99441D01*
X101498Y99593D01*
X100822Y99822D01*
X100498Y99975D01*
X100144Y100147D01*
X99492Y100591D01*
X98910Y101123D01*
X98410Y101734D01*
X98004Y102409D01*
X97698Y103136D01*
X97500Y103900D01*
X97413Y104684D01*
X97426Y105078D01*
X97426Y105078D01*
X97426Y112861D01*
X97422Y113211D01*
X97497Y113907D01*
X97653Y114589D01*
X97887Y115249D01*
X98042Y115563D01*
X98293Y116056D01*
X98984Y116920D01*
X99837Y117624D01*
X100815Y118140D01*
X101347Y118293D01*
X101580Y118362D01*
X102055Y118466D01*
X102536Y118535D01*
X103021Y118568D01*
X103264Y118567D01*
Y118567D01*
X103621Y118570D01*
X104332Y118498D01*
D02*
G37*
G36*
X163208Y120643D02*
X163330Y120644D01*
X163571Y120618D01*
X163808Y120564D01*
X164037Y120482D01*
X164146Y120429D01*
X164391Y120304D01*
X164793Y119927D01*
X165074Y119454D01*
X165213Y118921D01*
X165206Y118646D01*
X165207Y118524D01*
X165181Y118283D01*
X165126Y118046D01*
X165045Y117817D01*
X164991Y117708D01*
X164866Y117463D01*
X164490Y117061D01*
X164016Y116779D01*
X163483Y116640D01*
X163208Y116648D01*
X163087Y116647D01*
X162846Y116673D01*
X162609Y116727D01*
X162381Y116809D01*
X162272Y116862D01*
X162272D01*
X162027Y116987D01*
X161624Y117364D01*
X161343Y117837D01*
X161203Y118370D01*
X161210Y118646D01*
X161209Y118767D01*
X161236Y119009D01*
X161290Y119245D01*
X161372Y119474D01*
X161425Y119583D01*
X161551Y119828D01*
X161927Y120230D01*
X162400Y120511D01*
X162933Y120650D01*
X163208Y120643D01*
D02*
G37*
G36*
X140822Y115899D02*
X141328Y115905D01*
X142323Y115722D01*
X143264Y115350D01*
X144116Y114803D01*
X144481Y114453D01*
X144837Y114105D01*
X145395Y113281D01*
X145778Y112362D01*
X145969Y111386D01*
X145965Y110888D01*
X145965D01*
Y109929D01*
X142392D01*
X142392Y110888D01*
X142363Y111194D01*
X142130Y111757D01*
X141695Y112186D01*
X141128Y112410D01*
X140822Y112434D01*
X140699Y112431D01*
X140455Y112394D01*
X140221Y112321D01*
X140000Y112211D01*
X139897Y112144D01*
X139758Y112027D01*
X139524Y111749D01*
X139363Y111424D01*
X139284Y111070D01*
X139276Y110888D01*
Y110888D01*
X139276Y104358D01*
X139304Y104057D01*
X139533Y103502D01*
X139962Y103081D01*
X140521Y102861D01*
X140822Y102838D01*
X141004Y102847D01*
X141361Y102926D01*
X141689Y103085D01*
X141972Y103316D01*
X142092Y103454D01*
X142092Y103454D01*
X142161Y103554D01*
X142273Y103768D01*
X142349Y103998D01*
X142387Y104237D01*
X142392Y104358D01*
X142392D01*
X142392Y105317D01*
X145965D01*
X145965Y104358D01*
X145965Y103857D01*
X145766Y102874D01*
X145376Y101951D01*
X144810Y101124D01*
X144090Y100427D01*
X143246Y99886D01*
X142311Y99525D01*
X141323Y99357D01*
X140822Y99374D01*
X140415Y99369D01*
X139609Y99486D01*
X138831Y99726D01*
X138098Y100082D01*
X137764Y100314D01*
X137280Y100657D01*
X136504Y101554D01*
X135966Y102610D01*
X135696Y103765D01*
X135703Y104358D01*
Y104358D01*
X135703Y110888D01*
X135699Y111390D01*
X135893Y112373D01*
X136278Y113299D01*
X136841Y114129D01*
X137557Y114830D01*
X138399Y115375D01*
X139333Y115741D01*
X140321Y115913D01*
X140822Y115899D01*
D02*
G37*
G36*
X172779Y115900D02*
X173285Y115906D01*
X174281Y115723D01*
X175223Y115351D01*
X176018Y114840D01*
X176440Y114454D01*
X176440Y114454D01*
X176440Y114454D01*
X176846Y114031D01*
X177353Y113282D01*
X177735Y112363D01*
X177909Y111474D01*
X177922Y110889D01*
X177922Y110889D01*
X177922Y110889D01*
X177922Y104359D01*
X177923Y103857D01*
X177725Y102875D01*
X177334Y101951D01*
X176768Y101124D01*
X176048Y100426D01*
X175204Y99885D01*
X174269Y99524D01*
X173280Y99356D01*
X172779Y99372D01*
X172372Y99368D01*
X171566Y99485D01*
X170788Y99724D01*
X170189Y100016D01*
X169721Y100313D01*
Y100313D01*
X169721Y100313D01*
X169237Y100656D01*
X168462Y101554D01*
X167923Y102611D01*
X167653Y103766D01*
X167660Y104359D01*
X167656Y104648D01*
X167720Y105224D01*
X167853Y105788D01*
X168055Y106331D01*
X168188Y106589D01*
X168188D01*
X168395Y106974D01*
X168956Y107647D01*
X169640Y108194D01*
X170419Y108594D01*
X170840Y108712D01*
X171014Y108763D01*
X171369Y108839D01*
X171729Y108890D01*
X172090Y108915D01*
X172272Y108915D01*
X172346Y108915D01*
X172495Y108911D01*
X172643Y108903D01*
X172792Y108893D01*
X172866Y108886D01*
X172974Y108875D01*
X173190Y108848D01*
X173405Y108814D01*
X173618Y108773D01*
X173725Y108749D01*
X173761Y108741D01*
X173779Y108737D01*
X173781Y108737D01*
X173885Y108711D01*
X174351Y108569D01*
X174352Y108569D01*
X174352Y108569D01*
X174352Y109186D01*
X174352Y110889D01*
X174323Y111195D01*
X174088Y111758D01*
X173653Y112187D01*
X173085Y112411D01*
X172779Y112435D01*
X172656Y112431D01*
X172413Y112395D01*
X172178Y112321D01*
X171958Y112212D01*
X171855Y112144D01*
X171715Y112028D01*
X171482Y111750D01*
X171320Y111425D01*
X171241Y111071D01*
X171233Y110889D01*
Y109930D01*
X167660D01*
X167660Y110889D01*
X167657Y111390D01*
X167850Y112374D01*
X168236Y113300D01*
X168798Y114130D01*
X169515Y114831D01*
X170357Y115376D01*
X171290Y115741D01*
X172278Y115914D01*
X172779Y115900D01*
D02*
G37*
G36*
X164995Y99641D02*
X161422D01*
Y115635D01*
X164995D01*
Y99641D01*
D02*
G37*
G36*
X120908Y112167D02*
X115125Y103105D01*
X120908D01*
Y99641D01*
X111100D01*
Y103105D01*
X116885Y112167D01*
X111100D01*
Y115635D01*
X120908D01*
Y112167D01*
D02*
G37*
G36*
X152068Y115578D02*
X152068Y115578D01*
X152110Y115595D01*
X152195Y115626D01*
X152281Y115655D01*
X152367Y115682D01*
X152411Y115694D01*
X152434Y115700D01*
X152481Y115713D01*
X152527Y115725D01*
X152574Y115736D01*
X152597Y115742D01*
X152621Y115747D01*
X152670Y115758D01*
X152718Y115769D01*
X152767Y115779D01*
X152791Y115783D01*
X152841Y115793D01*
X152942Y115811D01*
X153042Y115827D01*
X153144Y115841D01*
X153194Y115847D01*
X153296Y115860D01*
X153500Y115879D01*
X153705Y115892D01*
X153910Y115898D01*
X154013Y115898D01*
Y115898D01*
X154300Y115901D01*
X154871Y115842D01*
X155433Y115721D01*
X155977Y115538D01*
X156238Y115417D01*
X156819Y115140D01*
X157776Y114277D01*
X158447Y113178D01*
X158776Y111933D01*
X158757Y111289D01*
X158757Y99640D01*
X155189D01*
X155189Y110887D01*
X155189Y110887D01*
X155160Y111193D01*
X154925Y111758D01*
X154489Y112186D01*
X153920Y112410D01*
X153614Y112433D01*
X153491Y112430D01*
X153247Y112394D01*
X153013Y112320D01*
X152792Y112211D01*
X152689Y112143D01*
X152689Y112143D01*
X152549Y112027D01*
X152316Y111749D01*
X152155Y111424D01*
X152075Y111069D01*
X152068Y110887D01*
Y99640D01*
X148495D01*
Y120964D01*
X152068D01*
X152068Y115578D01*
D02*
G37*
G36*
X127892Y115900D02*
Y115900D01*
X128479Y115891D01*
X129395Y115723D01*
X130337Y115351D01*
X131190Y114804D01*
X131555Y114454D01*
X131911Y114106D01*
X132469Y113282D01*
X132851Y112363D01*
X133042Y111387D01*
X133038Y110889D01*
X133038D01*
Y106172D01*
X126346D01*
Y104359D01*
X126374Y104058D01*
X126604Y103503D01*
X127032Y103082D01*
X127591Y102862D01*
X127892Y102839D01*
X128075Y102848D01*
X128433Y102927D01*
X128762Y103086D01*
X129046Y103317D01*
X129166Y103455D01*
X129235Y103555D01*
X129348Y103769D01*
X129425Y103999D01*
X129463Y104238D01*
X129467Y104359D01*
X129467Y104359D01*
Y105051D01*
X132620D01*
X133038Y104634D01*
X133038Y104359D01*
X133038Y103857D01*
X132840Y102874D01*
X132449Y101951D01*
X131883Y101123D01*
X131163Y100425D01*
X130318Y99885D01*
X129382Y99523D01*
X128393Y99356D01*
X127892Y99372D01*
X127485Y99368D01*
X126680Y99485D01*
X125902Y99725D01*
X125171Y100081D01*
X124837Y100314D01*
X124353Y100657D01*
X123577Y101554D01*
X123039Y102611D01*
X122769Y103766D01*
X122776Y104359D01*
X122776Y104359D01*
X122776Y110889D01*
X122772Y111390D01*
X122966Y112374D01*
X123351Y113299D01*
X123913Y114129D01*
X124629Y114831D01*
X125471Y115375D01*
X126404Y115741D01*
X127315Y115900D01*
X127892Y115900D01*
D02*
G37*
%LPC*%
G36*
X171934Y157858D02*
X171737Y157856D01*
X171737Y157856D01*
X171737Y157856D01*
X166832D01*
Y151185D01*
X171737D01*
X171840Y151185D01*
X172047Y151189D01*
X172254Y151197D01*
X172461Y151210D01*
X172564Y151219D01*
X172657Y151226D01*
X172843Y151247D01*
X173028Y151272D01*
X173213Y151301D01*
X173305Y151319D01*
X173388Y151334D01*
X173552Y151371D01*
X173716Y151413D01*
X173878Y151460D01*
X173958Y151486D01*
X174031Y151509D01*
X174174Y151562D01*
X174316Y151621D01*
X174455Y151684D01*
X174523Y151719D01*
X174708Y151809D01*
X175045Y152041D01*
X175344Y152321D01*
X175597Y152642D01*
X175698Y152820D01*
X175731Y152880D01*
X175792Y153002D01*
X175846Y153127D01*
X175894Y153255D01*
X175916Y153320D01*
X175961Y153466D01*
X176028Y153763D01*
X176072Y154064D01*
X176092Y154368D01*
X176089Y154520D01*
X176090Y154600D01*
X176084Y154759D01*
X176074Y154917D01*
X176057Y155075D01*
X176036Y155226D01*
X176009Y155369D01*
X175977Y155511D01*
X175938Y155651D01*
X175916Y155721D01*
X175875Y155849D01*
X175768Y156097D01*
X175636Y156332D01*
X175482Y156553D01*
X175394Y156655D01*
X175349Y156705D01*
X175256Y156802D01*
X175158Y156894D01*
X175056Y156981D01*
X175002Y157022D01*
X174946Y157064D01*
X174830Y157145D01*
X174710Y157220D01*
X174587Y157290D01*
X174523Y157322D01*
X174455Y157356D01*
X174316Y157420D01*
X174174Y157479D01*
X174031Y157532D01*
X173958Y157555D01*
Y157555D01*
X173878Y157581D01*
X173716Y157628D01*
X173552Y157670D01*
X173388Y157707D01*
X173305Y157722D01*
X173111Y157757D01*
X172720Y157809D01*
X172327Y157843D01*
X172322Y157843D01*
X171934Y157858D01*
D02*
G37*
G36*
X171477Y143216D02*
X171274Y143215D01*
X171274D01*
X171274Y143215D01*
X171274Y143215D01*
X166832D01*
Y136489D01*
X171274D01*
X171379Y136488D01*
X171590Y136493D01*
X171800Y136501D01*
X172009Y136514D01*
X172114Y136523D01*
X172212Y136531D01*
X172406Y136551D01*
X172600Y136577D01*
X172793Y136607D01*
X172889Y136624D01*
X172978Y136641D01*
X173156Y136678D01*
X173332Y136720D01*
X173507Y136768D01*
X173594Y136794D01*
Y136794D01*
X173674Y136818D01*
X173834Y136872D01*
X173991Y136932D01*
X174146Y136996D01*
X174223Y137031D01*
X174294Y137064D01*
X174434Y137135D01*
X174571Y137211D01*
X174705Y137293D01*
X174770Y137337D01*
X174953Y137455D01*
X175280Y137746D01*
X175559Y138082D01*
X175784Y138457D01*
X175867Y138659D01*
X175924Y138804D01*
X176009Y139105D01*
X176065Y139412D01*
X176091Y139723D01*
X176089Y139879D01*
X176099Y140176D01*
X175996Y140761D01*
X175774Y141313D01*
X175443Y141806D01*
X175230Y142014D01*
X175177Y142065D01*
X175066Y142162D01*
X174951Y142253D01*
X174831Y142340D01*
X174770Y142380D01*
X174706Y142422D01*
X174705Y142423D01*
X174705Y142423D01*
X174571Y142504D01*
X174571Y142504D01*
X174434Y142579D01*
X174433Y142579D01*
X174294Y142649D01*
X174223Y142681D01*
Y142681D01*
X174146Y142715D01*
X173992Y142779D01*
X173991Y142779D01*
X173834Y142837D01*
X173834Y142837D01*
X173674Y142890D01*
X173594Y142914D01*
X173507Y142940D01*
X173332Y142987D01*
X173156Y143028D01*
X172978Y143065D01*
X172889Y143081D01*
X172689Y143116D01*
X172287Y143167D01*
X171882Y143200D01*
X171820Y143203D01*
X171477Y143216D01*
D02*
G37*
G36*
X133472Y157895D02*
X133361D01*
X133115Y156919D01*
X133115D01*
X133115Y156919D01*
X133115D01*
X132981Y156385D01*
X131836Y151846D01*
X129743Y144385D01*
X137093D01*
X135055Y151790D01*
X133863Y156388D01*
X133725Y156922D01*
X133725Y156922D01*
X133725Y156922D01*
X133725D01*
X133472Y157895D01*
D02*
G37*
G36*
X173091Y105912D02*
X172779Y105905D01*
X172656Y105906D01*
X172412Y105870D01*
X172176Y105796D01*
X171955Y105686D01*
X171855Y105614D01*
X171708Y105506D01*
X171473Y105226D01*
X171310Y104898D01*
X171230Y104541D01*
X171233Y104359D01*
X171231Y104052D01*
X171465Y103486D01*
X171903Y103056D01*
X172473Y102831D01*
X172779Y102839D01*
X172963Y102837D01*
X173322Y102917D01*
X173653Y103077D01*
X173939Y103309D01*
X174051Y103455D01*
X174124Y103552D01*
X174237Y103767D01*
X174314Y103997D01*
X174352Y104237D01*
X174352Y104359D01*
X174352Y104359D01*
X174354Y104670D01*
X174254Y104909D01*
X174114Y105245D01*
X173670Y105682D01*
X173091Y105912D01*
D02*
G37*
G36*
X128204Y112443D02*
X127892Y112435D01*
X127769Y112436D01*
X127525Y112400D01*
X127289Y112326D01*
X127068Y112216D01*
X126968Y112144D01*
X126821Y112036D01*
X126585Y111756D01*
X126423Y111429D01*
X126343Y111072D01*
X126346Y110889D01*
Y109103D01*
X129467D01*
X129467Y110889D01*
X129469Y111201D01*
X129229Y111777D01*
X128784Y112214D01*
X128204Y112443D01*
D02*
G37*
G36*
X125197Y24527D02*
D01*
Y24527D01*
Y24527D01*
D02*
G37*
%LPD*%
D10*
X260907Y140348D02*
G03*
X260907Y140348I-9843J0D01*
G01*
X241297Y133707D02*
G03*
X241297Y146990I9767J6641D01*
G01*
X230229Y59440D02*
G03*
X230229Y59440I-9843J0D01*
G01*
X208784Y61650D02*
G03*
X218176Y71043I11602J-2210D01*
G01*
X150906Y24527D02*
G03*
X150906Y24527I-9843J0D01*
G01*
X134422Y34294D02*
G03*
X147704Y34294I6641J-9767D01*
G01*
X70549Y55325D02*
G03*
X70549Y55325I-9843J0D01*
G01*
X62917Y66927D02*
G03*
X72309Y57534I-2210J-11602D01*
G01*
X34441Y140348D02*
G03*
X34441Y140348I-9843J0D01*
G01*
X34366Y146990D02*
G03*
X34366Y133707I-9767J-6641D01*
G01*
X70093Y219575D02*
G03*
X70093Y219575I-9843J0D01*
G01*
X71853Y217365D02*
G03*
X62461Y207973I-11602J2210D01*
G01*
X150906Y250993D02*
G03*
X150906Y250993I-9843J0D01*
G01*
X147705Y241226D02*
G03*
X134422Y241226I-6641J9767D01*
G01*
X241222Y133655D02*
Y147041D01*
X208694Y61667D02*
X218159Y71132D01*
X134370Y34370D02*
X147756D01*
X62934Y67017D02*
X72399Y57552D01*
X34441Y133655D02*
Y147041D01*
X62478Y207883D02*
X71943Y217348D01*
X134371Y241150D02*
X147756D01*
D11*
X106279Y261313D02*
X107031Y259245D01*
X116192Y234075D02*
X116950Y231994D01*
X107031Y259245D02*
X111656Y260929D01*
X120817Y235758D01*
X111568Y232392D02*
X120817Y235758D01*
X102407Y257562D02*
X111568Y232392D01*
X102407Y257562D02*
X107031Y259245D01*
X88233Y253035D02*
X92858Y254718D01*
X88233Y253035D02*
X97395Y227864D01*
X106644Y231231D01*
X97482Y256401D02*
X106644Y231231D01*
X92858Y254718D02*
X97482Y256401D01*
X102019Y229547D02*
X102776Y227467D01*
X92105Y256785D02*
X92858Y254718D01*
X75438Y247129D02*
X80063Y248812D01*
X75438Y247129D02*
X84599Y221959D01*
X93848Y225325D01*
X84687Y250496D02*
X93848Y225325D01*
X80063Y248812D02*
X84687Y250496D01*
X89224Y223642D02*
X89981Y221561D01*
X79310Y250880D02*
X80063Y248812D01*
D12*
X242126Y204724D02*
Y220472D01*
X234252Y204724D02*
X242126D01*
X234252D02*
Y220472D01*
X242126D01*
X232283Y204724D02*
Y220472D01*
X224410Y204724D02*
X232283D01*
X224410D02*
Y220472D01*
X232283D01*
D13*
X275591Y137795D02*
G03*
X275591Y137795I-137795J0D01*
G01*
M02*
