G04*
G04 #@! TF.GenerationSoftware,Altium Limited,Altium Designer,25.0.2 (28)*
G04*
G04 Layer_Color=128*
%FSLAX25Y25*%
%MOIN*%
G70*
G04*
G04 #@! TF.SameCoordinates,12EFF0D5-E88D-419E-9C59-EC29542AE5DB*
G04*
G04*
G04 #@! TF.FilePolarity,Positive*
G04*
G01*
G75*
%ADD13C,0.01000*%
%ADD41C,0.00200*%
D13*
X275591Y137795D02*
G03*
X275591Y137795I-137795J0D01*
G01*
D41*
X116674Y228156D02*
X120020D01*
X118347Y226482D02*
Y229829D01*
X103208Y265151D02*
X106555D01*
X104882Y263478D02*
Y266825D01*
X132874Y266732D02*
X142717D01*
X137795Y261811D02*
Y271654D01*
X178347Y176181D02*
X181890D01*
X180118Y174409D02*
Y177953D01*
X99606Y176181D02*
X103150D01*
X101378Y174409D02*
Y177953D01*
X236910Y202598D02*
X239469D01*
X238189Y201319D02*
Y203878D01*
X236910Y222598D02*
X239469D01*
X238189Y221319D02*
Y223878D01*
X161024Y125236D02*
X164567D01*
X162795Y123465D02*
Y127008D01*
X151024Y125236D02*
X154567D01*
X152795Y123465D02*
Y127008D01*
X141024Y125236D02*
X144567D01*
X142795Y123465D02*
Y127008D01*
X131024Y125236D02*
X134567D01*
X132795Y123465D02*
Y127008D01*
X121024Y125236D02*
X124567D01*
X122795Y123465D02*
Y127008D01*
X111024Y125236D02*
X114567D01*
X112795Y123465D02*
Y127008D01*
X101024Y125236D02*
X104567D01*
X102795Y123465D02*
Y127008D01*
X171024Y125236D02*
X174567D01*
X172795Y123465D02*
Y127008D01*
X171024Y95236D02*
X174567D01*
X172795Y93465D02*
Y97008D01*
X141024Y95236D02*
X144567D01*
X142795Y93465D02*
Y97008D01*
X151024Y95236D02*
X154567D01*
X152795Y93465D02*
Y97008D01*
X161024Y95236D02*
X164567D01*
X162795Y93465D02*
Y97008D01*
X131024Y95236D02*
X134567D01*
X132795Y93465D02*
Y97008D01*
X121024Y95236D02*
X124567D01*
X122795Y93465D02*
Y97008D01*
X111024Y95236D02*
X114567D01*
X112795Y93465D02*
Y97008D01*
X101024Y95236D02*
X104567D01*
X102795Y93465D02*
Y97008D01*
X89035Y260624D02*
X92382D01*
X90708Y258951D02*
Y262297D01*
X102500Y223628D02*
X105847D01*
X104174Y221955D02*
Y225301D01*
X227067Y202598D02*
X229626D01*
X228346Y201319D02*
Y203878D01*
X227067Y222598D02*
X229626D01*
X228346Y221319D02*
Y223878D01*
X214016Y226614D02*
X217559D01*
X215787Y224843D02*
Y228386D01*
X204016Y226614D02*
X207559D01*
X205787Y224843D02*
Y228386D01*
X194016Y226614D02*
X197559D01*
X195787Y224843D02*
Y228386D01*
X184016Y226614D02*
X187559D01*
X185787Y224843D02*
Y228386D01*
X214016Y196614D02*
X217559D01*
X215787Y194843D02*
Y198386D01*
X204016Y196614D02*
X207559D01*
X205787Y194843D02*
Y198386D01*
X194016Y196614D02*
X197559D01*
X195787Y194843D02*
Y198386D01*
X184016Y196614D02*
X187559D01*
X185787Y194843D02*
Y198386D01*
X244293Y140348D02*
X247836D01*
X246064Y138576D02*
Y142120D01*
X254293Y140348D02*
X257836D01*
X256064Y138576D02*
Y142120D01*
X215079Y62976D02*
X218622D01*
X216851Y61204D02*
Y64747D01*
X222150Y55905D02*
X225693D01*
X223922Y54133D02*
Y57676D01*
X139291Y29527D02*
X142835D01*
X141063Y27756D02*
Y31299D01*
X139291Y19527D02*
X142835D01*
X141063Y17756D02*
Y21299D01*
X62471Y58860D02*
X66014D01*
X64242Y57088D02*
Y60632D01*
X55399Y51789D02*
X58943D01*
X57171Y50017D02*
Y53561D01*
X27827Y140348D02*
X31370D01*
X29599Y138576D02*
Y142120D01*
X17827Y140348D02*
X21370D01*
X19599Y138576D02*
Y142120D01*
X62015Y216040D02*
X65558D01*
X63786Y214268D02*
Y217811D01*
X54944Y223111D02*
X58487D01*
X56715Y221339D02*
Y224883D01*
X139292Y245993D02*
X142835D01*
X141063Y244221D02*
Y247765D01*
X139292Y255993D02*
X142835D01*
X141063Y254221D02*
Y257765D01*
X76240Y254718D02*
X79586D01*
X77913Y253045D02*
Y256392D01*
X89705Y217723D02*
X93052D01*
X91378Y216049D02*
Y219396D01*
M02*
