G04*
G04 #@! TF.GenerationSoftware,Altium Limited,Altium Designer,25.0.2 (28)*
G04*
G04 Layer_Color=2752767*
%FSLAX25Y25*%
%MOIN*%
G70*
G04*
G04 #@! TF.SameCoordinates,12EFF0D5-E88D-419E-9C59-EC29542AE5DB*
G04*
G04*
G04 #@! TF.FilePolarity,Positive*
G04*
G01*
G75*
%ADD12C,0.00591*%
%ADD13C,0.01000*%
%ADD41C,0.00200*%
%ADD42C,0.00945*%
D12*
X484008Y60670D02*
G03*
X484008Y60670I-1750J0D01*
G01*
X477349Y80180D02*
X978734D01*
X477349Y48684D02*
X978734D01*
X477349Y40810D02*
X978734D01*
Y88054D01*
X477349D02*
X978734D01*
X477349Y40810D02*
Y88054D01*
X904896Y40810D02*
Y88054D01*
X859240Y40810D02*
Y88054D01*
X807155Y40810D02*
Y88054D01*
X767795Y40810D02*
Y88054D01*
X736622Y40810D02*
Y88054D01*
X657774Y40810D02*
Y88054D01*
X619045Y40810D02*
Y88054D01*
X592279Y40810D02*
Y88054D01*
X534422Y40810D02*
Y88054D01*
X506477Y40810D02*
Y88054D01*
X481383Y75543D02*
X482258Y74669D01*
X480508Y75543D02*
X481383D01*
X480508D02*
X481383Y76418D01*
X480508Y77293D02*
X481383Y76418D01*
X480508Y77293D02*
X481383D01*
X482258Y78168D01*
X483133Y77293D01*
X484008D01*
X483133Y76418D02*
X484008Y77293D01*
X483133Y76418D02*
X484008Y75543D01*
X483133D02*
X484008D01*
X482258Y74669D02*
X483133Y75543D01*
X482258Y66795D02*
X484008Y70294D01*
X480508D02*
X484008D01*
X480508D02*
X482258Y66795D01*
X480508Y51047D02*
X484008D01*
Y54546D01*
X480508D02*
X484008D01*
X480508Y51047D02*
Y54546D01*
X907259Y76243D02*
X909358D01*
X907259Y68369D02*
X909358D01*
X907259Y60495D02*
X909358D01*
X907259Y52621D02*
X909358D01*
X861602Y76243D02*
X863701D01*
X861602Y68369D02*
X863701D01*
X861602Y60495D02*
X863701D01*
X861602Y52621D02*
X863701D01*
X811616Y76768D02*
X810042D01*
X809517Y76243D01*
Y75193D01*
X810042Y74669D01*
X811616D01*
X812666Y77292D02*
X813190Y77817D01*
X814240D01*
X814765Y77292D01*
Y76768D01*
X814240Y76243D01*
X813715D01*
X814240D01*
X814765Y75718D01*
Y75193D01*
X814240Y74669D01*
X813190D01*
X812666Y75193D01*
X817913Y77817D02*
X815814D01*
Y76243D01*
X816864Y76768D01*
X817389D01*
X817913Y76243D01*
Y75193D01*
X817389Y74669D01*
X816339D01*
X815814Y75193D01*
X818963Y77292D02*
X819488Y77817D01*
X820537D01*
X821062Y77292D01*
Y75193D01*
X820537Y74669D01*
X819488D01*
X818963Y75193D01*
Y77292D01*
X822112Y77817D02*
Y74669D01*
Y76243D01*
X822636Y76768D01*
X823686D01*
X824210Y76243D01*
Y74669D01*
X827359D02*
X825260D01*
X827359Y76768D01*
Y77292D01*
X826834Y77817D01*
X825785D01*
X825260Y77292D01*
X830508Y77817D02*
X828409D01*
Y76243D01*
X829458Y76768D01*
X829983D01*
X830508Y76243D01*
Y75193D01*
X829983Y74669D01*
X828933D01*
X828409Y75193D01*
X831557Y77292D02*
X832082Y77817D01*
X833132D01*
X833656Y77292D01*
Y75193D01*
X833132Y74669D01*
X832082D01*
X831557Y75193D01*
Y77292D01*
X834706Y74669D02*
Y76768D01*
X835231D01*
X835755Y76243D01*
Y74669D01*
Y76243D01*
X836280Y76768D01*
X836805Y76243D01*
Y74669D01*
X839954D02*
X837854D01*
X839954Y76768D01*
Y77292D01*
X839429Y77817D01*
X838379D01*
X837854Y77292D01*
X841003Y77817D02*
X843102D01*
Y77292D01*
X841003Y75193D01*
Y74669D01*
X844152Y77292D02*
X844676Y77817D01*
X845726D01*
X846251Y77292D01*
Y75193D01*
X845726Y74669D01*
X844676D01*
X844152Y75193D01*
Y77292D01*
X847300Y74669D02*
Y76768D01*
X847825D01*
X848350Y76243D01*
Y74669D01*
Y76243D01*
X848874Y76768D01*
X849399Y76243D01*
Y74669D01*
X850449Y76768D02*
X852548Y74669D01*
X851498Y75718D01*
X852548Y76768D01*
X850449Y74669D01*
X853597Y77292D02*
X854122Y77817D01*
X855172D01*
X855696Y77292D01*
Y75193D01*
X855172Y74669D01*
X854122D01*
X853597Y75193D01*
Y77292D01*
X810567Y66795D02*
X809517Y67844D01*
Y68894D01*
X810567Y69943D01*
X812141Y66795D02*
Y69943D01*
X813190Y68894D01*
X814240Y69943D01*
Y66795D01*
X815289D02*
X816339D01*
X815814D01*
Y68894D01*
X815289D01*
X817913D02*
X820012Y66795D01*
X818963Y67844D01*
X820012Y68894D01*
X817913Y66795D01*
X822636D02*
X821587D01*
X821062Y67319D01*
Y68369D01*
X821587Y68894D01*
X822636D01*
X823161Y68369D01*
Y67844D01*
X821062D01*
X826310Y69943D02*
Y66795D01*
X824735D01*
X824210Y67319D01*
Y68369D01*
X824735Y68894D01*
X826310D01*
X827359Y66795D02*
X828409Y67844D01*
Y68894D01*
X827359Y69943D01*
X811616Y61020D02*
X810042D01*
X809517Y60495D01*
Y59445D01*
X810042Y58921D01*
X811616D01*
X812666D02*
X813715D01*
X813190D01*
Y62069D01*
X812666Y61544D01*
X816864Y58921D02*
Y62069D01*
X815289Y60495D01*
X817389D01*
X818438Y61544D02*
X818963Y62069D01*
X820012D01*
X820537Y61544D01*
Y59445D01*
X820012Y58921D01*
X818963D01*
X818438Y59445D01*
Y61544D01*
X821587Y62069D02*
Y58921D01*
Y60495D01*
X822112Y61020D01*
X823161D01*
X823686Y60495D01*
Y58921D01*
X824735Y61544D02*
X825260Y62069D01*
X826310D01*
X826834Y61544D01*
Y61020D01*
X826310Y60495D01*
X826834Y59970D01*
Y59445D01*
X826310Y58921D01*
X825260D01*
X824735Y59445D01*
Y59970D01*
X825260Y60495D01*
X824735Y61020D01*
Y61544D01*
X825260Y60495D02*
X826310D01*
X829983Y62069D02*
X827884D01*
Y60495D01*
X828933Y61020D01*
X829458D01*
X829983Y60495D01*
Y59445D01*
X829458Y58921D01*
X828409D01*
X827884Y59445D01*
X810567Y51047D02*
X809517Y52096D01*
Y53146D01*
X810567Y54195D01*
X812141Y51047D02*
Y54195D01*
X813190Y53146D01*
X814240Y54195D01*
Y51047D01*
X815289D02*
X816339D01*
X815814D01*
Y53146D01*
X815289D01*
X817913D02*
X820012Y51047D01*
X818963Y52096D01*
X820012Y53146D01*
X817913Y51047D01*
X822636D02*
X821587D01*
X821062Y51571D01*
Y52621D01*
X821587Y53146D01*
X822636D01*
X823161Y52621D01*
Y52096D01*
X821062D01*
X826310Y54195D02*
Y51047D01*
X824735D01*
X824210Y51571D01*
Y52621D01*
X824735Y53146D01*
X826310D01*
X827359Y51047D02*
X828409Y52096D01*
Y53146D01*
X827359Y54195D01*
X770158Y74669D02*
Y77817D01*
X771732D01*
X772257Y77292D01*
Y76243D01*
X771732Y75718D01*
X770158D01*
X771207D02*
X772257Y74669D01*
X773831D02*
X774881D01*
X775405Y75193D01*
Y76243D01*
X774881Y76768D01*
X773831D01*
X773306Y76243D01*
Y75193D01*
X773831Y74669D01*
X776455Y76768D02*
Y75193D01*
X776980Y74669D01*
X778554D01*
Y76768D01*
X779603Y74669D02*
Y76768D01*
X781178D01*
X781702Y76243D01*
Y74669D01*
X784851Y77817D02*
Y74669D01*
X783277D01*
X782752Y75193D01*
Y76243D01*
X783277Y76768D01*
X784851D01*
X787475Y74669D02*
X786425D01*
X785901Y75193D01*
Y76243D01*
X786425Y76768D01*
X787475D01*
X788000Y76243D01*
Y75718D01*
X785901D01*
X791148Y77817D02*
Y74669D01*
X789574D01*
X789049Y75193D01*
Y76243D01*
X789574Y76768D01*
X791148D01*
X771207Y66795D02*
X770158Y67844D01*
Y68894D01*
X771207Y69943D01*
X772781Y66795D02*
Y69943D01*
X773831Y68894D01*
X774881Y69943D01*
Y66795D01*
X775930D02*
X776980D01*
X776455D01*
Y68894D01*
X775930D01*
X778554D02*
X780653Y66795D01*
X779603Y67844D01*
X780653Y68894D01*
X778554Y66795D01*
X783277D02*
X782227D01*
X781702Y67319D01*
Y68369D01*
X782227Y68894D01*
X783277D01*
X783802Y68369D01*
Y67844D01*
X781702D01*
X786950Y69943D02*
Y66795D01*
X785376D01*
X784851Y67319D01*
Y68369D01*
X785376Y68894D01*
X786950D01*
X788000Y66795D02*
X789049Y67844D01*
Y68894D01*
X788000Y69943D01*
X770158Y58921D02*
Y62069D01*
X771732D01*
X772257Y61544D01*
Y60495D01*
X771732Y59970D01*
X770158D01*
X771207D02*
X772257Y58921D01*
X773831D02*
X774881D01*
X775405Y59445D01*
Y60495D01*
X774881Y61020D01*
X773831D01*
X773306Y60495D01*
Y59445D01*
X773831Y58921D01*
X776455Y61020D02*
Y59445D01*
X776980Y58921D01*
X778554D01*
Y61020D01*
X779603Y58921D02*
Y61020D01*
X781178D01*
X781702Y60495D01*
Y58921D01*
X784851Y62069D02*
Y58921D01*
X783277D01*
X782752Y59445D01*
Y60495D01*
X783277Y61020D01*
X784851D01*
X787475Y58921D02*
X786425D01*
X785901Y59445D01*
Y60495D01*
X786425Y61020D01*
X787475D01*
X788000Y60495D01*
Y59970D01*
X785901D01*
X791148Y62069D02*
Y58921D01*
X789574D01*
X789049Y59445D01*
Y60495D01*
X789574Y61020D01*
X791148D01*
X771207Y51047D02*
X770158Y52096D01*
Y53146D01*
X771207Y54195D01*
X772781Y51047D02*
Y54195D01*
X773831Y53146D01*
X774881Y54195D01*
Y51047D01*
X775930D02*
X776980D01*
X776455D01*
Y53146D01*
X775930D01*
X778554D02*
X780653Y51047D01*
X779603Y52096D01*
X780653Y53146D01*
X778554Y51047D01*
X783277D02*
X782227D01*
X781702Y51571D01*
Y52621D01*
X782227Y53146D01*
X783277D01*
X783802Y52621D01*
Y52096D01*
X781702D01*
X786950Y54195D02*
Y51047D01*
X785376D01*
X784851Y51571D01*
Y52621D01*
X785376Y53146D01*
X786950D01*
X788000Y51047D02*
X789049Y52096D01*
Y53146D01*
X788000Y54195D01*
X738984Y74669D02*
Y77817D01*
X740559D01*
X741083Y77292D01*
Y76243D01*
X740559Y75718D01*
X738984D01*
X742658Y76768D02*
X743707D01*
X744232Y76243D01*
Y74669D01*
X742658D01*
X742133Y75193D01*
X742658Y75718D01*
X744232D01*
X747381Y77817D02*
Y74669D01*
X745806D01*
X745282Y75193D01*
Y76243D01*
X745806Y76768D01*
X747381D01*
X738984Y66795D02*
Y69943D01*
X740559D01*
X741083Y69418D01*
Y68369D01*
X740559Y67844D01*
X738984D01*
X742658Y68894D02*
X743707D01*
X744232Y68369D01*
Y66795D01*
X742658D01*
X742133Y67319D01*
X742658Y67844D01*
X744232D01*
X747381Y69943D02*
Y66795D01*
X745806D01*
X745282Y67319D01*
Y68369D01*
X745806Y68894D01*
X747381D01*
X738984Y58921D02*
Y62069D01*
X740559D01*
X741083Y61544D01*
Y60495D01*
X740559Y59970D01*
X738984D01*
X742658Y61020D02*
X743707D01*
X744232Y60495D01*
Y58921D01*
X742658D01*
X742133Y59445D01*
X742658Y59970D01*
X744232D01*
X747381Y62069D02*
Y58921D01*
X745806D01*
X745282Y59445D01*
Y60495D01*
X745806Y61020D01*
X747381D01*
X738984Y51047D02*
Y54195D01*
X740559D01*
X741083Y53670D01*
Y52621D01*
X740559Y52096D01*
X738984D01*
X742658Y53146D02*
X743707D01*
X744232Y52621D01*
Y51047D01*
X742658D01*
X742133Y51571D01*
X742658Y52096D01*
X744232D01*
X747381Y54195D02*
Y51047D01*
X745806D01*
X745282Y51571D01*
Y52621D01*
X745806Y53146D01*
X747381D01*
X660137Y77817D02*
X662236D01*
X661186D01*
Y74669D01*
X663810D02*
X664859D01*
X665384Y75193D01*
Y76243D01*
X664859Y76768D01*
X663810D01*
X663285Y76243D01*
Y75193D01*
X663810Y74669D01*
X666434Y73619D02*
Y76768D01*
X668008D01*
X668533Y76243D01*
Y75193D01*
X668008Y74669D01*
X666434D01*
X672731Y77817D02*
Y74669D01*
X674830D01*
X676404Y76768D02*
X677454D01*
X677979Y76243D01*
Y74669D01*
X676404D01*
X675880Y75193D01*
X676404Y75718D01*
X677979D01*
X679028Y76768D02*
Y75193D01*
X679553Y74669D01*
X681127D01*
Y74144D01*
X680602Y73619D01*
X680078D01*
X681127Y74669D02*
Y76768D01*
X683751Y74669D02*
X682701D01*
X682177Y75193D01*
Y76243D01*
X682701Y76768D01*
X683751D01*
X684276Y76243D01*
Y75718D01*
X682177D01*
X685325Y76768D02*
Y74669D01*
Y75718D01*
X685850Y76243D01*
X686375Y76768D01*
X686900D01*
X691622Y76243D02*
X693722D01*
X697920Y77817D02*
Y74669D01*
X699494D01*
X700019Y75193D01*
Y75718D01*
X699494Y76243D01*
X697920D01*
X699494D01*
X700019Y76768D01*
Y77292D01*
X699494Y77817D01*
X697920D01*
X701593Y74669D02*
X702643D01*
X703167Y75193D01*
Y76243D01*
X702643Y76768D01*
X701593D01*
X701068Y76243D01*
Y75193D01*
X701593Y74669D01*
X704742Y77292D02*
Y76768D01*
X704217D01*
X705266D01*
X704742D01*
Y75193D01*
X705266Y74669D01*
X707366Y77292D02*
Y76768D01*
X706841D01*
X707890D01*
X707366D01*
Y75193D01*
X707890Y74669D01*
X709989D02*
X711039D01*
X711564Y75193D01*
Y76243D01*
X711039Y76768D01*
X709989D01*
X709465Y76243D01*
Y75193D01*
X709989Y74669D01*
X712613D02*
Y76768D01*
X713138D01*
X713663Y76243D01*
Y74669D01*
Y76243D01*
X714187Y76768D01*
X714712Y76243D01*
Y74669D01*
X718910Y77817D02*
Y74669D01*
X721009D01*
X722584Y76768D02*
X723633D01*
X724158Y76243D01*
Y74669D01*
X722584D01*
X722059Y75193D01*
X722584Y75718D01*
X724158D01*
X725208Y76768D02*
Y75193D01*
X725732Y74669D01*
X727307D01*
Y74144D01*
X726782Y73619D01*
X726257D01*
X727307Y74669D02*
Y76768D01*
X729930Y74669D02*
X728881D01*
X728356Y75193D01*
Y76243D01*
X728881Y76768D01*
X729930D01*
X730455Y76243D01*
Y75718D01*
X728356D01*
X731505Y76768D02*
Y74669D01*
Y75718D01*
X732029Y76243D01*
X732554Y76768D01*
X733079D01*
X660137Y69943D02*
X662236D01*
X661186D01*
Y66795D01*
X663810D02*
X664859D01*
X665384Y67319D01*
Y68369D01*
X664859Y68894D01*
X663810D01*
X663285Y68369D01*
Y67319D01*
X663810Y66795D01*
X666434Y65745D02*
Y68894D01*
X668008D01*
X668533Y68369D01*
Y67319D01*
X668008Y66795D01*
X666434D01*
X672731Y69943D02*
Y66795D01*
X674830D01*
X676404Y68894D02*
X677454D01*
X677979Y68369D01*
Y66795D01*
X676404D01*
X675880Y67319D01*
X676404Y67844D01*
X677979D01*
X679028Y68894D02*
Y67319D01*
X679553Y66795D01*
X681127D01*
Y66270D01*
X680602Y65745D01*
X680078D01*
X681127Y66795D02*
Y68894D01*
X683751Y66795D02*
X682701D01*
X682177Y67319D01*
Y68369D01*
X682701Y68894D01*
X683751D01*
X684276Y68369D01*
Y67844D01*
X682177D01*
X685325Y68894D02*
Y66795D01*
Y67844D01*
X685850Y68369D01*
X686375Y68894D01*
X686900D01*
X691622Y68369D02*
X693722D01*
X697920Y69943D02*
Y66795D01*
X699494D01*
X700019Y67319D01*
Y67844D01*
X699494Y68369D01*
X697920D01*
X699494D01*
X700019Y68894D01*
Y69418D01*
X699494Y69943D01*
X697920D01*
X701593Y66795D02*
X702643D01*
X703167Y67319D01*
Y68369D01*
X702643Y68894D01*
X701593D01*
X701068Y68369D01*
Y67319D01*
X701593Y66795D01*
X704742Y69418D02*
Y68894D01*
X704217D01*
X705266D01*
X704742D01*
Y67319D01*
X705266Y66795D01*
X707366Y69418D02*
Y68894D01*
X706841D01*
X707890D01*
X707366D01*
Y67319D01*
X707890Y66795D01*
X709989D02*
X711039D01*
X711564Y67319D01*
Y68369D01*
X711039Y68894D01*
X709989D01*
X709465Y68369D01*
Y67319D01*
X709989Y66795D01*
X712613D02*
Y68894D01*
X713138D01*
X713663Y68369D01*
Y66795D01*
Y68369D01*
X714187Y68894D01*
X714712Y68369D01*
Y66795D01*
X718910Y69943D02*
Y66795D01*
X721009D01*
X722584Y68894D02*
X723633D01*
X724158Y68369D01*
Y66795D01*
X722584D01*
X722059Y67319D01*
X722584Y67844D01*
X724158D01*
X725208Y68894D02*
Y67319D01*
X725732Y66795D01*
X727307D01*
Y66270D01*
X726782Y65745D01*
X726257D01*
X727307Y66795D02*
Y68894D01*
X729930Y66795D02*
X728881D01*
X728356Y67319D01*
Y68369D01*
X728881Y68894D01*
X729930D01*
X730455Y68369D01*
Y67844D01*
X728356D01*
X731505Y68894D02*
Y66795D01*
Y67844D01*
X732029Y68369D01*
X732554Y68894D01*
X733079D01*
X660137Y62069D02*
X662236D01*
X661186D01*
Y58921D01*
X663810D02*
X664859D01*
X665384Y59445D01*
Y60495D01*
X664859Y61020D01*
X663810D01*
X663285Y60495D01*
Y59445D01*
X663810Y58921D01*
X666434Y57871D02*
Y61020D01*
X668008D01*
X668533Y60495D01*
Y59445D01*
X668008Y58921D01*
X666434D01*
X672731Y62069D02*
Y58921D01*
X674830D01*
X676404Y61020D02*
X677454D01*
X677979Y60495D01*
Y58921D01*
X676404D01*
X675880Y59445D01*
X676404Y59970D01*
X677979D01*
X679028Y61020D02*
Y59445D01*
X679553Y58921D01*
X681127D01*
Y58396D01*
X680602Y57871D01*
X680078D01*
X681127Y58921D02*
Y61020D01*
X683751Y58921D02*
X682701D01*
X682177Y59445D01*
Y60495D01*
X682701Y61020D01*
X683751D01*
X684276Y60495D01*
Y59970D01*
X682177D01*
X685325Y61020D02*
Y58921D01*
Y59970D01*
X685850Y60495D01*
X686375Y61020D01*
X686900D01*
X691622Y60495D02*
X693722D01*
X697920Y62069D02*
Y58921D01*
X699494D01*
X700019Y59445D01*
Y59970D01*
X699494Y60495D01*
X697920D01*
X699494D01*
X700019Y61020D01*
Y61544D01*
X699494Y62069D01*
X697920D01*
X701593Y58921D02*
X702643D01*
X703167Y59445D01*
Y60495D01*
X702643Y61020D01*
X701593D01*
X701068Y60495D01*
Y59445D01*
X701593Y58921D01*
X704742Y61544D02*
Y61020D01*
X704217D01*
X705266D01*
X704742D01*
Y59445D01*
X705266Y58921D01*
X707366Y61544D02*
Y61020D01*
X706841D01*
X707890D01*
X707366D01*
Y59445D01*
X707890Y58921D01*
X709989D02*
X711039D01*
X711564Y59445D01*
Y60495D01*
X711039Y61020D01*
X709989D01*
X709465Y60495D01*
Y59445D01*
X709989Y58921D01*
X712613D02*
Y61020D01*
X713138D01*
X713663Y60495D01*
Y58921D01*
Y60495D01*
X714187Y61020D01*
X714712Y60495D01*
Y58921D01*
X718910Y62069D02*
Y58921D01*
X721009D01*
X722584Y61020D02*
X723633D01*
X724158Y60495D01*
Y58921D01*
X722584D01*
X722059Y59445D01*
X722584Y59970D01*
X724158D01*
X725208Y61020D02*
Y59445D01*
X725732Y58921D01*
X727307D01*
Y58396D01*
X726782Y57871D01*
X726257D01*
X727307Y58921D02*
Y61020D01*
X729930Y58921D02*
X728881D01*
X728356Y59445D01*
Y60495D01*
X728881Y61020D01*
X729930D01*
X730455Y60495D01*
Y59970D01*
X728356D01*
X731505Y61020D02*
Y58921D01*
Y59970D01*
X732029Y60495D01*
X732554Y61020D01*
X733079D01*
X660137Y54195D02*
X662236D01*
X661186D01*
Y51047D01*
X663810D02*
X664859D01*
X665384Y51571D01*
Y52621D01*
X664859Y53146D01*
X663810D01*
X663285Y52621D01*
Y51571D01*
X663810Y51047D01*
X666434Y49997D02*
Y53146D01*
X668008D01*
X668533Y52621D01*
Y51571D01*
X668008Y51047D01*
X666434D01*
X672731Y54195D02*
Y51047D01*
X674830D01*
X676404Y53146D02*
X677454D01*
X677979Y52621D01*
Y51047D01*
X676404D01*
X675880Y51571D01*
X676404Y52096D01*
X677979D01*
X679028Y53146D02*
Y51571D01*
X679553Y51047D01*
X681127D01*
Y50522D01*
X680602Y49997D01*
X680078D01*
X681127Y51047D02*
Y53146D01*
X683751Y51047D02*
X682701D01*
X682177Y51571D01*
Y52621D01*
X682701Y53146D01*
X683751D01*
X684276Y52621D01*
Y52096D01*
X682177D01*
X685325Y53146D02*
Y51047D01*
Y52096D01*
X685850Y52621D01*
X686375Y53146D01*
X686900D01*
X691622Y52621D02*
X693722D01*
X697920Y54195D02*
Y51047D01*
X699494D01*
X700019Y51571D01*
Y52096D01*
X699494Y52621D01*
X697920D01*
X699494D01*
X700019Y53146D01*
Y53670D01*
X699494Y54195D01*
X697920D01*
X701593Y51047D02*
X702643D01*
X703167Y51571D01*
Y52621D01*
X702643Y53146D01*
X701593D01*
X701068Y52621D01*
Y51571D01*
X701593Y51047D01*
X704742Y53670D02*
Y53146D01*
X704217D01*
X705266D01*
X704742D01*
Y51571D01*
X705266Y51047D01*
X707366Y53670D02*
Y53146D01*
X706841D01*
X707890D01*
X707366D01*
Y51571D01*
X707890Y51047D01*
X709989D02*
X711039D01*
X711564Y51571D01*
Y52621D01*
X711039Y53146D01*
X709989D01*
X709465Y52621D01*
Y51571D01*
X709989Y51047D01*
X712613D02*
Y53146D01*
X713138D01*
X713663Y52621D01*
Y51047D01*
Y52621D01*
X714187Y53146D01*
X714712Y52621D01*
Y51047D01*
X718910Y54195D02*
Y51047D01*
X721009D01*
X722584Y53146D02*
X723633D01*
X724158Y52621D01*
Y51047D01*
X722584D01*
X722059Y51571D01*
X722584Y52096D01*
X724158D01*
X725208Y53146D02*
Y51571D01*
X725732Y51047D01*
X727307D01*
Y50522D01*
X726782Y49997D01*
X726257D01*
X727307Y51047D02*
Y53146D01*
X729930Y51047D02*
X728881D01*
X728356Y51571D01*
Y52621D01*
X728881Y53146D01*
X729930D01*
X730455Y52621D01*
Y52096D01*
X728356D01*
X731505Y53146D02*
Y51047D01*
Y52096D01*
X732029Y52621D01*
X732554Y53146D01*
X733079D01*
X621407Y74669D02*
Y77817D01*
X622981D01*
X623506Y77292D01*
Y76243D01*
X622981Y75718D01*
X621407D01*
X622456D02*
X623506Y74669D01*
X625080D02*
X626130D01*
X626654Y75193D01*
Y76243D01*
X626130Y76768D01*
X625080D01*
X624555Y76243D01*
Y75193D01*
X625080Y74669D01*
X627704Y76768D02*
Y75193D01*
X628229Y74669D01*
X629803D01*
Y76768D01*
X630853Y74669D02*
Y76768D01*
X632427D01*
X632952Y76243D01*
Y74669D01*
X636100Y77817D02*
Y74669D01*
X634526D01*
X634001Y75193D01*
Y76243D01*
X634526Y76768D01*
X636100D01*
X621407Y66795D02*
Y69943D01*
X622981D01*
X623506Y69418D01*
Y68369D01*
X622981Y67844D01*
X621407D01*
X622456D02*
X623506Y66795D01*
X625080D02*
X626130D01*
X626654Y67319D01*
Y68369D01*
X626130Y68894D01*
X625080D01*
X624555Y68369D01*
Y67319D01*
X625080Y66795D01*
X627704Y68894D02*
Y67319D01*
X628229Y66795D01*
X629803D01*
Y68894D01*
X630853Y66795D02*
Y68894D01*
X632427D01*
X632952Y68369D01*
Y66795D01*
X636100Y69943D02*
Y66795D01*
X634526D01*
X634001Y67319D01*
Y68369D01*
X634526Y68894D01*
X636100D01*
X621407Y58921D02*
Y62069D01*
X622981D01*
X623506Y61544D01*
Y60495D01*
X622981Y59970D01*
X621407D01*
X622456D02*
X623506Y58921D01*
X625080D02*
X626130D01*
X626654Y59445D01*
Y60495D01*
X626130Y61020D01*
X625080D01*
X624555Y60495D01*
Y59445D01*
X625080Y58921D01*
X627704Y61020D02*
Y59445D01*
X628229Y58921D01*
X629803D01*
Y61020D01*
X630853Y58921D02*
Y61020D01*
X632427D01*
X632952Y60495D01*
Y58921D01*
X636100Y62069D02*
Y58921D01*
X634526D01*
X634001Y59445D01*
Y60495D01*
X634526Y61020D01*
X636100D01*
X621407Y51047D02*
Y54195D01*
X622981D01*
X623506Y53670D01*
Y52621D01*
X622981Y52096D01*
X621407D01*
X622456D02*
X623506Y51047D01*
X625080D02*
X626130D01*
X626654Y51571D01*
Y52621D01*
X626130Y53146D01*
X625080D01*
X624555Y52621D01*
Y51571D01*
X625080Y51047D01*
X627704Y53146D02*
Y51571D01*
X628229Y51047D01*
X629803D01*
Y53146D01*
X630853Y51047D02*
Y53146D01*
X632427D01*
X632952Y52621D01*
Y51047D01*
X636100Y54195D02*
Y51047D01*
X634526D01*
X634001Y51571D01*
Y52621D01*
X634526Y53146D01*
X636100D01*
X594642Y74669D02*
Y77817D01*
X596216D01*
X596741Y77292D01*
Y76243D01*
X596216Y75718D01*
X594642D01*
X597790Y77817D02*
X599889D01*
X598840D01*
Y74669D01*
X600939Y77817D02*
Y74669D01*
Y76243D01*
X603038D01*
Y77817D01*
Y74669D01*
X594642Y66795D02*
Y69943D01*
X596216D01*
X596741Y69418D01*
Y68369D01*
X596216Y67844D01*
X594642D01*
X597790Y69943D02*
X599889D01*
X598840D01*
Y66795D01*
X600939Y69943D02*
Y66795D01*
Y68369D01*
X603038D01*
Y69943D01*
Y66795D01*
X594642Y58921D02*
Y62069D01*
X596216D01*
X596741Y61544D01*
Y60495D01*
X596216Y59970D01*
X594642D01*
X597790Y62069D02*
X599889D01*
X598840D01*
Y58921D01*
X600939Y62069D02*
Y58921D01*
Y60495D01*
X603038D01*
Y62069D01*
Y58921D01*
X594642Y51047D02*
Y54195D01*
X596216D01*
X596741Y53670D01*
Y52621D01*
X596216Y52096D01*
X594642D01*
X597790Y54195D02*
X599889D01*
X598840D01*
Y51047D01*
X600939Y54195D02*
Y51047D01*
Y52621D01*
X603038D01*
Y54195D01*
Y51047D01*
X538883Y74669D02*
X536784D01*
X538883Y76768D01*
Y77292D01*
X538359Y77817D01*
X537309D01*
X536784Y77292D01*
X539933Y74669D02*
Y75193D01*
X540458D01*
Y74669D01*
X539933D01*
X544656Y77817D02*
X542557D01*
Y76243D01*
X543606Y76768D01*
X544131D01*
X544656Y76243D01*
Y75193D01*
X544131Y74669D01*
X543082D01*
X542557Y75193D01*
X545705Y77292D02*
X546230Y77817D01*
X547280D01*
X547804Y77292D01*
Y75193D01*
X547280Y74669D01*
X546230D01*
X545705Y75193D01*
Y77292D01*
X548854D02*
X549379Y77817D01*
X550428D01*
X550953Y77292D01*
Y75193D01*
X550428Y74669D01*
X549379D01*
X548854Y75193D01*
Y77292D01*
X552003Y74669D02*
Y76768D01*
X552527D01*
X553052Y76243D01*
Y74669D01*
Y76243D01*
X553577Y76768D01*
X554102Y76243D01*
Y74669D01*
X555151D02*
Y76768D01*
X555676D01*
X556201Y76243D01*
Y74669D01*
Y76243D01*
X556726Y76768D01*
X557250Y76243D01*
Y74669D01*
X562498D02*
X561448Y75718D01*
Y76768D01*
X562498Y77817D01*
X564072Y75193D02*
X564597Y74669D01*
X565647D01*
X566171Y75193D01*
Y77292D01*
X565647Y77817D01*
X564597D01*
X564072Y77292D01*
Y76768D01*
X564597Y76243D01*
X566171D01*
X567221Y77292D02*
X567746Y77817D01*
X568795D01*
X569320Y77292D01*
Y76768D01*
X568795Y76243D01*
X569320Y75718D01*
Y75193D01*
X568795Y74669D01*
X567746D01*
X567221Y75193D01*
Y75718D01*
X567746Y76243D01*
X567221Y76768D01*
Y77292D01*
X567746Y76243D02*
X568795D01*
X570369Y74669D02*
Y75193D01*
X570894D01*
Y74669D01*
X570369D01*
X574568D02*
Y77817D01*
X572993Y76243D01*
X575092D01*
X576142Y77292D02*
X576667Y77817D01*
X577716D01*
X578241Y77292D01*
Y76768D01*
X577716Y76243D01*
X577191D01*
X577716D01*
X578241Y75718D01*
Y75193D01*
X577716Y74669D01*
X576667D01*
X576142Y75193D01*
X579290Y74669D02*
Y76768D01*
X579815D01*
X580340Y76243D01*
Y74669D01*
Y76243D01*
X580865Y76768D01*
X581390Y76243D01*
Y74669D01*
X582439D02*
X583489D01*
X582964D01*
Y76768D01*
X582439D01*
X585063Y74669D02*
X586112D01*
X585588D01*
Y77817D01*
X585063D01*
X587687Y74669D02*
X588736Y75718D01*
Y76768D01*
X587687Y77817D01*
X536784Y69418D02*
X537309Y69943D01*
X538359D01*
X538883Y69418D01*
Y67319D01*
X538359Y66795D01*
X537309D01*
X536784Y67319D01*
Y69418D01*
X539933Y66795D02*
Y67319D01*
X540458D01*
Y66795D01*
X539933D01*
X544656Y69943D02*
X543606Y69418D01*
X542557Y68369D01*
Y67319D01*
X543082Y66795D01*
X544131D01*
X544656Y67319D01*
Y67844D01*
X544131Y68369D01*
X542557D01*
X547804Y69943D02*
X545705D01*
Y68369D01*
X546755Y68894D01*
X547280D01*
X547804Y68369D01*
Y67319D01*
X547280Y66795D01*
X546230D01*
X545705Y67319D01*
X548854Y69418D02*
X549379Y69943D01*
X550428D01*
X550953Y69418D01*
Y67319D01*
X550428Y66795D01*
X549379D01*
X548854Y67319D01*
Y69418D01*
X552003Y66795D02*
Y68894D01*
X552527D01*
X553052Y68369D01*
Y66795D01*
Y68369D01*
X553577Y68894D01*
X554102Y68369D01*
Y66795D01*
X555151D02*
Y68894D01*
X555676D01*
X556201Y68369D01*
Y66795D01*
Y68369D01*
X556726Y68894D01*
X557250Y68369D01*
Y66795D01*
X562498D02*
X561448Y67844D01*
Y68894D01*
X562498Y69943D01*
X566171Y66795D02*
X564072D01*
X566171Y68894D01*
Y69418D01*
X565647Y69943D01*
X564597D01*
X564072Y69418D01*
X569320Y69943D02*
X567221D01*
Y68369D01*
X568270Y68894D01*
X568795D01*
X569320Y68369D01*
Y67319D01*
X568795Y66795D01*
X567746D01*
X567221Y67319D01*
X570369Y66795D02*
Y67319D01*
X570894D01*
Y66795D01*
X570369D01*
X575092Y69943D02*
X572993D01*
Y68369D01*
X574043Y68894D01*
X574568D01*
X575092Y68369D01*
Y67319D01*
X574568Y66795D01*
X573518D01*
X572993Y67319D01*
X576142D02*
X576667Y66795D01*
X577716D01*
X578241Y67319D01*
Y69418D01*
X577716Y69943D01*
X576667D01*
X576142Y69418D01*
Y68894D01*
X576667Y68369D01*
X578241D01*
X579290Y66795D02*
Y68894D01*
X579815D01*
X580340Y68369D01*
Y66795D01*
Y68369D01*
X580865Y68894D01*
X581390Y68369D01*
Y66795D01*
X582439D02*
X583489D01*
X582964D01*
Y68894D01*
X582439D01*
X585063Y66795D02*
X586112D01*
X585588D01*
Y69943D01*
X585063D01*
X587687Y66795D02*
X588736Y67844D01*
Y68894D01*
X587687Y69943D01*
X536784Y61544D02*
X537309Y62069D01*
X538359D01*
X538883Y61544D01*
Y59445D01*
X538359Y58921D01*
X537309D01*
X536784Y59445D01*
Y61544D01*
X539933Y58921D02*
Y59445D01*
X540458D01*
Y58921D01*
X539933D01*
X542557Y61544D02*
X543082Y62069D01*
X544131D01*
X544656Y61544D01*
Y61020D01*
X544131Y60495D01*
X544656Y59970D01*
Y59445D01*
X544131Y58921D01*
X543082D01*
X542557Y59445D01*
Y59970D01*
X543082Y60495D01*
X542557Y61020D01*
Y61544D01*
X543082Y60495D02*
X544131D01*
X547804Y62069D02*
X545705D01*
Y60495D01*
X546755Y61020D01*
X547280D01*
X547804Y60495D01*
Y59445D01*
X547280Y58921D01*
X546230D01*
X545705Y59445D01*
X548854Y61544D02*
X549379Y62069D01*
X550428D01*
X550953Y61544D01*
Y59445D01*
X550428Y58921D01*
X549379D01*
X548854Y59445D01*
Y61544D01*
X552003Y58921D02*
Y61020D01*
X552527D01*
X553052Y60495D01*
Y58921D01*
Y60495D01*
X553577Y61020D01*
X554102Y60495D01*
Y58921D01*
X555151D02*
Y61020D01*
X555676D01*
X556201Y60495D01*
Y58921D01*
Y60495D01*
X556726Y61020D01*
X557250Y60495D01*
Y58921D01*
X562498D02*
X561448Y59970D01*
Y61020D01*
X562498Y62069D01*
X564072Y61544D02*
X564597Y62069D01*
X565647D01*
X566171Y61544D01*
Y61020D01*
X565647Y60495D01*
X565122D01*
X565647D01*
X566171Y59970D01*
Y59445D01*
X565647Y58921D01*
X564597D01*
X564072Y59445D01*
X567221Y61544D02*
X567746Y62069D01*
X568795D01*
X569320Y61544D01*
Y61020D01*
X568795Y60495D01*
X568270D01*
X568795D01*
X569320Y59970D01*
Y59445D01*
X568795Y58921D01*
X567746D01*
X567221Y59445D01*
X570369Y58921D02*
Y59445D01*
X570894D01*
Y58921D01*
X570369D01*
X574568D02*
Y62069D01*
X572993Y60495D01*
X575092D01*
X576142Y62069D02*
X578241D01*
Y61544D01*
X576142Y59445D01*
Y58921D01*
X579290D02*
Y61020D01*
X579815D01*
X580340Y60495D01*
Y58921D01*
Y60495D01*
X580865Y61020D01*
X581390Y60495D01*
Y58921D01*
X582439D02*
X583489D01*
X582964D01*
Y61020D01*
X582439D01*
X585063Y58921D02*
X586112D01*
X585588D01*
Y62069D01*
X585063D01*
X587687Y58921D02*
X588736Y59970D01*
Y61020D01*
X587687Y62069D01*
X536784Y53670D02*
X537309Y54195D01*
X538359D01*
X538883Y53670D01*
Y51571D01*
X538359Y51047D01*
X537309D01*
X536784Y51571D01*
Y53670D01*
X539933Y51047D02*
Y51571D01*
X540458D01*
Y51047D01*
X539933D01*
X542557Y51571D02*
X543082Y51047D01*
X544131D01*
X544656Y51571D01*
Y53670D01*
X544131Y54195D01*
X543082D01*
X542557Y53670D01*
Y53146D01*
X543082Y52621D01*
X544656D01*
X545705Y53670D02*
X546230Y54195D01*
X547280D01*
X547804Y53670D01*
Y51571D01*
X547280Y51047D01*
X546230D01*
X545705Y51571D01*
Y53670D01*
X548854D02*
X549379Y54195D01*
X550428D01*
X550953Y53670D01*
Y51571D01*
X550428Y51047D01*
X549379D01*
X548854Y51571D01*
Y53670D01*
X552003Y51047D02*
Y53146D01*
X552527D01*
X553052Y52621D01*
Y51047D01*
Y52621D01*
X553577Y53146D01*
X554102Y52621D01*
Y51047D01*
X555151D02*
Y53146D01*
X555676D01*
X556201Y52621D01*
Y51047D01*
Y52621D01*
X556726Y53146D01*
X557250Y52621D01*
Y51047D01*
X562498D02*
X561448Y52096D01*
Y53146D01*
X562498Y54195D01*
X564072Y53670D02*
X564597Y54195D01*
X565647D01*
X566171Y53670D01*
Y53146D01*
X565647Y52621D01*
X565122D01*
X565647D01*
X566171Y52096D01*
Y51571D01*
X565647Y51047D01*
X564597D01*
X564072Y51571D01*
X569320Y54195D02*
X567221D01*
Y52621D01*
X568270Y53146D01*
X568795D01*
X569320Y52621D01*
Y51571D01*
X568795Y51047D01*
X567746D01*
X567221Y51571D01*
X570369Y51047D02*
Y51571D01*
X570894D01*
Y51047D01*
X570369D01*
X574568D02*
Y54195D01*
X572993Y52621D01*
X575092D01*
X576142Y53670D02*
X576667Y54195D01*
X577716D01*
X578241Y53670D01*
Y53146D01*
X577716Y52621D01*
X577191D01*
X577716D01*
X578241Y52096D01*
Y51571D01*
X577716Y51047D01*
X576667D01*
X576142Y51571D01*
X579290Y51047D02*
Y53146D01*
X579815D01*
X580340Y52621D01*
Y51047D01*
Y52621D01*
X580865Y53146D01*
X581390Y52621D01*
Y51047D01*
X582439D02*
X583489D01*
X582964D01*
Y53146D01*
X582439D01*
X585063Y51047D02*
X586112D01*
X585588D01*
Y54195D01*
X585063D01*
X587687Y51047D02*
X588736Y52096D01*
Y53146D01*
X587687Y54195D01*
X510938Y46321D02*
X508839D01*
Y44747D01*
X509888Y45272D01*
X510413D01*
X510938Y44747D01*
Y43697D01*
X510413Y43172D01*
X509364D01*
X508839Y43697D01*
X511987Y43172D02*
X513037D01*
X512512D01*
Y46321D01*
X511987Y45796D01*
X517760Y46321D02*
X519859D01*
X518809D01*
Y43172D01*
X521433D02*
X522483D01*
X523007Y43697D01*
Y44747D01*
X522483Y45272D01*
X521433D01*
X520908Y44747D01*
Y43697D01*
X521433Y43172D01*
X524582Y45796D02*
Y45272D01*
X524057D01*
X525106D01*
X524582D01*
Y43697D01*
X525106Y43172D01*
X527206Y45272D02*
X528255D01*
X528780Y44747D01*
Y43172D01*
X527206D01*
X526681Y43697D01*
X527206Y44222D01*
X528780D01*
X529829Y43172D02*
X530879D01*
X530354D01*
Y46321D01*
X529829D01*
X508839Y74669D02*
X509888D01*
X509364D01*
Y77817D01*
X508839Y77292D01*
X510413Y66795D02*
Y69943D01*
X508839Y68369D01*
X510938D01*
Y62069D02*
X509888Y61544D01*
X508839Y60495D01*
Y59445D01*
X509364Y58921D01*
X510413D01*
X510938Y59445D01*
Y59970D01*
X510413Y60495D01*
X508839D01*
X510413Y51047D02*
Y54195D01*
X508839Y52621D01*
X510938D01*
X511987Y53670D02*
X512512Y54195D01*
X513562D01*
X514086Y53670D01*
Y51571D01*
X513562Y51047D01*
X512512D01*
X511987Y51571D01*
Y53670D01*
D13*
X275591Y137795D02*
G03*
X275591Y137795I-137795J0D01*
G01*
D41*
X92378Y217723D02*
G03*
X92378Y217723I-1000J0D01*
G01*
X78913Y254718D02*
G03*
X78913Y254718I-1000J0D01*
G01*
X105174Y223628D02*
G03*
X105174Y223628I-1000J0D01*
G01*
X91708Y260624D02*
G03*
X91708Y260624I-1000J0D01*
G01*
X105882Y265151D02*
G03*
X105882Y265151I-1000J0D01*
G01*
X119347Y228156D02*
G03*
X119347Y228156I-1000J0D01*
G01*
X140064Y254993D02*
X142063D01*
Y256993D01*
X140064D02*
X142063D01*
X140064Y254993D02*
Y256993D01*
Y244993D02*
X142063D01*
Y246993D01*
X140064D02*
X142063D01*
X140064Y244993D02*
Y246993D01*
X55715Y222111D02*
X57715D01*
Y224111D01*
X55715D02*
X57715D01*
X55715Y222111D02*
Y224111D01*
X62786Y215040D02*
X64786D01*
Y217040D01*
X62786D02*
X64786D01*
X62786Y215040D02*
Y217040D01*
X18599Y139348D02*
X20599D01*
Y141348D01*
X18599D02*
X20599D01*
X18599Y139348D02*
Y141348D01*
X28599Y139348D02*
X30599D01*
Y141348D01*
X28599D02*
X30599D01*
X28599Y139348D02*
Y141348D01*
X56171Y50789D02*
X58171D01*
Y52789D01*
X56171D02*
X58171D01*
X56171Y50789D02*
Y52789D01*
X63242Y57860D02*
X65242D01*
Y59860D01*
X63242D02*
X65242D01*
X63242Y57860D02*
Y59860D01*
X140063Y18527D02*
X142063D01*
Y20527D01*
X140063D02*
X142063D01*
X140063Y18527D02*
Y20527D01*
Y28527D02*
X142063D01*
Y30527D01*
X140063D02*
X142063D01*
X140063Y28527D02*
Y30527D01*
X222922Y54905D02*
X224922D01*
Y56905D01*
X222922D02*
X224922D01*
X222922Y54905D02*
Y56905D01*
X215851Y61976D02*
X217851D01*
Y63976D01*
X215851D02*
X217851D01*
X215851Y61976D02*
Y63976D01*
X255064Y139348D02*
X257064D01*
Y141348D01*
X255064D02*
X257064D01*
X255064Y139348D02*
Y141348D01*
X245064Y139348D02*
X247064D01*
Y141348D01*
X245064D02*
X247064D01*
X245064Y139348D02*
Y141348D01*
X184787Y195614D02*
X186787D01*
Y197614D01*
X184787D02*
X186787D01*
X184787Y195614D02*
Y197614D01*
X194787Y195614D02*
X196787D01*
Y197614D01*
X194787D02*
X196787D01*
X194787Y195614D02*
Y197614D01*
X204787Y195614D02*
X206787D01*
Y197614D01*
X204787D02*
X206787D01*
X204787Y195614D02*
Y197614D01*
X214787Y195614D02*
X216787D01*
Y197614D01*
X214787D02*
X216787D01*
X214787Y195614D02*
Y197614D01*
X184787Y225614D02*
X186787D01*
Y227614D01*
X184787D02*
X186787D01*
X184787Y225614D02*
Y227614D01*
X194787Y225614D02*
X196787D01*
Y227614D01*
X194787D02*
X196787D01*
X194787Y225614D02*
Y227614D01*
X204787Y225614D02*
X206787D01*
Y227614D01*
X204787D02*
X206787D01*
X204787Y225614D02*
Y227614D01*
X214787Y225614D02*
X216787D01*
Y227614D01*
X214787D02*
X216787D01*
X214787Y225614D02*
Y227614D01*
X228346Y221598D02*
X229346Y223598D01*
X227346D02*
X229346D01*
X227346D02*
X228346Y221598D01*
Y201598D02*
X229346Y203598D01*
X227346D02*
X229346D01*
X227346D02*
X228346Y201598D01*
X101795Y94236D02*
X103795D01*
Y96236D01*
X101795D02*
X103795D01*
X101795Y94236D02*
Y96236D01*
X111795Y94236D02*
X113795D01*
Y96236D01*
X111795D02*
X113795D01*
X111795Y94236D02*
Y96236D01*
X121795Y94236D02*
X123795D01*
Y96236D01*
X121795D02*
X123795D01*
X121795Y94236D02*
Y96236D01*
X131795Y94236D02*
X133795D01*
Y96236D01*
X131795D02*
X133795D01*
X131795Y94236D02*
Y96236D01*
X161795Y94236D02*
X163795D01*
Y96236D01*
X161795D02*
X163795D01*
X161795Y94236D02*
Y96236D01*
X151795Y94236D02*
X153795D01*
Y96236D01*
X151795D02*
X153795D01*
X151795Y94236D02*
Y96236D01*
X141795Y94236D02*
X143795D01*
Y96236D01*
X141795D02*
X143795D01*
X141795Y94236D02*
Y96236D01*
X171795Y94236D02*
X173795D01*
Y96236D01*
X171795D02*
X173795D01*
X171795Y94236D02*
Y96236D01*
Y124236D02*
X173795D01*
Y126236D01*
X171795D02*
X173795D01*
X171795Y124236D02*
Y126236D01*
X101795Y124236D02*
X103795D01*
Y126236D01*
X101795D02*
X103795D01*
X101795Y124236D02*
Y126236D01*
X111795Y124236D02*
X113795D01*
Y126236D01*
X111795D02*
X113795D01*
X111795Y124236D02*
Y126236D01*
X121795Y124236D02*
X123795D01*
Y126236D01*
X121795D02*
X123795D01*
X121795Y124236D02*
Y126236D01*
X131795Y124236D02*
X133795D01*
Y126236D01*
X131795D02*
X133795D01*
X131795Y124236D02*
Y126236D01*
X141795Y124236D02*
X143795D01*
Y126236D01*
X141795D02*
X143795D01*
X141795Y124236D02*
Y126236D01*
X151795Y124236D02*
X153795D01*
Y126236D01*
X151795D02*
X153795D01*
X151795Y124236D02*
Y126236D01*
X161795Y124236D02*
X163795D01*
Y126236D01*
X161795D02*
X163795D01*
X161795Y124236D02*
Y126236D01*
X238189Y221598D02*
X239189Y223598D01*
X237189D02*
X239189D01*
X237189D02*
X238189Y221598D01*
Y201598D02*
X239189Y203598D01*
X237189D02*
X239189D01*
X237189D02*
X238189Y201598D01*
X100378Y175181D02*
X102378D01*
Y177181D01*
X100378D02*
X102378D01*
X100378Y175181D02*
Y177181D01*
X179118Y175181D02*
X181118D01*
Y177181D01*
X179118D02*
X181118D01*
X179118Y175181D02*
Y177181D01*
X137295Y266232D02*
X137795Y265732D01*
X136795Y266232D02*
X137295D01*
X136795D02*
X137295Y266732D01*
X136795Y267232D02*
X137295Y266732D01*
X136795Y267232D02*
X137295D01*
X137795Y267732D01*
X138295Y267232D01*
X138795D01*
X138295Y266732D02*
X138795Y267232D01*
X138295Y266732D02*
X138795Y266232D01*
X138295D02*
X138795D01*
X137795Y265732D02*
X138295Y266232D01*
D42*
X907259Y82543D02*
Y86321D01*
X909148D01*
X909778Y85691D01*
Y84432D01*
X909148Y83802D01*
X907259D01*
X908518D02*
X909778Y82543D01*
X911667D02*
X912926D01*
X913556Y83172D01*
Y84432D01*
X912926Y85062D01*
X911667D01*
X911037Y84432D01*
Y83172D01*
X911667Y82543D01*
X914815Y85062D02*
Y83172D01*
X915445Y82543D01*
X917334D01*
Y85062D01*
X919223Y85691D02*
Y85062D01*
X918594D01*
X919853D01*
X919223D01*
Y83172D01*
X919853Y82543D01*
X923631D02*
X922372D01*
X921742Y83172D01*
Y84432D01*
X922372Y85062D01*
X923631D01*
X924261Y84432D01*
Y83802D01*
X921742D01*
X928039Y86321D02*
Y82543D01*
X926150D01*
X925520Y83172D01*
Y84432D01*
X926150Y85062D01*
X928039D01*
X933077Y82543D02*
Y86321D01*
X934966D01*
X935596Y85691D01*
Y84432D01*
X934966Y83802D01*
X933077D01*
X937485Y85062D02*
X938745D01*
X939374Y84432D01*
Y82543D01*
X937485D01*
X936855Y83172D01*
X937485Y83802D01*
X939374D01*
X941263Y85691D02*
Y85062D01*
X940634D01*
X941893D01*
X941263D01*
Y83172D01*
X941893Y82543D01*
X943782Y86321D02*
Y82543D01*
Y84432D01*
X944412Y85062D01*
X945671D01*
X946301Y84432D01*
Y82543D01*
X951339Y86321D02*
Y82543D01*
X953858D01*
X957006D02*
X955747D01*
X955117Y83172D01*
Y84432D01*
X955747Y85062D01*
X957006D01*
X957636Y84432D01*
Y83802D01*
X955117D01*
X958895Y82543D02*
Y85062D01*
X960785D01*
X961414Y84432D01*
Y82543D01*
X963933Y81283D02*
X964563D01*
X965193Y81913D01*
Y85062D01*
X963303D01*
X962674Y84432D01*
Y83172D01*
X963303Y82543D01*
X965193D01*
X967082Y85691D02*
Y85062D01*
X966452D01*
X967712D01*
X967082D01*
Y83172D01*
X967712Y82543D01*
X969601Y86321D02*
Y82543D01*
Y84432D01*
X970230Y85062D01*
X971490D01*
X972120Y84432D01*
Y82543D01*
X861602Y86321D02*
Y82543D01*
Y84432D01*
X864121D01*
Y86321D01*
Y82543D01*
X866010D02*
X867269D01*
X867899Y83172D01*
Y84432D01*
X867269Y85062D01*
X866010D01*
X865380Y84432D01*
Y83172D01*
X866010Y82543D01*
X869158D02*
X870418D01*
X869788D01*
Y86321D01*
X869158D01*
X874196Y82543D02*
X872937D01*
X872307Y83172D01*
Y84432D01*
X872937Y85062D01*
X874196D01*
X874826Y84432D01*
Y83802D01*
X872307D01*
X879864Y86321D02*
Y82543D01*
X882383D01*
X885531D02*
X884272D01*
X883642Y83172D01*
Y84432D01*
X884272Y85062D01*
X885531D01*
X886161Y84432D01*
Y83802D01*
X883642D01*
X887420Y82543D02*
Y85062D01*
X889310D01*
X889939Y84432D01*
Y82543D01*
X892458Y81283D02*
X893088D01*
X893717Y81913D01*
Y85062D01*
X891828D01*
X891199Y84432D01*
Y83172D01*
X891828Y82543D01*
X893717D01*
X895607Y85691D02*
Y85062D01*
X894977D01*
X896236D01*
X895607D01*
Y83172D01*
X896236Y82543D01*
X898126Y86321D02*
Y82543D01*
Y84432D01*
X898755Y85062D01*
X900015D01*
X900644Y84432D01*
Y82543D01*
X809517Y86321D02*
X812036D01*
X810777D01*
Y82543D01*
X815185D02*
X813925D01*
X813295Y83172D01*
Y84432D01*
X813925Y85062D01*
X815185D01*
X815814Y84432D01*
Y83802D01*
X813295D01*
X817074Y82543D02*
Y85062D01*
X817703D01*
X818333Y84432D01*
Y82543D01*
Y84432D01*
X818963Y85062D01*
X819593Y84432D01*
Y82543D01*
X820852Y81283D02*
Y85062D01*
X822741D01*
X823371Y84432D01*
Y83172D01*
X822741Y82543D01*
X820852D01*
X824630D02*
X825890D01*
X825260D01*
Y86321D01*
X824630D01*
X828409Y85062D02*
X829668D01*
X830298Y84432D01*
Y82543D01*
X828409D01*
X827779Y83172D01*
X828409Y83802D01*
X830298D01*
X832187Y85691D02*
Y85062D01*
X831557D01*
X832817D01*
X832187D01*
Y83172D01*
X832817Y82543D01*
X836595D02*
X835336D01*
X834706Y83172D01*
Y84432D01*
X835336Y85062D01*
X836595D01*
X837225Y84432D01*
Y83802D01*
X834706D01*
X770158Y82543D02*
Y86321D01*
X772047D01*
X772677Y85691D01*
Y84432D01*
X772047Y83802D01*
X770158D01*
X774566Y85062D02*
X775825D01*
X776455Y84432D01*
Y82543D01*
X774566D01*
X773936Y83172D01*
X774566Y83802D01*
X776455D01*
X780233Y86321D02*
Y82543D01*
X778344D01*
X777714Y83172D01*
Y84432D01*
X778344Y85062D01*
X780233D01*
X787790Y85691D02*
X787160Y86321D01*
X785901D01*
X785271Y85691D01*
Y85062D01*
X785901Y84432D01*
X787160D01*
X787790Y83802D01*
Y83172D01*
X787160Y82543D01*
X785901D01*
X785271Y83172D01*
X789049Y86321D02*
Y82543D01*
Y84432D01*
X789679Y85062D01*
X790938D01*
X791568Y84432D01*
Y82543D01*
X793457Y85062D02*
X794717D01*
X795346Y84432D01*
Y82543D01*
X793457D01*
X792828Y83172D01*
X793457Y83802D01*
X795346D01*
X796606Y81283D02*
Y85062D01*
X798495D01*
X799125Y84432D01*
Y83172D01*
X798495Y82543D01*
X796606D01*
X802273D02*
X801014D01*
X800384Y83172D01*
Y84432D01*
X801014Y85062D01*
X802273D01*
X802903Y84432D01*
Y83802D01*
X800384D01*
X738984Y86321D02*
Y83802D01*
X740244Y82543D01*
X741503Y83802D01*
Y86321D01*
X742763Y82543D02*
X744022D01*
X743393D01*
Y85062D01*
X742763D01*
X746541D02*
X747800D01*
X748430Y84432D01*
Y82543D01*
X746541D01*
X745911Y83172D01*
X746541Y83802D01*
X748430D01*
X749690Y82543D02*
X752209Y85062D01*
X753468Y82543D02*
Y86321D01*
X755357D01*
X755987Y85691D01*
Y84432D01*
X755357Y83802D01*
X753468D01*
X757876Y85062D02*
X759135D01*
X759765Y84432D01*
Y82543D01*
X757876D01*
X757246Y83172D01*
X757876Y83802D01*
X759765D01*
X763543Y86321D02*
Y82543D01*
X761654D01*
X761025Y83172D01*
Y84432D01*
X761654Y85062D01*
X763543D01*
X660137Y86321D02*
Y82543D01*
X662026D01*
X662655Y83172D01*
Y85691D01*
X662026Y86321D01*
X660137D01*
X663915Y85062D02*
Y82543D01*
Y83802D01*
X664545Y84432D01*
X665174Y85062D01*
X665804D01*
X667693Y82543D02*
X668953D01*
X668323D01*
Y85062D01*
X667693D01*
X670842Y82543D02*
X672101D01*
X671472D01*
Y86321D01*
X670842D01*
X673990Y82543D02*
X675250D01*
X674620D01*
Y86321D01*
X673990D01*
X680917D02*
Y82543D01*
X683436D01*
X685325Y85062D02*
X686585D01*
X687215Y84432D01*
Y82543D01*
X685325D01*
X684696Y83172D01*
X685325Y83802D01*
X687215D01*
X688474Y85062D02*
Y83172D01*
X689104Y82543D01*
X690993D01*
Y81913D01*
X690363Y81283D01*
X689733D01*
X690993Y82543D02*
Y85062D01*
X694141Y82543D02*
X692882D01*
X692252Y83172D01*
Y84432D01*
X692882Y85062D01*
X694141D01*
X694771Y84432D01*
Y83802D01*
X692252D01*
X696031Y85062D02*
Y82543D01*
Y83802D01*
X696660Y84432D01*
X697290Y85062D01*
X697920D01*
X703587Y82543D02*
Y86321D01*
X705476D01*
X706106Y85691D01*
Y84432D01*
X705476Y83802D01*
X703587D01*
X707995Y85062D02*
X709255D01*
X709884Y84432D01*
Y82543D01*
X707995D01*
X707366Y83172D01*
X707995Y83802D01*
X709884D01*
X711144Y82543D02*
X712403D01*
X711773D01*
Y85062D01*
X711144D01*
X714292D02*
Y82543D01*
Y83802D01*
X714922Y84432D01*
X715552Y85062D01*
X716182D01*
X621407Y86321D02*
Y82543D01*
Y84432D01*
X623926D01*
Y86321D01*
Y82543D01*
X625815D02*
X627074D01*
X627704Y83172D01*
Y84432D01*
X627074Y85062D01*
X625815D01*
X625185Y84432D01*
Y83172D01*
X625815Y82543D01*
X628963D02*
X630223D01*
X629593D01*
Y86321D01*
X628963D01*
X634001Y82543D02*
X632742D01*
X632112Y83172D01*
Y84432D01*
X632742Y85062D01*
X634001D01*
X634631Y84432D01*
Y83802D01*
X632112D01*
X639669Y86321D02*
X642188D01*
X640928D01*
Y82543D01*
X643447Y85062D02*
Y83172D01*
X644077Y82543D01*
X645966D01*
Y81913D01*
X645336Y81283D01*
X644706D01*
X645966Y82543D02*
Y85062D01*
X647225Y81283D02*
Y85062D01*
X649114D01*
X649744Y84432D01*
Y83172D01*
X649114Y82543D01*
X647225D01*
X652893D02*
X651633D01*
X651004Y83172D01*
Y84432D01*
X651633Y85062D01*
X652893D01*
X653522Y84432D01*
Y83802D01*
X651004D01*
X594642Y82543D02*
Y86321D01*
X596531D01*
X597160Y85691D01*
Y84432D01*
X596531Y83802D01*
X594642D01*
X598420Y82543D02*
X599679D01*
X599050D01*
Y86321D01*
X598420D01*
X602198Y85062D02*
X603458D01*
X604087Y84432D01*
Y82543D01*
X602198D01*
X601569Y83172D01*
X602198Y83802D01*
X604087D01*
X605977Y85691D02*
Y85062D01*
X605347D01*
X606606D01*
X605977D01*
Y83172D01*
X606606Y82543D01*
X610385D02*
X609125D01*
X608496Y83172D01*
Y84432D01*
X609125Y85062D01*
X610385D01*
X611014Y84432D01*
Y83802D01*
X608496D01*
X614793Y86321D02*
Y82543D01*
X612903D01*
X612274Y83172D01*
Y84432D01*
X612903Y85062D01*
X614793D01*
X536784Y86321D02*
Y82543D01*
Y84432D01*
X539303D01*
Y86321D01*
Y82543D01*
X541192D02*
X542452D01*
X543082Y83172D01*
Y84432D01*
X542452Y85062D01*
X541192D01*
X540563Y84432D01*
Y83172D01*
X541192Y82543D01*
X544341D02*
X545601D01*
X544971D01*
Y86321D01*
X544341D01*
X549379Y82543D02*
X548119D01*
X547490Y83172D01*
Y84432D01*
X548119Y85062D01*
X549379D01*
X550008Y84432D01*
Y83802D01*
X547490D01*
X557565Y85691D02*
X556935Y86321D01*
X555676D01*
X555046Y85691D01*
Y85062D01*
X555676Y84432D01*
X556935D01*
X557565Y83802D01*
Y83172D01*
X556935Y82543D01*
X555676D01*
X555046Y83172D01*
X558825Y82543D02*
X560084D01*
X559454D01*
Y85062D01*
X558825D01*
X561973D02*
X564492D01*
X561973Y82543D01*
X564492D01*
X567641D02*
X566381D01*
X565752Y83172D01*
Y84432D01*
X566381Y85062D01*
X567641D01*
X568270Y84432D01*
Y83802D01*
X565752D01*
X511358Y85691D02*
X510728Y86321D01*
X509469D01*
X508839Y85691D01*
Y83172D01*
X509469Y82543D01*
X510728D01*
X511358Y83172D01*
X513247Y82543D02*
X514506D01*
X515136Y83172D01*
Y84432D01*
X514506Y85062D01*
X513247D01*
X512617Y84432D01*
Y83172D01*
X513247Y82543D01*
X516395Y85062D02*
Y83172D01*
X517025Y82543D01*
X518914D01*
Y85062D01*
X520174Y82543D02*
Y85062D01*
X522063D01*
X522693Y84432D01*
Y82543D01*
X524582Y85691D02*
Y85062D01*
X523952D01*
X525211D01*
X524582D01*
Y83172D01*
X525211Y82543D01*
X484592Y85691D02*
X483963Y86321D01*
X482703D01*
X482074Y85691D01*
Y85062D01*
X482703Y84432D01*
X483963D01*
X484592Y83802D01*
Y83172D01*
X483963Y82543D01*
X482703D01*
X482074Y83172D01*
X485852Y85062D02*
Y83172D01*
X486482Y82543D01*
X488371D01*
Y81913D01*
X487741Y81283D01*
X487111D01*
X488371Y82543D02*
Y85062D01*
X489630Y82543D02*
Y85062D01*
X490260D01*
X490890Y84432D01*
Y82543D01*
Y84432D01*
X491519Y85062D01*
X492149Y84432D01*
Y82543D01*
X493409Y86321D02*
Y82543D01*
X495298D01*
X495927Y83172D01*
Y83802D01*
Y84432D01*
X495298Y85062D01*
X493409D01*
X497817Y82543D02*
X499076D01*
X499706Y83172D01*
Y84432D01*
X499076Y85062D01*
X497817D01*
X497187Y84432D01*
Y83172D01*
X497817Y82543D01*
X500965D02*
X502225D01*
X501595D01*
Y86321D01*
X500965D01*
M02*
